# MagicaVoxel @ Ephtracy

# group
o 

# material
mtllib Boat.mtl
usemtl palette

# normals
vn -1 0 0
vn 1 0 0
vn 0 0 1
vn 0 0 -1
vn 0 -1 0
vn 0 1 0

# texcoords
vt 0.0332031 0.5
vt 0.162109 0.5

# verts
v -0.7 -0.9 0.3
v -0.7 -0.9 -0.7
v -0.7 -0.7 0.3
v -0.7 -0.7 -0.7
v -0.7 -0.4 0.3
v -0.7 -0.4 -0.7
v -0.6 -0.9 0.4
v -0.6 -0.9 0.3
v -0.6 -0.9 -0.7
v -0.6 -0.9 -0.8
v -0.6 -0.8 0.4
v -0.6 -0.8 0.3
v -0.6 -0.7 0.3
v -0.6 -0.7 -0.7
v -0.6 -0.7 -0.8
v -0.6 -0.4 0.4
v -0.6 -0.4 0.3
v -0.6 -0.4 -0.7
v -0.6 -0.4 -0.8
v -0.5 -0.9 0.5
v -0.5 -0.9 0.4
v -0.5 -0.9 -0.8
v -0.5 -0.9 -0.9
v -0.5 -0.8 0.5
v -0.5 -0.8 0.4
v -0.5 -0.7 -0.8
v -0.5 -0.7 -0.9
v -0.5 -0.4 0.5
v -0.5 -0.4 0.4
v -0.5 -0.4 -0.8
v -0.5 -0.4 -0.9
v -0.4 -0.8 0.6
v -0.4 -0.8 0.5
v -0.4 -0.4 0.6
v -0.4 -0.4 0.5
v -0.4 -0.4 0.3
v -0.4 -0.4 0
v -0.4 -0.2 0.3
v -0.4 -0.2 0
v -0.3 -0.9 0.6
v -0.3 -0.9 0.5
v -0.3 -0.8 0.7
v -0.3 -0.8 0.6
v -0.3 -0.8 0.5
v -0.3 -0.4 0.7
v -0.3 -0.4 0.6
v -0.3 -0.4 0.4
v -0.3 -0.4 0.3
v -0.3 -0.3 0.4
v -0.3 -0.3 0.3
v -0.3 -0.2 0.2
v -0.3 -0.2 0.1
v -0.3 -0.1 0.2
v -0.3 -0.1 0.1
v -0.2 -0.7 0.8
v -0.2 -0.7 0.7
v -0.2 -0.4 0.8
v -0.2 -0.4 0.7
v -0.1 -0.6 0.9
v -0.1 -0.6 0.8
v -0.1 -0.4 0.9
v -0.1 -0.4 0.8
v 0.3 -0.7 0.2
v 0.3 -0.7 -0.7
v 0.3 -0.5 0
v 0.3 -0.5 -0.6
v 0.3 -0.4 0.2
v 0.3 -0.4 0
v 0.3 -0.4 -0.6
v 0.3 -0.4 -0.7
v 0.3 -0.2 0.2
v 0.3 -0.2 0.1
v 0.3 -0.2 0
v 0.5 -0.5 0
v 0.5 -0.5 -0.6
v 0.5 -0.4 0
v 0.5 -0.4 -0.6
v -0.5 -0.5 0
v -0.5 -0.5 -0.6
v -0.5 -0.4 0
v -0.5 -0.4 -0.6
v -0.3 -0.7 0.2
v -0.3 -0.7 -0.7
v -0.3 -0.5 0
v -0.3 -0.5 -0.6
v -0.3 -0.4 0.2
v -0.3 -0.4 0
v -0.3 -0.4 -0.6
v -0.3 -0.4 -0.7
v -0.3 -0.2 0.2
v -0.3 -0.2 0.1
v -0.3 -0.2 0
v 0.1 -0.6 0.9
v 0.1 -0.6 0.8
v 0.1 -0.4 0.9
v 0.1 -0.4 0.8
v 0.2 -0.7 0.8
v 0.2 -0.7 0.7
v 0.2 -0.4 0.8
v 0.2 -0.4 0.7
v 0.3 -0.9 0.6
v 0.3 -0.9 0.5
v 0.3 -0.8 0.7
v 0.3 -0.8 0.6
v 0.3 -0.8 0.5
v 0.3 -0.4 0.7
v 0.3 -0.4 0.6
v 0.3 -0.4 0.4
v 0.3 -0.4 0.3
v 0.3 -0.3 0.4
v 0.3 -0.3 0.3
v 0.3 -0.2 0.2
v 0.3 -0.2 0.1
v 0.3 -0.1 0.2
v 0.3 -0.1 0.1
v 0.4 -0.8 0.6
v 0.4 -0.8 0.5
v 0.4 -0.4 0.6
v 0.4 -0.4 0.5
v 0.4 -0.4 0.3
v 0.4 -0.4 0
v 0.4 -0.2 0.3
v 0.4 -0.2 0
v 0.5 -0.9 0.5
v 0.5 -0.9 0.4
v 0.5 -0.9 -0.8
v 0.5 -0.9 -0.9
v 0.5 -0.8 0.5
v 0.5 -0.8 0.4
v 0.5 -0.7 -0.8
v 0.5 -0.7 -0.9
v 0.5 -0.4 0.5
v 0.5 -0.4 0.4
v 0.5 -0.4 -0.8
v 0.5 -0.4 -0.9
v 0.6 -0.9 0.4
v 0.6 -0.9 0.3
v 0.6 -0.9 -0.7
v 0.6 -0.9 -0.8
v 0.6 -0.8 0.4
v 0.6 -0.8 0.3
v 0.6 -0.7 0.3
v 0.6 -0.7 -0.7
v 0.6 -0.7 -0.8
v 0.6 -0.4 0.4
v 0.6 -0.4 0.3
v 0.6 -0.4 -0.7
v 0.6 -0.4 -0.8
v 0.7 -0.9 0.3
v 0.7 -0.9 -0.7
v 0.7 -0.7 0.3
v 0.7 -0.7 -0.7
v 0.7 -0.4 0.3
v 0.7 -0.4 -0.7
v -0.1 -0.6 0.9
v -0.1 -0.4 0.9
v 0.1 -0.6 0.9
v 0.1 -0.4 0.9
v -0.2 -0.7 0.8
v -0.2 -0.4 0.8
v -0.1 -0.6 0.8
v -0.1 -0.4 0.8
v 0.1 -0.6 0.8
v 0.1 -0.4 0.8
v 0.2 -0.7 0.8
v 0.2 -0.4 0.8
v -0.3 -0.8 0.7
v -0.3 -0.4 0.7
v -0.2 -0.7 0.7
v -0.2 -0.4 0.7
v 0.2 -0.7 0.7
v 0.2 -0.4 0.7
v 0.3 -0.8 0.7
v 0.3 -0.4 0.7
v -0.4 -0.8 0.6
v -0.4 -0.4 0.6
v -0.3 -0.9 0.6
v -0.3 -0.8 0.6
v -0.3 -0.4 0.6
v 0.3 -0.9 0.6
v 0.3 -0.8 0.6
v 0.3 -0.4 0.6
v 0.4 -0.8 0.6
v 0.4 -0.4 0.6
v -0.5 -0.9 0.5
v -0.5 -0.8 0.5
v -0.5 -0.4 0.5
v -0.4 -0.8 0.5
v -0.4 -0.4 0.5
v -0.3 -0.9 0.5
v -0.3 -0.8 0.5
v 0.3 -0.9 0.5
v 0.3 -0.8 0.5
v 0.4 -0.8 0.5
v 0.4 -0.4 0.5
v 0.5 -0.9 0.5
v 0.5 -0.8 0.5
v 0.5 -0.4 0.5
v -0.6 -0.9 0.4
v -0.6 -0.8 0.4
v -0.6 -0.4 0.4
v -0.5 -0.9 0.4
v -0.5 -0.8 0.4
v -0.5 -0.4 0.4
v -0.3 -0.4 0.4
v -0.3 -0.3 0.4
v 0.3 -0.4 0.4
v 0.3 -0.3 0.4
v 0.5 -0.9 0.4
v 0.5 -0.8 0.4
v 0.5 -0.4 0.4
v 0.6 -0.9 0.4
v 0.6 -0.8 0.4
v 0.6 -0.4 0.4
v -0.7 -0.9 0.3
v -0.7 -0.7 0.3
v -0.7 -0.4 0.3
v -0.6 -0.9 0.3
v -0.6 -0.8 0.3
v -0.6 -0.7 0.3
v -0.6 -0.4 0.3
v -0.4 -0.4 0.3
v -0.4 -0.2 0.3
v -0.3 -0.4 0.3
v -0.3 -0.3 0.3
v 0.3 -0.4 0.3
v 0.3 -0.3 0.3
v 0.4 -0.4 0.3
v 0.4 -0.2 0.3
v 0.6 -0.9 0.3
v 0.6 -0.8 0.3
v 0.6 -0.7 0.3
v 0.6 -0.4 0.3
v 0.7 -0.9 0.3
v 0.7 -0.7 0.3
v 0.7 -0.4 0.3
v -0.3 -0.2 0.2
v -0.3 -0.1 0.2
v 0.3 -0.2 0.2
v 0.3 -0.1 0.2
v -0.5 -0.5 -0.6
v -0.5 -0.4 -0.6
v -0.3 -0.5 -0.6
v -0.3 -0.4 -0.6
v 0.3 -0.5 -0.6
v 0.3 -0.4 -0.6
v 0.5 -0.5 -0.6
v 0.5 -0.4 -0.6
v -0.3 -0.7 -0.7
v -0.3 -0.4 -0.7
v 0.3 -0.7 -0.7
v 0.3 -0.4 -0.7
v -0.3 -0.7 0.2
v -0.3 -0.4 0.2
v -0.3 -0.2 0.2
v 0.3 -0.7 0.2
v 0.3 -0.4 0.2
v 0.3 -0.2 0.2
v -0.3 -0.2 0.1
v -0.3 -0.1 0.1
v 0.3 -0.2 0.1
v 0.3 -0.1 0.1
v -0.5 -0.5 0
v -0.5 -0.4 0
v -0.4 -0.4 0
v -0.4 -0.2 0
v -0.3 -0.5 0
v -0.3 -0.4 0
v -0.3 -0.2 0
v 0.3 -0.5 0
v 0.3 -0.4 0
v 0.3 -0.2 0
v 0.4 -0.4 0
v 0.4 -0.2 0
v 0.5 -0.5 0
v 0.5 -0.4 0
v -0.7 -0.9 -0.7
v -0.7 -0.7 -0.7
v -0.7 -0.4 -0.7
v -0.6 -0.9 -0.7
v -0.6 -0.7 -0.7
v -0.6 -0.4 -0.7
v 0.6 -0.9 -0.7
v 0.6 -0.7 -0.7
v 0.6 -0.4 -0.7
v 0.7 -0.9 -0.7
v 0.7 -0.7 -0.7
v 0.7 -0.4 -0.7
v -0.6 -0.9 -0.8
v -0.6 -0.7 -0.8
v -0.6 -0.4 -0.8
v -0.5 -0.9 -0.8
v -0.5 -0.7 -0.8
v -0.5 -0.4 -0.8
v 0.5 -0.9 -0.8
v 0.5 -0.7 -0.8
v 0.5 -0.4 -0.8
v 0.6 -0.9 -0.8
v 0.6 -0.7 -0.8
v 0.6 -0.4 -0.8
v -0.5 -0.9 -0.9
v -0.5 -0.7 -0.9
v -0.5 -0.4 -0.9
v 0.5 -0.9 -0.9
v 0.5 -0.7 -0.9
v 0.5 -0.4 -0.9
v -0.3 -0.9 0.6
v 0.3 -0.9 0.6
v -0.5 -0.9 0.5
v -0.3 -0.9 0.5
v 0.3 -0.9 0.5
v 0.5 -0.9 0.5
v -0.6 -0.9 0.4
v -0.5 -0.9 0.4
v 0.5 -0.9 0.4
v 0.6 -0.9 0.4
v -0.7 -0.9 0.3
v -0.6 -0.9 0.3
v 0.6 -0.9 0.3
v 0.7 -0.9 0.3
v -0.7 -0.9 -0.7
v -0.6 -0.9 -0.7
v 0.6 -0.9 -0.7
v 0.7 -0.9 -0.7
v -0.6 -0.9 -0.8
v -0.5 -0.9 -0.8
v 0.5 -0.9 -0.8
v 0.6 -0.9 -0.8
v -0.5 -0.9 -0.9
v 0.5 -0.9 -0.9
v -0.3 -0.8 0.7
v 0.3 -0.8 0.7
v -0.4 -0.8 0.6
v -0.3 -0.8 0.6
v 0.3 -0.8 0.6
v 0.4 -0.8 0.6
v -0.4 -0.8 0.5
v -0.3 -0.8 0.5
v 0.3 -0.8 0.5
v 0.4 -0.8 0.5
v -0.2 -0.7 0.8
v 0.2 -0.7 0.8
v -0.2 -0.7 0.7
v 0.2 -0.7 0.7
v -0.1 -0.6 0.9
v 0.1 -0.6 0.9
v -0.1 -0.6 0.8
v 0.1 -0.6 0.8
v -0.3 -0.2 0.2
v 0.3 -0.2 0.2
v -0.3 -0.2 0.1
v 0.3 -0.2 0.1
v -0.3 -0.7 0.2
v 0.3 -0.7 0.2
v -0.3 -0.7 -0.7
v 0.3 -0.7 -0.7
v -0.5 -0.5 0
v -0.3 -0.5 0
v 0.3 -0.5 0
v 0.5 -0.5 0
v -0.5 -0.5 -0.6
v -0.3 -0.5 -0.6
v 0.3 -0.5 -0.6
v 0.5 -0.5 -0.6
v -0.1 -0.4 0.9
v 0.1 -0.4 0.9
v -0.2 -0.4 0.8
v -0.1 -0.4 0.8
v 0.1 -0.4 0.8
v 0.2 -0.4 0.8
v -0.3 -0.4 0.7
v -0.2 -0.4 0.7
v 0.2 -0.4 0.7
v 0.3 -0.4 0.7
v -0.4 -0.4 0.6
v -0.3 -0.4 0.6
v 0.3 -0.4 0.6
v 0.4 -0.4 0.6
v -0.5 -0.4 0.5
v -0.4 -0.4 0.5
v 0.4 -0.4 0.5
v 0.5 -0.4 0.5
v -0.6 -0.4 0.4
v -0.5 -0.4 0.4
v -0.3 -0.4 0.4
v 0.3 -0.4 0.4
v 0.5 -0.4 0.4
v 0.6 -0.4 0.4
v -0.7 -0.4 0.3
v -0.6 -0.4 0.3
v -0.4 -0.4 0.3
v -0.3 -0.4 0.3
v 0.3 -0.4 0.3
v 0.4 -0.4 0.3
v 0.6 -0.4 0.3
v 0.7 -0.4 0.3
v -0.5 -0.4 0
v -0.4 -0.4 0
v 0.4 -0.4 0
v 0.5 -0.4 0
v -0.5 -0.4 -0.6
v -0.3 -0.4 -0.6
v 0.3 -0.4 -0.6
v 0.5 -0.4 -0.6
v -0.7 -0.4 -0.7
v -0.6 -0.4 -0.7
v -0.3 -0.4 -0.7
v 0.3 -0.4 -0.7
v 0.6 -0.4 -0.7
v 0.7 -0.4 -0.7
v -0.6 -0.4 -0.8
v -0.5 -0.4 -0.8
v 0.5 -0.4 -0.8
v 0.6 -0.4 -0.8
v -0.5 -0.4 -0.9
v 0.5 -0.4 -0.9
v -0.3 -0.3 0.4
v 0.3 -0.3 0.4
v -0.3 -0.3 0.3
v 0.3 -0.3 0.3
v -0.4 -0.2 0.3
v 0.4 -0.2 0.3
v -0.3 -0.2 0.2
v 0.3 -0.2 0.2
v -0.3 -0.2 0.1
v 0.3 -0.2 0.1
v -0.4 -0.2 0
v -0.3 -0.2 0
v 0.3 -0.2 0
v 0.4 -0.2 0
v -0.3 -0.1 0.2
v 0.3 -0.1 0.2
v -0.3 -0.1 0.1
v 0.3 -0.1 0.1

# faces
f 3/1/1 2/1/1 1/1/1
f 4/1/1 2/1/1 3/1/1
f 5/2/1 4/2/1 3/2/1
f 6/2/1 4/2/1 5/2/1
f 11/1/1 8/1/1 7/1/1
f 12/1/1 8/1/1 11/1/1
f 13/2/1 12/2/1 11/2/1
f 14/1/1 10/1/1 9/1/1
f 15/1/1 10/1/1 14/1/1
f 16/2/1 13/2/1 11/2/1
f 17/2/1 13/2/1 16/2/1
f 18/2/1 15/2/1 14/2/1
f 19/2/1 15/2/1 18/2/1
f 24/1/1 21/1/1 20/1/1
f 25/1/1 21/1/1 24/1/1
f 26/1/1 23/1/1 22/1/1
f 27/1/1 23/1/1 26/1/1
f 28/2/1 25/2/1 24/2/1
f 29/2/1 25/2/1 28/2/1
f 30/2/1 27/2/1 26/2/1
f 31/2/1 27/2/1 30/2/1
f 34/2/1 33/2/1 32/2/1
f 35/2/1 33/2/1 34/2/1
f 38/1/1 37/1/1 36/1/1
f 39/1/1 37/1/1 38/1/1
f 43/1/1 41/1/1 40/1/1
f 44/1/1 41/1/1 43/1/1
f 45/2/1 43/2/1 42/2/1
f 46/2/1 43/2/1 45/2/1
f 49/1/1 48/1/1 47/1/1
f 50/1/1 48/1/1 49/1/1
f 53/1/1 52/1/1 51/1/1
f 54/1/1 52/1/1 53/1/1
f 57/2/1 56/2/1 55/2/1
f 58/2/1 56/2/1 57/2/1
f 61/2/1 60/2/1 59/2/1
f 62/2/1 60/2/1 61/2/1
f 65/2/1 64/2/1 63/2/1
f 66/2/1 64/2/1 65/2/1
f 67/2/1 65/2/1 63/2/1
f 68/2/1 65/2/1 67/2/1
f 69/2/1 64/2/1 66/2/1
f 70/2/1 64/2/1 69/2/1
f 71/1/1 68/1/1 67/1/1
f 72/1/1 68/1/1 71/1/1
f 73/1/1 68/1/1 72/1/1
f 76/2/1 75/2/1 74/2/1
f 77/2/1 75/2/1 76/2/1
f 78/2/2 79/2/2 80/2/2
f 80/2/2 79/2/2 81/2/2
f 82/2/2 83/2/2 84/2/2
f 84/2/2 83/2/2 85/2/2
f 82/2/2 84/2/2 86/2/2
f 86/2/2 84/2/2 87/2/2
f 85/2/2 83/2/2 88/2/2
f 88/2/2 83/2/2 89/2/2
f 86/1/2 87/1/2 90/1/2
f 90/1/2 87/1/2 91/1/2
f 91/1/2 87/1/2 92/1/2
f 93/2/2 94/2/2 95/2/2
f 95/2/2 94/2/2 96/2/2
f 97/2/2 98/2/2 99/2/2
f 99/2/2 98/2/2 100/2/2
f 101/1/2 102/1/2 104/1/2
f 104/1/2 102/1/2 105/1/2
f 103/2/2 104/2/2 106/2/2
f 106/2/2 104/2/2 107/2/2
f 108/1/2 109/1/2 110/1/2
f 110/1/2 109/1/2 111/1/2
f 112/1/2 113/1/2 114/1/2
f 114/1/2 113/1/2 115/1/2
f 116/2/2 117/2/2 118/2/2
f 118/2/2 117/2/2 119/2/2
f 120/1/2 121/1/2 122/1/2
f 122/1/2 121/1/2 123/1/2
f 124/1/2 125/1/2 128/1/2
f 128/1/2 125/1/2 129/1/2
f 126/1/2 127/1/2 130/1/2
f 130/1/2 127/1/2 131/1/2
f 128/2/2 129/2/2 132/2/2
f 132/2/2 129/2/2 133/2/2
f 130/2/2 131/2/2 134/2/2
f 134/2/2 131/2/2 135/2/2
f 136/1/2 137/1/2 140/1/2
f 140/1/2 137/1/2 141/1/2
f 140/2/2 141/2/2 142/2/2
f 138/1/2 139/1/2 143/1/2
f 143/1/2 139/1/2 144/1/2
f 140/2/2 142/2/2 145/2/2
f 145/2/2 142/2/2 146/2/2
f 143/2/2 144/2/2 147/2/2
f 147/2/2 144/2/2 148/2/2
f 149/1/2 150/1/2 151/1/2
f 151/1/2 150/1/2 152/1/2
f 151/2/2 152/2/2 153/2/2
f 153/2/2 152/2/2 154/2/2
f 157/2/3 156/2/3 155/2/3
f 158/2/3 156/2/3 157/2/3
f 161/2/3 160/2/3 159/2/3
f 162/2/3 160/2/3 161/2/3
f 163/2/3 161/2/3 159/2/3
f 165/2/3 163/2/3 159/2/3
f 165/2/3 164/2/3 163/2/3
f 166/2/3 164/2/3 165/2/3
f 169/2/3 168/2/3 167/2/3
f 170/2/3 168/2/3 169/2/3
f 171/2/3 169/2/3 167/2/3
f 173/2/3 171/2/3 167/2/3
f 173/2/3 172/2/3 171/2/3
f 174/2/3 172/2/3 173/2/3
f 178/2/3 176/2/3 175/2/3
f 179/2/3 176/2/3 178/2/3
f 180/1/3 178/1/3 177/1/3
f 181/1/3 178/1/3 180/1/3
f 183/2/3 182/2/3 181/2/3
f 184/2/3 182/2/3 183/2/3
f 188/1/3 186/1/3 185/1/3
f 188/2/3 187/2/3 186/2/3
f 189/2/3 187/2/3 188/2/3
f 190/1/3 188/1/3 185/1/3
f 191/1/3 188/1/3 190/1/3
f 194/1/3 193/1/3 192/1/3
f 196/1/3 194/1/3 192/1/3
f 197/2/3 195/2/3 194/2/3
f 197/1/3 194/1/3 196/1/3
f 198/2/3 195/2/3 197/2/3
f 202/1/3 200/1/3 199/1/3
f 203/2/3 201/2/3 200/2/3
f 203/1/3 200/1/3 202/1/3
f 204/2/3 201/2/3 203/2/3
f 207/1/3 206/1/3 205/1/3
f 208/1/3 206/1/3 207/1/3
f 212/1/3 210/1/3 209/1/3
f 213/2/3 211/2/3 210/2/3
f 213/1/3 210/1/3 212/1/3
f 214/2/3 211/2/3 213/2/3
f 218/1/3 216/1/3 215/1/3
f 219/1/3 216/1/3 218/1/3
f 220/2/3 217/2/3 216/2/3
f 220/1/3 216/1/3 219/1/3
f 221/2/3 217/2/3 220/2/3
f 224/1/3 223/1/3 222/1/3
f 225/1/3 223/1/3 224/1/3
f 227/1/3 223/1/3 225/1/3
f 228/1/3 227/1/3 226/1/3
f 229/1/3 223/1/3 227/1/3
f 229/1/3 227/1/3 228/1/3
f 234/1/3 231/1/3 230/1/3
f 234/1/3 232/1/3 231/1/3
f 235/2/3 233/2/3 232/2/3
f 235/1/3 232/1/3 234/1/3
f 236/2/3 233/2/3 235/2/3
f 239/1/3 238/1/3 237/1/3
f 240/1/3 238/1/3 239/1/3
f 243/2/3 242/2/3 241/2/3
f 244/2/3 242/2/3 243/2/3
f 247/2/3 246/2/3 245/2/3
f 248/2/3 246/2/3 247/2/3
f 251/2/3 250/2/3 249/2/3
f 252/2/3 250/2/3 251/2/3
f 253/2/4 254/2/4 256/2/4
f 254/1/4 255/1/4 257/1/4
f 256/2/4 254/2/4 257/2/4
f 257/1/4 255/1/4 258/1/4
f 259/1/4 260/1/4 261/1/4
f 261/1/4 260/1/4 262/1/4
f 263/2/4 264/2/4 265/2/4
f 263/2/4 265/2/4 267/2/4
f 265/1/4 266/1/4 268/1/4
f 267/2/4 265/2/4 268/2/4
f 268/1/4 266/1/4 269/1/4
f 270/2/4 271/2/4 273/2/4
f 271/1/4 272/1/4 273/1/4
f 273/1/4 272/1/4 274/1/4
f 270/2/4 273/2/4 275/2/4
f 275/2/4 273/2/4 276/2/4
f 277/1/4 278/1/4 280/1/4
f 278/2/4 279/2/4 281/2/4
f 280/1/4 278/1/4 281/1/4
f 281/2/4 279/2/4 282/2/4
f 283/1/4 284/1/4 286/1/4
f 284/2/4 285/2/4 287/2/4
f 286/1/4 284/1/4 287/1/4
f 287/2/4 285/2/4 288/2/4
f 289/1/4 290/1/4 292/1/4
f 290/2/4 291/2/4 293/2/4
f 292/1/4 290/1/4 293/1/4
f 293/2/4 291/2/4 294/2/4
f 295/1/4 296/1/4 298/1/4
f 296/2/4 297/2/4 299/2/4
f 298/1/4 296/1/4 299/1/4
f 299/2/4 297/2/4 300/2/4
f 301/1/4 302/1/4 304/1/4
f 302/2/4 303/2/4 305/2/4
f 304/1/4 302/1/4 305/1/4
f 305/2/4 303/2/4 306/2/4
f 310/1/5 308/1/5 307/1/5
f 311/1/5 308/1/5 310/1/5
f 314/1/5 310/1/5 309/1/5
f 314/1/5 312/1/5 311/1/5
f 314/1/5 311/1/5 310/1/5
f 315/1/5 312/1/5 314/1/5
f 318/1/5 314/1/5 313/1/5
f 318/1/5 316/1/5 315/1/5
f 318/1/5 315/1/5 314/1/5
f 319/1/5 316/1/5 318/1/5
f 321/1/5 318/1/5 317/1/5
f 321/1/5 320/1/5 319/1/5
f 321/1/5 319/1/5 318/1/5
f 322/1/5 320/1/5 321/1/5
f 323/1/5 320/1/5 322/1/5
f 324/1/5 320/1/5 323/1/5
f 325/1/5 323/1/5 322/1/5
f 326/1/5 323/1/5 325/1/5
f 327/1/5 323/1/5 326/1/5
f 328/1/5 323/1/5 327/1/5
f 329/1/5 327/1/5 326/1/5
f 330/1/5 327/1/5 329/1/5
f 334/2/5 332/2/5 331/2/5
f 335/2/5 332/2/5 334/2/5
f 337/2/5 334/2/5 333/2/5
f 338/2/5 334/2/5 337/2/5
f 339/2/5 336/2/5 335/2/5
f 340/2/5 336/2/5 339/2/5
f 343/2/5 342/2/5 341/2/5
f 344/2/5 342/2/5 343/2/5
f 347/2/5 346/2/5 345/2/5
f 348/2/5 346/2/5 347/2/5
f 351/1/5 350/1/5 349/1/5
f 352/1/5 350/1/5 351/1/5
f 353/1/6 354/1/6 355/1/6
f 355/1/6 354/1/6 356/1/6
f 357/2/6 358/2/6 361/2/6
f 361/2/6 358/2/6 362/2/6
f 359/2/6 360/2/6 363/2/6
f 363/2/6 360/2/6 364/2/6
f 365/2/6 366/2/6 368/2/6
f 368/2/6 366/2/6 369/2/6
f 367/2/6 368/2/6 372/2/6
f 369/2/6 370/2/6 372/2/6
f 368/2/6 369/2/6 372/2/6
f 372/2/6 370/2/6 373/2/6
f 371/2/6 372/2/6 376/2/6
f 373/2/6 374/2/6 376/2/6
f 372/2/6 373/2/6 376/2/6
f 376/2/6 374/2/6 377/2/6
f 375/2/6 376/2/6 380/2/6
f 377/2/6 378/2/6 380/2/6
f 376/2/6 377/2/6 380/2/6
f 380/2/6 378/2/6 381/2/6
f 379/2/6 380/2/6 384/2/6
f 381/2/6 382/2/6 384/2/6
f 380/2/6 381/2/6 384/2/6
f 384/2/6 382/2/6 385/2/6
f 385/2/6 382/2/6 386/2/6
f 386/2/6 382/2/6 387/2/6
f 383/2/6 384/2/6 390/2/6
f 384/2/6 385/2/6 390/2/6
f 390/2/6 385/2/6 391/2/6
f 391/2/6 385/2/6 392/2/6
f 386/2/6 387/2/6 393/2/6
f 387/2/6 388/2/6 393/2/6
f 393/2/6 388/2/6 394/2/6
f 394/2/6 388/2/6 395/2/6
f 390/2/6 391/2/6 397/2/6
f 389/2/6 390/2/6 397/2/6
f 397/2/6 391/2/6 398/2/6
f 395/2/6 396/2/6 399/2/6
f 394/2/6 395/2/6 399/2/6
f 399/2/6 396/2/6 400/2/6
f 389/2/6 397/2/6 401/2/6
f 400/2/6 396/2/6 404/2/6
f 401/2/6 402/2/6 405/2/6
f 389/2/6 401/2/6 405/2/6
f 405/2/6 402/2/6 406/2/6
f 406/2/6 402/2/6 407/2/6
f 403/2/6 404/2/6 408/2/6
f 404/2/6 396/2/6 409/2/6
f 408/2/6 404/2/6 409/2/6
f 409/2/6 396/2/6 410/2/6
f 406/2/6 407/2/6 411/2/6
f 407/2/6 408/2/6 411/2/6
f 408/2/6 409/2/6 411/2/6
f 411/2/6 409/2/6 412/2/6
f 412/2/6 409/2/6 413/2/6
f 413/2/6 409/2/6 414/2/6
f 412/2/6 413/2/6 415/2/6
f 415/2/6 413/2/6 416/2/6
f 417/1/6 418/1/6 419/1/6
f 419/1/6 418/1/6 420/1/6
f 421/1/6 422/1/6 423/1/6
f 423/1/6 422/1/6 424/1/6
f 421/1/6 423/1/6 425/1/6
f 424/1/6 422/1/6 426/1/6
f 421/1/6 425/1/6 427/1/6
f 427/1/6 425/1/6 428/1/6
f 426/1/6 422/1/6 429/1/6
f 429/1/6 422/1/6 430/1/6
f 431/1/6 432/1/6 433/1/6
f 433/1/6 432/1/6 434/1/6
