# MagicaVoxel @ Ephtracy

# group
o 

# material
mtllib Bridge.mtl
usemtl palette

# normals
vn -1 0 0
vn 1 0 0
vn 0 0 1
vn 0 0 -1
vn 0 -1 0
vn 0 1 0

# texcoords
vt 0.0800781 0.5
vt 0.0839844 0.5

# verts
v -0.45 -0.5 0.45
v -0.45 -0.5 0.35
v -0.45 -0.5 0.25
v -0.45 -0.5 -0.25
v -0.45 -0.5 -0.35
v -0.45 -0.5 -0.45
v -0.45 -0.4 0.45
v -0.45 -0.4 0.35
v -0.45 -0.4 0.25
v -0.45 -0.4 -0.25
v -0.45 -0.4 -0.35
v -0.45 -0.4 -0.45
v -0.35 -0.5 0.35
v -0.35 -0.5 0.25
v -0.35 -0.5 -0.25
v -0.35 -0.5 -0.35
v -0.35 -0.4 0.45
v -0.35 -0.4 0.35
v -0.35 -0.4 0.25
v -0.35 -0.4 -0.25
v -0.35 -0.4 -0.35
v -0.35 -0.4 -0.45
v -0.35 -0.2 0.45
v -0.35 -0.2 0.35
v -0.35 -0.2 -0.35
v -0.35 -0.2 -0.45
v -0.25 -0.5 0.25
v -0.25 -0.5 -0.25
v -0.25 -0.4 0.25
v -0.25 -0.4 -0.25
v -0.25 -0.2 0.45
v -0.25 -0.2 0.35
v -0.25 -0.2 -0.35
v -0.25 -0.2 -0.45
v -0.25 0 0.45
v -0.25 0 0.35
v -0.25 0 -0.35
v -0.25 0 -0.45
v -0.15 -0.5 0.35
v -0.15 -0.5 0.25
v -0.15 -0.5 -0.25
v -0.15 -0.5 -0.35
v -0.15 -0.4 0.35
v -0.15 -0.4 0.25
v -0.15 -0.4 -0.25
v -0.15 -0.4 -0.35
v -0.05 -0.5 0.25
v -0.05 -0.5 -0.25
v -0.05 -0.4 0.25
v -0.05 -0.4 -0.25
v -0.05 0 0.45
v -0.05 0 0.35
v -0.05 0 -0.35
v -0.05 0 -0.45
v -0.05 0.1 0.45
v -0.05 0.1 0.35
v -0.05 0.1 -0.35
v -0.05 0.1 -0.45
v 0.05 -0.5 0.35
v 0.05 -0.5 0.25
v 0.05 -0.5 -0.25
v 0.05 -0.5 -0.35
v 0.05 -0.4 0.35
v 0.05 -0.4 0.25
v 0.05 -0.4 -0.25
v 0.05 -0.4 -0.35
v 0.05 0.1 0.45
v 0.05 0.1 0.35
v 0.05 0.1 -0.35
v 0.05 0.1 -0.45
v 0.05 0.3 0.45
v 0.05 0.3 0.35
v 0.05 0.3 -0.35
v 0.05 0.3 -0.45
v 0.15 -0.5 0.25
v 0.15 -0.5 -0.25
v 0.15 -0.4 0.25
v 0.15 -0.4 -0.25
v 0.25 -0.5 0.35
v 0.25 -0.5 0.25
v 0.25 -0.5 -0.25
v 0.25 -0.5 -0.35
v 0.25 -0.4 0.45
v 0.25 -0.4 0.35
v 0.25 -0.4 0.25
v 0.25 -0.4 -0.25
v 0.25 -0.4 -0.35
v 0.25 -0.4 -0.45
v 0.25 0.2 0.45
v 0.25 0.2 0.35
v 0.25 0.2 -0.35
v 0.25 0.2 -0.45
v 0.25 0.3 0.45
v 0.25 0.3 0.35
v 0.25 0.3 -0.35
v 0.25 0.3 -0.45
v 0.25 0.5 0.45
v 0.25 0.5 0.35
v 0.25 0.5 -0.35
v 0.25 0.5 -0.45
v 0.35 -0.5 0.25
v 0.35 -0.5 -0.25
v 0.35 -0.4 0.25
v 0.35 -0.4 -0.25
v -0.35 -0.5 0.25
v -0.35 -0.5 -0.25
v -0.35 -0.4 0.25
v -0.35 -0.4 -0.25
v -0.25 -0.5 0.35
v -0.25 -0.5 0.25
v -0.25 -0.5 -0.25
v -0.25 -0.5 -0.35
v -0.25 -0.4 0.45
v -0.25 -0.4 0.35
v -0.25 -0.4 0.25
v -0.25 -0.4 -0.25
v -0.25 -0.4 -0.35
v -0.25 -0.4 -0.45
v -0.25 -0.2 0.45
v -0.25 -0.2 0.35
v -0.25 -0.2 -0.35
v -0.25 -0.2 -0.45
v -0.15 -0.5 0.25
v -0.15 -0.5 -0.25
v -0.15 -0.4 0.25
v -0.15 -0.4 -0.25
v -0.15 -0.2 0.45
v -0.15 -0.2 0.35
v -0.15 -0.2 -0.35
v -0.15 -0.2 -0.45
v -0.15 -0.1 0.45
v -0.15 -0.1 0.35
v -0.15 -0.1 -0.35
v -0.15 -0.1 -0.45
v -0.05 -0.5 0.35
v -0.05 -0.5 0.25
v -0.05 -0.5 -0.25
v -0.05 -0.5 -0.35
v -0.05 -0.4 0.35
v -0.05 -0.4 0.25
v -0.05 -0.4 -0.25
v -0.05 -0.4 -0.35
v 0.05 -0.5 0.25
v 0.05 -0.5 -0.25
v 0.05 -0.4 0.25
v 0.05 -0.4 -0.25
v 0.05 -0.1 0.45
v 0.05 -0.1 0.35
v 0.05 -0.1 -0.35
v 0.05 -0.1 -0.45
v 0.05 0.1 0.45
v 0.05 0.1 0.35
v 0.05 0.1 -0.35
v 0.05 0.1 -0.45
v 0.15 -0.5 0.35
v 0.15 -0.5 0.25
v 0.15 -0.5 -0.25
v 0.15 -0.5 -0.35
v 0.15 -0.4 0.35
v 0.15 -0.4 0.25
v 0.15 -0.4 -0.25
v 0.15 -0.4 -0.35
v 0.15 0.1 0.45
v 0.15 0.1 0.35
v 0.15 0.1 -0.35
v 0.15 0.1 -0.45
v 0.15 0.2 0.45
v 0.15 0.2 0.35
v 0.15 0.2 -0.35
v 0.15 0.2 -0.45
v 0.25 -0.5 0.25
v 0.25 -0.5 -0.25
v 0.25 -0.4 0.25
v 0.25 -0.4 -0.25
v 0.35 -0.5 0.35
v 0.35 -0.5 0.25
v 0.35 -0.5 -0.25
v 0.35 -0.5 -0.35
v 0.35 -0.4 0.45
v 0.35 -0.4 0.35
v 0.35 -0.4 0.25
v 0.35 -0.4 -0.25
v 0.35 -0.4 -0.35
v 0.35 -0.4 -0.45
v 0.35 0.4 0.45
v 0.35 0.4 0.35
v 0.35 0.4 -0.35
v 0.35 0.4 -0.45
v 0.45 -0.5 0.45
v 0.45 -0.5 0.35
v 0.45 -0.5 0.25
v 0.45 -0.5 -0.25
v 0.45 -0.5 -0.35
v 0.45 -0.5 -0.45
v 0.45 -0.4 0.45
v 0.45 -0.4 0.35
v 0.45 -0.4 0.25
v 0.45 -0.4 -0.25
v 0.45 -0.4 -0.35
v 0.45 -0.4 -0.45
v 0.45 0.4 0.45
v 0.45 0.4 0.35
v 0.45 0.4 -0.35
v 0.45 0.4 -0.45
v 0.45 0.5 0.45
v 0.45 0.5 0.35
v 0.45 0.5 -0.35
v 0.45 0.5 -0.45
v -0.45 -0.5 0.45
v -0.45 -0.4 0.45
v -0.35 -0.4 0.45
v -0.35 -0.2 0.45
v -0.25 -0.4 0.45
v -0.25 -0.2 0.45
v -0.25 0 0.45
v -0.15 -0.2 0.45
v -0.15 -0.1 0.45
v -0.05 0 0.45
v -0.05 0.1 0.45
v 0.05 -0.1 0.45
v 0.05 0.1 0.45
v 0.05 0.3 0.45
v 0.15 0.1 0.45
v 0.15 0.2 0.45
v 0.25 -0.4 0.45
v 0.25 0.2 0.45
v 0.25 0.3 0.45
v 0.25 0.5 0.45
v 0.35 -0.4 0.45
v 0.35 0.4 0.45
v 0.45 -0.5 0.45
v 0.45 -0.4 0.45
v 0.45 0.4 0.45
v 0.45 0.5 0.45
v -0.45 -0.5 0.25
v -0.45 -0.4 0.25
v -0.35 -0.5 0.25
v -0.35 -0.4 0.25
v -0.25 -0.5 0.25
v -0.25 -0.4 0.25
v -0.15 -0.5 0.25
v -0.15 -0.4 0.25
v -0.05 -0.5 0.25
v -0.05 -0.4 0.25
v 0.05 -0.5 0.25
v 0.05 -0.4 0.25
v 0.15 -0.5 0.25
v 0.15 -0.4 0.25
v 0.25 -0.5 0.25
v 0.25 -0.4 0.25
v 0.35 -0.5 0.25
v 0.35 -0.4 0.25
v 0.45 -0.5 0.25
v 0.45 -0.4 0.25
v -0.35 -0.5 -0.25
v -0.35 -0.4 -0.25
v -0.25 -0.5 -0.25
v -0.25 -0.4 -0.25
v -0.15 -0.5 -0.25
v -0.15 -0.4 -0.25
v -0.05 -0.5 -0.25
v -0.05 -0.4 -0.25
v 0.05 -0.5 -0.25
v 0.05 -0.4 -0.25
v 0.15 -0.5 -0.25
v 0.15 -0.4 -0.25
v 0.25 -0.5 -0.25
v 0.25 -0.4 -0.25
v 0.35 -0.5 -0.25
v 0.35 -0.4 -0.25
v -0.45 -0.5 -0.35
v -0.45 -0.4 -0.35
v -0.35 -0.5 -0.35
v -0.35 -0.4 -0.35
v -0.35 -0.2 -0.35
v -0.25 -0.5 -0.35
v -0.25 -0.4 -0.35
v -0.25 -0.2 -0.35
v -0.25 0 -0.35
v -0.15 -0.5 -0.35
v -0.15 -0.4 -0.35
v -0.15 -0.2 -0.35
v -0.15 -0.1 -0.35
v -0.05 -0.5 -0.35
v -0.05 -0.4 -0.35
v -0.05 0 -0.35
v -0.05 0.1 -0.35
v 0.05 -0.5 -0.35
v 0.05 -0.4 -0.35
v 0.05 -0.1 -0.35
v 0.05 0.1 -0.35
v 0.05 0.3 -0.35
v 0.15 -0.5 -0.35
v 0.15 -0.4 -0.35
v 0.15 0.1 -0.35
v 0.15 0.2 -0.35
v 0.25 -0.5 -0.35
v 0.25 -0.4 -0.35
v 0.25 0.2 -0.35
v 0.25 0.3 -0.35
v 0.25 0.5 -0.35
v 0.35 -0.5 -0.35
v 0.35 -0.4 -0.35
v 0.35 0.4 -0.35
v 0.45 -0.5 -0.35
v 0.45 -0.4 -0.35
v 0.45 0.4 -0.35
v 0.45 0.5 -0.35
v -0.45 -0.5 0.35
v -0.45 -0.4 0.35
v -0.35 -0.5 0.35
v -0.35 -0.4 0.35
v -0.35 -0.2 0.35
v -0.25 -0.5 0.35
v -0.25 -0.4 0.35
v -0.25 -0.2 0.35
v -0.25 0 0.35
v -0.15 -0.5 0.35
v -0.15 -0.4 0.35
v -0.15 -0.2 0.35
v -0.15 -0.1 0.35
v -0.05 -0.5 0.35
v -0.05 -0.4 0.35
v -0.05 0 0.35
v -0.05 0.1 0.35
v 0.05 -0.5 0.35
v 0.05 -0.4 0.35
v 0.05 -0.1 0.35
v 0.05 0.1 0.35
v 0.05 0.3 0.35
v 0.15 -0.5 0.35
v 0.15 -0.4 0.35
v 0.15 0.1 0.35
v 0.15 0.2 0.35
v 0.25 -0.5 0.35
v 0.25 -0.4 0.35
v 0.25 0.2 0.35
v 0.25 0.3 0.35
v 0.25 0.5 0.35
v 0.35 -0.5 0.35
v 0.35 -0.4 0.35
v 0.35 0.4 0.35
v 0.45 -0.5 0.35
v 0.45 -0.4 0.35
v 0.45 0.4 0.35
v 0.45 0.5 0.35
v -0.35 -0.5 0.25
v -0.35 -0.4 0.25
v -0.25 -0.5 0.25
v -0.25 -0.4 0.25
v -0.15 -0.5 0.25
v -0.15 -0.4 0.25
v -0.05 -0.5 0.25
v -0.05 -0.4 0.25
v 0.05 -0.5 0.25
v 0.05 -0.4 0.25
v 0.15 -0.5 0.25
v 0.15 -0.4 0.25
v 0.25 -0.5 0.25
v 0.25 -0.4 0.25
v 0.35 -0.5 0.25
v 0.35 -0.4 0.25
v -0.45 -0.5 -0.25
v -0.45 -0.4 -0.25
v -0.35 -0.5 -0.25
v -0.35 -0.4 -0.25
v -0.25 -0.5 -0.25
v -0.25 -0.4 -0.25
v -0.15 -0.5 -0.25
v -0.15 -0.4 -0.25
v -0.05 -0.5 -0.25
v -0.05 -0.4 -0.25
v 0.05 -0.5 -0.25
v 0.05 -0.4 -0.25
v 0.15 -0.5 -0.25
v 0.15 -0.4 -0.25
v 0.25 -0.5 -0.25
v 0.25 -0.4 -0.25
v 0.35 -0.5 -0.25
v 0.35 -0.4 -0.25
v 0.45 -0.5 -0.25
v 0.45 -0.4 -0.25
v -0.45 -0.5 -0.45
v -0.45 -0.4 -0.45
v -0.35 -0.4 -0.45
v -0.35 -0.2 -0.45
v -0.25 -0.4 -0.45
v -0.25 -0.2 -0.45
v -0.25 0 -0.45
v -0.15 -0.2 -0.45
v -0.15 -0.1 -0.45
v -0.05 0 -0.45
v -0.05 0.1 -0.45
v 0.05 -0.1 -0.45
v 0.05 0.1 -0.45
v 0.05 0.3 -0.45
v 0.15 0.1 -0.45
v 0.15 0.2 -0.45
v 0.25 -0.4 -0.45
v 0.25 0.2 -0.45
v 0.25 0.3 -0.45
v 0.25 0.5 -0.45
v 0.35 -0.4 -0.45
v 0.35 0.4 -0.45
v 0.45 -0.5 -0.45
v 0.45 -0.4 -0.45
v 0.45 0.4 -0.45
v 0.45 0.5 -0.45
v -0.45 -0.5 0.45
v 0.45 -0.5 0.45
v -0.45 -0.5 0.35
v -0.35 -0.5 0.35
v -0.25 -0.5 0.35
v -0.15 -0.5 0.35
v -0.05 -0.5 0.35
v 0.05 -0.5 0.35
v 0.15 -0.5 0.35
v 0.25 -0.5 0.35
v 0.35 -0.5 0.35
v 0.45 -0.5 0.35
v -0.45 -0.5 0.25
v -0.35 -0.5 0.25
v -0.25 -0.5 0.25
v -0.15 -0.5 0.25
v -0.05 -0.5 0.25
v 0.05 -0.5 0.25
v 0.15 -0.5 0.25
v 0.25 -0.5 0.25
v 0.35 -0.5 0.25
v 0.45 -0.5 0.25
v -0.45 -0.5 -0.25
v -0.35 -0.5 -0.25
v -0.25 -0.5 -0.25
v -0.15 -0.5 -0.25
v -0.05 -0.5 -0.25
v 0.05 -0.5 -0.25
v 0.15 -0.5 -0.25
v 0.25 -0.5 -0.25
v 0.35 -0.5 -0.25
v 0.45 -0.5 -0.25
v -0.45 -0.5 -0.35
v -0.35 -0.5 -0.35
v -0.25 -0.5 -0.35
v -0.15 -0.5 -0.35
v -0.05 -0.5 -0.35
v 0.05 -0.5 -0.35
v 0.15 -0.5 -0.35
v 0.25 -0.5 -0.35
v 0.35 -0.5 -0.35
v 0.45 -0.5 -0.35
v -0.45 -0.5 -0.45
v 0.45 -0.5 -0.45
v -0.25 -0.2 0.45
v -0.15 -0.2 0.45
v -0.25 -0.2 0.35
v -0.15 -0.2 0.35
v -0.25 -0.2 -0.35
v -0.15 -0.2 -0.35
v -0.25 -0.2 -0.45
v -0.15 -0.2 -0.45
v -0.15 -0.1 0.45
v 0.05 -0.1 0.45
v -0.15 -0.1 0.35
v 0.05 -0.1 0.35
v -0.15 -0.1 -0.35
v 0.05 -0.1 -0.35
v -0.15 -0.1 -0.45
v 0.05 -0.1 -0.45
v 0.05 0.1 0.45
v 0.15 0.1 0.45
v 0.05 0.1 0.35
v 0.15 0.1 0.35
v 0.05 0.1 -0.35
v 0.15 0.1 -0.35
v 0.05 0.1 -0.45
v 0.15 0.1 -0.45
v 0.15 0.2 0.45
v 0.25 0.2 0.45
v 0.15 0.2 0.35
v 0.25 0.2 0.35
v 0.15 0.2 -0.35
v 0.25 0.2 -0.35
v 0.15 0.2 -0.45
v 0.25 0.2 -0.45
v 0.35 0.4 0.45
v 0.45 0.4 0.45
v 0.35 0.4 0.35
v 0.45 0.4 0.35
v 0.35 0.4 -0.35
v 0.45 0.4 -0.35
v 0.35 0.4 -0.45
v 0.45 0.4 -0.45
v -0.45 -0.4 0.45
v -0.35 -0.4 0.45
v -0.25 -0.4 0.45
v 0.25 -0.4 0.45
v 0.35 -0.4 0.45
v 0.45 -0.4 0.45
v -0.45 -0.4 0.35
v -0.35 -0.4 0.35
v -0.25 -0.4 0.35
v -0.15 -0.4 0.35
v -0.05 -0.4 0.35
v 0.05 -0.4 0.35
v 0.15 -0.4 0.35
v 0.25 -0.4 0.35
v 0.35 -0.4 0.35
v 0.45 -0.4 0.35
v -0.45 -0.4 0.25
v -0.35 -0.4 0.25
v -0.25 -0.4 0.25
v -0.15 -0.4 0.25
v -0.05 -0.4 0.25
v 0.05 -0.4 0.25
v 0.15 -0.4 0.25
v 0.25 -0.4 0.25
v 0.35 -0.4 0.25
v 0.45 -0.4 0.25
v -0.45 -0.4 -0.25
v -0.35 -0.4 -0.25
v -0.25 -0.4 -0.25
v -0.15 -0.4 -0.25
v -0.05 -0.4 -0.25
v 0.05 -0.4 -0.25
v 0.15 -0.4 -0.25
v 0.25 -0.4 -0.25
v 0.35 -0.4 -0.25
v 0.45 -0.4 -0.25
v -0.45 -0.4 -0.35
v -0.35 -0.4 -0.35
v -0.25 -0.4 -0.35
v -0.15 -0.4 -0.35
v -0.05 -0.4 -0.35
v 0.05 -0.4 -0.35
v 0.15 -0.4 -0.35
v 0.25 -0.4 -0.35
v 0.35 -0.4 -0.35
v 0.45 -0.4 -0.35
v -0.45 -0.4 -0.45
v -0.35 -0.4 -0.45
v -0.25 -0.4 -0.45
v 0.25 -0.4 -0.45
v 0.35 -0.4 -0.45
v 0.45 -0.4 -0.45
v -0.35 -0.2 0.45
v -0.25 -0.2 0.45
v -0.35 -0.2 0.35
v -0.25 -0.2 0.35
v -0.35 -0.2 -0.35
v -0.25 -0.2 -0.35
v -0.35 -0.2 -0.45
v -0.25 -0.2 -0.45
v -0.25 0 0.45
v -0.05 0 0.45
v -0.25 0 0.35
v -0.05 0 0.35
v -0.25 0 -0.35
v -0.05 0 -0.35
v -0.25 0 -0.45
v -0.05 0 -0.45
v -0.05 0.1 0.45
v 0.05 0.1 0.45
v -0.05 0.1 0.35
v 0.05 0.1 0.35
v -0.05 0.1 -0.35
v 0.05 0.1 -0.35
v -0.05 0.1 -0.45
v 0.05 0.1 -0.45
v 0.05 0.3 0.45
v 0.25 0.3 0.45
v 0.05 0.3 0.35
v 0.25 0.3 0.35
v 0.05 0.3 -0.35
v 0.25 0.3 -0.35
v 0.05 0.3 -0.45
v 0.25 0.3 -0.45
v 0.25 0.5 0.45
v 0.45 0.5 0.45
v 0.25 0.5 0.35
v 0.45 0.5 0.35
v 0.25 0.5 -0.35
v 0.45 0.5 -0.35
v 0.25 0.5 -0.45
v 0.45 0.5 -0.45

# faces
f 7/2/1 2/2/1 1/2/1
f 8/2/1 2/2/1 7/2/1
f 9/1/1 4/1/1 3/1/1
f 10/1/1 4/1/1 9/1/1
f 11/2/1 6/2/1 5/2/1
f 12/2/1 6/2/1 11/2/1
f 18/1/1 14/1/1 13/1/1
f 19/1/1 14/1/1 18/1/1
f 20/1/1 16/1/1 15/1/1
f 21/1/1 16/1/1 20/1/1
f 23/2/1 18/2/1 17/2/1
f 24/2/1 18/2/1 23/2/1
f 25/2/1 22/2/1 21/2/1
f 26/2/1 22/2/1 25/2/1
f 29/1/1 28/1/1 27/1/1
f 30/1/1 28/1/1 29/1/1
f 35/2/1 32/2/1 31/2/1
f 36/2/1 32/2/1 35/2/1
f 37/2/1 34/2/1 33/2/1
f 38/2/1 34/2/1 37/2/1
f 43/1/1 40/1/1 39/1/1
f 44/1/1 40/1/1 43/1/1
f 45/1/1 42/1/1 41/1/1
f 46/1/1 42/1/1 45/1/1
f 49/1/1 48/1/1 47/1/1
f 50/1/1 48/1/1 49/1/1
f 55/2/1 52/2/1 51/2/1
f 56/2/1 52/2/1 55/2/1
f 57/2/1 54/2/1 53/2/1
f 58/2/1 54/2/1 57/2/1
f 63/1/1 60/1/1 59/1/1
f 64/1/1 60/1/1 63/1/1
f 65/1/1 62/1/1 61/1/1
f 66/1/1 62/1/1 65/1/1
f 71/2/1 68/2/1 67/2/1
f 72/2/1 68/2/1 71/2/1
f 73/2/1 70/2/1 69/2/1
f 74/2/1 70/2/1 73/2/1
f 77/1/1 76/1/1 75/1/1
f 78/1/1 76/1/1 77/1/1
f 84/1/1 80/1/1 79/1/1
f 85/1/1 80/1/1 84/1/1
f 86/1/1 82/1/1 81/1/1
f 87/1/1 82/1/1 86/1/1
f 89/2/1 84/2/1 83/2/1
f 90/2/1 84/2/1 89/2/1
f 91/2/1 88/2/1 87/2/1
f 92/2/1 88/2/1 91/2/1
f 97/2/1 94/2/1 93/2/1
f 98/2/1 94/2/1 97/2/1
f 99/2/1 96/2/1 95/2/1
f 100/2/1 96/2/1 99/2/1
f 103/1/1 102/1/1 101/1/1
f 104/1/1 102/1/1 103/1/1
f 105/1/2 106/1/2 107/1/2
f 107/1/2 106/1/2 108/1/2
f 109/1/2 110/1/2 114/1/2
f 114/1/2 110/1/2 115/1/2
f 111/1/2 112/1/2 116/1/2
f 116/1/2 112/1/2 117/1/2
f 113/2/2 114/2/2 119/2/2
f 119/2/2 114/2/2 120/2/2
f 117/2/2 118/2/2 121/2/2
f 121/2/2 118/2/2 122/2/2
f 123/1/2 124/1/2 125/1/2
f 125/1/2 124/1/2 126/1/2
f 127/2/2 128/2/2 131/2/2
f 131/2/2 128/2/2 132/2/2
f 129/2/2 130/2/2 133/2/2
f 133/2/2 130/2/2 134/2/2
f 135/1/2 136/1/2 139/1/2
f 139/1/2 136/1/2 140/1/2
f 137/1/2 138/1/2 141/1/2
f 141/1/2 138/1/2 142/1/2
f 143/1/2 144/1/2 145/1/2
f 145/1/2 144/1/2 146/1/2
f 147/2/2 148/2/2 151/2/2
f 151/2/2 148/2/2 152/2/2
f 149/2/2 150/2/2 153/2/2
f 153/2/2 150/2/2 154/2/2
f 155/1/2 156/1/2 159/1/2
f 159/1/2 156/1/2 160/1/2
f 157/1/2 158/1/2 161/1/2
f 161/1/2 158/1/2 162/1/2
f 163/2/2 164/2/2 167/2/2
f 167/2/2 164/2/2 168/2/2
f 165/2/2 166/2/2 169/2/2
f 169/2/2 166/2/2 170/2/2
f 171/1/2 172/1/2 173/1/2
f 173/1/2 172/1/2 174/1/2
f 175/1/2 176/1/2 180/1/2
f 180/1/2 176/1/2 181/1/2
f 177/1/2 178/1/2 182/1/2
f 182/1/2 178/1/2 183/1/2
f 179/2/2 180/2/2 185/2/2
f 185/2/2 180/2/2 186/2/2
f 183/2/2 184/2/2 187/2/2
f 187/2/2 184/2/2 188/2/2
f 189/2/2 190/2/2 195/2/2
f 195/2/2 190/2/2 196/2/2
f 191/1/2 192/1/2 197/1/2
f 197/1/2 192/1/2 198/1/2
f 193/2/2 194/2/2 199/2/2
f 199/2/2 194/2/2 200/2/2
f 201/2/2 202/2/2 205/2/2
f 205/2/2 202/2/2 206/2/2
f 203/2/2 204/2/2 207/2/2
f 207/2/2 204/2/2 208/2/2
f 211/2/3 210/2/3 209/2/3
f 213/2/3 211/2/3 209/2/3
f 213/2/3 212/2/3 211/2/3
f 214/2/3 212/2/3 213/2/3
f 216/2/3 215/2/3 214/2/3
f 217/2/3 215/2/3 216/2/3
f 218/2/3 215/2/3 217/2/3
f 220/2/3 218/2/3 217/2/3
f 220/2/3 219/2/3 218/2/3
f 221/2/3 219/2/3 220/2/3
f 223/2/3 222/2/3 221/2/3
f 224/2/3 222/2/3 223/2/3
f 225/2/3 213/2/3 209/2/3
f 226/2/3 222/2/3 224/2/3
f 227/2/3 222/2/3 226/2/3
f 229/2/3 225/2/3 209/2/3
f 229/2/3 228/2/3 227/2/3
f 229/2/3 227/2/3 226/2/3
f 229/2/3 226/2/3 225/2/3
f 230/2/3 228/2/3 229/2/3
f 231/2/3 229/2/3 209/2/3
f 232/2/3 229/2/3 231/2/3
f 233/2/3 228/2/3 230/2/3
f 234/2/3 228/2/3 233/2/3
f 237/1/3 236/1/3 235/1/3
f 238/1/3 236/1/3 237/1/3
f 241/1/3 240/1/3 239/1/3
f 242/1/3 240/1/3 241/1/3
f 245/1/3 244/1/3 243/1/3
f 246/1/3 244/1/3 245/1/3
f 249/1/3 248/1/3 247/1/3
f 250/1/3 248/1/3 249/1/3
f 253/1/3 252/1/3 251/1/3
f 254/1/3 252/1/3 253/1/3
f 257/1/3 256/1/3 255/1/3
f 258/1/3 256/1/3 257/1/3
f 261/1/3 260/1/3 259/1/3
f 262/1/3 260/1/3 261/1/3
f 265/1/3 264/1/3 263/1/3
f 266/1/3 264/1/3 265/1/3
f 269/1/3 268/1/3 267/1/3
f 270/1/3 268/1/3 269/1/3
f 273/2/3 272/2/3 271/2/3
f 274/2/3 272/2/3 273/2/3
f 277/2/3 275/2/3 274/2/3
f 278/2/3 275/2/3 277/2/3
f 280/2/3 277/2/3 276/2/3
f 281/2/3 277/2/3 280/2/3
f 282/2/3 279/2/3 278/2/3
f 283/2/3 279/2/3 282/2/3
f 286/2/3 279/2/3 283/2/3
f 288/2/3 285/2/3 284/2/3
f 289/2/3 285/2/3 288/2/3
f 290/2/3 287/2/3 286/2/3
f 290/2/3 286/2/3 283/2/3
f 291/2/3 287/2/3 290/2/3
f 295/2/3 292/2/3 291/2/3
f 296/2/3 292/2/3 295/2/3
f 297/2/3 294/2/3 293/2/3
f 298/2/3 294/2/3 297/2/3
f 299/2/3 292/2/3 296/2/3
f 300/2/3 292/2/3 299/2/3
f 303/2/3 301/2/3 300/2/3
f 303/2/3 300/2/3 299/2/3
f 303/2/3 299/2/3 298/2/3
f 304/2/3 301/2/3 303/2/3
f 305/2/3 303/2/3 302/2/3
f 306/2/3 303/2/3 305/2/3
f 307/2/3 301/2/3 304/2/3
f 308/2/3 301/2/3 307/2/3
f 309/2/4 310/2/4 311/2/4
f 311/2/4 310/2/4 312/2/4
f 312/2/4 313/2/4 315/2/4
f 315/2/4 313/2/4 316/2/4
f 314/2/4 315/2/4 318/2/4
f 318/2/4 315/2/4 319/2/4
f 316/2/4 317/2/4 320/2/4
f 320/2/4 317/2/4 321/2/4
f 321/2/4 317/2/4 324/2/4
f 322/2/4 323/2/4 326/2/4
f 326/2/4 323/2/4 327/2/4
f 324/2/4 325/2/4 328/2/4
f 321/2/4 324/2/4 328/2/4
f 328/2/4 325/2/4 329/2/4
f 329/2/4 330/2/4 333/2/4
f 333/2/4 330/2/4 334/2/4
f 331/2/4 332/2/4 335/2/4
f 335/2/4 332/2/4 336/2/4
f 334/2/4 330/2/4 337/2/4
f 337/2/4 330/2/4 338/2/4
f 338/2/4 339/2/4 341/2/4
f 337/2/4 338/2/4 341/2/4
f 336/2/4 337/2/4 341/2/4
f 341/2/4 339/2/4 342/2/4
f 340/2/4 341/2/4 343/2/4
f 343/2/4 341/2/4 344/2/4
f 342/2/4 339/2/4 345/2/4
f 345/2/4 339/2/4 346/2/4
f 347/1/4 348/1/4 349/1/4
f 349/1/4 348/1/4 350/1/4
f 351/1/4 352/1/4 353/1/4
f 353/1/4 352/1/4 354/1/4
f 355/1/4 356/1/4 357/1/4
f 357/1/4 356/1/4 358/1/4
f 359/1/4 360/1/4 361/1/4
f 361/1/4 360/1/4 362/1/4
f 363/1/4 364/1/4 365/1/4
f 365/1/4 364/1/4 366/1/4
f 367/1/4 368/1/4 369/1/4
f 369/1/4 368/1/4 370/1/4
f 371/1/4 372/1/4 373/1/4
f 373/1/4 372/1/4 374/1/4
f 375/1/4 376/1/4 377/1/4
f 377/1/4 376/1/4 378/1/4
f 379/1/4 380/1/4 381/1/4
f 381/1/4 380/1/4 382/1/4
f 383/2/4 384/2/4 385/2/4
f 383/2/4 385/2/4 387/2/4
f 385/2/4 386/2/4 387/2/4
f 387/2/4 386/2/4 388/2/4
f 388/2/4 389/2/4 390/2/4
f 390/2/4 389/2/4 391/2/4
f 391/2/4 389/2/4 392/2/4
f 391/2/4 392/2/4 394/2/4
f 392/2/4 393/2/4 394/2/4
f 394/2/4 393/2/4 395/2/4
f 395/2/4 396/2/4 397/2/4
f 397/2/4 396/2/4 398/2/4
f 383/2/4 387/2/4 399/2/4
f 398/2/4 396/2/4 400/2/4
f 400/2/4 396/2/4 401/2/4
f 383/2/4 399/2/4 403/2/4
f 401/2/4 402/2/4 403/2/4
f 400/2/4 401/2/4 403/2/4
f 399/2/4 400/2/4 403/2/4
f 403/2/4 402/2/4 404/2/4
f 383/2/4 403/2/4 405/2/4
f 405/2/4 403/2/4 406/2/4
f 404/2/4 402/2/4 407/2/4
f 407/2/4 402/2/4 408/2/4
f 411/2/5 410/2/5 409/2/5
f 412/2/5 410/2/5 411/2/5
f 413/2/5 410/2/5 412/2/5
f 414/2/5 410/2/5 413/2/5
f 415/2/5 410/2/5 414/2/5
f 416/2/5 410/2/5 415/2/5
f 417/2/5 410/2/5 416/2/5
f 418/2/5 410/2/5 417/2/5
f 419/2/5 410/2/5 418/2/5
f 420/2/5 410/2/5 419/2/5
f 422/1/5 413/1/5 412/1/5
f 423/1/5 413/1/5 422/1/5
f 424/1/5 415/1/5 414/1/5
f 425/1/5 415/1/5 424/1/5
f 426/1/5 417/1/5 416/1/5
f 427/1/5 417/1/5 426/1/5
f 428/1/5 419/1/5 418/1/5
f 429/1/5 419/1/5 428/1/5
f 431/1/5 422/1/5 421/1/5
f 432/1/5 422/1/5 431/1/5
f 433/1/5 424/1/5 423/1/5
f 434/1/5 424/1/5 433/1/5
f 435/1/5 426/1/5 425/1/5
f 436/1/5 426/1/5 435/1/5
f 437/1/5 428/1/5 427/1/5
f 438/1/5 428/1/5 437/1/5
f 439/1/5 430/1/5 429/1/5
f 440/1/5 430/1/5 439/1/5
f 442/1/5 433/1/5 432/1/5
f 443/1/5 433/1/5 442/1/5
f 444/1/5 435/1/5 434/1/5
f 445/1/5 435/1/5 444/1/5
f 446/1/5 437/1/5 436/1/5
f 447/1/5 437/1/5 446/1/5
f 448/1/5 439/1/5 438/1/5
f 449/1/5 439/1/5 448/1/5
f 451/2/5 447/2/5 446/2/5
f 451/2/5 450/2/5 449/2/5
f 451/2/5 449/2/5 448/2/5
f 451/2/5 448/2/5 447/2/5
f 451/2/5 445/2/5 444/2/5
f 451/2/5 446/2/5 445/2/5
f 451/2/5 443/2/5 442/2/5
f 451/2/5 444/2/5 443/2/5
f 451/2/5 442/2/5 441/2/5
f 452/2/5 450/2/5 451/2/5
f 455/2/5 454/2/5 453/2/5
f 456/2/5 454/2/5 455/2/5
f 459/2/5 458/2/5 457/2/5
f 460/2/5 458/2/5 459/2/5
f 463/2/5 462/2/5 461/2/5
f 464/2/5 462/2/5 463/2/5
f 467/2/5 466/2/5 465/2/5
f 468/2/5 466/2/5 467/2/5
f 471/2/5 470/2/5 469/2/5
f 472/2/5 470/2/5 471/2/5
f 475/2/5 474/2/5 473/2/5
f 476/2/5 474/2/5 475/2/5
f 479/2/5 478/2/5 477/2/5
f 480/2/5 478/2/5 479/2/5
f 483/2/5 482/2/5 481/2/5
f 484/2/5 482/2/5 483/2/5
f 487/2/5 486/2/5 485/2/5
f 488/2/5 486/2/5 487/2/5
f 491/2/5 490/2/5 489/2/5
f 492/2/5 490/2/5 491/2/5
f 493/2/6 494/2/6 499/2/6
f 499/2/6 494/2/6 500/2/6
f 495/2/6 496/2/6 501/2/6
f 501/2/6 496/2/6 502/2/6
f 502/2/6 496/2/6 503/2/6
f 503/2/6 496/2/6 504/2/6
f 504/2/6 496/2/6 505/2/6
f 505/2/6 496/2/6 506/2/6
f 497/2/6 498/2/6 507/2/6
f 507/2/6 498/2/6 508/2/6
f 500/1/6 501/1/6 510/1/6
f 510/1/6 501/1/6 511/1/6
f 502/1/6 503/1/6 512/1/6
f 512/1/6 503/1/6 513/1/6
f 504/1/6 505/1/6 514/1/6
f 514/1/6 505/1/6 515/1/6
f 506/1/6 507/1/6 516/1/6
f 516/1/6 507/1/6 517/1/6
f 509/1/6 510/1/6 519/1/6
f 519/1/6 510/1/6 520/1/6
f 511/1/6 512/1/6 521/1/6
f 521/1/6 512/1/6 522/1/6
f 513/1/6 514/1/6 523/1/6
f 523/1/6 514/1/6 524/1/6
f 515/1/6 516/1/6 525/1/6
f 525/1/6 516/1/6 526/1/6
f 517/1/6 518/1/6 527/1/6
f 527/1/6 518/1/6 528/1/6
f 520/1/6 521/1/6 530/1/6
f 530/1/6 521/1/6 531/1/6
f 522/1/6 523/1/6 532/1/6
f 532/1/6 523/1/6 533/1/6
f 524/1/6 525/1/6 534/1/6
f 534/1/6 525/1/6 535/1/6
f 526/1/6 527/1/6 536/1/6
f 536/1/6 527/1/6 537/1/6
f 529/2/6 530/2/6 539/2/6
f 539/2/6 530/2/6 540/2/6
f 534/2/6 535/2/6 541/2/6
f 532/2/6 533/2/6 541/2/6
f 535/2/6 536/2/6 541/2/6
f 531/2/6 532/2/6 541/2/6
f 533/2/6 534/2/6 541/2/6
f 541/2/6 536/2/6 542/2/6
f 537/2/6 538/2/6 543/2/6
f 543/2/6 538/2/6 544/2/6
f 545/2/6 546/2/6 547/2/6
f 547/2/6 546/2/6 548/2/6
f 549/2/6 550/2/6 551/2/6
f 551/2/6 550/2/6 552/2/6
f 553/2/6 554/2/6 555/2/6
f 555/2/6 554/2/6 556/2/6
f 557/2/6 558/2/6 559/2/6
f 559/2/6 558/2/6 560/2/6
f 561/2/6 562/2/6 563/2/6
f 563/2/6 562/2/6 564/2/6
f 565/2/6 566/2/6 567/2/6
f 567/2/6 566/2/6 568/2/6
f 569/2/6 570/2/6 571/2/6
f 571/2/6 570/2/6 572/2/6
f 573/2/6 574/2/6 575/2/6
f 575/2/6 574/2/6 576/2/6
f 577/2/6 578/2/6 579/2/6
f 579/2/6 578/2/6 580/2/6
f 581/2/6 582/2/6 583/2/6
f 583/2/6 582/2/6 584/2/6
