# MagicaVoxel @ Ephtracy

# group
o 

# material
mtllib Bridge 2.mtl
usemtl palette

# normals
vn -1 0 0
vn 1 0 0
vn 0 0 1
vn 0 0 -1
vn 0 -1 0
vn 0 1 0

# texcoords
vt 0.0800781 0.5
vt 0.0839844 0.5

# verts
v -0.45 -0.5 0.45
v -0.45 -0.5 0.35
v -0.45 -0.5 0.25
v -0.45 -0.5 -0.25
v -0.45 -0.5 -0.35
v -0.45 -0.5 -0.45
v -0.45 -0.4 0.45
v -0.45 -0.4 0.35
v -0.45 -0.4 0.25
v -0.45 -0.4 -0.25
v -0.45 -0.4 -0.35
v -0.45 -0.4 -0.45
v -0.45 0.3 0.45
v -0.45 0.3 0.35
v -0.45 0.3 -0.35
v -0.45 0.3 -0.45
v -0.45 0.4 0.45
v -0.45 0.4 0.35
v -0.45 0.4 -0.35
v -0.45 0.4 -0.45
v -0.35 -0.5 0.25
v -0.35 -0.5 -0.25
v -0.35 -0.4 0.25
v -0.35 -0.4 -0.25
v -0.25 -0.5 0.35
v -0.25 -0.5 0.25
v -0.25 -0.5 -0.25
v -0.25 -0.5 -0.35
v -0.25 -0.4 0.35
v -0.25 -0.4 0.25
v -0.25 -0.4 -0.25
v -0.25 -0.4 -0.35
v -0.15 -0.5 0.25
v -0.15 -0.5 -0.25
v -0.15 -0.4 0.25
v -0.15 -0.4 -0.25
v -0.15 0.4 0.45
v -0.15 0.4 0.35
v -0.15 0.4 -0.35
v -0.15 0.4 -0.45
v -0.15 0.5 0.45
v -0.15 0.5 0.35
v -0.15 0.5 -0.35
v -0.15 0.5 -0.45
v -0.05 -0.5 0.35
v -0.05 -0.5 0.25
v -0.05 -0.5 -0.25
v -0.05 -0.5 -0.35
v -0.05 -0.4 0.45
v -0.05 -0.4 0.35
v -0.05 -0.4 0.25
v -0.05 -0.4 -0.25
v -0.05 -0.4 -0.35
v -0.05 -0.4 -0.45
v -0.05 0.4 0.45
v -0.05 0.4 0.35
v -0.05 0.4 -0.35
v -0.05 0.4 -0.45
v 0.05 -0.5 0.25
v 0.05 -0.5 -0.25
v 0.05 -0.4 0.25
v 0.05 -0.4 -0.25
v 0.15 -0.5 0.35
v 0.15 -0.5 0.25
v 0.15 -0.5 -0.25
v 0.15 -0.5 -0.35
v 0.15 -0.4 0.35
v 0.15 -0.4 0.25
v 0.15 -0.4 -0.25
v 0.15 -0.4 -0.35
v 0.15 0.3 0.45
v 0.15 0.3 0.35
v 0.15 0.3 -0.35
v 0.15 0.3 -0.45
v 0.15 0.4 0.45
v 0.15 0.4 0.35
v 0.15 0.4 -0.35
v 0.15 0.4 -0.45
v 0.25 -0.5 0.25
v 0.25 -0.5 -0.25
v 0.25 -0.4 0.25
v 0.25 -0.4 -0.25
v 0.35 -0.5 0.35
v 0.35 -0.5 0.25
v 0.35 -0.5 -0.25
v 0.35 -0.5 -0.35
v 0.35 -0.4 0.35
v 0.35 -0.4 0.25
v 0.35 -0.4 -0.25
v 0.35 -0.4 -0.35
v -0.35 -0.5 0.35
v -0.35 -0.5 0.25
v -0.35 -0.5 -0.25
v -0.35 -0.5 -0.35
v -0.35 -0.4 0.35
v -0.35 -0.4 0.25
v -0.35 -0.4 -0.25
v -0.35 -0.4 -0.35
v -0.25 -0.5 0.25
v -0.25 -0.5 -0.25
v -0.25 -0.4 0.25
v -0.25 -0.4 -0.25
v -0.15 -0.5 0.35
v -0.15 -0.5 0.25
v -0.15 -0.5 -0.25
v -0.15 -0.5 -0.35
v -0.15 -0.4 0.35
v -0.15 -0.4 0.25
v -0.15 -0.4 -0.25
v -0.15 -0.4 -0.35
v -0.15 0.3 0.45
v -0.15 0.3 0.35
v -0.15 0.3 -0.35
v -0.15 0.3 -0.45
v -0.15 0.4 0.45
v -0.15 0.4 0.35
v -0.15 0.4 -0.35
v -0.15 0.4 -0.45
v -0.05 -0.5 0.25
v -0.05 -0.5 -0.25
v -0.05 -0.4 0.25
v -0.05 -0.4 -0.25
v 0.05 -0.5 0.35
v 0.05 -0.5 0.25
v 0.05 -0.5 -0.25
v 0.05 -0.5 -0.35
v 0.05 -0.4 0.45
v 0.05 -0.4 0.35
v 0.05 -0.4 0.25
v 0.05 -0.4 -0.25
v 0.05 -0.4 -0.35
v 0.05 -0.4 -0.45
v 0.05 0.4 0.45
v 0.05 0.4 0.35
v 0.05 0.4 -0.35
v 0.05 0.4 -0.45
v 0.15 -0.5 0.25
v 0.15 -0.5 -0.25
v 0.15 -0.4 0.25
v 0.15 -0.4 -0.25
v 0.15 0.4 0.45
v 0.15 0.4 0.35
v 0.15 0.4 -0.35
v 0.15 0.4 -0.45
v 0.15 0.5 0.45
v 0.15 0.5 0.35
v 0.15 0.5 -0.35
v 0.15 0.5 -0.45
v 0.25 -0.5 0.35
v 0.25 -0.5 0.25
v 0.25 -0.5 -0.25
v 0.25 -0.5 -0.35
v 0.25 -0.4 0.35
v 0.25 -0.4 0.25
v 0.25 -0.4 -0.25
v 0.25 -0.4 -0.35
v 0.35 -0.5 0.25
v 0.35 -0.5 -0.25
v 0.35 -0.4 0.25
v 0.35 -0.4 -0.25
v 0.45 -0.5 0.45
v 0.45 -0.5 0.35
v 0.45 -0.5 0.25
v 0.45 -0.5 -0.25
v 0.45 -0.5 -0.35
v 0.45 -0.5 -0.45
v 0.45 -0.4 0.45
v 0.45 -0.4 0.35
v 0.45 -0.4 0.25
v 0.45 -0.4 -0.25
v 0.45 -0.4 -0.35
v 0.45 -0.4 -0.45
v 0.45 0.3 0.45
v 0.45 0.3 0.35
v 0.45 0.3 -0.35
v 0.45 0.3 -0.45
v 0.45 0.4 0.45
v 0.45 0.4 0.35
v 0.45 0.4 -0.35
v 0.45 0.4 -0.45
v -0.45 -0.5 0.45
v -0.45 -0.4 0.45
v -0.45 0.3 0.45
v -0.45 0.4 0.45
v -0.15 0.3 0.45
v -0.15 0.4 0.45
v -0.15 0.5 0.45
v -0.05 -0.4 0.45
v -0.05 0.4 0.45
v 0.05 -0.4 0.45
v 0.05 0.4 0.45
v 0.15 0.3 0.45
v 0.15 0.4 0.45
v 0.15 0.5 0.45
v 0.45 -0.5 0.45
v 0.45 -0.4 0.45
v 0.45 0.3 0.45
v 0.45 0.4 0.45
v -0.35 -0.5 0.25
v -0.35 -0.4 0.25
v -0.25 -0.5 0.25
v -0.25 -0.4 0.25
v -0.15 -0.5 0.25
v -0.15 -0.4 0.25
v -0.05 -0.5 0.25
v -0.05 -0.4 0.25
v 0.05 -0.5 0.25
v 0.05 -0.4 0.25
v 0.15 -0.5 0.25
v 0.15 -0.4 0.25
v 0.25 -0.5 0.25
v 0.25 -0.4 0.25
v 0.35 -0.5 0.25
v 0.35 -0.4 0.25
v -0.45 -0.5 -0.25
v -0.45 -0.4 -0.25
v -0.35 -0.5 -0.25
v -0.35 -0.4 -0.25
v -0.25 -0.5 -0.25
v -0.25 -0.4 -0.25
v -0.15 -0.5 -0.25
v -0.15 -0.4 -0.25
v -0.05 -0.5 -0.25
v -0.05 -0.4 -0.25
v 0.05 -0.5 -0.25
v 0.05 -0.4 -0.25
v 0.15 -0.5 -0.25
v 0.15 -0.4 -0.25
v 0.25 -0.5 -0.25
v 0.25 -0.4 -0.25
v 0.35 -0.5 -0.25
v 0.35 -0.4 -0.25
v 0.45 -0.5 -0.25
v 0.45 -0.4 -0.25
v -0.45 0.3 -0.35
v -0.45 0.4 -0.35
v -0.35 -0.5 -0.35
v -0.35 -0.4 -0.35
v -0.25 -0.5 -0.35
v -0.25 -0.4 -0.35
v -0.15 -0.5 -0.35
v -0.15 -0.4 -0.35
v -0.15 0.3 -0.35
v -0.15 0.4 -0.35
v -0.15 0.5 -0.35
v -0.05 -0.5 -0.35
v -0.05 -0.4 -0.35
v -0.05 0.4 -0.35
v 0.05 -0.5 -0.35
v 0.05 -0.4 -0.35
v 0.05 0.4 -0.35
v 0.15 -0.5 -0.35
v 0.15 -0.4 -0.35
v 0.15 0.3 -0.35
v 0.15 0.4 -0.35
v 0.15 0.5 -0.35
v 0.25 -0.5 -0.35
v 0.25 -0.4 -0.35
v 0.35 -0.5 -0.35
v 0.35 -0.4 -0.35
v 0.45 0.3 -0.35
v 0.45 0.4 -0.35
v -0.45 0.3 0.35
v -0.45 0.4 0.35
v -0.35 -0.5 0.35
v -0.35 -0.4 0.35
v -0.25 -0.5 0.35
v -0.25 -0.4 0.35
v -0.15 -0.5 0.35
v -0.15 -0.4 0.35
v -0.15 0.3 0.35
v -0.15 0.4 0.35
v -0.15 0.5 0.35
v -0.05 -0.5 0.35
v -0.05 -0.4 0.35
v -0.05 0.4 0.35
v 0.05 -0.5 0.35
v 0.05 -0.4 0.35
v 0.05 0.4 0.35
v 0.15 -0.5 0.35
v 0.15 -0.4 0.35
v 0.15 0.3 0.35
v 0.15 0.4 0.35
v 0.15 0.5 0.35
v 0.25 -0.5 0.35
v 0.25 -0.4 0.35
v 0.35 -0.5 0.35
v 0.35 -0.4 0.35
v 0.45 0.3 0.35
v 0.45 0.4 0.35
v -0.45 -0.5 0.25
v -0.45 -0.4 0.25
v -0.35 -0.5 0.25
v -0.35 -0.4 0.25
v -0.25 -0.5 0.25
v -0.25 -0.4 0.25
v -0.15 -0.5 0.25
v -0.15 -0.4 0.25
v -0.05 -0.5 0.25
v -0.05 -0.4 0.25
v 0.05 -0.5 0.25
v 0.05 -0.4 0.25
v 0.15 -0.5 0.25
v 0.15 -0.4 0.25
v 0.25 -0.5 0.25
v 0.25 -0.4 0.25
v 0.35 -0.5 0.25
v 0.35 -0.4 0.25
v 0.45 -0.5 0.25
v 0.45 -0.4 0.25
v -0.35 -0.5 -0.25
v -0.35 -0.4 -0.25
v -0.25 -0.5 -0.25
v -0.25 -0.4 -0.25
v -0.15 -0.5 -0.25
v -0.15 -0.4 -0.25
v -0.05 -0.5 -0.25
v -0.05 -0.4 -0.25
v 0.05 -0.5 -0.25
v 0.05 -0.4 -0.25
v 0.15 -0.5 -0.25
v 0.15 -0.4 -0.25
v 0.25 -0.5 -0.25
v 0.25 -0.4 -0.25
v 0.35 -0.5 -0.25
v 0.35 -0.4 -0.25
v -0.45 -0.5 -0.45
v -0.45 -0.4 -0.45
v -0.45 0.3 -0.45
v -0.45 0.4 -0.45
v -0.15 0.3 -0.45
v -0.15 0.4 -0.45
v -0.15 0.5 -0.45
v -0.05 -0.4 -0.45
v -0.05 0.4 -0.45
v 0.05 -0.4 -0.45
v 0.05 0.4 -0.45
v 0.15 0.3 -0.45
v 0.15 0.4 -0.45
v 0.15 0.5 -0.45
v 0.45 -0.5 -0.45
v 0.45 -0.4 -0.45
v 0.45 0.3 -0.45
v 0.45 0.4 -0.45
v -0.45 -0.5 0.45
v 0.45 -0.5 0.45
v -0.45 -0.5 0.35
v -0.35 -0.5 0.35
v -0.25 -0.5 0.35
v -0.15 -0.5 0.35
v -0.05 -0.5 0.35
v 0.05 -0.5 0.35
v 0.15 -0.5 0.35
v 0.25 -0.5 0.35
v 0.35 -0.5 0.35
v 0.45 -0.5 0.35
v -0.45 -0.5 0.25
v -0.35 -0.5 0.25
v -0.25 -0.5 0.25
v -0.15 -0.5 0.25
v -0.05 -0.5 0.25
v 0.05 -0.5 0.25
v 0.15 -0.5 0.25
v 0.25 -0.5 0.25
v 0.35 -0.5 0.25
v 0.45 -0.5 0.25
v -0.45 -0.5 -0.25
v -0.35 -0.5 -0.25
v -0.25 -0.5 -0.25
v -0.15 -0.5 -0.25
v -0.05 -0.5 -0.25
v 0.05 -0.5 -0.25
v 0.15 -0.5 -0.25
v 0.25 -0.5 -0.25
v 0.35 -0.5 -0.25
v 0.45 -0.5 -0.25
v -0.45 -0.5 -0.35
v -0.35 -0.5 -0.35
v -0.25 -0.5 -0.35
v -0.15 -0.5 -0.35
v -0.05 -0.5 -0.35
v 0.05 -0.5 -0.35
v 0.15 -0.5 -0.35
v 0.25 -0.5 -0.35
v 0.35 -0.5 -0.35
v 0.45 -0.5 -0.35
v -0.45 -0.5 -0.45
v 0.45 -0.5 -0.45
v -0.45 0.3 0.45
v -0.15 0.3 0.45
v 0.15 0.3 0.45
v 0.45 0.3 0.45
v -0.45 0.3 0.35
v -0.15 0.3 0.35
v 0.15 0.3 0.35
v 0.45 0.3 0.35
v -0.45 0.3 -0.35
v -0.15 0.3 -0.35
v 0.15 0.3 -0.35
v 0.45 0.3 -0.35
v -0.45 0.3 -0.45
v -0.15 0.3 -0.45
v 0.15 0.3 -0.45
v 0.45 0.3 -0.45
v -0.15 0.4 0.45
v -0.05 0.4 0.45
v 0.05 0.4 0.45
v 0.15 0.4 0.45
v -0.15 0.4 0.35
v -0.05 0.4 0.35
v 0.05 0.4 0.35
v 0.15 0.4 0.35
v -0.15 0.4 -0.35
v -0.05 0.4 -0.35
v 0.05 0.4 -0.35
v 0.15 0.4 -0.35
v -0.15 0.4 -0.45
v -0.05 0.4 -0.45
v 0.05 0.4 -0.45
v 0.15 0.4 -0.45
v -0.45 -0.4 0.45
v -0.05 -0.4 0.45
v 0.05 -0.4 0.45
v 0.45 -0.4 0.45
v -0.45 -0.4 0.35
v -0.35 -0.4 0.35
v -0.25 -0.4 0.35
v -0.15 -0.4 0.35
v -0.05 -0.4 0.35
v 0.05 -0.4 0.35
v 0.15 -0.4 0.35
v 0.25 -0.4 0.35
v 0.35 -0.4 0.35
v 0.45 -0.4 0.35
v -0.45 -0.4 0.25
v -0.35 -0.4 0.25
v -0.25 -0.4 0.25
v -0.15 -0.4 0.25
v -0.05 -0.4 0.25
v 0.05 -0.4 0.25
v 0.15 -0.4 0.25
v 0.25 -0.4 0.25
v 0.35 -0.4 0.25
v 0.45 -0.4 0.25
v -0.45 -0.4 -0.25
v -0.35 -0.4 -0.25
v -0.25 -0.4 -0.25
v -0.15 -0.4 -0.25
v -0.05 -0.4 -0.25
v 0.05 -0.4 -0.25
v 0.15 -0.4 -0.25
v 0.25 -0.4 -0.25
v 0.35 -0.4 -0.25
v 0.45 -0.4 -0.25
v -0.45 -0.4 -0.35
v -0.35 -0.4 -0.35
v -0.25 -0.4 -0.35
v -0.15 -0.4 -0.35
v -0.05 -0.4 -0.35
v 0.05 -0.4 -0.35
v 0.15 -0.4 -0.35
v 0.25 -0.4 -0.35
v 0.35 -0.4 -0.35
v 0.45 -0.4 -0.35
v -0.45 -0.4 -0.45
v -0.05 -0.4 -0.45
v 0.05 -0.4 -0.45
v 0.45 -0.4 -0.45
v -0.45 0.4 0.45
v -0.15 0.4 0.45
v 0.15 0.4 0.45
v 0.45 0.4 0.45
v -0.45 0.4 0.35
v -0.15 0.4 0.35
v 0.15 0.4 0.35
v 0.45 0.4 0.35
v -0.45 0.4 -0.35
v -0.15 0.4 -0.35
v 0.15 0.4 -0.35
v 0.45 0.4 -0.35
v -0.45 0.4 -0.45
v -0.15 0.4 -0.45
v 0.15 0.4 -0.45
v 0.45 0.4 -0.45
v -0.15 0.5 0.45
v 0.15 0.5 0.45
v -0.15 0.5 0.35
v 0.15 0.5 0.35
v -0.15 0.5 -0.35
v 0.15 0.5 -0.35
v -0.15 0.5 -0.45
v 0.15 0.5 -0.45

# faces
f 7/2/1 2/2/1 1/2/1
f 8/1/1 3/1/1 2/1/1
f 8/2/1 2/2/1 7/2/1
f 9/1/1 3/1/1 8/1/1
f 10/1/1 5/1/1 4/1/1
f 11/2/1 6/2/1 5/2/1
f 11/1/1 5/1/1 10/1/1
f 12/2/1 6/2/1 11/2/1
f 17/2/1 14/2/1 13/2/1
f 18/2/1 14/2/1 17/2/1
f 19/2/1 16/2/1 15/2/1
f 20/2/1 16/2/1 19/2/1
f 23/1/1 22/1/1 21/1/1
f 24/1/1 22/1/1 23/1/1
f 29/1/1 26/1/1 25/1/1
f 30/1/1 26/1/1 29/1/1
f 31/1/1 28/1/1 27/1/1
f 32/1/1 28/1/1 31/1/1
f 35/1/1 34/1/1 33/1/1
f 36/1/1 34/1/1 35/1/1
f 41/2/1 38/2/1 37/2/1
f 42/2/1 38/2/1 41/2/1
f 43/2/1 40/2/1 39/2/1
f 44/2/1 40/2/1 43/2/1
f 50/1/1 46/1/1 45/1/1
f 51/1/1 46/1/1 50/1/1
f 52/1/1 48/1/1 47/1/1
f 53/1/1 48/1/1 52/1/1
f 55/2/1 50/2/1 49/2/1
f 56/2/1 50/2/1 55/2/1
f 57/2/1 54/2/1 53/2/1
f 58/2/1 54/2/1 57/2/1
f 61/1/1 60/1/1 59/1/1
f 62/1/1 60/1/1 61/1/1
f 67/1/1 64/1/1 63/1/1
f 68/1/1 64/1/1 67/1/1
f 69/1/1 66/1/1 65/1/1
f 70/1/1 66/1/1 69/1/1
f 75/2/1 72/2/1 71/2/1
f 76/2/1 72/2/1 75/2/1
f 77/2/1 74/2/1 73/2/1
f 78/2/1 74/2/1 77/2/1
f 81/1/1 80/1/1 79/1/1
f 82/1/1 80/1/1 81/1/1
f 87/1/1 84/1/1 83/1/1
f 88/1/1 84/1/1 87/1/1
f 89/1/1 86/1/1 85/1/1
f 90/1/1 86/1/1 89/1/1
f 91/1/2 92/1/2 95/1/2
f 95/1/2 92/1/2 96/1/2
f 93/1/2 94/1/2 97/1/2
f 97/1/2 94/1/2 98/1/2
f 99/1/2 100/1/2 101/1/2
f 101/1/2 100/1/2 102/1/2
f 103/1/2 104/1/2 107/1/2
f 107/1/2 104/1/2 108/1/2
f 105/1/2 106/1/2 109/1/2
f 109/1/2 106/1/2 110/1/2
f 111/2/2 112/2/2 115/2/2
f 115/2/2 112/2/2 116/2/2
f 113/2/2 114/2/2 117/2/2
f 117/2/2 114/2/2 118/2/2
f 119/1/2 120/1/2 121/1/2
f 121/1/2 120/1/2 122/1/2
f 123/1/2 124/1/2 128/1/2
f 128/1/2 124/1/2 129/1/2
f 125/1/2 126/1/2 130/1/2
f 130/1/2 126/1/2 131/1/2
f 127/2/2 128/2/2 133/2/2
f 133/2/2 128/2/2 134/2/2
f 131/2/2 132/2/2 135/2/2
f 135/2/2 132/2/2 136/2/2
f 137/1/2 138/1/2 139/1/2
f 139/1/2 138/1/2 140/1/2
f 141/2/2 142/2/2 145/2/2
f 145/2/2 142/2/2 146/2/2
f 143/2/2 144/2/2 147/2/2
f 147/2/2 144/2/2 148/2/2
f 149/1/2 150/1/2 153/1/2
f 153/1/2 150/1/2 154/1/2
f 151/1/2 152/1/2 155/1/2
f 155/1/2 152/1/2 156/1/2
f 157/1/2 158/1/2 159/1/2
f 159/1/2 158/1/2 160/1/2
f 161/2/2 162/2/2 167/2/2
f 162/1/2 163/1/2 168/1/2
f 167/2/2 162/2/2 168/2/2
f 168/1/2 163/1/2 169/1/2
f 164/1/2 165/1/2 170/1/2
f 165/2/2 166/2/2 171/2/2
f 170/1/2 165/1/2 171/1/2
f 171/2/2 166/2/2 172/2/2
f 173/2/2 174/2/2 177/2/2
f 177/2/2 174/2/2 178/2/2
f 175/2/2 176/2/2 179/2/2
f 179/2/2 176/2/2 180/2/2
f 185/2/3 184/2/3 183/2/3
f 186/2/3 184/2/3 185/2/3
f 188/2/3 182/2/3 181/2/3
f 189/2/3 187/2/3 186/2/3
f 190/2/3 188/2/3 181/2/3
f 190/2/3 189/2/3 188/2/3
f 191/2/3 187/2/3 189/2/3
f 191/2/3 189/2/3 190/2/3
f 193/2/3 187/2/3 191/2/3
f 194/2/3 187/2/3 193/2/3
f 195/2/3 190/2/3 181/2/3
f 196/2/3 190/2/3 195/2/3
f 197/2/3 193/2/3 192/2/3
f 198/2/3 193/2/3 197/2/3
f 201/1/3 200/1/3 199/1/3
f 202/1/3 200/1/3 201/1/3
f 205/1/3 204/1/3 203/1/3
f 206/1/3 204/1/3 205/1/3
f 209/1/3 208/1/3 207/1/3
f 210/1/3 208/1/3 209/1/3
f 213/1/3 212/1/3 211/1/3
f 214/1/3 212/1/3 213/1/3
f 217/1/3 216/1/3 215/1/3
f 218/1/3 216/1/3 217/1/3
f 221/1/3 220/1/3 219/1/3
f 222/1/3 220/1/3 221/1/3
f 225/1/3 224/1/3 223/1/3
f 226/1/3 224/1/3 225/1/3
f 229/1/3 228/1/3 227/1/3
f 230/1/3 228/1/3 229/1/3
f 233/1/3 232/1/3 231/1/3
f 234/1/3 232/1/3 233/1/3
f 239/2/3 238/2/3 237/2/3
f 240/2/3 238/2/3 239/2/3
f 243/2/3 236/2/3 235/2/3
f 244/2/3 236/2/3 243/2/3
f 246/2/3 242/2/3 241/2/3
f 247/2/3 242/2/3 246/2/3
f 248/2/3 245/2/3 244/2/3
f 250/2/3 248/2/3 247/2/3
f 251/2/3 245/2/3 248/2/3
f 251/2/3 248/2/3 250/2/3
f 252/2/3 250/2/3 249/2/3
f 253/2/3 250/2/3 252/2/3
f 255/2/3 245/2/3 251/2/3
f 256/2/3 245/2/3 255/2/3
f 259/2/3 258/2/3 257/2/3
f 260/2/3 258/2/3 259/2/3
f 261/2/3 255/2/3 254/2/3
f 262/2/3 255/2/3 261/2/3
f 265/2/4 266/2/4 267/2/4
f 267/2/4 266/2/4 268/2/4
f 263/2/4 264/2/4 271/2/4
f 271/2/4 264/2/4 272/2/4
f 269/2/4 270/2/4 274/2/4
f 274/2/4 270/2/4 275/2/4
f 272/2/4 273/2/4 276/2/4
f 275/2/4 276/2/4 278/2/4
f 276/2/4 273/2/4 279/2/4
f 278/2/4 276/2/4 279/2/4
f 277/2/4 278/2/4 280/2/4
f 280/2/4 278/2/4 281/2/4
f 279/2/4 273/2/4 283/2/4
f 283/2/4 273/2/4 284/2/4
f 285/2/4 286/2/4 287/2/4
f 287/2/4 286/2/4 288/2/4
f 282/2/4 283/2/4 289/2/4
f 289/2/4 283/2/4 290/2/4
f 291/1/4 292/1/4 293/1/4
f 293/1/4 292/1/4 294/1/4
f 295/1/4 296/1/4 297/1/4
f 297/1/4 296/1/4 298/1/4
f 299/1/4 300/1/4 301/1/4
f 301/1/4 300/1/4 302/1/4
f 303/1/4 304/1/4 305/1/4
f 305/1/4 304/1/4 306/1/4
f 307/1/4 308/1/4 309/1/4
f 309/1/4 308/1/4 310/1/4
f 311/1/4 312/1/4 313/1/4
f 313/1/4 312/1/4 314/1/4
f 315/1/4 316/1/4 317/1/4
f 317/1/4 316/1/4 318/1/4
f 319/1/4 320/1/4 321/1/4
f 321/1/4 320/1/4 322/1/4
f 323/1/4 324/1/4 325/1/4
f 325/1/4 324/1/4 326/1/4
f 329/2/4 330/2/4 331/2/4
f 331/2/4 330/2/4 332/2/4
f 327/2/4 328/2/4 334/2/4
f 332/2/4 333/2/4 335/2/4
f 327/2/4 334/2/4 336/2/4
f 334/2/4 335/2/4 336/2/4
f 335/2/4 333/2/4 337/2/4
f 336/2/4 335/2/4 337/2/4
f 337/2/4 333/2/4 339/2/4
f 339/2/4 333/2/4 340/2/4
f 327/2/4 336/2/4 341/2/4
f 341/2/4 336/2/4 342/2/4
f 338/2/4 339/2/4 343/2/4
f 343/2/4 339/2/4 344/2/4
f 347/2/5 346/2/5 345/2/5
f 348/2/5 346/2/5 347/2/5
f 349/2/5 346/2/5 348/2/5
f 350/2/5 346/2/5 349/2/5
f 351/2/5 346/2/5 350/2/5
f 352/2/5 346/2/5 351/2/5
f 353/2/5 346/2/5 352/2/5
f 354/2/5 346/2/5 353/2/5
f 355/2/5 346/2/5 354/2/5
f 356/2/5 346/2/5 355/2/5
f 357/1/5 348/1/5 347/1/5
f 358/1/5 348/1/5 357/1/5
f 359/1/5 350/1/5 349/1/5
f 360/1/5 350/1/5 359/1/5
f 361/1/5 352/1/5 351/1/5
f 362/1/5 352/1/5 361/1/5
f 363/1/5 354/1/5 353/1/5
f 364/1/5 354/1/5 363/1/5
f 365/1/5 356/1/5 355/1/5
f 366/1/5 356/1/5 365/1/5
f 368/1/5 359/1/5 358/1/5
f 369/1/5 359/1/5 368/1/5
f 370/1/5 361/1/5 360/1/5
f 371/1/5 361/1/5 370/1/5
f 372/1/5 363/1/5 362/1/5
f 373/1/5 363/1/5 372/1/5
f 374/1/5 365/1/5 364/1/5
f 375/1/5 365/1/5 374/1/5
f 377/1/5 368/1/5 367/1/5
f 378/1/5 368/1/5 377/1/5
f 379/1/5 370/1/5 369/1/5
f 380/1/5 370/1/5 379/1/5
f 381/1/5 372/1/5 371/1/5
f 382/1/5 372/1/5 381/1/5
f 383/1/5 374/1/5 373/1/5
f 384/1/5 374/1/5 383/1/5
f 385/1/5 376/1/5 375/1/5
f 386/1/5 376/1/5 385/1/5
f 387/2/5 384/2/5 383/2/5
f 387/2/5 382/2/5 381/2/5
f 387/2/5 386/2/5 385/2/5
f 387/2/5 385/2/5 384/2/5
f 387/2/5 380/2/5 379/2/5
f 387/2/5 383/2/5 382/2/5
f 387/2/5 378/2/5 377/2/5
f 387/2/5 381/2/5 380/2/5
f 387/2/5 379/2/5 378/2/5
f 388/2/5 386/2/5 387/2/5
f 393/2/5 390/2/5 389/2/5
f 394/2/5 390/2/5 393/2/5
f 395/2/5 392/2/5 391/2/5
f 396/2/5 392/2/5 395/2/5
f 401/2/5 398/2/5 397/2/5
f 402/2/5 398/2/5 401/2/5
f 403/2/5 400/2/5 399/2/5
f 404/2/5 400/2/5 403/2/5
f 409/2/5 406/2/5 405/2/5
f 410/2/5 406/2/5 409/2/5
f 411/2/5 408/2/5 407/2/5
f 412/2/5 408/2/5 411/2/5
f 417/2/5 414/2/5 413/2/5
f 418/2/5 414/2/5 417/2/5
f 419/2/5 416/2/5 415/2/5
f 420/2/5 416/2/5 419/2/5
f 421/2/6 422/2/6 425/2/6
f 425/2/6 422/2/6 426/2/6
f 426/2/6 422/2/6 427/2/6
f 427/2/6 422/2/6 428/2/6
f 428/2/6 422/2/6 429/2/6
f 423/2/6 424/2/6 430/2/6
f 430/2/6 424/2/6 431/2/6
f 431/2/6 424/2/6 432/2/6
f 432/2/6 424/2/6 433/2/6
f 433/2/6 424/2/6 434/2/6
f 425/1/6 426/1/6 435/1/6
f 435/1/6 426/1/6 436/1/6
f 427/1/6 428/1/6 437/1/6
f 437/1/6 428/1/6 438/1/6
f 429/1/6 430/1/6 439/1/6
f 439/1/6 430/1/6 440/1/6
f 431/1/6 432/1/6 441/1/6
f 441/1/6 432/1/6 442/1/6
f 433/1/6 434/1/6 443/1/6
f 443/1/6 434/1/6 444/1/6
f 436/1/6 437/1/6 446/1/6
f 446/1/6 437/1/6 447/1/6
f 438/1/6 439/1/6 448/1/6
f 448/1/6 439/1/6 449/1/6
f 440/1/6 441/1/6 450/1/6
f 450/1/6 441/1/6 451/1/6
f 442/1/6 443/1/6 452/1/6
f 452/1/6 443/1/6 453/1/6
f 445/1/6 446/1/6 455/1/6
f 455/1/6 446/1/6 456/1/6
f 447/1/6 448/1/6 457/1/6
f 457/1/6 448/1/6 458/1/6
f 449/1/6 450/1/6 459/1/6
f 459/1/6 450/1/6 460/1/6
f 451/1/6 452/1/6 461/1/6
f 461/1/6 452/1/6 462/1/6
f 453/1/6 454/1/6 463/1/6
f 463/1/6 454/1/6 464/1/6
f 457/2/6 458/2/6 465/2/6
f 455/2/6 456/2/6 465/2/6
f 456/2/6 457/2/6 465/2/6
f 458/2/6 459/2/6 465/2/6
f 465/2/6 459/2/6 466/2/6
f 461/2/6 462/2/6 467/2/6
f 463/2/6 464/2/6 467/2/6
f 462/2/6 463/2/6 467/2/6
f 460/2/6 461/2/6 467/2/6
f 467/2/6 464/2/6 468/2/6
f 469/2/6 470/2/6 473/2/6
f 473/2/6 470/2/6 474/2/6
f 471/2/6 472/2/6 475/2/6
f 475/2/6 472/2/6 476/2/6
f 477/2/6 478/2/6 481/2/6
f 481/2/6 478/2/6 482/2/6
f 479/2/6 480/2/6 483/2/6
f 483/2/6 480/2/6 484/2/6
f 485/2/6 486/2/6 487/2/6
f 487/2/6 486/2/6 488/2/6
f 489/2/6 490/2/6 491/2/6
f 491/2/6 490/2/6 492/2/6
