# MagicaVoxel @ Ephtracy

# group
o 

# material
mtllib Campfire 2.mtl
usemtl palette

# normals
vn -1 0 0
vn 1 0 0
vn 0 0 1
vn 0 0 -1
vn 0 -1 0
vn 0 1 0

# texcoords
vt 0.0722656 0.5
vt 0.0761719 0.5
vt 0.111328 0.5
vt 0.123047 0.5

# verts
v -0.35 -0.5 0.25
v -0.35 -0.5 0.15
v -0.35 -0.5 -0.15
v -0.35 -0.5 -0.25
v -0.35 -0.4 0.25
v -0.35 -0.4 0.15
v -0.35 -0.4 -0.15
v -0.35 -0.4 -0.25
v -0.35 -0.3 0.25
v -0.35 -0.3 0.15
v -0.35 -0.3 -0.15
v -0.35 -0.3 -0.25
v -0.25 -0.5 0.35
v -0.25 -0.5 0.25
v -0.25 -0.5 0.15
v -0.25 -0.5 0.05
v -0.25 -0.5 -0.05
v -0.25 -0.5 -0.15
v -0.25 -0.5 -0.25
v -0.25 -0.5 -0.35
v -0.25 -0.4 0.35
v -0.25 -0.4 0.25
v -0.25 -0.4 0.15
v -0.25 -0.4 0.05
v -0.25 -0.4 -0.05
v -0.25 -0.4 -0.15
v -0.25 -0.4 -0.25
v -0.25 -0.4 -0.35
v -0.25 -0.3 0.35
v -0.25 -0.3 0.25
v -0.25 -0.3 0.15
v -0.25 -0.3 0.05
v -0.25 -0.3 -0.05
v -0.25 -0.3 -0.15
v -0.25 -0.3 -0.25
v -0.25 -0.3 -0.35
v -0.25 -0.2 0.15
v -0.25 -0.2 0.05
v -0.25 -0.2 -0.05
v -0.25 -0.2 -0.15
v -0.15 -0.5 0.05
v -0.15 -0.5 -0.05
v -0.15 -0.4 0.05
v -0.15 -0.4 -0.05
v -0.15 -0.3 0.25
v -0.15 -0.3 0.15
v -0.15 -0.3 0.05
v -0.15 -0.3 -0.05
v -0.15 -0.3 -0.15
v -0.15 -0.3 -0.25
v -0.15 -0.2 0.25
v -0.15 -0.2 0.15
v -0.15 -0.2 0.05
v -0.15 -0.2 -0.05
v -0.15 -0.2 -0.15
v -0.15 -0.2 -0.25
v -0.15 -0.1 0.05
v -0.15 -0.1 -0.05
v -0.05 -0.2 0.15
v -0.05 -0.2 0.05
v -0.05 -0.2 -0.05
v -0.05 -0.2 -0.15
v -0.05 -0.1 0.15
v -0.05 -0.1 0.05
v -0.05 -0.1 -0.05
v -0.05 -0.1 -0.15
v 0.05 -0.5 0.25
v 0.05 -0.5 0.15
v 0.05 -0.5 -0.15
v 0.05 -0.5 -0.25
v 0.05 -0.4 0.25
v 0.05 -0.4 0.15
v 0.05 -0.4 -0.15
v 0.05 -0.4 -0.25
v 0.05 -0.3 0.25
v 0.05 -0.3 0.15
v 0.05 -0.3 0.05
v 0.05 -0.3 -0.05
v 0.05 -0.3 -0.15
v 0.05 -0.3 -0.25
v 0.05 -0.2 0.25
v 0.05 -0.2 0.15
v 0.05 -0.2 -0.15
v 0.05 -0.2 -0.25
v 0.05 -0.1 0.05
v 0.05 -0.1 -0.05
v 0.15 -0.5 0.35
v 0.15 -0.5 0.25
v 0.15 -0.5 -0.25
v 0.15 -0.5 -0.35
v 0.15 -0.4 0.35
v 0.15 -0.4 0.25
v 0.15 -0.4 -0.25
v 0.15 -0.4 -0.35
v 0.15 -0.3 0.35
v 0.15 -0.3 0.25
v 0.15 -0.3 -0.25
v 0.15 -0.3 -0.35
v -0.15 -0.5 0.35
v -0.15 -0.5 0.25
v -0.15 -0.5 -0.25
v -0.15 -0.5 -0.35
v -0.15 -0.4 0.35
v -0.15 -0.4 0.25
v -0.15 -0.4 -0.25
v -0.15 -0.4 -0.35
v -0.15 -0.3 0.35
v -0.15 -0.3 0.25
v -0.15 -0.3 -0.25
v -0.15 -0.3 -0.35
v -0.05 -0.5 0.25
v -0.05 -0.5 0.15
v -0.05 -0.5 -0.15
v -0.05 -0.5 -0.25
v -0.05 -0.4 0.25
v -0.05 -0.4 0.15
v -0.05 -0.4 -0.15
v -0.05 -0.4 -0.25
v -0.05 -0.3 0.25
v -0.05 -0.3 0.15
v -0.05 -0.3 0.05
v -0.05 -0.3 -0.05
v -0.05 -0.3 -0.15
v -0.05 -0.3 -0.25
v -0.05 -0.2 0.25
v -0.05 -0.2 0.15
v -0.05 -0.2 -0.15
v -0.05 -0.2 -0.25
v -0.05 -0.1 0.05
v -0.05 -0.1 -0.05
v 0.05 -0.2 0.15
v 0.05 -0.2 0.05
v 0.05 -0.2 -0.05
v 0.05 -0.2 -0.15
v 0.05 -0.1 0.15
v 0.05 -0.1 0.05
v 0.05 -0.1 -0.05
v 0.05 -0.1 -0.15
v 0.15 -0.5 0.05
v 0.15 -0.5 -0.05
v 0.15 -0.4 0.05
v 0.15 -0.4 -0.05
v 0.15 -0.3 0.25
v 0.15 -0.3 0.15
v 0.15 -0.3 0.05
v 0.15 -0.3 -0.05
v 0.15 -0.3 -0.15
v 0.15 -0.3 -0.25
v 0.15 -0.2 0.25
v 0.15 -0.2 0.15
v 0.15 -0.2 0.05
v 0.15 -0.2 -0.05
v 0.15 -0.2 -0.15
v 0.15 -0.2 -0.25
v 0.15 -0.1 0.05
v 0.15 -0.1 -0.05
v 0.25 -0.5 0.35
v 0.25 -0.5 0.25
v 0.25 -0.5 0.15
v 0.25 -0.5 0.05
v 0.25 -0.5 -0.05
v 0.25 -0.5 -0.15
v 0.25 -0.5 -0.25
v 0.25 -0.5 -0.35
v 0.25 -0.4 0.35
v 0.25 -0.4 0.25
v 0.25 -0.4 0.15
v 0.25 -0.4 0.05
v 0.25 -0.4 -0.05
v 0.25 -0.4 -0.15
v 0.25 -0.4 -0.25
v 0.25 -0.4 -0.35
v 0.25 -0.3 0.35
v 0.25 -0.3 0.25
v 0.25 -0.3 0.15
v 0.25 -0.3 0.05
v 0.25 -0.3 -0.05
v 0.25 -0.3 -0.15
v 0.25 -0.3 -0.25
v 0.25 -0.3 -0.35
v 0.25 -0.2 0.15
v 0.25 -0.2 0.05
v 0.25 -0.2 -0.05
v 0.25 -0.2 -0.15
v 0.35 -0.5 0.25
v 0.35 -0.5 0.15
v 0.35 -0.5 -0.15
v 0.35 -0.5 -0.25
v 0.35 -0.4 0.25
v 0.35 -0.4 0.15
v 0.35 -0.4 -0.15
v 0.35 -0.4 -0.25
v 0.35 -0.3 0.25
v 0.35 -0.3 0.15
v 0.35 -0.3 -0.15
v 0.35 -0.3 -0.25
v -0.25 -0.5 0.35
v -0.25 -0.4 0.35
v -0.25 -0.3 0.35
v -0.15 -0.5 0.35
v -0.15 -0.4 0.35
v -0.15 -0.3 0.35
v 0.15 -0.5 0.35
v 0.15 -0.4 0.35
v 0.15 -0.3 0.35
v 0.25 -0.5 0.35
v 0.25 -0.4 0.35
v 0.25 -0.3 0.35
v -0.35 -0.5 0.25
v -0.35 -0.4 0.25
v -0.35 -0.3 0.25
v -0.25 -0.5 0.25
v -0.25 -0.4 0.25
v -0.25 -0.3 0.25
v -0.15 -0.5 0.25
v -0.15 -0.4 0.25
v -0.15 -0.3 0.25
v -0.15 -0.2 0.25
v -0.05 -0.5 0.25
v -0.05 -0.4 0.25
v -0.05 -0.3 0.25
v -0.05 -0.2 0.25
v 0.05 -0.5 0.25
v 0.05 -0.4 0.25
v 0.05 -0.3 0.25
v 0.05 -0.2 0.25
v 0.15 -0.5 0.25
v 0.15 -0.4 0.25
v 0.15 -0.3 0.25
v 0.15 -0.2 0.25
v 0.25 -0.5 0.25
v 0.25 -0.4 0.25
v 0.25 -0.3 0.25
v 0.35 -0.5 0.25
v 0.35 -0.4 0.25
v 0.35 -0.3 0.25
v -0.25 -0.3 0.15
v -0.25 -0.2 0.15
v -0.15 -0.3 0.15
v -0.15 -0.2 0.15
v -0.05 -0.5 0.15
v -0.05 -0.4 0.15
v -0.05 -0.3 0.15
v -0.05 -0.2 0.15
v -0.05 -0.1 0.15
v 0.05 -0.5 0.15
v 0.05 -0.4 0.15
v 0.05 -0.3 0.15
v 0.05 -0.2 0.15
v 0.05 -0.1 0.15
v 0.15 -0.3 0.15
v 0.15 -0.2 0.15
v 0.25 -0.3 0.15
v 0.25 -0.2 0.15
v -0.15 -0.2 0.05
v -0.15 -0.1 0.05
v -0.05 -0.2 0.05
v -0.05 -0.1 0.05
v 0.05 -0.2 0.05
v 0.05 -0.1 0.05
v 0.15 -0.2 0.05
v 0.15 -0.1 0.05
v -0.25 -0.5 -0.05
v -0.25 -0.4 -0.05
v -0.25 -0.3 -0.05
v -0.25 -0.2 -0.05
v -0.15 -0.5 -0.05
v -0.15 -0.4 -0.05
v -0.15 -0.3 -0.05
v -0.15 -0.2 -0.05
v -0.05 -0.3 -0.05
v -0.05 -0.1 -0.05
v 0.05 -0.3 -0.05
v 0.05 -0.1 -0.05
v 0.15 -0.5 -0.05
v 0.15 -0.4 -0.05
v 0.15 -0.3 -0.05
v 0.15 -0.2 -0.05
v 0.25 -0.5 -0.05
v 0.25 -0.4 -0.05
v 0.25 -0.3 -0.05
v 0.25 -0.2 -0.05
v -0.35 -0.5 -0.15
v -0.35 -0.4 -0.15
v -0.35 -0.3 -0.15
v -0.25 -0.5 -0.15
v -0.25 -0.4 -0.15
v -0.25 -0.3 -0.15
v 0.25 -0.5 -0.15
v 0.25 -0.4 -0.15
v 0.25 -0.3 -0.15
v 0.35 -0.5 -0.15
v 0.35 -0.4 -0.15
v 0.35 -0.3 -0.15
v -0.35 -0.5 0.15
v -0.35 -0.4 0.15
v -0.35 -0.3 0.15
v -0.25 -0.5 0.15
v -0.25 -0.4 0.15
v -0.25 -0.3 0.15
v 0.25 -0.5 0.15
v 0.25 -0.4 0.15
v 0.25 -0.3 0.15
v 0.35 -0.5 0.15
v 0.35 -0.4 0.15
v 0.35 -0.3 0.15
v -0.25 -0.5 0.05
v -0.25 -0.4 0.05
v -0.25 -0.3 0.05
v -0.25 -0.2 0.05
v -0.15 -0.5 0.05
v -0.15 -0.4 0.05
v -0.15 -0.3 0.05
v -0.15 -0.2 0.05
v -0.05 -0.3 0.05
v -0.05 -0.1 0.05
v 0.05 -0.3 0.05
v 0.05 -0.1 0.05
v 0.15 -0.5 0.05
v 0.15 -0.4 0.05
v 0.15 -0.3 0.05
v 0.15 -0.2 0.05
v 0.25 -0.5 0.05
v 0.25 -0.4 0.05
v 0.25 -0.3 0.05
v 0.25 -0.2 0.05
v -0.15 -0.2 -0.05
v -0.15 -0.1 -0.05
v -0.05 -0.2 -0.05
v -0.05 -0.1 -0.05
v 0.05 -0.2 -0.05
v 0.05 -0.1 -0.05
v 0.15 -0.2 -0.05
v 0.15 -0.1 -0.05
v -0.25 -0.3 -0.15
v -0.25 -0.2 -0.15
v -0.15 -0.3 -0.15
v -0.15 -0.2 -0.15
v -0.05 -0.5 -0.15
v -0.05 -0.4 -0.15
v -0.05 -0.3 -0.15
v -0.05 -0.2 -0.15
v -0.05 -0.1 -0.15
v 0.05 -0.5 -0.15
v 0.05 -0.4 -0.15
v 0.05 -0.3 -0.15
v 0.05 -0.2 -0.15
v 0.05 -0.1 -0.15
v 0.15 -0.3 -0.15
v 0.15 -0.2 -0.15
v 0.25 -0.3 -0.15
v 0.25 -0.2 -0.15
v -0.35 -0.5 -0.25
v -0.35 -0.4 -0.25
v -0.35 -0.3 -0.25
v -0.25 -0.5 -0.25
v -0.25 -0.4 -0.25
v -0.25 -0.3 -0.25
v -0.15 -0.5 -0.25
v -0.15 -0.4 -0.25
v -0.15 -0.3 -0.25
v -0.15 -0.2 -0.25
v -0.05 -0.5 -0.25
v -0.05 -0.4 -0.25
v -0.05 -0.3 -0.25
v -0.05 -0.2 -0.25
v 0.05 -0.5 -0.25
v 0.05 -0.4 -0.25
v 0.05 -0.3 -0.25
v 0.05 -0.2 -0.25
v 0.15 -0.5 -0.25
v 0.15 -0.4 -0.25
v 0.15 -0.3 -0.25
v 0.15 -0.2 -0.25
v 0.25 -0.5 -0.25
v 0.25 -0.4 -0.25
v 0.25 -0.3 -0.25
v 0.35 -0.5 -0.25
v 0.35 -0.4 -0.25
v 0.35 -0.3 -0.25
v -0.25 -0.5 -0.35
v -0.25 -0.4 -0.35
v -0.25 -0.3 -0.35
v -0.15 -0.5 -0.35
v -0.15 -0.4 -0.35
v -0.15 -0.3 -0.35
v 0.15 -0.5 -0.35
v 0.15 -0.4 -0.35
v 0.15 -0.3 -0.35
v 0.25 -0.5 -0.35
v 0.25 -0.4 -0.35
v 0.25 -0.3 -0.35
v -0.25 -0.5 0.35
v -0.15 -0.5 0.35
v 0.15 -0.5 0.35
v 0.25 -0.5 0.35
v -0.35 -0.5 0.25
v -0.25 -0.5 0.25
v -0.15 -0.5 0.25
v -0.05 -0.5 0.25
v 0.05 -0.5 0.25
v 0.15 -0.5 0.25
v 0.25 -0.5 0.25
v 0.35 -0.5 0.25
v -0.35 -0.5 0.15
v -0.25 -0.5 0.15
v -0.05 -0.5 0.15
v 0.05 -0.5 0.15
v 0.25 -0.5 0.15
v 0.35 -0.5 0.15
v -0.25 -0.5 0.05
v -0.15 -0.5 0.05
v 0.15 -0.5 0.05
v 0.25 -0.5 0.05
v -0.25 -0.5 -0.05
v -0.15 -0.5 -0.05
v 0.15 -0.5 -0.05
v 0.25 -0.5 -0.05
v -0.35 -0.5 -0.15
v -0.25 -0.5 -0.15
v -0.05 -0.5 -0.15
v 0.05 -0.5 -0.15
v 0.25 -0.5 -0.15
v 0.35 -0.5 -0.15
v -0.35 -0.5 -0.25
v -0.25 -0.5 -0.25
v -0.15 -0.5 -0.25
v -0.05 -0.5 -0.25
v 0.05 -0.5 -0.25
v 0.15 -0.5 -0.25
v 0.25 -0.5 -0.25
v 0.35 -0.5 -0.25
v -0.25 -0.5 -0.35
v -0.15 -0.5 -0.35
v 0.15 -0.5 -0.35
v 0.25 -0.5 -0.35
v -0.25 -0.3 0.35
v -0.15 -0.3 0.35
v 0.15 -0.3 0.35
v 0.25 -0.3 0.35
v -0.35 -0.3 0.25
v -0.25 -0.3 0.25
v -0.15 -0.3 0.25
v 0.15 -0.3 0.25
v 0.25 -0.3 0.25
v 0.35 -0.3 0.25
v -0.35 -0.3 0.15
v -0.25 -0.3 0.15
v -0.15 -0.3 0.15
v 0.15 -0.3 0.15
v 0.25 -0.3 0.15
v 0.35 -0.3 0.15
v -0.05 -0.3 0.05
v 0.05 -0.3 0.05
v -0.05 -0.3 -0.05
v 0.05 -0.3 -0.05
v -0.35 -0.3 -0.15
v -0.25 -0.3 -0.15
v -0.15 -0.3 -0.15
v 0.15 -0.3 -0.15
v 0.25 -0.3 -0.15
v 0.35 -0.3 -0.15
v -0.35 -0.3 -0.25
v -0.25 -0.3 -0.25
v -0.15 -0.3 -0.25
v 0.15 -0.3 -0.25
v 0.25 -0.3 -0.25
v 0.35 -0.3 -0.25
v -0.25 -0.3 -0.35
v -0.15 -0.3 -0.35
v 0.15 -0.3 -0.35
v 0.25 -0.3 -0.35
v -0.15 -0.2 0.25
v -0.05 -0.2 0.25
v 0.05 -0.2 0.25
v 0.15 -0.2 0.25
v -0.25 -0.2 0.15
v -0.15 -0.2 0.15
v -0.05 -0.2 0.15
v 0.05 -0.2 0.15
v 0.15 -0.2 0.15
v 0.25 -0.2 0.15
v -0.25 -0.2 0.05
v -0.15 -0.2 0.05
v -0.05 -0.2 0.05
v 0.05 -0.2 0.05
v 0.15 -0.2 0.05
v 0.25 -0.2 0.05
v -0.25 -0.2 -0.05
v -0.15 -0.2 -0.05
v -0.05 -0.2 -0.05
v 0.05 -0.2 -0.05
v 0.15 -0.2 -0.05
v 0.25 -0.2 -0.05
v -0.25 -0.2 -0.15
v -0.15 -0.2 -0.15
v -0.05 -0.2 -0.15
v 0.05 -0.2 -0.15
v 0.15 -0.2 -0.15
v 0.25 -0.2 -0.15
v -0.15 -0.2 -0.25
v -0.05 -0.2 -0.25
v 0.05 -0.2 -0.25
v 0.15 -0.2 -0.25
v -0.05 -0.1 0.15
v 0.05 -0.1 0.15
v -0.15 -0.1 0.05
v -0.05 -0.1 0.05
v 0.05 -0.1 0.05
v 0.15 -0.1 0.05
v -0.15 -0.1 -0.05
v -0.05 -0.1 -0.05
v 0.05 -0.1 -0.05
v 0.15 -0.1 -0.05
v -0.05 -0.1 -0.15
v 0.05 -0.1 -0.15

# faces
f 5/1/1 2/1/1 1/1/1
f 6/1/1 2/1/1 5/1/1
f 7/1/1 4/1/1 3/1/1
f 8/1/1 4/1/1 7/1/1
f 9/2/1 6/2/1 5/2/1
f 10/2/1 6/2/1 9/2/1
f 11/2/1 8/2/1 7/2/1
f 12/2/1 8/2/1 11/2/1
f 21/1/1 14/1/1 13/1/1
f 22/1/1 14/1/1 21/1/1
f 23/1/1 16/1/1 15/1/1
f 24/1/1 16/1/1 23/1/1
f 25/1/1 18/1/1 17/1/1
f 26/1/1 18/1/1 25/1/1
f 27/1/1 20/1/1 19/1/1
f 28/1/1 20/1/1 27/1/1
f 29/2/1 22/2/1 21/2/1
f 30/2/1 22/2/1 29/2/1
f 31/2/1 24/2/1 23/2/1
f 32/2/1 24/2/1 31/2/1
f 33/2/1 26/2/1 25/2/1
f 34/2/1 26/2/1 33/2/1
f 35/2/1 28/2/1 27/2/1
f 36/2/1 28/2/1 35/2/1
f 37/4/1 32/4/1 31/4/1
f 38/4/1 32/4/1 37/4/1
f 39/4/1 34/4/1 33/4/1
f 40/4/1 34/4/1 39/4/1
f 43/1/1 42/1/1 41/1/1
f 44/1/1 42/1/1 43/1/1
f 47/2/1 44/2/1 43/2/1
f 48/2/1 44/2/1 47/2/1
f 51/4/1 46/4/1 45/4/1
f 52/4/1 46/4/1 51/4/1
f 53/3/1 48/3/1 47/3/1
f 54/3/1 48/3/1 53/3/1
f 55/4/1 50/4/1 49/4/1
f 56/4/1 50/4/1 55/4/1
f 57/3/1 54/3/1 53/3/1
f 58/3/1 54/3/1 57/3/1
f 63/3/1 60/3/1 59/3/1
f 64/3/1 60/3/1 63/3/1
f 65/3/1 62/3/1 61/3/1
f 66/3/1 62/3/1 65/3/1
f 71/1/1 68/1/1 67/1/1
f 72/1/1 68/1/1 71/1/1
f 73/1/1 70/1/1 69/1/1
f 74/1/1 70/1/1 73/1/1
f 75/2/1 72/2/1 71/2/1
f 76/2/1 72/2/1 75/2/1
f 79/2/1 74/2/1 73/2/1
f 80/2/1 74/2/1 79/2/1
f 81/4/1 76/4/1 75/4/1
f 82/4/1 76/4/1 81/4/1
f 83/4/1 80/4/1 79/4/1
f 84/4/1 80/4/1 83/4/1
f 85/3/1 78/3/1 77/3/1
f 86/3/1 78/3/1 85/3/1
f 91/1/1 88/1/1 87/1/1
f 92/1/1 88/1/1 91/1/1
f 93/1/1 90/1/1 89/1/1
f 94/1/1 90/1/1 93/1/1
f 95/2/1 92/2/1 91/2/1
f 96/2/1 92/2/1 95/2/1
f 97/2/1 94/2/1 93/2/1
f 98/2/1 94/2/1 97/2/1
f 99/1/2 100/1/2 103/1/2
f 103/1/2 100/1/2 104/1/2
f 101/1/2 102/1/2 105/1/2
f 105/1/2 102/1/2 106/1/2
f 103/2/2 104/2/2 107/2/2
f 107/2/2 104/2/2 108/2/2
f 105/2/2 106/2/2 109/2/2
f 109/2/2 106/2/2 110/2/2
f 111/1/2 112/1/2 115/1/2
f 115/1/2 112/1/2 116/1/2
f 113/1/2 114/1/2 117/1/2
f 117/1/2 114/1/2 118/1/2
f 115/2/2 116/2/2 119/2/2
f 119/2/2 116/2/2 120/2/2
f 117/2/2 118/2/2 123/2/2
f 123/2/2 118/2/2 124/2/2
f 119/4/2 120/4/2 125/4/2
f 125/4/2 120/4/2 126/4/2
f 123/4/2 124/4/2 127/4/2
f 127/4/2 124/4/2 128/4/2
f 121/3/2 122/3/2 129/3/2
f 129/3/2 122/3/2 130/3/2
f 131/3/2 132/3/2 135/3/2
f 135/3/2 132/3/2 136/3/2
f 133/3/2 134/3/2 137/3/2
f 137/3/2 134/3/2 138/3/2
f 139/1/2 140/1/2 141/1/2
f 141/1/2 140/1/2 142/1/2
f 141/2/2 142/2/2 145/2/2
f 145/2/2 142/2/2 146/2/2
f 143/4/2 144/4/2 149/4/2
f 149/4/2 144/4/2 150/4/2
f 145/3/2 146/3/2 151/3/2
f 151/3/2 146/3/2 152/3/2
f 147/4/2 148/4/2 153/4/2
f 153/4/2 148/4/2 154/4/2
f 151/3/2 152/3/2 155/3/2
f 155/3/2 152/3/2 156/3/2
f 157/1/2 158/1/2 165/1/2
f 165/1/2 158/1/2 166/1/2
f 159/1/2 160/1/2 167/1/2
f 167/1/2 160/1/2 168/1/2
f 161/1/2 162/1/2 169/1/2
f 169/1/2 162/1/2 170/1/2
f 163/1/2 164/1/2 171/1/2
f 171/1/2 164/1/2 172/1/2
f 165/2/2 166/2/2 173/2/2
f 173/2/2 166/2/2 174/2/2
f 167/2/2 168/2/2 175/2/2
f 175/2/2 168/2/2 176/2/2
f 169/2/2 170/2/2 177/2/2
f 177/2/2 170/2/2 178/2/2
f 171/2/2 172/2/2 179/2/2
f 179/2/2 172/2/2 180/2/2
f 175/4/2 176/4/2 181/4/2
f 181/4/2 176/4/2 182/4/2
f 177/4/2 178/4/2 183/4/2
f 183/4/2 178/4/2 184/4/2
f 185/1/2 186/1/2 189/1/2
f 189/1/2 186/1/2 190/1/2
f 187/1/2 188/1/2 191/1/2
f 191/1/2 188/1/2 192/1/2
f 189/2/2 190/2/2 193/2/2
f 193/2/2 190/2/2 194/2/2
f 191/2/2 192/2/2 195/2/2
f 195/2/2 192/2/2 196/2/2
f 200/1/3 198/1/3 197/1/3
f 201/2/3 199/2/3 198/2/3
f 201/1/3 198/1/3 200/1/3
f 202/2/3 199/2/3 201/2/3
f 206/1/3 204/1/3 203/1/3
f 207/2/3 205/2/3 204/2/3
f 207/1/3 204/1/3 206/1/3
f 208/2/3 205/2/3 207/2/3
f 212/1/3 210/1/3 209/1/3
f 213/2/3 211/2/3 210/2/3
f 213/1/3 210/1/3 212/1/3
f 214/2/3 211/2/3 213/2/3
f 219/1/3 216/1/3 215/1/3
f 220/2/3 217/2/3 216/2/3
f 220/1/3 216/1/3 219/1/3
f 221/4/3 218/4/3 217/4/3
f 221/2/3 217/2/3 220/2/3
f 222/4/3 218/4/3 221/4/3
f 227/1/3 224/1/3 223/1/3
f 228/2/3 225/2/3 224/2/3
f 228/1/3 224/1/3 227/1/3
f 229/4/3 226/4/3 225/4/3
f 229/2/3 225/2/3 228/2/3
f 230/4/3 226/4/3 229/4/3
f 234/1/3 232/1/3 231/1/3
f 235/2/3 233/2/3 232/2/3
f 235/1/3 232/1/3 234/1/3
f 236/2/3 233/2/3 235/2/3
f 239/4/3 238/4/3 237/4/3
f 240/4/3 238/4/3 239/4/3
f 246/1/3 242/1/3 241/1/3
f 247/2/3 243/2/3 242/2/3
f 247/1/3 242/1/3 246/1/3
f 248/3/3 244/3/3 243/3/3
f 248/2/3 243/2/3 247/2/3
f 248/3/3 245/3/3 244/3/3
f 249/3/3 245/3/3 248/3/3
f 250/3/3 245/3/3 249/3/3
f 253/4/3 252/4/3 251/4/3
f 254/4/3 252/4/3 253/4/3
f 257/3/3 256/3/3 255/3/3
f 258/3/3 256/3/3 257/3/3
f 261/3/3 260/3/3 259/3/3
f 262/3/3 260/3/3 261/3/3
f 267/1/3 264/1/3 263/1/3
f 268/2/3 265/2/3 264/2/3
f 268/1/3 264/1/3 267/1/3
f 269/4/3 266/4/3 265/4/3
f 269/2/3 265/2/3 268/2/3
f 270/4/3 266/4/3 269/4/3
f 273/3/3 272/3/3 271/3/3
f 274/3/3 272/3/3 273/3/3
f 279/1/3 276/1/3 275/1/3
f 280/2/3 277/2/3 276/2/3
f 280/1/3 276/1/3 279/1/3
f 281/4/3 278/4/3 277/4/3
f 281/2/3 277/2/3 280/2/3
f 282/4/3 278/4/3 281/4/3
f 286/1/3 284/1/3 283/1/3
f 287/2/3 285/2/3 284/2/3
f 287/1/3 284/1/3 286/1/3
f 288/2/3 285/2/3 287/2/3
f 292/1/3 290/1/3 289/1/3
f 293/2/3 291/2/3 290/2/3
f 293/1/3 290/1/3 292/1/3
f 294/2/3 291/2/3 293/2/3
f 295/1/4 296/1/4 298/1/4
f 296/2/4 297/2/4 299/2/4
f 298/1/4 296/1/4 299/1/4
f 299/2/4 297/2/4 300/2/4
f 301/1/4 302/1/4 304/1/4
f 302/2/4 303/2/4 305/2/4
f 304/1/4 302/1/4 305/1/4
f 305/2/4 303/2/4 306/2/4
f 307/1/4 308/1/4 311/1/4
f 308/2/4 309/2/4 312/2/4
f 311/1/4 308/1/4 312/1/4
f 309/4/4 310/4/4 313/4/4
f 312/2/4 309/2/4 313/2/4
f 313/4/4 310/4/4 314/4/4
f 315/3/4 316/3/4 317/3/4
f 317/3/4 316/3/4 318/3/4
f 319/1/4 320/1/4 323/1/4
f 320/2/4 321/2/4 324/2/4
f 323/1/4 320/1/4 324/1/4
f 321/4/4 322/4/4 325/4/4
f 324/2/4 321/2/4 325/2/4
f 325/4/4 322/4/4 326/4/4
f 327/3/4 328/3/4 329/3/4
f 329/3/4 328/3/4 330/3/4
f 331/3/4 332/3/4 333/3/4
f 333/3/4 332/3/4 334/3/4
f 335/4/4 336/4/4 337/4/4
f 337/4/4 336/4/4 338/4/4
f 339/1/4 340/1/4 344/1/4
f 340/2/4 341/2/4 345/2/4
f 344/1/4 340/1/4 345/1/4
f 341/3/4 342/3/4 346/3/4
f 345/2/4 341/2/4 346/2/4
f 342/3/4 343/3/4 346/3/4
f 346/3/4 343/3/4 347/3/4
f 347/3/4 343/3/4 348/3/4
f 349/4/4 350/4/4 351/4/4
f 351/4/4 350/4/4 352/4/4
f 353/1/4 354/1/4 356/1/4
f 354/2/4 355/2/4 357/2/4
f 356/1/4 354/1/4 357/1/4
f 357/2/4 355/2/4 358/2/4
f 359/1/4 360/1/4 363/1/4
f 360/2/4 361/2/4 364/2/4
f 363/1/4 360/1/4 364/1/4
f 361/4/4 362/4/4 365/4/4
f 364/2/4 361/2/4 365/2/4
f 365/4/4 362/4/4 366/4/4
f 367/1/4 368/1/4 371/1/4
f 368/2/4 369/2/4 372/2/4
f 371/1/4 368/1/4 372/1/4
f 369/4/4 370/4/4 373/4/4
f 372/2/4 369/2/4 373/2/4
f 373/4/4 370/4/4 374/4/4
f 375/1/4 376/1/4 378/1/4
f 376/2/4 377/2/4 379/2/4
f 378/1/4 376/1/4 379/1/4
f 379/2/4 377/2/4 380/2/4
f 381/1/4 382/1/4 384/1/4
f 382/2/4 383/2/4 385/2/4
f 384/1/4 382/1/4 385/1/4
f 385/2/4 383/2/4 386/2/4
f 387/1/4 388/1/4 390/1/4
f 388/2/4 389/2/4 391/2/4
f 390/1/4 388/1/4 391/1/4
f 391/2/4 389/2/4 392/2/4
f 398/1/5 394/1/5 393/1/5
f 399/1/5 394/1/5 398/1/5
f 402/1/5 396/1/5 395/1/5
f 403/1/5 396/1/5 402/1/5
f 405/1/5 400/1/5 399/1/5
f 405/1/5 398/1/5 397/1/5
f 405/1/5 399/1/5 398/1/5
f 406/1/5 400/1/5 405/1/5
f 407/1/5 400/1/5 406/1/5
f 408/1/5 404/1/5 403/1/5
f 408/1/5 403/1/5 402/1/5
f 408/1/5 402/1/5 401/1/5
f 409/1/5 404/1/5 408/1/5
f 410/1/5 404/1/5 409/1/5
f 411/1/5 407/1/5 406/1/5
f 411/1/5 409/1/5 408/1/5
f 411/1/5 408/1/5 407/1/5
f 412/1/5 409/1/5 411/1/5
f 413/1/5 409/1/5 412/1/5
f 414/1/5 409/1/5 413/1/5
f 416/1/5 413/1/5 412/1/5
f 417/1/5 413/1/5 416/1/5
f 420/1/5 416/1/5 415/1/5
f 420/1/5 418/1/5 417/1/5
f 420/1/5 417/1/5 416/1/5
f 421/1/5 418/1/5 420/1/5
f 422/1/5 418/1/5 421/1/5
f 423/1/5 418/1/5 422/1/5
f 425/1/5 420/1/5 419/1/5
f 425/1/5 421/1/5 420/1/5
f 426/1/5 421/1/5 425/1/5
f 427/1/5 421/1/5 426/1/5
f 428/1/5 421/1/5 427/1/5
f 429/1/5 423/1/5 422/1/5
f 429/1/5 424/1/5 423/1/5
f 430/1/5 424/1/5 429/1/5
f 431/1/5 424/1/5 430/1/5
f 432/1/5 424/1/5 431/1/5
f 433/1/5 427/1/5 426/1/5
f 434/1/5 427/1/5 433/1/5
f 435/1/5 431/1/5 430/1/5
f 436/1/5 431/1/5 435/1/5
f 437/2/6 438/2/6 442/2/6
f 442/2/6 438/2/6 443/2/6
f 439/2/6 440/2/6 444/2/6
f 444/2/6 440/2/6 445/2/6
f 442/2/6 443/2/6 447/2/6
f 441/2/6 442/2/6 447/2/6
f 447/2/6 443/2/6 448/2/6
f 448/2/6 443/2/6 449/2/6
f 445/2/6 446/2/6 450/2/6
f 444/2/6 445/2/6 450/2/6
f 450/2/6 446/2/6 451/2/6
f 451/2/6 446/2/6 452/2/6
f 453/2/6 454/2/6 455/2/6
f 455/2/6 454/2/6 456/2/6
f 458/2/6 459/2/6 463/2/6
f 457/2/6 458/2/6 463/2/6
f 463/2/6 459/2/6 464/2/6
f 464/2/6 459/2/6 465/2/6
f 461/2/6 462/2/6 466/2/6
f 460/2/6 461/2/6 466/2/6
f 466/2/6 462/2/6 467/2/6
f 467/2/6 462/2/6 468/2/6
f 464/2/6 465/2/6 469/2/6
f 469/2/6 465/2/6 470/2/6
f 466/2/6 467/2/6 471/2/6
f 471/2/6 467/2/6 472/2/6
f 473/4/6 474/4/6 478/4/6
f 478/4/6 474/4/6 479/4/6
f 475/4/6 476/4/6 480/4/6
f 480/4/6 476/4/6 481/4/6
f 477/4/6 478/4/6 483/4/6
f 478/3/6 479/3/6 484/3/6
f 483/4/6 478/4/6 484/4/6
f 484/3/6 479/3/6 485/3/6
f 480/3/6 481/3/6 486/3/6
f 481/4/6 482/4/6 487/4/6
f 486/3/6 481/3/6 487/3/6
f 487/4/6 482/4/6 488/4/6
f 489/4/6 490/4/6 495/4/6
f 490/3/6 491/3/6 496/3/6
f 495/4/6 490/4/6 496/4/6
f 496/3/6 491/3/6 497/3/6
f 492/3/6 493/3/6 498/3/6
f 493/4/6 494/4/6 499/4/6
f 498/3/6 493/3/6 499/3/6
f 499/4/6 494/4/6 500/4/6
f 496/4/6 497/4/6 501/4/6
f 501/4/6 497/4/6 502/4/6
f 498/4/6 499/4/6 503/4/6
f 503/4/6 499/4/6 504/4/6
f 505/3/6 506/3/6 508/3/6
f 508/3/6 506/3/6 509/3/6
f 507/3/6 508/3/6 511/3/6
f 511/3/6 508/3/6 512/3/6
f 509/3/6 510/3/6 513/3/6
f 513/3/6 510/3/6 514/3/6
f 512/3/6 513/3/6 515/3/6
f 515/3/6 513/3/6 516/3/6
