# MagicaVoxel @ Ephtracy

# group
o 

# material
mtllib Car.mtl
usemtl palette

# normals
vn -1 0 0
vn 1 0 0
vn 0 0 1
vn 0 0 -1
vn 0 -1 0
vn 0 1 0

# texcoords
vt 0.00976563 0.5
vt 0.0175781 0.5
vt 0.0253906 0.5
vt 0.0292969 0.5
vt 0.240234 0.5

# verts
v -0.55 -0.35 0.25
v -0.55 -0.35 -0.25
v -0.55 -0.25 0.25
v -0.55 -0.25 -0.25
v -0.45 -0.45 0.25
v -0.45 -0.45 0.05
v -0.45 -0.45 -0.05
v -0.45 -0.45 -0.25
v -0.45 -0.35 0.25
v -0.45 -0.35 0.05
v -0.45 -0.35 -0.05
v -0.45 -0.35 -0.25
v -0.45 -0.25 0.25
v -0.45 -0.25 0.15
v -0.45 -0.25 -0.15
v -0.45 -0.25 -0.25
v -0.45 -0.15 0.25
v -0.45 -0.15 0.15
v -0.45 -0.15 -0.15
v -0.45 -0.15 -0.25
v -0.35 -0.55 0.25
v -0.35 -0.55 0.05
v -0.35 -0.55 -0.05
v -0.35 -0.55 -0.25
v -0.35 -0.45 0.25
v -0.35 -0.45 0.05
v -0.35 -0.45 -0.05
v -0.35 -0.45 -0.25
v -0.35 -0.15 0.15
v -0.35 -0.15 -0.15
v -0.35 -0.05 0.15
v -0.35 -0.05 -0.15
v -0.25 -0.15 0.25
v -0.25 -0.15 0.15
v -0.25 -0.15 -0.15
v -0.25 -0.15 -0.25
v -0.25 -0.05 0.25
v -0.25 -0.05 0.15
v -0.25 -0.05 -0.15
v -0.25 -0.05 -0.25
v -0.15 -0.05 0.25
v -0.15 -0.05 -0.25
v -0.15 0.05 0.25
v -0.15 0.05 -0.25
v 0.15 -0.45 0.25
v 0.15 -0.45 0.05
v 0.15 -0.45 -0.05
v 0.15 -0.45 -0.25
v 0.15 -0.35 0.25
v 0.15 -0.35 0.05
v 0.15 -0.35 -0.05
v 0.15 -0.35 -0.25
v 0.15 -0.25 0.15
v 0.15 -0.25 -0.15
v 0.15 -0.15 0.15
v 0.15 -0.15 -0.15
v 0.25 -0.55 0.25
v 0.25 -0.55 0.05
v 0.25 -0.55 -0.05
v 0.25 -0.55 -0.25
v 0.25 -0.45 0.25
v 0.25 -0.45 0.05
v 0.25 -0.45 -0.05
v 0.25 -0.45 -0.25
v 0.25 -0.15 0.15
v 0.25 -0.15 -0.15
v 0.25 -0.05 0.15
v 0.25 -0.05 -0.15
v 0.35 -0.05 0.05
v 0.35 -0.05 -0.05
v 0.35 0.05 0.05
v 0.35 0.05 -0.05
v -0.25 -0.55 0.25
v -0.25 -0.55 0.05
v -0.25 -0.55 -0.05
v -0.25 -0.55 -0.25
v -0.25 -0.45 0.25
v -0.25 -0.45 0.05
v -0.25 -0.45 -0.05
v -0.25 -0.45 -0.25
v -0.15 -0.45 0.25
v -0.15 -0.45 0.05
v -0.15 -0.45 -0.05
v -0.15 -0.45 -0.25
v -0.15 -0.35 0.25
v -0.15 -0.35 0.05
v -0.15 -0.35 -0.05
v -0.15 -0.35 -0.25
v -0.15 -0.15 0.25
v -0.15 -0.15 0.05
v -0.15 -0.15 -0.05
v -0.15 -0.15 -0.25
v -0.15 -0.05 0.25
v -0.15 -0.05 0.05
v -0.15 -0.05 -0.05
v -0.15 -0.05 -0.25
v -0.05 -0.25 0.15
v -0.05 -0.25 -0.15
v -0.05 -0.15 0.15
v -0.05 -0.15 0.05
v -0.05 -0.15 -0.05
v -0.05 -0.15 -0.15
v -0.05 -0.05 0.25
v -0.05 -0.05 0.05
v -0.05 -0.05 -0.05
v -0.05 -0.05 -0.25
v -0.05 0.05 0.25
v -0.05 0.05 -0.25
v 0.05 -0.15 0.05
v 0.05 -0.15 -0.05
v 0.05 -0.05 0.05
v 0.05 -0.05 -0.05
v 0.35 -0.55 0.25
v 0.35 -0.55 0.05
v 0.35 -0.55 -0.05
v 0.35 -0.55 -0.25
v 0.35 -0.45 0.25
v 0.35 -0.45 0.05
v 0.35 -0.45 -0.05
v 0.35 -0.45 -0.25
v 0.35 -0.15 0.15
v 0.35 -0.15 0.05
v 0.35 -0.15 -0.05
v 0.35 -0.15 -0.15
v 0.35 -0.05 0.15
v 0.35 -0.05 0.05
v 0.35 -0.05 -0.05
v 0.35 -0.05 -0.15
v 0.45 -0.45 0.25
v 0.45 -0.45 0.05
v 0.45 -0.45 -0.05
v 0.45 -0.45 -0.25
v 0.45 -0.35 0.25
v 0.45 -0.35 0.05
v 0.45 -0.35 -0.05
v 0.45 -0.35 -0.25
v 0.45 -0.25 0.25
v 0.45 -0.25 -0.25
v 0.45 -0.15 0.25
v 0.45 -0.15 0.05
v 0.45 -0.15 -0.05
v 0.45 -0.15 -0.25
v 0.45 -0.05 0.05
v 0.45 -0.05 -0.05
v 0.55 -0.35 0.25
v 0.55 -0.35 -0.25
v 0.55 -0.25 0.25
v 0.55 -0.25 -0.25
v 0.55 -0.05 0.05
v 0.55 -0.05 -0.05
v 0.55 0.05 0.05
v 0.55 0.05 -0.05
v -0.55 -0.35 0.25
v -0.55 -0.25 0.25
v -0.45 -0.45 0.25
v -0.45 -0.35 0.25
v -0.45 -0.25 0.25
v -0.45 -0.15 0.25
v -0.35 -0.55 0.25
v -0.35 -0.45 0.25
v -0.35 -0.25 0.25
v -0.35 -0.15 0.25
v -0.25 -0.55 0.25
v -0.25 -0.45 0.25
v -0.25 -0.15 0.25
v -0.25 -0.05 0.25
v -0.15 -0.45 0.25
v -0.15 -0.35 0.25
v -0.15 -0.15 0.25
v -0.15 -0.05 0.25
v -0.15 0.05 0.25
v -0.05 -0.05 0.25
v -0.05 0.05 0.25
v 0.15 -0.45 0.25
v 0.15 -0.35 0.25
v 0.25 -0.55 0.25
v 0.25 -0.45 0.25
v 0.35 -0.55 0.25
v 0.35 -0.45 0.25
v 0.45 -0.45 0.25
v 0.45 -0.35 0.25
v 0.45 -0.25 0.25
v 0.45 -0.15 0.25
v 0.55 -0.35 0.25
v 0.55 -0.25 0.25
v -0.35 -0.15 0.15
v -0.35 -0.05 0.15
v -0.25 -0.15 0.15
v -0.25 -0.05 0.15
v 0.25 -0.15 0.15
v 0.25 -0.05 0.15
v 0.35 -0.15 0.15
v 0.35 -0.05 0.15
v -0.15 -0.15 0.05
v -0.15 -0.05 0.05
v -0.05 -0.15 0.05
v -0.05 -0.05 0.05
v 0.05 -0.15 0.05
v 0.05 -0.05 0.05
v 0.35 -0.15 0.05
v 0.35 -0.05 0.05
v 0.35 0.05 0.05
v 0.45 -0.15 0.05
v 0.45 -0.05 0.05
v 0.55 -0.05 0.05
v 0.55 0.05 0.05
v -0.45 -0.45 -0.05
v -0.45 -0.35 -0.05
v -0.35 -0.55 -0.05
v -0.35 -0.45 -0.05
v -0.25 -0.55 -0.05
v -0.25 -0.45 -0.05
v -0.15 -0.45 -0.05
v -0.15 -0.35 -0.05
v 0.15 -0.45 -0.05
v 0.15 -0.35 -0.05
v 0.25 -0.55 -0.05
v 0.25 -0.45 -0.05
v 0.35 -0.55 -0.05
v 0.35 -0.45 -0.05
v 0.45 -0.45 -0.05
v 0.45 -0.35 -0.05
v -0.05 -0.25 -0.15
v -0.05 -0.15 -0.15
v 0.15 -0.25 -0.15
v 0.15 -0.15 -0.15
v -0.05 -0.25 0.15
v -0.05 -0.15 0.15
v 0.15 -0.25 0.15
v 0.15 -0.15 0.15
v -0.45 -0.45 0.05
v -0.45 -0.35 0.05
v -0.35 -0.55 0.05
v -0.35 -0.45 0.05
v -0.25 -0.55 0.05
v -0.25 -0.45 0.05
v -0.15 -0.45 0.05
v -0.15 -0.35 0.05
v 0.15 -0.45 0.05
v 0.15 -0.35 0.05
v 0.25 -0.55 0.05
v 0.25 -0.45 0.05
v 0.35 -0.55 0.05
v 0.35 -0.45 0.05
v 0.45 -0.45 0.05
v 0.45 -0.35 0.05
v -0.15 -0.15 -0.05
v -0.15 -0.05 -0.05
v -0.05 -0.15 -0.05
v -0.05 -0.05 -0.05
v 0.05 -0.15 -0.05
v 0.05 -0.05 -0.05
v 0.35 -0.15 -0.05
v 0.35 -0.05 -0.05
v 0.35 0.05 -0.05
v 0.45 -0.15 -0.05
v 0.45 -0.05 -0.05
v 0.55 -0.05 -0.05
v 0.55 0.05 -0.05
v -0.35 -0.15 -0.15
v -0.35 -0.05 -0.15
v -0.25 -0.15 -0.15
v -0.25 -0.05 -0.15
v 0.25 -0.15 -0.15
v 0.25 -0.05 -0.15
v 0.35 -0.15 -0.15
v 0.35 -0.05 -0.15
v -0.55 -0.35 -0.25
v -0.55 -0.25 -0.25
v -0.45 -0.45 -0.25
v -0.45 -0.35 -0.25
v -0.45 -0.25 -0.25
v -0.45 -0.15 -0.25
v -0.35 -0.55 -0.25
v -0.35 -0.45 -0.25
v -0.35 -0.25 -0.25
v -0.35 -0.15 -0.25
v -0.25 -0.55 -0.25
v -0.25 -0.45 -0.25
v -0.25 -0.15 -0.25
v -0.25 -0.05 -0.25
v -0.15 -0.45 -0.25
v -0.15 -0.35 -0.25
v -0.15 -0.15 -0.25
v -0.15 -0.05 -0.25
v -0.15 0.05 -0.25
v -0.05 -0.05 -0.25
v -0.05 0.05 -0.25
v 0.15 -0.45 -0.25
v 0.15 -0.35 -0.25
v 0.25 -0.55 -0.25
v 0.25 -0.45 -0.25
v 0.35 -0.55 -0.25
v 0.35 -0.45 -0.25
v 0.45 -0.45 -0.25
v 0.45 -0.35 -0.25
v 0.45 -0.25 -0.25
v 0.45 -0.15 -0.25
v 0.55 -0.35 -0.25
v 0.55 -0.25 -0.25
v -0.35 -0.55 0.25
v -0.25 -0.55 0.25
v 0.25 -0.55 0.25
v 0.35 -0.55 0.25
v -0.35 -0.55 0.05
v -0.25 -0.55 0.05
v 0.25 -0.55 0.05
v 0.35 -0.55 0.05
v -0.35 -0.55 -0.05
v -0.25 -0.55 -0.05
v 0.25 -0.55 -0.05
v 0.35 -0.55 -0.05
v -0.35 -0.55 -0.25
v -0.25 -0.55 -0.25
v 0.25 -0.55 -0.25
v 0.35 -0.55 -0.25
v -0.45 -0.45 0.25
v -0.35 -0.45 0.25
v -0.25 -0.45 0.25
v -0.15 -0.45 0.25
v 0.15 -0.45 0.25
v 0.25 -0.45 0.25
v 0.35 -0.45 0.25
v 0.45 -0.45 0.25
v -0.45 -0.45 0.05
v -0.35 -0.45 0.05
v -0.25 -0.45 0.05
v -0.15 -0.45 0.05
v 0.15 -0.45 0.05
v 0.25 -0.45 0.05
v 0.35 -0.45 0.05
v 0.45 -0.45 0.05
v -0.45 -0.45 -0.05
v -0.35 -0.45 -0.05
v -0.25 -0.45 -0.05
v -0.15 -0.45 -0.05
v 0.15 -0.45 -0.05
v 0.25 -0.45 -0.05
v 0.35 -0.45 -0.05
v 0.45 -0.45 -0.05
v -0.45 -0.45 -0.25
v -0.35 -0.45 -0.25
v -0.25 -0.45 -0.25
v -0.15 -0.45 -0.25
v 0.15 -0.45 -0.25
v 0.25 -0.45 -0.25
v 0.35 -0.45 -0.25
v 0.45 -0.45 -0.25
v -0.55 -0.35 0.25
v -0.45 -0.35 0.25
v -0.15 -0.35 0.25
v 0.15 -0.35 0.25
v 0.45 -0.35 0.25
v 0.55 -0.35 0.25
v -0.45 -0.35 0.05
v -0.15 -0.35 0.05
v 0.15 -0.35 0.05
v 0.45 -0.35 0.05
v -0.45 -0.35 -0.05
v -0.15 -0.35 -0.05
v 0.15 -0.35 -0.05
v 0.45 -0.35 -0.05
v -0.55 -0.35 -0.25
v -0.45 -0.35 -0.25
v -0.15 -0.35 -0.25
v 0.15 -0.35 -0.25
v 0.45 -0.35 -0.25
v 0.55 -0.35 -0.25
v -0.05 -0.15 0.05
v 0.05 -0.15 0.05
v -0.05 -0.15 -0.05
v 0.05 -0.15 -0.05
v -0.15 -0.05 0.25
v -0.05 -0.05 0.25
v -0.15 -0.05 0.05
v -0.05 -0.05 0.05
v 0.45 -0.05 0.05
v 0.55 -0.05 0.05
v -0.15 -0.05 -0.05
v -0.05 -0.05 -0.05
v 0.45 -0.05 -0.05
v 0.55 -0.05 -0.05
v -0.15 -0.05 -0.25
v -0.05 -0.05 -0.25
v -0.55 -0.25 0.25
v -0.45 -0.25 0.25
v 0.45 -0.25 0.25
v 0.55 -0.25 0.25
v -0.45 -0.25 0.15
v -0.05 -0.25 0.15
v 0.15 -0.25 0.15
v -0.45 -0.25 -0.15
v -0.05 -0.25 -0.15
v 0.15 -0.25 -0.15
v -0.55 -0.25 -0.25
v -0.45 -0.25 -0.25
v 0.45 -0.25 -0.25
v 0.55 -0.25 -0.25
v -0.45 -0.15 0.25
v -0.35 -0.15 0.25
v -0.25 -0.15 0.25
v -0.15 -0.15 0.25
v 0.45 -0.15 0.25
v -0.45 -0.15 0.15
v -0.35 -0.15 0.15
v -0.25 -0.15 0.15
v -0.05 -0.15 0.15
v 0.15 -0.15 0.15
v 0.25 -0.15 0.15
v 0.35 -0.15 0.15
v -0.15 -0.15 0.05
v -0.05 -0.15 0.05
v 0.35 -0.15 0.05
v 0.45 -0.15 0.05
v -0.15 -0.15 -0.05
v -0.05 -0.15 -0.05
v 0.35 -0.15 -0.05
v 0.45 -0.15 -0.05
v -0.45 -0.15 -0.15
v -0.35 -0.15 -0.15
v -0.25 -0.15 -0.15
v -0.05 -0.15 -0.15
v 0.15 -0.15 -0.15
v 0.25 -0.15 -0.15
v 0.35 -0.15 -0.15
v -0.45 -0.15 -0.25
v -0.35 -0.15 -0.25
v -0.25 -0.15 -0.25
v -0.15 -0.15 -0.25
v 0.45 -0.15 -0.25
v -0.25 -0.05 0.25
v -0.15 -0.05 0.25
v -0.35 -0.05 0.15
v -0.25 -0.05 0.15
v 0.25 -0.05 0.15
v 0.35 -0.05 0.15
v -0.05 -0.05 0.05
v 0.05 -0.05 0.05
v 0.35 -0.05 0.05
v -0.05 -0.05 -0.05
v 0.05 -0.05 -0.05
v 0.35 -0.05 -0.05
v -0.35 -0.05 -0.15
v -0.25 -0.05 -0.15
v 0.25 -0.05 -0.15
v 0.35 -0.05 -0.15
v -0.25 -0.05 -0.25
v -0.15 -0.05 -0.25
v -0.15 0.05 0.25
v -0.05 0.05 0.25
v 0.35 0.05 0.05
v 0.55 0.05 0.05
v 0.35 0.05 -0.05
v 0.55 0.05 -0.05
v -0.15 0.05 -0.25
v -0.05 0.05 -0.25

# faces
f 3/3/1 2/3/1 1/3/1
f 4/3/1 2/3/1 3/3/1
f 9/2/1 6/2/1 5/2/1
f 10/2/1 6/2/1 9/2/1
f 11/2/1 8/2/1 7/2/1
f 12/2/1 8/2/1 11/2/1
f 17/4/1 14/4/1 13/4/1
f 18/5/1 15/5/1 14/5/1
f 18/4/1 14/4/1 17/4/1
f 19/4/1 16/4/1 15/4/1
f 19/5/1 15/5/1 18/5/1
f 20/4/1 16/4/1 19/4/1
f 25/2/1 22/2/1 21/2/1
f 26/2/1 22/2/1 25/2/1
f 27/2/1 24/2/1 23/2/1
f 28/2/1 24/2/1 27/2/1
f 31/5/1 30/5/1 29/5/1
f 32/5/1 30/5/1 31/5/1
f 37/5/1 34/5/1 33/5/1
f 38/5/1 34/5/1 37/5/1
f 39/5/1 36/5/1 35/5/1
f 40/5/1 36/5/1 39/5/1
f 43/5/1 42/5/1 41/5/1
f 44/5/1 42/5/1 43/5/1
f 49/2/1 46/2/1 45/2/1
f 50/2/1 46/2/1 49/2/1
f 51/2/1 48/2/1 47/2/1
f 52/2/1 48/2/1 51/2/1
f 55/1/1 54/1/1 53/1/1
f 56/1/1 54/1/1 55/1/1
f 61/2/1 58/2/1 57/2/1
f 62/2/1 58/2/1 61/2/1
f 63/2/1 60/2/1 59/2/1
f 64/2/1 60/2/1 63/2/1
f 67/1/1 66/1/1 65/1/1
f 68/1/1 66/1/1 67/1/1
f 71/4/1 70/4/1 69/4/1
f 72/4/1 70/4/1 71/4/1
f 73/2/2 74/2/2 77/2/2
f 77/2/2 74/2/2 78/2/2
f 75/2/2 76/2/2 79/2/2
f 79/2/2 76/2/2 80/2/2
f 81/2/2 82/2/2 85/2/2
f 85/2/2 82/2/2 86/2/2
f 83/2/2 84/2/2 87/2/2
f 87/2/2 84/2/2 88/2/2
f 89/5/2 90/5/2 93/5/2
f 93/5/2 90/5/2 94/5/2
f 91/5/2 92/5/2 95/5/2
f 95/5/2 92/5/2 96/5/2
f 97/5/2 98/5/2 99/5/2
f 99/5/2 98/5/2 100/5/2
f 100/5/2 98/5/2 101/5/2
f 101/5/2 98/5/2 102/5/2
f 104/5/2 105/5/2 107/5/2
f 105/5/2 106/5/2 107/5/2
f 103/5/2 104/5/2 107/5/2
f 107/5/2 106/5/2 108/5/2
f 109/1/2 110/1/2 111/1/2
f 111/1/2 110/1/2 112/1/2
f 113/2/2 114/2/2 117/2/2
f 117/2/2 114/2/2 118/2/2
f 115/2/2 116/2/2 119/2/2
f 119/2/2 116/2/2 120/2/2
f 121/1/2 122/1/2 125/1/2
f 125/1/2 122/1/2 126/1/2
f 123/1/2 124/1/2 127/1/2
f 127/1/2 124/1/2 128/1/2
f 129/2/2 130/2/2 133/2/2
f 133/2/2 130/2/2 134/2/2
f 131/2/2 132/2/2 135/2/2
f 135/2/2 132/2/2 136/2/2
f 137/5/2 138/5/2 139/5/2
f 139/5/2 138/5/2 140/5/2
f 140/5/2 138/5/2 141/5/2
f 141/5/2 138/5/2 142/5/2
f 140/4/2 141/4/2 143/4/2
f 143/4/2 141/4/2 144/4/2
f 145/3/2 146/3/2 147/3/2
f 147/3/2 146/3/2 148/3/2
f 149/4/2 150/4/2 151/4/2
f 151/4/2 150/4/2 152/4/2
f 156/3/3 154/3/3 153/3/3
f 157/3/3 154/3/3 156/3/3
f 160/2/3 156/2/3 155/2/3
f 161/4/3 158/4/3 157/4/3
f 161/5/3 157/5/3 156/5/3
f 162/4/3 158/4/3 161/4/3
f 163/2/3 160/2/3 159/2/3
f 164/2/3 156/2/3 160/2/3
f 164/2/3 160/2/3 163/2/3
f 165/5/3 162/5/3 161/5/3
f 167/2/3 156/2/3 164/2/3
f 168/5/3 165/5/3 161/5/3
f 168/2/3 156/2/3 167/2/3
f 168/5/3 161/5/3 156/5/3
f 168/5/3 166/5/3 165/5/3
f 169/5/3 166/5/3 168/5/3
f 170/5/3 166/5/3 169/5/3
f 172/5/3 171/5/3 170/5/3
f 173/5/3 171/5/3 172/5/3
f 175/5/3 169/5/3 168/5/3
f 177/2/3 175/2/3 174/2/3
f 178/2/3 177/2/3 176/2/3
f 179/2/3 175/2/3 177/2/3
f 179/2/3 177/2/3 178/2/3
f 180/2/3 175/2/3 179/2/3
f 181/5/3 169/5/3 175/5/3
f 181/2/3 175/2/3 180/2/3
f 182/5/3 169/5/3 181/5/3
f 183/5/3 169/5/3 182/5/3
f 184/3/3 182/3/3 181/3/3
f 185/3/3 182/3/3 184/3/3
f 188/5/3 187/5/3 186/5/3
f 189/5/3 187/5/3 188/5/3
f 192/1/3 191/1/3 190/1/3
f 193/1/3 191/1/3 192/1/3
f 196/1/3 195/1/3 194/1/3
f 197/1/3 195/1/3 196/1/3
f 198/1/3 197/1/3 196/1/3
f 199/1/3 197/1/3 198/1/3
f 203/4/3 201/4/3 200/4/3
f 203/4/3 202/4/3 201/4/3
f 204/4/3 202/4/3 203/4/3
f 205/4/3 202/4/3 204/4/3
f 206/4/3 202/4/3 205/4/3
f 210/2/3 208/2/3 207/2/3
f 211/2/3 210/2/3 209/2/3
f 212/2/3 208/2/3 210/2/3
f 212/2/3 210/2/3 211/2/3
f 213/2/3 208/2/3 212/2/3
f 214/2/3 208/2/3 213/2/3
f 218/2/3 216/2/3 215/2/3
f 219/2/3 218/2/3 217/2/3
f 220/2/3 216/2/3 218/2/3
f 220/2/3 218/2/3 219/2/3
f 221/2/3 216/2/3 220/2/3
f 222/2/3 216/2/3 221/2/3
f 225/5/3 224/5/3 223/5/3
f 226/5/3 224/5/3 225/5/3
f 227/5/4 228/5/4 229/5/4
f 229/5/4 228/5/4 230/5/4
f 231/2/4 232/2/4 234/2/4
f 233/2/4 234/2/4 235/2/4
f 234/2/4 232/2/4 236/2/4
f 235/2/4 234/2/4 236/2/4
f 236/2/4 232/2/4 237/2/4
f 237/2/4 232/2/4 238/2/4
f 239/2/4 240/2/4 242/2/4
f 241/2/4 242/2/4 243/2/4
f 242/2/4 240/2/4 244/2/4
f 243/2/4 242/2/4 244/2/4
f 244/2/4 240/2/4 245/2/4
f 245/2/4 240/2/4 246/2/4
f 247/1/4 248/1/4 249/1/4
f 249/1/4 248/1/4 250/1/4
f 249/1/4 250/1/4 251/1/4
f 251/1/4 250/1/4 252/1/4
f 253/4/4 254/4/4 256/4/4
f 254/4/4 255/4/4 256/4/4
f 256/4/4 255/4/4 257/4/4
f 257/4/4 255/4/4 258/4/4
f 258/4/4 255/4/4 259/4/4
f 260/5/4 261/5/4 262/5/4
f 262/5/4 261/5/4 263/5/4
f 264/1/4 265/1/4 266/1/4
f 266/1/4 265/1/4 267/1/4
f 268/3/4 269/3/4 271/3/4
f 271/3/4 269/3/4 272/3/4
f 270/2/4 271/2/4 275/2/4
f 272/4/4 273/4/4 276/4/4
f 271/5/4 272/5/4 276/5/4
f 276/4/4 273/4/4 277/4/4
f 274/2/4 275/2/4 278/2/4
f 275/2/4 271/2/4 279/2/4
f 278/2/4 275/2/4 279/2/4
f 276/5/4 277/5/4 280/5/4
f 279/2/4 271/2/4 282/2/4
f 276/5/4 280/5/4 283/5/4
f 282/2/4 271/2/4 283/2/4
f 271/5/4 276/5/4 283/5/4
f 280/5/4 281/5/4 283/5/4
f 283/5/4 281/5/4 284/5/4
f 284/5/4 281/5/4 285/5/4
f 285/5/4 286/5/4 287/5/4
f 287/5/4 286/5/4 288/5/4
f 283/5/4 284/5/4 290/5/4
f 289/2/4 290/2/4 292/2/4
f 291/2/4 292/2/4 293/2/4
f 292/2/4 290/2/4 294/2/4
f 293/2/4 292/2/4 294/2/4
f 294/2/4 290/2/4 295/2/4
f 290/5/4 284/5/4 296/5/4
f 295/2/4 290/2/4 296/2/4
f 296/5/4 284/5/4 297/5/4
f 297/5/4 284/5/4 298/5/4
f 296/3/4 297/3/4 299/3/4
f 299/3/4 297/3/4 300/3/4
f 305/2/5 302/2/5 301/2/5
f 306/2/5 302/2/5 305/2/5
f 307/2/5 304/2/5 303/2/5
f 308/2/5 304/2/5 307/2/5
f 313/2/5 310/2/5 309/2/5
f 314/2/5 310/2/5 313/2/5
f 315/2/5 312/2/5 311/2/5
f 316/2/5 312/2/5 315/2/5
f 325/2/5 318/2/5 317/2/5
f 326/2/5 318/2/5 325/2/5
f 327/2/5 320/2/5 319/2/5
f 328/2/5 320/2/5 327/2/5
f 329/2/5 322/2/5 321/2/5
f 330/2/5 322/2/5 329/2/5
f 331/2/5 324/2/5 323/2/5
f 332/2/5 324/2/5 331/2/5
f 341/2/5 334/2/5 333/2/5
f 342/2/5 334/2/5 341/2/5
f 343/2/5 336/2/5 335/2/5
f 344/2/5 336/2/5 343/2/5
f 345/2/5 338/2/5 337/2/5
f 346/2/5 338/2/5 345/2/5
f 347/2/5 340/2/5 339/2/5
f 348/2/5 340/2/5 347/2/5
f 355/3/5 350/3/5 349/3/5
f 356/5/5 352/5/5 351/5/5
f 357/5/5 352/5/5 356/5/5
f 358/3/5 354/3/5 353/3/5
f 359/5/5 357/5/5 356/5/5
f 359/5/5 358/5/5 357/5/5
f 359/3/5 355/3/5 349/3/5
f 359/5/5 356/5/5 355/5/5
f 360/5/5 358/5/5 359/5/5
f 361/5/5 358/5/5 360/5/5
f 362/3/5 354/3/5 358/3/5
f 362/5/5 358/5/5 361/5/5
f 363/3/5 359/3/5 349/3/5
f 364/3/5 359/3/5 363/3/5
f 365/5/5 361/5/5 360/5/5
f 366/5/5 361/5/5 365/5/5
f 367/3/5 354/3/5 362/3/5
f 368/3/5 354/3/5 367/3/5
f 371/1/5 370/1/5 369/1/5
f 372/1/5 370/1/5 371/1/5
f 375/5/5 374/5/5 373/5/5
f 376/5/5 374/5/5 375/5/5
f 381/4/5 378/4/5 377/4/5
f 382/4/5 378/4/5 381/4/5
f 383/5/5 380/5/5 379/5/5
f 384/5/5 380/5/5 383/5/5
f 385/3/6 386/3/6 389/3/6
f 385/3/6 389/3/6 392/3/6
f 390/5/6 391/5/6 393/5/6
f 393/5/6 391/5/6 394/5/6
f 385/3/6 392/3/6 395/3/6
f 395/3/6 392/3/6 396/3/6
f 387/3/6 388/3/6 397/3/6
f 397/3/6 388/3/6 398/3/6
f 399/4/6 400/4/6 404/4/6
f 400/5/6 401/5/6 405/5/6
f 404/4/6 400/4/6 405/4/6
f 405/5/6 401/5/6 406/5/6
f 402/5/6 403/5/6 407/5/6
f 407/5/6 403/5/6 408/5/6
f 408/5/6 403/5/6 409/5/6
f 409/5/6 403/5/6 410/5/6
f 402/5/6 407/5/6 411/5/6
f 411/5/6 407/5/6 412/5/6
f 410/5/6 403/5/6 413/5/6
f 413/5/6 403/5/6 414/5/6
f 404/5/6 405/5/6 419/5/6
f 419/5/6 405/5/6 420/5/6
f 415/5/6 416/5/6 422/5/6
f 408/1/6 409/1/6 423/1/6
f 423/1/6 409/1/6 424/1/6
f 417/5/6 418/5/6 425/5/6
f 419/4/6 420/4/6 426/4/6
f 420/5/6 421/5/6 427/5/6
f 426/4/6 420/4/6 427/4/6
f 427/5/6 421/5/6 428/5/6
f 423/5/6 424/5/6 429/5/6
f 415/5/6 422/5/6 429/5/6
f 424/5/6 425/5/6 429/5/6
f 422/5/6 423/5/6 429/5/6
f 425/5/6 418/5/6 430/5/6
f 429/5/6 425/5/6 430/5/6
f 431/5/6 432/5/6 434/5/6
f 435/1/6 436/1/6 439/1/6
f 437/1/6 438/1/6 440/1/6
f 440/1/6 438/1/6 441/1/6
f 435/1/6 439/1/6 442/1/6
f 433/5/6 434/5/6 443/5/6
f 434/5/6 432/5/6 444/5/6
f 443/5/6 434/5/6 444/5/6
f 435/1/6 442/1/6 445/1/6
f 445/1/6 442/1/6 446/1/6
f 444/5/6 432/5/6 447/5/6
f 447/5/6 432/5/6 448/5/6
f 451/4/6 452/4/6 453/4/6
f 453/4/6 452/4/6 454/4/6
f 449/5/6 450/5/6 455/5/6
f 455/5/6 450/5/6 456/5/6
