# MagicaVoxel @ Ephtracy

# group
o 

# material
mtllib Crab 2.mtl
usemtl palette

# normals
vn -1 0 0
vn 1 0 0
vn 0 0 1
vn 0 0 -1
vn 0 -1 0
vn 0 1 0

# texcoords
vt 0.00585938 0.5
vt 0.0996094 0.5

# verts
v -0.35 -0.5 0.05
v -0.35 -0.5 -0.05
v -0.35 -0.5 -0.15
v -0.35 -0.5 -0.25
v -0.35 -0.4 0.35
v -0.35 -0.4 0.25
v -0.35 -0.4 0.05
v -0.35 -0.4 -0.05
v -0.35 -0.4 -0.15
v -0.35 -0.4 -0.25
v -0.35 -0.3 0.35
v -0.35 -0.3 0.25
v -0.25 -0.5 0.25
v -0.25 -0.5 0.15
v -0.25 -0.4 0.25
v -0.25 -0.4 0.15
v -0.25 -0.4 0.05
v -0.25 -0.4 -0.05
v -0.25 -0.4 -0.15
v -0.25 -0.4 -0.25
v -0.25 -0.3 0.05
v -0.25 -0.3 -0.05
v -0.25 -0.3 -0.15
v -0.25 -0.3 -0.25
v -0.15 -0.5 0.15
v -0.15 -0.5 -0.25
v -0.15 -0.4 0.35
v -0.15 -0.4 0.25
v -0.15 -0.4 0.15
v -0.15 -0.4 0.05
v -0.15 -0.4 -0.05
v -0.15 -0.4 -0.15
v -0.15 -0.4 -0.25
v -0.15 -0.3 0.35
v -0.15 -0.3 0.25
v -0.15 -0.3 0.15
v -0.15 -0.3 0.05
v -0.15 -0.3 -0.05
v -0.15 -0.3 -0.15
v -0.15 -0.2 0.15
v -0.15 -0.2 0.05
v 0.05 -0.4 0.35
v 0.05 -0.4 0.25
v 0.05 -0.3 0.35
v 0.05 -0.3 0.25
v 0.05 -0.3 0.15
v 0.05 -0.3 0.05
v 0.05 -0.2 0.15
v 0.05 -0.2 0.05
v 0.15 -0.5 0.25
v 0.15 -0.5 0.15
v 0.15 -0.4 0.25
v 0.15 -0.4 0.15
v 0.15 -0.4 -0.15
v 0.15 -0.4 -0.25
v 0.15 -0.3 -0.15
v 0.15 -0.3 -0.25
v 0.25 -0.5 0.05
v 0.25 -0.5 -0.05
v 0.25 -0.5 -0.15
v 0.25 -0.5 -0.25
v 0.25 -0.4 0.35
v 0.25 -0.4 0.25
v 0.25 -0.4 0.05
v 0.25 -0.4 -0.05
v 0.25 -0.4 -0.15
v 0.25 -0.4 -0.25
v 0.25 -0.3 0.35
v 0.25 -0.3 0.25
v -0.25 -0.5 0.05
v -0.25 -0.5 -0.05
v -0.25 -0.5 -0.15
v -0.25 -0.5 -0.25
v -0.25 -0.4 0.35
v -0.25 -0.4 0.25
v -0.25 -0.4 0.05
v -0.25 -0.4 -0.05
v -0.25 -0.4 -0.15
v -0.25 -0.4 -0.25
v -0.25 -0.3 0.35
v -0.25 -0.3 0.25
v -0.15 -0.5 0.25
v -0.15 -0.5 0.15
v -0.15 -0.4 0.25
v -0.15 -0.4 0.15
v -0.15 -0.4 -0.15
v -0.15 -0.4 -0.25
v -0.15 -0.3 -0.15
v -0.15 -0.3 -0.25
v -0.05 -0.4 0.35
v -0.05 -0.4 0.25
v -0.05 -0.3 0.35
v -0.05 -0.3 0.25
v -0.05 -0.3 0.15
v -0.05 -0.3 0.05
v -0.05 -0.2 0.15
v -0.05 -0.2 0.05
v 0.15 -0.5 0.15
v 0.15 -0.5 -0.25
v 0.15 -0.4 0.35
v 0.15 -0.4 0.25
v 0.15 -0.4 0.15
v 0.15 -0.4 0.05
v 0.15 -0.4 -0.05
v 0.15 -0.4 -0.15
v 0.15 -0.4 -0.25
v 0.15 -0.3 0.35
v 0.15 -0.3 0.25
v 0.15 -0.3 0.15
v 0.15 -0.3 0.05
v 0.15 -0.3 -0.05
v 0.15 -0.3 -0.15
v 0.15 -0.2 0.15
v 0.15 -0.2 0.05
v 0.25 -0.5 0.25
v 0.25 -0.5 0.15
v 0.25 -0.4 0.25
v 0.25 -0.4 0.15
v 0.25 -0.4 0.05
v 0.25 -0.4 -0.05
v 0.25 -0.4 -0.15
v 0.25 -0.4 -0.25
v 0.25 -0.3 0.05
v 0.25 -0.3 -0.05
v 0.25 -0.3 -0.15
v 0.25 -0.3 -0.25
v 0.35 -0.5 0.05
v 0.35 -0.5 -0.05
v 0.35 -0.5 -0.15
v 0.35 -0.5 -0.25
v 0.35 -0.4 0.35
v 0.35 -0.4 0.25
v 0.35 -0.4 0.05
v 0.35 -0.4 -0.05
v 0.35 -0.4 -0.15
v 0.35 -0.4 -0.25
v 0.35 -0.3 0.35
v 0.35 -0.3 0.25
v -0.35 -0.4 0.35
v -0.35 -0.3 0.35
v -0.25 -0.4 0.35
v -0.25 -0.3 0.35
v -0.15 -0.4 0.35
v -0.15 -0.3 0.35
v -0.05 -0.4 0.35
v -0.05 -0.3 0.35
v 0.05 -0.4 0.35
v 0.05 -0.3 0.35
v 0.15 -0.4 0.35
v 0.15 -0.3 0.35
v 0.25 -0.4 0.35
v 0.25 -0.3 0.35
v 0.35 -0.4 0.35
v 0.35 -0.3 0.35
v -0.25 -0.5 0.25
v -0.25 -0.4 0.25
v -0.15 -0.5 0.25
v -0.15 -0.4 0.25
v 0.15 -0.5 0.25
v 0.15 -0.4 0.25
v 0.25 -0.5 0.25
v 0.25 -0.4 0.25
v -0.15 -0.5 0.15
v -0.15 -0.4 0.15
v -0.15 -0.3 0.15
v -0.15 -0.2 0.15
v -0.05 -0.3 0.15
v -0.05 -0.2 0.15
v 0.05 -0.3 0.15
v 0.05 -0.2 0.15
v 0.15 -0.5 0.15
v 0.15 -0.4 0.15
v 0.15 -0.3 0.15
v 0.15 -0.2 0.15
v -0.35 -0.5 0.05
v -0.35 -0.4 0.05
v -0.25 -0.5 0.05
v -0.25 -0.4 0.05
v -0.25 -0.3 0.05
v -0.15 -0.4 0.05
v -0.15 -0.3 0.05
v 0.15 -0.4 0.05
v 0.15 -0.3 0.05
v 0.25 -0.5 0.05
v 0.25 -0.4 0.05
v 0.25 -0.3 0.05
v 0.35 -0.5 0.05
v 0.35 -0.4 0.05
v -0.35 -0.5 -0.15
v -0.35 -0.4 -0.15
v -0.25 -0.5 -0.15
v -0.25 -0.4 -0.15
v -0.25 -0.3 -0.15
v -0.15 -0.4 -0.15
v -0.15 -0.3 -0.15
v 0.15 -0.4 -0.15
v 0.15 -0.3 -0.15
v 0.25 -0.5 -0.15
v 0.25 -0.4 -0.15
v 0.25 -0.3 -0.15
v 0.35 -0.5 -0.15
v 0.35 -0.4 -0.15
v -0.35 -0.4 0.25
v -0.35 -0.3 0.25
v -0.25 -0.4 0.25
v -0.25 -0.3 0.25
v -0.15 -0.4 0.25
v -0.15 -0.3 0.25
v -0.05 -0.4 0.25
v -0.05 -0.3 0.25
v 0.05 -0.4 0.25
v 0.05 -0.3 0.25
v 0.15 -0.4 0.25
v 0.15 -0.3 0.25
v 0.25 -0.4 0.25
v 0.25 -0.3 0.25
v 0.35 -0.4 0.25
v 0.35 -0.3 0.25
v -0.25 -0.5 0.15
v -0.25 -0.4 0.15
v -0.15 -0.5 0.15
v -0.15 -0.4 0.15
v 0.15 -0.5 0.15
v 0.15 -0.4 0.15
v 0.25 -0.5 0.15
v 0.25 -0.4 0.15
v -0.15 -0.3 0.05
v -0.15 -0.2 0.05
v -0.05 -0.3 0.05
v -0.05 -0.2 0.05
v 0.05 -0.3 0.05
v 0.05 -0.2 0.05
v 0.15 -0.3 0.05
v 0.15 -0.2 0.05
v -0.35 -0.5 -0.05
v -0.35 -0.4 -0.05
v -0.25 -0.5 -0.05
v -0.25 -0.4 -0.05
v -0.25 -0.3 -0.05
v -0.15 -0.4 -0.05
v -0.15 -0.3 -0.05
v 0.15 -0.4 -0.05
v 0.15 -0.3 -0.05
v 0.25 -0.5 -0.05
v 0.25 -0.4 -0.05
v 0.25 -0.3 -0.05
v 0.35 -0.5 -0.05
v 0.35 -0.4 -0.05
v -0.15 -0.4 -0.15
v -0.15 -0.3 -0.15
v 0.15 -0.4 -0.15
v 0.15 -0.3 -0.15
v -0.35 -0.5 -0.25
v -0.35 -0.4 -0.25
v -0.25 -0.5 -0.25
v -0.25 -0.4 -0.25
v -0.25 -0.3 -0.25
v -0.15 -0.5 -0.25
v -0.15 -0.4 -0.25
v -0.15 -0.3 -0.25
v 0.15 -0.5 -0.25
v 0.15 -0.4 -0.25
v 0.15 -0.3 -0.25
v 0.25 -0.5 -0.25
v 0.25 -0.4 -0.25
v 0.25 -0.3 -0.25
v 0.35 -0.5 -0.25
v 0.35 -0.4 -0.25
v -0.25 -0.5 0.25
v -0.15 -0.5 0.25
v 0.15 -0.5 0.25
v 0.25 -0.5 0.25
v -0.25 -0.5 0.15
v -0.15 -0.5 0.15
v 0.15 -0.5 0.15
v 0.25 -0.5 0.15
v -0.35 -0.5 0.05
v -0.25 -0.5 0.05
v 0.25 -0.5 0.05
v 0.35 -0.5 0.05
v -0.35 -0.5 -0.05
v -0.25 -0.5 -0.05
v 0.25 -0.5 -0.05
v 0.35 -0.5 -0.05
v -0.35 -0.5 -0.15
v -0.25 -0.5 -0.15
v 0.25 -0.5 -0.15
v 0.35 -0.5 -0.15
v -0.35 -0.5 -0.25
v -0.25 -0.5 -0.25
v -0.15 -0.5 -0.25
v 0.15 -0.5 -0.25
v 0.25 -0.5 -0.25
v 0.35 -0.5 -0.25
v -0.35 -0.4 0.35
v -0.25 -0.4 0.35
v -0.15 -0.4 0.35
v -0.05 -0.4 0.35
v 0.05 -0.4 0.35
v 0.15 -0.4 0.35
v 0.25 -0.4 0.35
v 0.35 -0.4 0.35
v -0.35 -0.4 0.25
v -0.25 -0.4 0.25
v -0.15 -0.4 0.25
v -0.05 -0.4 0.25
v 0.05 -0.4 0.25
v 0.15 -0.4 0.25
v 0.25 -0.4 0.25
v 0.35 -0.4 0.25
v -0.25 -0.4 0.05
v -0.15 -0.4 0.05
v 0.15 -0.4 0.05
v 0.25 -0.4 0.05
v -0.25 -0.4 -0.05
v -0.15 -0.4 -0.05
v 0.15 -0.4 -0.05
v 0.25 -0.4 -0.05
v -0.25 -0.4 -0.15
v -0.15 -0.4 -0.15
v 0.15 -0.4 -0.15
v 0.25 -0.4 -0.15
v -0.25 -0.4 -0.25
v -0.15 -0.4 -0.25
v 0.15 -0.4 -0.25
v 0.25 -0.4 -0.25
v -0.25 -0.4 0.25
v -0.15 -0.4 0.25
v 0.15 -0.4 0.25
v 0.25 -0.4 0.25
v -0.25 -0.4 0.15
v -0.15 -0.4 0.15
v 0.15 -0.4 0.15
v 0.25 -0.4 0.15
v -0.35 -0.4 0.05
v -0.25 -0.4 0.05
v 0.25 -0.4 0.05
v 0.35 -0.4 0.05
v -0.35 -0.4 -0.05
v -0.25 -0.4 -0.05
v 0.25 -0.4 -0.05
v 0.35 -0.4 -0.05
v -0.35 -0.4 -0.15
v -0.25 -0.4 -0.15
v -0.15 -0.4 -0.15
v 0.15 -0.4 -0.15
v 0.25 -0.4 -0.15
v 0.35 -0.4 -0.15
v -0.35 -0.4 -0.25
v -0.25 -0.4 -0.25
v -0.15 -0.4 -0.25
v 0.15 -0.4 -0.25
v 0.25 -0.4 -0.25
v 0.35 -0.4 -0.25
v -0.35 -0.3 0.35
v -0.25 -0.3 0.35
v -0.15 -0.3 0.35
v -0.05 -0.3 0.35
v 0.05 -0.3 0.35
v 0.15 -0.3 0.35
v 0.25 -0.3 0.35
v 0.35 -0.3 0.35
v -0.35 -0.3 0.25
v -0.25 -0.3 0.25
v -0.15 -0.3 0.25
v -0.05 -0.3 0.25
v 0.05 -0.3 0.25
v 0.15 -0.3 0.25
v 0.25 -0.3 0.25
v 0.35 -0.3 0.25
v -0.05 -0.3 0.15
v 0.05 -0.3 0.15
v -0.25 -0.3 0.05
v -0.15 -0.3 0.05
v -0.05 -0.3 0.05
v 0.05 -0.3 0.05
v 0.15 -0.3 0.05
v 0.25 -0.3 0.05
v -0.25 -0.3 -0.05
v -0.15 -0.3 -0.05
v 0.15 -0.3 -0.05
v 0.25 -0.3 -0.05
v -0.25 -0.3 -0.15
v -0.15 -0.3 -0.15
v 0.15 -0.3 -0.15
v 0.25 -0.3 -0.15
v -0.25 -0.3 -0.25
v -0.15 -0.3 -0.25
v 0.15 -0.3 -0.25
v 0.25 -0.3 -0.25
v -0.15 -0.2 0.15
v -0.05 -0.2 0.15
v 0.05 -0.2 0.15
v 0.15 -0.2 0.15
v -0.15 -0.2 0.05
v -0.05 -0.2 0.05
v 0.05 -0.2 0.05
v 0.15 -0.2 0.05

# faces
f 7/2/1 2/2/1 1/2/1
f 8/2/1 2/2/1 7/2/1
f 9/2/1 4/2/1 3/2/1
f 10/2/1 4/2/1 9/2/1
f 11/2/1 6/2/1 5/2/1
f 12/2/1 6/2/1 11/2/1
f 15/2/1 14/2/1 13/2/1
f 16/2/1 14/2/1 15/2/1
f 21/2/1 18/2/1 17/2/1
f 22/2/1 18/2/1 21/2/1
f 23/2/1 20/2/1 19/2/1
f 24/2/1 20/2/1 23/2/1
f 29/2/1 26/2/1 25/2/1
f 30/2/1 26/2/1 29/2/1
f 31/2/1 26/2/1 30/2/1
f 32/2/1 26/2/1 31/2/1
f 33/2/1 26/2/1 32/2/1
f 34/2/1 28/2/1 27/2/1
f 35/2/1 28/2/1 34/2/1
f 36/2/1 30/2/1 29/2/1
f 37/2/1 30/2/1 36/2/1
f 38/2/1 32/2/1 31/2/1
f 39/2/1 32/2/1 38/2/1
f 40/1/1 37/1/1 36/1/1
f 41/1/1 37/1/1 40/1/1
f 44/2/1 43/2/1 42/2/1
f 45/2/1 43/2/1 44/2/1
f 48/1/1 47/1/1 46/1/1
f 49/1/1 47/1/1 48/1/1
f 52/2/1 51/2/1 50/2/1
f 53/2/1 51/2/1 52/2/1
f 56/2/1 55/2/1 54/2/1
f 57/2/1 55/2/1 56/2/1
f 64/2/1 59/2/1 58/2/1
f 65/2/1 59/2/1 64/2/1
f 66/2/1 61/2/1 60/2/1
f 67/2/1 61/2/1 66/2/1
f 68/2/1 63/2/1 62/2/1
f 69/2/1 63/2/1 68/2/1
f 70/2/2 71/2/2 76/2/2
f 76/2/2 71/2/2 77/2/2
f 72/2/2 73/2/2 78/2/2
f 78/2/2 73/2/2 79/2/2
f 74/2/2 75/2/2 80/2/2
f 80/2/2 75/2/2 81/2/2
f 82/2/2 83/2/2 84/2/2
f 84/2/2 83/2/2 85/2/2
f 86/2/2 87/2/2 88/2/2
f 88/2/2 87/2/2 89/2/2
f 90/2/2 91/2/2 92/2/2
f 92/2/2 91/2/2 93/2/2
f 94/1/2 95/1/2 96/1/2
f 96/1/2 95/1/2 97/1/2
f 98/2/2 99/2/2 102/2/2
f 102/2/2 99/2/2 103/2/2
f 103/2/2 99/2/2 104/2/2
f 104/2/2 99/2/2 105/2/2
f 105/2/2 99/2/2 106/2/2
f 100/2/2 101/2/2 107/2/2
f 107/2/2 101/2/2 108/2/2
f 102/2/2 103/2/2 109/2/2
f 109/2/2 103/2/2 110/2/2
f 104/2/2 105/2/2 111/2/2
f 111/2/2 105/2/2 112/2/2
f 109/1/2 110/1/2 113/1/2
f 113/1/2 110/1/2 114/1/2
f 115/2/2 116/2/2 117/2/2
f 117/2/2 116/2/2 118/2/2
f 119/2/2 120/2/2 123/2/2
f 123/2/2 120/2/2 124/2/2
f 121/2/2 122/2/2 125/2/2
f 125/2/2 122/2/2 126/2/2
f 127/2/2 128/2/2 133/2/2
f 133/2/2 128/2/2 134/2/2
f 129/2/2 130/2/2 135/2/2
f 135/2/2 130/2/2 136/2/2
f 131/2/2 132/2/2 137/2/2
f 137/2/2 132/2/2 138/2/2
f 141/2/3 140/2/3 139/2/3
f 142/2/3 140/2/3 141/2/3
f 145/2/3 144/2/3 143/2/3
f 146/2/3 144/2/3 145/2/3
f 149/2/3 148/2/3 147/2/3
f 150/2/3 148/2/3 149/2/3
f 153/2/3 152/2/3 151/2/3
f 154/2/3 152/2/3 153/2/3
f 157/2/3 156/2/3 155/2/3
f 158/2/3 156/2/3 157/2/3
f 161/2/3 160/2/3 159/2/3
f 162/2/3 160/2/3 161/2/3
f 167/2/3 164/2/3 163/2/3
f 167/1/3 166/1/3 165/1/3
f 167/2/3 165/2/3 164/2/3
f 168/1/3 166/1/3 167/1/3
f 169/2/3 167/2/3 163/2/3
f 171/2/3 169/2/3 163/2/3
f 172/2/3 169/2/3 171/2/3
f 173/1/3 170/1/3 169/1/3
f 173/2/3 169/2/3 172/2/3
f 174/1/3 170/1/3 173/1/3
f 177/2/3 176/2/3 175/2/3
f 178/2/3 176/2/3 177/2/3
f 180/2/3 179/2/3 178/2/3
f 181/2/3 179/2/3 180/2/3
f 185/2/3 183/2/3 182/2/3
f 186/2/3 183/2/3 185/2/3
f 187/2/3 185/2/3 184/2/3
f 188/2/3 185/2/3 187/2/3
f 191/2/3 190/2/3 189/2/3
f 192/2/3 190/2/3 191/2/3
f 194/2/3 193/2/3 192/2/3
f 195/2/3 193/2/3 194/2/3
f 199/2/3 197/2/3 196/2/3
f 200/2/3 197/2/3 199/2/3
f 201/2/3 199/2/3 198/2/3
f 202/2/3 199/2/3 201/2/3
f 203/2/4 204/2/4 205/2/4
f 205/2/4 204/2/4 206/2/4
f 207/2/4 208/2/4 209/2/4
f 209/2/4 208/2/4 210/2/4
f 211/2/4 212/2/4 213/2/4
f 213/2/4 212/2/4 214/2/4
f 215/2/4 216/2/4 217/2/4
f 217/2/4 216/2/4 218/2/4
f 219/2/4 220/2/4 221/2/4
f 221/2/4 220/2/4 222/2/4
f 223/2/4 224/2/4 225/2/4
f 225/2/4 224/2/4 226/2/4
f 227/1/4 228/1/4 229/1/4
f 229/1/4 228/1/4 230/1/4
f 231/1/4 232/1/4 233/1/4
f 233/1/4 232/1/4 234/1/4
f 235/2/4 236/2/4 237/2/4
f 237/2/4 236/2/4 238/2/4
f 238/2/4 239/2/4 240/2/4
f 240/2/4 239/2/4 241/2/4
f 242/2/4 243/2/4 245/2/4
f 245/2/4 243/2/4 246/2/4
f 244/2/4 245/2/4 247/2/4
f 247/2/4 245/2/4 248/2/4
f 249/2/4 250/2/4 251/2/4
f 251/2/4 250/2/4 252/2/4
f 253/2/4 254/2/4 255/2/4
f 255/2/4 254/2/4 256/2/4
f 256/2/4 257/2/4 259/2/4
f 259/2/4 257/2/4 260/2/4
f 258/2/4 259/2/4 261/2/4
f 261/2/4 259/2/4 262/2/4
f 262/2/4 263/2/4 265/2/4
f 265/2/4 263/2/4 266/2/4
f 264/2/4 265/2/4 267/2/4
f 267/2/4 265/2/4 268/2/4
f 273/2/5 270/2/5 269/2/5
f 274/2/5 270/2/5 273/2/5
f 275/2/5 272/2/5 271/2/5
f 276/2/5 272/2/5 275/2/5
f 281/2/5 278/2/5 277/2/5
f 282/2/5 278/2/5 281/2/5
f 283/2/5 280/2/5 279/2/5
f 284/2/5 280/2/5 283/2/5
f 289/2/5 286/2/5 285/2/5
f 290/2/5 286/2/5 289/2/5
f 291/2/5 275/2/5 274/2/5
f 292/2/5 275/2/5 291/2/5
f 293/2/5 288/2/5 287/2/5
f 294/2/5 288/2/5 293/2/5
f 303/2/5 296/2/5 295/2/5
f 304/2/5 296/2/5 303/2/5
f 305/2/5 298/2/5 297/2/5
f 306/2/5 298/2/5 305/2/5
f 307/2/5 300/2/5 299/2/5
f 308/2/5 300/2/5 307/2/5
f 309/2/5 302/2/5 301/2/5
f 310/2/5 302/2/5 309/2/5
f 315/2/5 312/2/5 311/2/5
f 316/2/5 312/2/5 315/2/5
f 317/2/5 314/2/5 313/2/5
f 318/2/5 314/2/5 317/2/5
f 323/2/5 320/2/5 319/2/5
f 324/2/5 320/2/5 323/2/5
f 325/2/5 322/2/5 321/2/5
f 326/2/5 322/2/5 325/2/5
f 327/2/6 328/2/6 331/2/6
f 331/2/6 328/2/6 332/2/6
f 329/2/6 330/2/6 333/2/6
f 333/2/6 330/2/6 334/2/6
f 335/2/6 336/2/6 339/2/6
f 339/2/6 336/2/6 340/2/6
f 337/2/6 338/2/6 341/2/6
f 341/2/6 338/2/6 342/2/6
f 343/2/6 344/2/6 349/2/6
f 349/2/6 344/2/6 350/2/6
f 345/2/6 346/2/6 351/2/6
f 351/2/6 346/2/6 352/2/6
f 347/2/6 348/2/6 353/2/6
f 353/2/6 348/2/6 354/2/6
f 355/2/6 356/2/6 363/2/6
f 363/2/6 356/2/6 364/2/6
f 357/2/6 358/2/6 365/2/6
f 365/2/6 358/2/6 366/2/6
f 359/2/6 360/2/6 367/2/6
f 367/2/6 360/2/6 368/2/6
f 361/2/6 362/2/6 369/2/6
f 369/2/6 362/2/6 370/2/6
f 371/2/6 372/2/6 375/2/6
f 375/2/6 372/2/6 376/2/6
f 373/2/6 374/2/6 379/2/6
f 377/2/6 378/2/6 379/2/6
f 376/2/6 377/2/6 379/2/6
f 375/2/6 376/2/6 379/2/6
f 374/2/6 375/2/6 379/2/6
f 379/2/6 378/2/6 380/2/6
f 380/2/6 378/2/6 381/2/6
f 381/2/6 378/2/6 382/2/6
f 380/2/6 381/2/6 384/2/6
f 384/2/6 381/2/6 385/2/6
f 383/2/6 384/2/6 387/2/6
f 387/2/6 384/2/6 388/2/6
f 385/2/6 386/2/6 389/2/6
f 389/2/6 386/2/6 390/2/6
f 391/1/6 392/1/6 395/1/6
f 395/1/6 392/1/6 396/1/6
f 393/1/6 394/1/6 397/1/6
f 397/1/6 394/1/6 398/1/6
