# MagicaVoxel @ Ephtracy

# group
o 

# material
mtllib Flower 2.mtl
usemtl palette

# normals
vn -1 0 0
vn 1 0 0
vn 0 0 1
vn 0 0 -1
vn 0 -1 0
vn 0 1 0

# texcoords
vt 0.142578 0.5
vt 0.216797 0.5

# verts
v -0.25 -0.2 0.15
v -0.25 -0.2 0.05
v -0.25 -0.2 -0.05
v -0.25 -0.2 -0.15
v -0.25 -0.1 0.15
v -0.25 -0.1 0.05
v -0.25 -0.1 -0.05
v -0.25 -0.1 -0.15
v -0.15 -0.5 0.15
v -0.15 -0.5 0.05
v -0.15 -0.5 -0.05
v -0.15 -0.5 -0.15
v -0.15 -0.2 0.25
v -0.15 -0.2 0.15
v -0.15 -0.2 0.05
v -0.15 -0.2 -0.05
v -0.15 -0.2 -0.15
v -0.15 -0.2 -0.25
v -0.15 -0.1 0.25
v -0.15 -0.1 0.15
v -0.15 -0.1 0.05
v -0.15 -0.1 -0.05
v -0.15 -0.1 -0.15
v -0.15 -0.1 -0.25
v -0.15 0 0.15
v -0.15 0 0.05
v -0.15 0 -0.05
v -0.15 0 -0.15
v 0.05 -0.5 0.15
v 0.05 -0.5 0.05
v 0.05 -0.5 -0.05
v 0.05 -0.5 -0.15
v 0.05 -0.3 0.25
v 0.05 -0.3 0.15
v 0.05 -0.3 0.05
v 0.05 -0.2 0.25
v 0.05 -0.2 0.15
v 0.05 -0.2 0.05
v 0.05 -0.2 -0.05
v 0.05 -0.2 -0.15
v 0.05 -0.1 0.05
v 0.05 -0.1 -0.05
v 0.05 -0.1 -0.15
v 0.05 0 0.05
v 0.05 0 -0.05
v 0.05 0.1 -0.05
v 0.05 0.1 -0.15
v -0.05 -0.5 0.15
v -0.05 -0.5 0.05
v -0.05 -0.5 -0.05
v -0.05 -0.5 -0.15
v -0.05 -0.2 0.25
v -0.05 -0.2 0.15
v -0.05 -0.2 0.05
v -0.05 -0.2 -0.05
v -0.05 -0.2 -0.15
v -0.05 -0.2 -0.25
v -0.05 -0.1 0.25
v -0.05 -0.1 0.15
v -0.05 -0.1 0.05
v -0.05 -0.1 -0.05
v -0.05 -0.1 -0.15
v -0.05 -0.1 -0.25
v -0.05 0 0.15
v -0.05 0 0.05
v -0.05 0 -0.05
v -0.05 0 -0.15
v 0.05 -0.2 0.15
v 0.05 -0.2 0.05
v 0.05 -0.1 0.15
v 0.05 -0.1 0.05
v 0.15 -0.5 0.15
v 0.15 -0.5 0.05
v 0.15 -0.5 -0.05
v 0.15 -0.5 -0.15
v 0.15 -0.3 0.25
v 0.15 -0.3 0.15
v 0.15 -0.3 0.05
v 0.15 -0.2 0.25
v 0.15 -0.2 0.15
v 0.15 -0.1 0.05
v 0.15 -0.1 -0.05
v 0.15 -0.1 -0.15
v 0.15 0 0.05
v 0.15 0 -0.05
v 0.15 0 -0.15
v 0.15 0.1 -0.05
v 0.15 0.1 -0.15
v 0.25 -0.3 0.15
v 0.25 -0.3 0.05
v 0.25 -0.2 0.15
v 0.25 -0.2 0.05
v 0.25 -0.1 -0.05
v 0.25 -0.1 -0.15
v 0.25 0 -0.05
v 0.25 0 -0.15
v -0.15 -0.2 0.25
v -0.15 -0.1 0.25
v -0.05 -0.2 0.25
v -0.05 -0.1 0.25
v 0.05 -0.3 0.25
v 0.05 -0.2 0.25
v 0.15 -0.3 0.25
v 0.15 -0.2 0.25
v -0.25 -0.2 0.15
v -0.25 -0.1 0.15
v -0.15 -0.5 0.15
v -0.15 -0.2 0.15
v -0.15 -0.1 0.15
v -0.15 0 0.15
v -0.05 -0.5 0.15
v -0.05 -0.2 0.15
v -0.05 -0.1 0.15
v -0.05 0 0.15
v 0.05 -0.5 0.15
v 0.05 -0.3 0.15
v 0.05 -0.2 0.15
v 0.05 -0.1 0.15
v 0.15 -0.5 0.15
v 0.15 -0.3 0.15
v 0.15 -0.2 0.15
v 0.25 -0.3 0.15
v 0.25 -0.2 0.15
v 0.05 -0.1 0.05
v 0.05 0 0.05
v 0.15 -0.1 0.05
v 0.15 0 0.05
v -0.25 -0.2 -0.05
v -0.25 -0.1 -0.05
v -0.15 -0.5 -0.05
v -0.15 -0.2 -0.05
v -0.15 -0.1 -0.05
v -0.15 0 -0.05
v -0.05 -0.5 -0.05
v -0.05 -0.2 -0.05
v -0.05 -0.1 -0.05
v -0.05 0 -0.05
v 0.05 -0.5 -0.05
v 0.05 -0.2 -0.05
v 0.05 -0.1 -0.05
v 0.05 0 -0.05
v 0.05 0.1 -0.05
v 0.15 -0.5 -0.05
v 0.15 -0.1 -0.05
v 0.15 0 -0.05
v 0.15 0.1 -0.05
v 0.25 -0.1 -0.05
v 0.25 0 -0.05
v -0.25 -0.2 0.05
v -0.25 -0.1 0.05
v -0.15 -0.5 0.05
v -0.15 -0.2 0.05
v -0.15 -0.1 0.05
v -0.15 0 0.05
v -0.05 -0.5 0.05
v -0.05 -0.2 0.05
v -0.05 -0.1 0.05
v -0.05 0 0.05
v 0.05 -0.5 0.05
v 0.05 -0.3 0.05
v 0.05 -0.2 0.05
v 0.05 -0.1 0.05
v 0.15 -0.5 0.05
v 0.15 -0.3 0.05
v 0.25 -0.3 0.05
v 0.25 -0.2 0.05
v -0.25 -0.2 -0.15
v -0.25 -0.1 -0.15
v -0.15 -0.5 -0.15
v -0.15 -0.2 -0.15
v -0.15 -0.1 -0.15
v -0.15 0 -0.15
v -0.05 -0.5 -0.15
v -0.05 -0.2 -0.15
v -0.05 -0.1 -0.15
v -0.05 0 -0.15
v 0.05 -0.5 -0.15
v 0.05 -0.2 -0.15
v 0.05 -0.1 -0.15
v 0.05 0.1 -0.15
v 0.15 -0.5 -0.15
v 0.15 -0.1 -0.15
v 0.15 0 -0.15
v 0.15 0.1 -0.15
v 0.25 -0.1 -0.15
v 0.25 0 -0.15
v -0.15 -0.2 -0.25
v -0.15 -0.1 -0.25
v -0.05 -0.2 -0.25
v -0.05 -0.1 -0.25
v -0.15 -0.5 0.15
v -0.05 -0.5 0.15
v 0.05 -0.5 0.15
v 0.15 -0.5 0.15
v -0.15 -0.5 0.05
v -0.05 -0.5 0.05
v 0.05 -0.5 0.05
v 0.15 -0.5 0.05
v -0.15 -0.5 -0.05
v -0.05 -0.5 -0.05
v 0.05 -0.5 -0.05
v 0.15 -0.5 -0.05
v -0.15 -0.5 -0.15
v -0.05 -0.5 -0.15
v 0.05 -0.5 -0.15
v 0.15 -0.5 -0.15
v 0.05 -0.3 0.25
v 0.15 -0.3 0.25
v 0.05 -0.3 0.15
v 0.15 -0.3 0.15
v 0.25 -0.3 0.15
v 0.15 -0.3 0.05
v 0.25 -0.3 0.05
v -0.15 -0.2 0.25
v -0.05 -0.2 0.25
v -0.25 -0.2 0.15
v -0.15 -0.2 0.15
v -0.05 -0.2 0.15
v 0.05 -0.2 0.15
v -0.25 -0.2 0.05
v -0.15 -0.2 0.05
v -0.05 -0.2 0.05
v 0.05 -0.2 0.05
v -0.25 -0.2 -0.05
v -0.15 -0.2 -0.05
v -0.05 -0.2 -0.05
v 0.05 -0.2 -0.05
v -0.25 -0.2 -0.15
v -0.15 -0.2 -0.15
v -0.05 -0.2 -0.15
v 0.05 -0.2 -0.15
v -0.15 -0.2 -0.25
v -0.05 -0.2 -0.25
v 0.05 -0.1 0.05
v 0.15 -0.1 0.05
v 0.05 -0.1 -0.05
v 0.15 -0.1 -0.05
v 0.25 -0.1 -0.05
v 0.15 -0.1 -0.15
v 0.25 -0.1 -0.15
v 0.05 -0.2 0.25
v 0.15 -0.2 0.25
v 0.05 -0.2 0.15
v 0.15 -0.2 0.15
v 0.25 -0.2 0.15
v 0.05 -0.2 0.05
v 0.25 -0.2 0.05
v -0.15 -0.1 0.25
v -0.05 -0.1 0.25
v -0.25 -0.1 0.15
v -0.15 -0.1 0.15
v -0.05 -0.1 0.15
v 0.05 -0.1 0.15
v -0.25 -0.1 0.05
v -0.15 -0.1 0.05
v -0.05 -0.1 0.05
v 0.05 -0.1 0.05
v -0.25 -0.1 -0.05
v -0.15 -0.1 -0.05
v -0.05 -0.1 -0.05
v 0.05 -0.1 -0.05
v -0.25 -0.1 -0.15
v -0.15 -0.1 -0.15
v -0.05 -0.1 -0.15
v 0.05 -0.1 -0.15
v -0.15 -0.1 -0.25
v -0.05 -0.1 -0.25
v -0.15 0 0.15
v -0.05 0 0.15
v -0.15 0 0.05
v -0.05 0 0.05
v 0.05 0 0.05
v 0.15 0 0.05
v -0.15 0 -0.05
v -0.05 0 -0.05
v 0.05 0 -0.05
v 0.15 0 -0.05
v 0.25 0 -0.05
v -0.15 0 -0.15
v -0.05 0 -0.15
v 0.15 0 -0.15
v 0.25 0 -0.15
v 0.05 0.1 -0.05
v 0.15 0.1 -0.05
v 0.05 0.1 -0.15
v 0.15 0.1 -0.15

# faces
f 5/2/1 2/2/1 1/2/1
f 6/2/1 2/2/1 5/2/1
f 7/2/1 4/2/1 3/2/1
f 8/2/1 4/2/1 7/2/1
f 14/1/1 10/1/1 9/1/1
f 15/1/1 10/1/1 14/1/1
f 16/1/1 12/1/1 11/1/1
f 17/1/1 12/1/1 16/1/1
f 19/2/1 14/2/1 13/2/1
f 20/2/1 14/2/1 19/2/1
f 23/2/1 18/2/1 17/2/1
f 24/2/1 18/2/1 23/2/1
f 25/2/1 21/2/1 20/2/1
f 26/2/1 21/2/1 25/2/1
f 27/2/1 23/2/1 22/2/1
f 28/2/1 23/2/1 27/2/1
f 34/1/1 30/1/1 29/1/1
f 35/1/1 30/1/1 34/1/1
f 36/2/1 34/2/1 33/2/1
f 36/2/1 35/2/1 34/2/1
f 37/2/1 35/2/1 36/2/1
f 38/2/1 35/2/1 37/2/1
f 39/1/1 32/1/1 31/1/1
f 40/1/1 32/1/1 39/1/1
f 44/2/1 42/2/1 41/2/1
f 44/2/1 43/2/1 42/2/1
f 45/2/1 43/2/1 44/2/1
f 46/2/1 43/2/1 45/2/1
f 47/2/1 43/2/1 46/2/1
f 48/1/2 49/1/2 53/1/2
f 53/1/2 49/1/2 54/1/2
f 50/1/2 51/1/2 55/1/2
f 55/1/2 51/1/2 56/1/2
f 52/2/2 53/2/2 58/2/2
f 58/2/2 53/2/2 59/2/2
f 56/2/2 57/2/2 62/2/2
f 62/2/2 57/2/2 63/2/2
f 59/2/2 60/2/2 64/2/2
f 64/2/2 60/2/2 65/2/2
f 61/2/2 62/2/2 66/2/2
f 66/2/2 62/2/2 67/2/2
f 68/2/2 69/2/2 70/2/2
f 70/2/2 69/2/2 71/2/2
f 72/1/2 73/1/2 77/1/2
f 77/1/2 73/1/2 78/1/2
f 76/2/2 77/2/2 79/2/2
f 79/2/2 77/2/2 80/2/2
f 74/1/2 75/1/2 82/1/2
f 82/1/2 75/1/2 83/1/2
f 81/2/2 82/2/2 84/2/2
f 84/2/2 82/2/2 85/2/2
f 85/2/2 86/2/2 87/2/2
f 87/2/2 86/2/2 88/2/2
f 89/2/2 90/2/2 91/2/2
f 91/2/2 90/2/2 92/2/2
f 93/2/2 94/2/2 95/2/2
f 95/2/2 94/2/2 96/2/2
f 99/2/3 98/2/3 97/2/3
f 100/2/3 98/2/3 99/2/3
f 103/2/3 102/2/3 101/2/3
f 104/2/3 102/2/3 103/2/3
f 108/2/3 106/2/3 105/2/3
f 109/2/3 106/2/3 108/2/3
f 111/1/3 108/1/3 107/1/3
f 112/1/3 108/1/3 111/1/3
f 113/2/3 110/2/3 109/2/3
f 114/2/3 110/2/3 113/2/3
f 117/2/3 113/2/3 112/2/3
f 118/2/3 113/2/3 117/2/3
f 119/1/3 116/1/3 115/1/3
f 120/1/3 116/1/3 119/1/3
f 122/2/3 121/2/3 120/2/3
f 123/2/3 121/2/3 122/2/3
f 126/2/3 125/2/3 124/2/3
f 127/2/3 125/2/3 126/2/3
f 131/2/3 129/2/3 128/2/3
f 132/2/3 129/2/3 131/2/3
f 134/1/3 131/1/3 130/1/3
f 135/2/3 133/2/3 132/2/3
f 135/1/3 131/1/3 134/1/3
f 135/2/3 132/2/3 131/2/3
f 136/2/3 133/2/3 135/2/3
f 137/2/3 133/2/3 136/2/3
f 139/2/3 136/2/3 135/2/3
f 140/2/3 136/2/3 139/2/3
f 143/1/3 140/1/3 139/1/3
f 143/1/3 139/1/3 138/1/3
f 144/1/3 140/1/3 143/1/3
f 145/2/3 142/2/3 141/2/3
f 146/2/3 142/2/3 145/2/3
f 147/2/3 145/2/3 144/2/3
f 148/2/3 145/2/3 147/2/3
f 149/2/4 150/2/4 152/2/4
f 152/2/4 150/2/4 153/2/4
f 151/1/4 152/1/4 155/1/4
f 153/2/4 154/2/4 156/2/4
f 155/1/4 152/1/4 156/1/4
f 152/2/4 153/2/4 156/2/4
f 156/2/4 154/2/4 157/2/4
f 157/2/4 154/2/4 158/2/4
f 156/2/4 157/2/4 161/2/4
f 161/2/4 157/2/4 162/2/4
f 159/1/4 160/1/4 163/1/4
f 160/2/4 161/2/4 164/2/4
f 163/1/4 160/1/4 164/1/4
f 164/2/4 161/2/4 165/2/4
f 165/2/4 161/2/4 166/2/4
f 167/2/4 168/2/4 170/2/4
f 170/2/4 168/2/4 171/2/4
f 169/1/4 170/1/4 173/1/4
f 173/1/4 170/1/4 174/1/4
f 171/2/4 172/2/4 175/2/4
f 175/2/4 172/2/4 176/2/4
f 174/2/4 175/2/4 178/2/4
f 178/2/4 175/2/4 179/2/4
f 178/1/4 179/1/4 181/1/4
f 177/1/4 178/1/4 181/1/4
f 179/2/4 180/2/4 182/2/4
f 181/1/4 179/1/4 182/1/4
f 182/2/4 180/2/4 183/2/4
f 183/2/4 180/2/4 184/2/4
f 182/2/4 183/2/4 185/2/4
f 185/2/4 183/2/4 186/2/4
f 187/2/4 188/2/4 189/2/4
f 189/2/4 188/2/4 190/2/4
f 195/1/5 192/1/5 191/1/5
f 196/1/5 192/1/5 195/1/5
f 197/1/5 194/1/5 193/1/5
f 198/1/5 194/1/5 197/1/5
f 203/1/5 200/1/5 199/1/5
f 204/1/5 200/1/5 203/1/5
f 205/1/5 202/1/5 201/1/5
f 206/1/5 202/1/5 205/1/5
f 209/2/5 208/2/5 207/2/5
f 210/2/5 208/2/5 209/2/5
f 212/2/5 211/2/5 210/2/5
f 213/2/5 211/2/5 212/2/5
f 217/2/5 215/2/5 214/2/5
f 218/2/5 215/2/5 217/2/5
f 220/2/5 217/2/5 216/2/5
f 221/2/5 217/2/5 220/2/5
f 222/2/5 219/2/5 218/2/5
f 223/2/5 219/2/5 222/2/5
f 228/2/5 225/2/5 224/2/5
f 229/2/5 225/2/5 228/2/5
f 230/2/5 227/2/5 226/2/5
f 231/2/5 227/2/5 230/2/5
f 232/2/5 230/2/5 229/2/5
f 233/2/5 230/2/5 232/2/5
f 236/2/5 235/2/5 234/2/5
f 237/2/5 235/2/5 236/2/5
f 239/2/5 238/2/5 237/2/5
f 240/2/5 238/2/5 239/2/5
f 241/2/6 242/2/6 243/2/6
f 243/2/6 242/2/6 244/2/6
f 243/2/6 244/2/6 246/2/6
f 244/2/6 245/2/6 246/2/6
f 246/2/6 245/2/6 247/2/6
f 248/2/6 249/2/6 251/2/6
f 251/2/6 249/2/6 252/2/6
f 250/2/6 251/2/6 254/2/6
f 254/2/6 251/2/6 255/2/6
f 252/2/6 253/2/6 256/2/6
f 256/2/6 253/2/6 257/2/6
f 258/2/6 259/2/6 262/2/6
f 262/2/6 259/2/6 263/2/6
f 260/2/6 261/2/6 264/2/6
f 264/2/6 261/2/6 265/2/6
f 263/2/6 264/2/6 266/2/6
f 266/2/6 264/2/6 267/2/6
f 268/2/6 269/2/6 270/2/6
f 270/2/6 269/2/6 271/2/6
f 272/2/6 273/2/6 276/2/6
f 276/2/6 273/2/6 277/2/6
f 274/2/6 275/2/6 279/2/6
f 279/2/6 275/2/6 280/2/6
f 277/2/6 278/2/6 281/2/6
f 281/2/6 278/2/6 282/2/6
f 283/2/6 284/2/6 285/2/6
f 285/2/6 284/2/6 286/2/6
