# MagicaVoxel @ Ephtracy

# group
o 

# material
mtllib Level 1 Base.mtl
usemtl palette

# normals
vn -1 0 0
vn 1 0 0
vn 0 0 1
vn 0 0 -1
vn 0 -1 0
vn 0 1 0

# texcoords
vt 0.0683594 0.5
vt 0.0722656 0.5
vt 0.138672 0.5
vt 0.142578 0.5

# verts
v -4.5 -5 4.5
v -4.5 -5 -4.5
v -4.5 -4.5 4.5
v -4.5 -4.5 -4.5
v -4.5 -4 4.5
v -4.5 -4 -4.5
v -4.5 -3.7 4.5
v -4.5 -3.7 -4.5
v -4.5 -3.5 4.5
v -4.5 -3.5 -4.5
v 4.5 -5 4.5
v 4.5 -5 -4.5
v 4.5 -4.5 4.5
v 4.5 -4.5 -4.5
v 4.5 -4 4.5
v 4.5 -4 -4.5
v 4.5 -3.7 4.5
v 4.5 -3.7 -4.5
v 4.5 -3.5 4.5
v 4.5 -3.5 -4.5
v -4.5 -5 4.5
v -4.5 -4.5 4.5
v -4.5 -4 4.5
v -4.5 -3.7 4.5
v -4.5 -3.5 4.5
v 4.5 -5 4.5
v 4.5 -4.5 4.5
v 4.5 -4 4.5
v 4.5 -3.7 4.5
v 4.5 -3.5 4.5
v -4.5 -5 -4.5
v -4.5 -4.5 -4.5
v -4.5 -4 -4.5
v -4.5 -3.7 -4.5
v -4.5 -3.5 -4.5
v 4.5 -5 -4.5
v 4.5 -4.5 -4.5
v 4.5 -4 -4.5
v 4.5 -3.7 -4.5
v 4.5 -3.5 -4.5
v -4.5 -5 4.5
v 4.5 -5 4.5
v -4.5 -5 -4.5
v 4.5 -5 -4.5
v -4.5 -3.5 4.5
v 4.5 -3.5 4.5
v -4.5 -3.5 -4.5
v 4.5 -3.5 -4.5

# faces
f 3/1/1 2/1/1 1/1/1
f 4/1/1 2/1/1 3/1/1
f 5/2/1 4/2/1 3/2/1
f 6/2/1 4/2/1 5/2/1
f 7/3/1 6/3/1 5/3/1
f 8/3/1 6/3/1 7/3/1
f 9/4/1 8/4/1 7/4/1
f 10/4/1 8/4/1 9/4/1
f 11/1/2 12/1/2 13/1/2
f 13/1/2 12/1/2 14/1/2
f 13/2/2 14/2/2 15/2/2
f 15/2/2 14/2/2 16/2/2
f 15/3/2 16/3/2 17/3/2
f 17/3/2 16/3/2 18/3/2
f 17/4/2 18/4/2 19/4/2
f 19/4/2 18/4/2 20/4/2
f 26/1/3 22/1/3 21/1/3
f 27/2/3 23/2/3 22/2/3
f 27/1/3 22/1/3 26/1/3
f 28/3/3 24/3/3 23/3/3
f 28/2/3 23/2/3 27/2/3
f 29/4/3 25/4/3 24/4/3
f 29/3/3 24/3/3 28/3/3
f 30/4/3 25/4/3 29/4/3
f 31/1/4 32/1/4 36/1/4
f 32/2/4 33/2/4 37/2/4
f 36/1/4 32/1/4 37/1/4
f 33/3/4 34/3/4 38/3/4
f 37/2/4 33/2/4 38/2/4
f 34/4/4 35/4/4 39/4/4
f 38/3/4 34/3/4 39/3/4
f 39/4/4 35/4/4 40/4/4
f 43/1/5 42/1/5 41/1/5
f 44/1/5 42/1/5 43/1/5
f 45/4/6 46/4/6 47/4/6
f 47/4/6 46/4/6 48/4/6
