# MagicaVoxel @ Ephtracy

# group
o 

# material
mtllib Marshmallow.mtl
usemtl palette

# normals
vn -1 0 0
vn 1 0 0
vn 0 0 1
vn 0 0 -1
vn 0 -1 0
vn 0 1 0

# texcoords
vt 0.0332031 0.5
vt 0.0722656 0.5

# verts
v -0.15 0 0.15
v -0.15 0 -0.15
v -0.15 0.3 0.15
v -0.15 0.3 -0.15
v -0.05 -0.5 0.05
v -0.05 -0.5 -0.05
v -0.05 -0.3 0.15
v -0.05 -0.3 0.05
v -0.05 -0.2 0.25
v -0.05 -0.2 0.15
v -0.05 -0.2 0.05
v -0.05 -0.1 0.25
v -0.05 -0.1 0.15
v -0.05 0 0.05
v -0.05 0 -0.05
v 0.05 -0.5 0.05
v 0.05 -0.5 -0.05
v 0.05 -0.3 0.15
v 0.05 -0.3 0.05
v 0.05 -0.2 0.25
v 0.05 -0.2 0.15
v 0.05 -0.2 0.05
v 0.05 -0.1 0.25
v 0.05 -0.1 0.15
v 0.05 0 0.05
v 0.05 0 -0.05
v 0.15 0 0.15
v 0.15 0 -0.15
v 0.15 0.3 0.15
v 0.15 0.3 -0.15
v -0.05 -0.2 0.25
v -0.05 -0.1 0.25
v 0.05 -0.2 0.25
v 0.05 -0.1 0.25
v -0.15 0 0.15
v -0.15 0.3 0.15
v -0.05 -0.3 0.15
v -0.05 -0.2 0.15
v 0.05 -0.3 0.15
v 0.05 -0.2 0.15
v 0.15 0 0.15
v 0.15 0.3 0.15
v -0.05 -0.5 0.05
v -0.05 -0.3 0.05
v -0.05 -0.2 0.05
v -0.05 0 0.05
v 0.05 -0.5 0.05
v 0.05 -0.3 0.05
v 0.05 -0.2 0.05
v 0.05 0 0.05
v -0.05 -0.2 0.15
v -0.05 -0.1 0.15
v 0.05 -0.2 0.15
v 0.05 -0.1 0.15
v -0.05 -0.5 -0.05
v -0.05 0 -0.05
v 0.05 -0.5 -0.05
v 0.05 0 -0.05
v -0.15 0 -0.15
v -0.15 0.3 -0.15
v 0.15 0 -0.15
v 0.15 0.3 -0.15
v -0.05 -0.5 0.05
v 0.05 -0.5 0.05
v -0.05 -0.5 -0.05
v 0.05 -0.5 -0.05
v -0.05 -0.3 0.15
v 0.05 -0.3 0.15
v -0.05 -0.3 0.05
v 0.05 -0.3 0.05
v -0.05 -0.2 0.25
v 0.05 -0.2 0.25
v -0.05 -0.2 0.15
v 0.05 -0.2 0.15
v -0.15 0 0.15
v 0.15 0 0.15
v -0.05 0 0.05
v 0.05 0 0.05
v -0.05 0 -0.05
v 0.05 0 -0.05
v -0.15 0 -0.15
v 0.15 0 -0.15
v -0.05 -0.2 0.15
v 0.05 -0.2 0.15
v -0.05 -0.2 0.05
v 0.05 -0.2 0.05
v -0.05 -0.1 0.25
v 0.05 -0.1 0.25
v -0.05 -0.1 0.15
v 0.05 -0.1 0.15
v -0.15 0.3 0.15
v 0.15 0.3 0.15
v -0.15 0.3 -0.15
v 0.15 0.3 -0.15

# faces
f 3/1/1 2/1/1 1/1/1
f 4/1/1 2/1/1 3/1/1
f 8/2/1 6/2/1 5/2/1
f 10/2/1 8/2/1 7/2/1
f 11/2/1 6/2/1 8/2/1
f 11/2/1 8/2/1 10/2/1
f 12/2/1 10/2/1 9/2/1
f 13/2/1 10/2/1 12/2/1
f 14/2/1 6/2/1 11/2/1
f 15/2/1 6/2/1 14/2/1
f 16/2/2 17/2/2 19/2/2
f 18/2/2 19/2/2 21/2/2
f 19/2/2 17/2/2 22/2/2
f 21/2/2 19/2/2 22/2/2
f 20/2/2 21/2/2 23/2/2
f 23/2/2 21/2/2 24/2/2
f 22/2/2 17/2/2 25/2/2
f 25/2/2 17/2/2 26/2/2
f 27/1/2 28/1/2 29/1/2
f 29/1/2 28/1/2 30/1/2
f 33/2/3 32/2/3 31/2/3
f 34/2/3 32/2/3 33/2/3
f 39/2/3 38/2/3 37/2/3
f 40/2/3 38/2/3 39/2/3
f 41/1/3 36/1/3 35/1/3
f 42/1/3 36/1/3 41/1/3
f 47/2/3 44/2/3 43/2/3
f 48/2/3 44/2/3 47/2/3
f 49/2/3 46/2/3 45/2/3
f 50/2/3 46/2/3 49/2/3
f 51/2/4 52/2/4 53/2/4
f 53/2/4 52/2/4 54/2/4
f 55/2/4 56/2/4 57/2/4
f 57/2/4 56/2/4 58/2/4
f 59/1/4 60/1/4 61/1/4
f 61/1/4 60/1/4 62/1/4
f 65/2/5 64/2/5 63/2/5
f 66/2/5 64/2/5 65/2/5
f 69/2/5 68/2/5 67/2/5
f 70/2/5 68/2/5 69/2/5
f 73/2/5 72/2/5 71/2/5
f 74/2/5 72/2/5 73/2/5
f 77/1/5 76/1/5 75/1/5
f 78/1/5 76/1/5 77/1/5
f 79/1/5 77/1/5 75/1/5
f 80/1/5 76/1/5 78/1/5
f 81/1/5 79/1/5 75/1/5
f 81/1/5 80/1/5 79/1/5
f 82/1/5 76/1/5 80/1/5
f 82/1/5 80/1/5 81/1/5
f 83/2/6 84/2/6 85/2/6
f 85/2/6 84/2/6 86/2/6
f 87/2/6 88/2/6 89/2/6
f 89/2/6 88/2/6 90/2/6
f 91/1/6 92/1/6 93/1/6
f 93/1/6 92/1/6 94/1/6
