# MagicaVoxel @ Ephtracy

# group
o 

# material
mtllib Seagull 2.mtl
usemtl palette

# normals
vn -1 0 0
vn 1 0 0
vn 0 0 1
vn 0 0 -1
vn 0 -1 0
vn 0 1 0

# texcoords
vt 0.00585938 0.5
vt 0.0292969 0.5
vt 0.0332031 0.5
vt 0.0957031 0.5

# verts
v -0.3 0.2 0
v -0.3 0.2 -0.2
v -0.3 0.4 0
v -0.3 0.4 -0.2
v -0.1 0.1 -0.1
v -0.1 0.1 -0.3
v -0.1 0.2 0
v -0.1 0.2 -0.1
v -0.1 0.2 -0.2
v -0.1 0.2 -0.3
v -0.1 0.2 -0.4
v -0.1 0.3 0.1
v -0.1 0.3 0
v -0.1 0.3 -0.1
v -0.1 0.3 -0.2
v -0.1 0.3 -0.3
v -0.1 0.3 -0.4
v -0.1 0.4 0.3
v -0.1 0.4 0.1
v -0.1 0.4 0
v -0.1 0.4 -0.1
v -0.1 0.4 -0.2
v -0.1 0.4 -0.3
v -0.1 0.5 0.3
v -0.1 0.5 0.2
v -0.1 0.5 0
v -0.1 0.5 -0.1
v -0.1 0.6 0.3
v -0.1 0.6 0.2
v -0.1 0.6 0.1
v -0.1 0.6 0
v -0.1 0.7 0.3
v -0.1 0.7 0.1
v 0 0.2 0.1
v 0 0.2 0
v 0 0.2 -0.4
v 0 0.2 -0.5
v 0 0.3 0.2
v 0 0.3 0.1
v 0 0.3 0
v 0 0.3 -0.4
v 0 0.3 -0.5
v 0 0.4 0.4
v 0 0.4 0.3
v 0 0.4 0.2
v 0 0.4 0.1
v 0 0.4 -0.1
v 0 0.4 -0.2
v 0 0.5 0.4
v 0 0.5 0.3
v 0 0.5 0
v 0 0.5 -0.1
v 0 0.5 -0.2
v 0 0.6 0.1
v 0 0.6 0
v 0 0.6 -0.1
v 0 0.7 0.1
v 0 0.7 0
v 0.1 0.1 -0.1
v 0.1 0.1 -0.3
v 0.1 0.2 -0.1
v 0.1 0.2 -0.3
v 0.3 0.2 0
v 0.3 0.2 -0.2
v 0.3 0.3 0
v 0.3 0.3 -0.2
v -0.2 0.2 0
v -0.2 0.2 -0.2
v -0.2 0.3 0
v -0.2 0.3 -0.2
v 0 0.1 -0.1
v 0 0.1 -0.3
v 0 0.2 -0.1
v 0 0.2 -0.3
v 0.1 0.2 0.1
v 0.1 0.2 0
v 0.1 0.2 -0.4
v 0.1 0.2 -0.5
v 0.1 0.3 0.2
v 0.1 0.3 0.1
v 0.1 0.3 0
v 0.1 0.3 -0.4
v 0.1 0.3 -0.5
v 0.1 0.4 0.4
v 0.1 0.4 0.3
v 0.1 0.4 0.2
v 0.1 0.4 0.1
v 0.1 0.4 -0.1
v 0.1 0.4 -0.2
v 0.1 0.5 0.4
v 0.1 0.5 0.3
v 0.1 0.5 0
v 0.1 0.5 -0.1
v 0.1 0.5 -0.2
v 0.1 0.6 0.1
v 0.1 0.6 0
v 0.1 0.6 -0.1
v 0.1 0.7 0.1
v 0.1 0.7 0
v 0.2 0.1 -0.1
v 0.2 0.1 -0.3
v 0.2 0.2 0
v 0.2 0.2 -0.1
v 0.2 0.2 -0.2
v 0.2 0.2 -0.3
v 0.2 0.2 -0.4
v 0.2 0.3 0.1
v 0.2 0.3 0
v 0.2 0.3 -0.1
v 0.2 0.3 -0.2
v 0.2 0.3 -0.3
v 0.2 0.3 -0.4
v 0.2 0.4 0.3
v 0.2 0.4 0.1
v 0.2 0.4 0
v 0.2 0.4 -0.1
v 0.2 0.4 -0.2
v 0.2 0.4 -0.3
v 0.2 0.5 0.3
v 0.2 0.5 0.2
v 0.2 0.5 0
v 0.2 0.5 -0.1
v 0.2 0.6 0.3
v 0.2 0.6 0.2
v 0.2 0.6 0.1
v 0.2 0.6 0
v 0.2 0.7 0.3
v 0.2 0.7 0.1
v 0.4 0.2 0
v 0.4 0.2 -0.2
v 0.4 0.4 0
v 0.4 0.4 -0.2
v 0 0.4 0.4
v 0 0.5 0.4
v 0.1 0.4 0.4
v 0.1 0.5 0.4
v -0.1 0.4 0.3
v -0.1 0.5 0.3
v -0.1 0.6 0.3
v -0.1 0.7 0.3
v 0 0.4 0.3
v 0 0.5 0.3
v 0 0.6 0.3
v 0.1 0.4 0.3
v 0.1 0.5 0.3
v 0.1 0.6 0.3
v 0.2 0.4 0.3
v 0.2 0.5 0.3
v 0.2 0.6 0.3
v 0.2 0.7 0.3
v 0 0.3 0.2
v 0 0.4 0.2
v 0.1 0.3 0.2
v 0.1 0.4 0.2
v -0.1 0.3 0.1
v -0.1 0.4 0.1
v 0 0.2 0.1
v 0 0.3 0.1
v 0 0.4 0.1
v 0.1 0.2 0.1
v 0.1 0.3 0.1
v 0.1 0.4 0.1
v 0.2 0.3 0.1
v 0.2 0.4 0.1
v -0.3 0.2 0
v -0.3 0.4 0
v -0.2 0.2 0
v -0.2 0.3 0
v -0.1 0.2 0
v -0.1 0.3 0
v -0.1 0.4 0
v 0 0.2 0
v 0 0.3 0
v 0.1 0.2 0
v 0.1 0.3 0
v 0.2 0.2 0
v 0.2 0.3 0
v 0.2 0.4 0
v 0.3 0.2 0
v 0.3 0.3 0
v 0.4 0.2 0
v 0.4 0.4 0
v -0.1 0.1 -0.1
v -0.1 0.2 -0.1
v 0 0.1 -0.1
v 0 0.2 -0.1
v 0.1 0.1 -0.1
v 0.1 0.2 -0.1
v 0.2 0.1 -0.1
v 0.2 0.2 -0.1
v -0.1 0.6 0.1
v -0.1 0.7 0.1
v 0 0.6 0.1
v 0 0.7 0.1
v 0.1 0.6 0.1
v 0.1 0.7 0.1
v 0.2 0.6 0.1
v 0.2 0.7 0.1
v -0.1 0.5 0
v -0.1 0.6 0
v 0 0.5 0
v 0 0.6 0
v 0 0.7 0
v 0.1 0.5 0
v 0.1 0.6 0
v 0.1 0.7 0
v 0.2 0.5 0
v 0.2 0.6 0
v -0.1 0.4 -0.1
v -0.1 0.5 -0.1
v 0 0.4 -0.1
v 0 0.5 -0.1
v 0 0.6 -0.1
v 0.1 0.4 -0.1
v 0.1 0.5 -0.1
v 0.1 0.6 -0.1
v 0.2 0.4 -0.1
v 0.2 0.5 -0.1
v -0.3 0.2 -0.2
v -0.3 0.4 -0.2
v -0.2 0.2 -0.2
v -0.2 0.3 -0.2
v -0.1 0.3 -0.2
v -0.1 0.4 -0.2
v 0 0.4 -0.2
v 0 0.5 -0.2
v 0.1 0.4 -0.2
v 0.1 0.5 -0.2
v 0.2 0.3 -0.2
v 0.2 0.4 -0.2
v 0.3 0.2 -0.2
v 0.3 0.3 -0.2
v 0.4 0.2 -0.2
v 0.4 0.4 -0.2
v -0.1 0.1 -0.3
v -0.1 0.2 -0.3
v -0.1 0.3 -0.3
v -0.1 0.4 -0.3
v 0 0.1 -0.3
v 0 0.2 -0.3
v 0.1 0.1 -0.3
v 0.1 0.2 -0.3
v 0.2 0.1 -0.3
v 0.2 0.2 -0.3
v 0.2 0.3 -0.3
v 0.2 0.4 -0.3
v -0.1 0.2 -0.4
v -0.1 0.3 -0.4
v 0 0.2 -0.4
v 0 0.3 -0.4
v 0.1 0.2 -0.4
v 0.1 0.3 -0.4
v 0.2 0.2 -0.4
v 0.2 0.3 -0.4
v 0 0.2 -0.5
v 0 0.3 -0.5
v 0.1 0.2 -0.5
v 0.1 0.3 -0.5
v -0.1 0.1 -0.1
v 0 0.1 -0.1
v 0.1 0.1 -0.1
v 0.2 0.1 -0.1
v -0.1 0.1 -0.3
v 0 0.1 -0.3
v 0.1 0.1 -0.3
v 0.2 0.1 -0.3
v 0 0.2 0.1
v 0.1 0.2 0.1
v -0.3 0.2 0
v -0.2 0.2 0
v -0.1 0.2 0
v 0 0.2 0
v 0.1 0.2 0
v 0.2 0.2 0
v 0.3 0.2 0
v 0.4 0.2 0
v -0.1 0.2 -0.1
v 0 0.2 -0.1
v 0.1 0.2 -0.1
v 0.2 0.2 -0.1
v -0.3 0.2 -0.2
v -0.2 0.2 -0.2
v 0.3 0.2 -0.2
v 0.4 0.2 -0.2
v -0.1 0.2 -0.3
v 0 0.2 -0.3
v 0.1 0.2 -0.3
v 0.2 0.2 -0.3
v -0.1 0.2 -0.4
v 0 0.2 -0.4
v 0.1 0.2 -0.4
v 0.2 0.2 -0.4
v 0 0.2 -0.5
v 0.1 0.2 -0.5
v 0 0.3 0.2
v 0.1 0.3 0.2
v -0.1 0.3 0.1
v 0 0.3 0.1
v 0.1 0.3 0.1
v 0.2 0.3 0.1
v -0.2 0.3 0
v -0.1 0.3 0
v 0 0.3 0
v 0.1 0.3 0
v 0.2 0.3 0
v 0.3 0.3 0
v -0.1 0.3 -0.1
v 0.2 0.3 -0.1
v -0.2 0.3 -0.2
v -0.1 0.3 -0.2
v 0.2 0.3 -0.2
v 0.3 0.3 -0.2
v 0 0.4 0.4
v 0.1 0.4 0.4
v -0.1 0.4 0.3
v 0 0.4 0.3
v 0.1 0.4 0.3
v 0.2 0.4 0.3
v 0 0.4 0.2
v 0.1 0.4 0.2
v -0.1 0.4 0.1
v 0 0.4 0.1
v 0.1 0.4 0.1
v 0.2 0.4 0.1
v -0.1 0.3 -0.3
v 0.2 0.3 -0.3
v -0.1 0.3 -0.4
v 0 0.3 -0.4
v 0.1 0.3 -0.4
v 0.2 0.3 -0.4
v 0 0.3 -0.5
v 0.1 0.3 -0.5
v -0.3 0.4 0
v -0.1 0.4 0
v 0.2 0.4 0
v 0.4 0.4 0
v -0.1 0.4 -0.1
v 0 0.4 -0.1
v 0.1 0.4 -0.1
v 0.2 0.4 -0.1
v -0.3 0.4 -0.2
v -0.1 0.4 -0.2
v 0 0.4 -0.2
v 0.1 0.4 -0.2
v 0.2 0.4 -0.2
v 0.4 0.4 -0.2
v -0.1 0.4 -0.3
v 0.2 0.4 -0.3
v 0 0.5 0.4
v 0.1 0.5 0.4
v 0 0.5 0.3
v 0.1 0.5 0.3
v -0.1 0.5 0
v 0 0.5 0
v 0.1 0.5 0
v 0.2 0.5 0
v -0.1 0.5 -0.1
v 0 0.5 -0.1
v 0.1 0.5 -0.1
v 0.2 0.5 -0.1
v 0 0.5 -0.2
v 0.1 0.5 -0.2
v -0.1 0.6 0.1
v 0 0.6 0.1
v 0.1 0.6 0.1
v 0.2 0.6 0.1
v -0.1 0.6 0
v 0 0.6 0
v 0.1 0.6 0
v 0.2 0.6 0
v 0 0.6 -0.1
v 0.1 0.6 -0.1
v -0.1 0.7 0.3
v 0.2 0.7 0.3
v -0.1 0.7 0.1
v 0 0.7 0.1
v 0.1 0.7 0.1
v 0.2 0.7 0.1
v 0 0.7 0
v 0.1 0.7 0

# faces
f 3/2/1 2/2/1 1/2/1
f 4/2/1 2/2/1 3/2/1
f 8/4/1 6/4/1 5/4/1
f 9/4/1 6/4/1 8/4/1
f 10/4/1 6/4/1 9/4/1
f 13/2/1 8/2/1 7/2/1
f 14/4/1 9/4/1 8/4/1
f 14/2/1 8/2/1 13/2/1
f 15/2/1 11/2/1 10/2/1
f 15/4/1 9/4/1 14/4/1
f 15/2/1 10/2/1 9/2/1
f 16/2/1 11/2/1 15/2/1
f 17/2/1 11/2/1 16/2/1
f 19/3/1 13/3/1 12/3/1
f 20/3/1 13/3/1 19/3/1
f 22/2/1 16/2/1 15/2/1
f 23/2/1 16/2/1 22/2/1
f 24/3/1 21/3/1 20/3/1
f 24/3/1 19/3/1 18/3/1
f 24/3/1 20/3/1 19/3/1
f 25/3/1 21/3/1 24/3/1
f 26/3/1 21/3/1 25/3/1
f 27/3/1 21/3/1 26/3/1
f 28/1/1 25/1/1 24/1/1
f 29/3/1 26/3/1 25/3/1
f 29/1/1 25/1/1 28/1/1
f 30/3/1 26/3/1 29/3/1
f 31/3/1 26/3/1 30/3/1
f 32/3/1 29/3/1 28/3/1
f 32/3/1 30/3/1 29/3/1
f 33/3/1 30/3/1 32/3/1
f 39/3/1 35/3/1 34/3/1
f 40/3/1 35/3/1 39/3/1
f 41/2/1 37/2/1 36/2/1
f 42/2/1 37/2/1 41/2/1
f 45/3/1 39/3/1 38/3/1
f 46/3/1 39/3/1 45/3/1
f 49/4/1 44/4/1 43/4/1
f 50/4/1 44/4/1 49/4/1
f 52/3/1 48/3/1 47/3/1
f 53/3/1 48/3/1 52/3/1
f 55/3/1 52/3/1 51/3/1
f 56/3/1 52/3/1 55/3/1
f 57/3/1 55/3/1 54/3/1
f 58/3/1 55/3/1 57/3/1
f 61/4/1 60/4/1 59/4/1
f 62/4/1 60/4/1 61/4/1
f 65/2/1 64/2/1 63/2/1
f 66/2/1 64/2/1 65/2/1
f 67/2/2 68/2/2 69/2/2
f 69/2/2 68/2/2 70/2/2
f 71/4/2 72/4/2 73/4/2
f 73/4/2 72/4/2 74/4/2
f 75/3/2 76/3/2 80/3/2
f 80/3/2 76/3/2 81/3/2
f 77/2/2 78/2/2 82/2/2
f 82/2/2 78/2/2 83/2/2
f 79/3/2 80/3/2 86/3/2
f 86/3/2 80/3/2 87/3/2
f 84/4/2 85/4/2 90/4/2
f 90/4/2 85/4/2 91/4/2
f 88/3/2 89/3/2 93/3/2
f 93/3/2 89/3/2 94/3/2
f 92/3/2 93/3/2 96/3/2
f 96/3/2 93/3/2 97/3/2
f 95/3/2 96/3/2 98/3/2
f 98/3/2 96/3/2 99/3/2
f 100/4/2 101/4/2 103/4/2
f 103/4/2 101/4/2 104/4/2
f 104/4/2 101/4/2 105/4/2
f 102/2/2 103/2/2 108/2/2
f 103/4/2 104/4/2 109/4/2
f 108/2/2 103/2/2 109/2/2
f 105/2/2 106/2/2 110/2/2
f 109/4/2 104/4/2 110/4/2
f 104/2/2 105/2/2 110/2/2
f 110/2/2 106/2/2 111/2/2
f 111/2/2 106/2/2 112/2/2
f 107/3/2 108/3/2 114/3/2
f 114/3/2 108/3/2 115/3/2
f 110/2/2 111/2/2 117/2/2
f 117/2/2 111/2/2 118/2/2
f 115/3/2 116/3/2 119/3/2
f 113/3/2 114/3/2 119/3/2
f 114/3/2 115/3/2 119/3/2
f 119/3/2 116/3/2 120/3/2
f 120/3/2 116/3/2 121/3/2
f 121/3/2 116/3/2 122/3/2
f 119/1/2 120/1/2 123/1/2
f 120/3/2 121/3/2 124/3/2
f 123/1/2 120/1/2 124/1/2
f 124/3/2 121/3/2 125/3/2
f 125/3/2 121/3/2 126/3/2
f 123/3/2 124/3/2 127/3/2
f 124/3/2 125/3/2 127/3/2
f 127/3/2 125/3/2 128/3/2
f 129/2/2 130/2/2 131/2/2
f 131/2/2 130/2/2 132/2/2
f 135/4/3 134/4/3 133/4/3
f 136/4/3 134/4/3 135/4/3
f 141/3/3 138/3/3 137/3/3
f 142/1/3 139/1/3 138/1/3
f 142/3/3 138/3/3 141/3/3
f 143/3/3 140/3/3 139/3/3
f 143/1/3 139/1/3 142/1/3
f 145/3/3 143/3/3 142/3/3
f 146/3/3 140/3/3 143/3/3
f 146/3/3 143/3/3 145/3/3
f 147/3/3 145/3/3 144/3/3
f 148/1/3 146/1/3 145/1/3
f 148/3/3 145/3/3 147/3/3
f 149/3/3 140/3/3 146/3/3
f 149/1/3 146/1/3 148/1/3
f 150/3/3 140/3/3 149/3/3
f 153/3/3 152/3/3 151/3/3
f 154/3/3 152/3/3 153/3/3
f 158/3/3 156/3/3 155/3/3
f 159/3/3 156/3/3 158/3/3
f 160/3/3 158/3/3 157/3/3
f 161/3/3 158/3/3 160/3/3
f 163/3/3 162/3/3 161/3/3
f 164/3/3 162/3/3 163/3/3
f 167/2/3 166/2/3 165/2/3
f 168/2/3 166/2/3 167/2/3
f 170/2/3 166/2/3 168/2/3
f 171/2/3 166/2/3 170/2/3
f 172/2/3 170/2/3 169/2/3
f 173/2/3 170/2/3 172/2/3
f 176/2/3 175/2/3 174/2/3
f 177/2/3 175/2/3 176/2/3
f 180/2/3 178/2/3 177/2/3
f 181/2/3 180/2/3 179/2/3
f 182/2/3 178/2/3 180/2/3
f 182/2/3 180/2/3 181/2/3
f 185/4/3 184/4/3 183/4/3
f 186/4/3 184/4/3 185/4/3
f 189/4/3 188/4/3 187/4/3
f 190/4/3 188/4/3 189/4/3
f 191/3/4 192/3/4 193/3/4
f 193/3/4 192/3/4 194/3/4
f 195/3/4 196/3/4 197/3/4
f 197/3/4 196/3/4 198/3/4
f 199/3/4 200/3/4 201/3/4
f 201/3/4 200/3/4 202/3/4
f 202/3/4 203/3/4 205/3/4
f 205/3/4 203/3/4 206/3/4
f 204/3/4 205/3/4 207/3/4
f 207/3/4 205/3/4 208/3/4
f 209/3/4 210/3/4 211/3/4
f 211/3/4 210/3/4 212/3/4
f 212/3/4 213/3/4 215/3/4
f 215/3/4 213/3/4 216/3/4
f 214/3/4 215/3/4 217/3/4
f 217/3/4 215/3/4 218/3/4
f 219/2/4 220/2/4 221/2/4
f 221/2/4 220/2/4 222/2/4
f 222/2/4 220/2/4 223/2/4
f 223/2/4 220/2/4 224/2/4
f 225/3/4 226/3/4 227/3/4
f 227/3/4 226/3/4 228/3/4
f 229/2/4 230/2/4 232/2/4
f 231/2/4 232/2/4 233/2/4
f 232/2/4 230/2/4 234/2/4
f 233/2/4 232/2/4 234/2/4
f 235/4/4 236/4/4 239/4/4
f 239/4/4 236/4/4 240/4/4
f 241/4/4 242/4/4 243/4/4
f 243/4/4 242/4/4 244/4/4
f 237/2/4 238/2/4 245/2/4
f 245/2/4 238/2/4 246/2/4
f 247/2/4 248/2/4 249/2/4
f 249/2/4 248/2/4 250/2/4
f 251/2/4 252/2/4 253/2/4
f 253/2/4 252/2/4 254/2/4
f 255/2/4 256/2/4 257/2/4
f 257/2/4 256/2/4 258/2/4
f 263/4/5 260/4/5 259/4/5
f 264/4/5 260/4/5 263/4/5
f 265/4/5 262/4/5 261/4/5
f 266/4/5 262/4/5 265/4/5
f 272/3/5 268/3/5 267/3/5
f 273/3/5 268/3/5 272/3/5
f 277/2/5 272/2/5 271/2/5
f 278/3/5 273/3/5 272/3/5
f 278/2/5 272/2/5 277/2/5
f 279/2/5 274/2/5 273/2/5
f 279/3/5 273/3/5 278/3/5
f 280/2/5 274/2/5 279/2/5
f 281/2/5 270/2/5 269/2/5
f 282/2/5 270/2/5 281/2/5
f 283/2/5 276/2/5 275/2/5
f 284/2/5 276/2/5 283/2/5
f 286/3/5 279/3/5 278/3/5
f 287/3/5 279/3/5 286/3/5
f 289/2/5 286/2/5 285/2/5
f 289/2/5 288/2/5 287/2/5
f 289/2/5 287/2/5 286/2/5
f 290/2/5 288/2/5 289/2/5
f 291/2/5 288/2/5 290/2/5
f 292/2/5 288/2/5 291/2/5
f 293/2/5 291/2/5 290/2/5
f 294/2/5 291/2/5 293/2/5
f 298/3/5 296/3/5 295/3/5
f 299/3/5 296/3/5 298/3/5
f 302/3/5 298/3/5 297/3/5
f 303/3/5 298/3/5 302/3/5
f 304/3/5 300/3/5 299/3/5
f 305/3/5 300/3/5 304/3/5
f 307/2/5 302/2/5 301/2/5
f 308/2/5 306/2/5 305/2/5
f 309/2/5 307/2/5 301/2/5
f 310/2/5 307/2/5 309/2/5
f 311/2/5 306/2/5 308/2/5
f 312/2/5 306/2/5 311/2/5
f 316/4/5 314/4/5 313/4/5
f 317/4/5 314/4/5 316/4/5
f 319/3/5 316/3/5 315/3/5
f 319/4/5 317/4/5 316/4/5
f 320/3/5 318/3/5 317/3/5
f 320/4/5 317/4/5 319/4/5
f 321/3/5 319/3/5 315/3/5
f 322/3/5 319/3/5 321/3/5
f 323/3/5 318/3/5 320/3/5
f 324/3/5 318/3/5 323/3/5
f 325/2/6 326/2/6 327/2/6
f 327/2/6 326/2/6 328/2/6
f 328/2/6 326/2/6 329/2/6
f 329/2/6 326/2/6 330/2/6
f 328/2/6 329/2/6 331/2/6
f 331/2/6 329/2/6 332/2/6
f 333/2/6 334/2/6 337/2/6
f 335/2/6 336/2/6 340/2/6
f 337/2/6 338/2/6 341/2/6
f 333/2/6 337/2/6 341/2/6
f 341/2/6 338/2/6 342/2/6
f 342/2/6 338/2/6 343/2/6
f 339/2/6 340/2/6 344/2/6
f 340/2/6 336/2/6 345/2/6
f 344/2/6 340/2/6 345/2/6
f 345/2/6 336/2/6 346/2/6
f 342/2/6 343/2/6 347/2/6
f 343/2/6 344/2/6 347/2/6
f 344/2/6 345/2/6 347/2/6
f 347/2/6 345/2/6 348/2/6
f 349/4/6 350/4/6 351/4/6
f 351/4/6 350/4/6 352/4/6
f 353/3/6 354/3/6 357/3/6
f 357/3/6 354/3/6 358/3/6
f 355/3/6 356/3/6 359/3/6
f 359/3/6 356/3/6 360/3/6
f 358/3/6 359/3/6 361/3/6
f 361/3/6 359/3/6 362/3/6
f 363/3/6 364/3/6 367/3/6
f 367/3/6 364/3/6 368/3/6
f 365/3/6 366/3/6 369/3/6
f 369/3/6 366/3/6 370/3/6
f 368/3/6 369/3/6 371/3/6
f 371/3/6 369/3/6 372/3/6
f 373/3/6 374/3/6 375/3/6
f 375/3/6 374/3/6 376/3/6
f 376/3/6 374/3/6 377/3/6
f 377/3/6 374/3/6 378/3/6
f 376/3/6 377/3/6 379/3/6
f 379/3/6 377/3/6 380/3/6
