# MagicaVoxel @ Ephtracy

# group
o 

# material
mtllib Seat.mtl
usemtl palette

# normals
vn -1 0 0
vn 1 0 0
vn 0 0 1
vn 0 0 -1
vn 0 -1 0
vn 0 1 0

# texcoords
vt 0.0253906 0.5
vt 0.158203 0.5

# verts
v -0.25 -0.5 0.25
v -0.25 -0.5 0.15
v -0.25 -0.5 -0.15
v -0.25 -0.5 -0.25
v -0.25 -0.4 0.25
v -0.25 -0.4 0.15
v -0.25 -0.4 0.05
v -0.25 -0.4 -0.05
v -0.25 -0.4 -0.15
v -0.25 -0.4 -0.25
v -0.25 -0.3 0.15
v -0.25 -0.3 0.05
v -0.25 -0.3 -0.05
v -0.25 -0.3 -0.15
v -0.25 -0.2 0.15
v -0.25 -0.2 0.05
v -0.25 -0.2 -0.05
v -0.25 -0.2 -0.15
v -0.25 -0.1 0.15
v -0.25 -0.1 -0.15
v -0.15 -0.2 0.25
v -0.15 -0.2 0.15
v -0.15 -0.2 -0.15
v -0.15 -0.2 -0.25
v -0.15 -0.1 0.25
v -0.15 -0.1 0.15
v -0.15 -0.1 -0.15
v -0.15 -0.1 -0.25
v 0.15 -0.4 0.15
v 0.15 -0.4 0.05
v 0.15 -0.4 -0.05
v 0.15 -0.4 -0.15
v 0.15 -0.3 0.15
v 0.15 -0.3 0.05
v 0.15 -0.3 -0.05
v 0.15 -0.3 -0.15
v -0.15 -0.4 0.15
v -0.15 -0.4 0.05
v -0.15 -0.4 -0.05
v -0.15 -0.4 -0.15
v -0.15 -0.3 0.15
v -0.15 -0.3 0.05
v -0.15 -0.3 -0.05
v -0.15 -0.3 -0.15
v 0.15 -0.2 0.25
v 0.15 -0.2 0.15
v 0.15 -0.2 -0.15
v 0.15 -0.2 -0.25
v 0.15 -0.1 0.25
v 0.15 -0.1 0.15
v 0.15 -0.1 -0.15
v 0.15 -0.1 -0.25
v 0.25 -0.5 0.25
v 0.25 -0.5 0.15
v 0.25 -0.5 -0.15
v 0.25 -0.5 -0.25
v 0.25 -0.4 0.25
v 0.25 -0.4 0.15
v 0.25 -0.4 0.05
v 0.25 -0.4 -0.05
v 0.25 -0.4 -0.15
v 0.25 -0.4 -0.25
v 0.25 -0.3 0.15
v 0.25 -0.3 0.05
v 0.25 -0.3 -0.05
v 0.25 -0.3 -0.15
v 0.25 -0.2 0.15
v 0.25 -0.2 0.05
v 0.25 -0.2 -0.05
v 0.25 -0.2 -0.15
v 0.25 -0.1 0.15
v 0.25 -0.1 -0.15
v -0.25 -0.5 0.25
v -0.25 -0.4 0.25
v -0.15 -0.2 0.25
v -0.15 -0.1 0.25
v 0.15 -0.2 0.25
v 0.15 -0.1 0.25
v 0.25 -0.5 0.25
v 0.25 -0.4 0.25
v -0.25 -0.4 0.15
v -0.25 -0.3 0.15
v -0.25 -0.2 0.15
v -0.25 -0.1 0.15
v -0.15 -0.4 0.15
v -0.15 -0.3 0.15
v -0.15 -0.2 0.15
v -0.15 -0.1 0.15
v 0.15 -0.4 0.15
v 0.15 -0.3 0.15
v 0.15 -0.2 0.15
v 0.15 -0.1 0.15
v 0.25 -0.4 0.15
v 0.25 -0.3 0.15
v 0.25 -0.2 0.15
v 0.25 -0.1 0.15
v -0.25 -0.3 0.05
v -0.25 -0.2 0.05
v -0.15 -0.3 0.05
v 0.15 -0.3 0.05
v 0.25 -0.3 0.05
v 0.25 -0.2 0.05
v -0.25 -0.4 -0.05
v -0.25 -0.3 -0.05
v -0.15 -0.4 -0.05
v -0.15 -0.3 -0.05
v 0.15 -0.4 -0.05
v 0.15 -0.3 -0.05
v 0.25 -0.4 -0.05
v 0.25 -0.3 -0.05
v -0.25 -0.5 -0.15
v -0.25 -0.4 -0.15
v -0.15 -0.4 -0.15
v 0.15 -0.4 -0.15
v 0.25 -0.5 -0.15
v 0.25 -0.4 -0.15
v -0.25 -0.5 0.15
v -0.25 -0.4 0.15
v -0.15 -0.4 0.15
v 0.15 -0.4 0.15
v 0.25 -0.5 0.15
v 0.25 -0.4 0.15
v -0.25 -0.4 0.05
v -0.25 -0.3 0.05
v -0.15 -0.4 0.05
v -0.15 -0.3 0.05
v 0.15 -0.4 0.05
v 0.15 -0.3 0.05
v 0.25 -0.4 0.05
v 0.25 -0.3 0.05
v -0.25 -0.3 -0.05
v -0.25 -0.2 -0.05
v -0.15 -0.3 -0.05
v 0.15 -0.3 -0.05
v 0.25 -0.3 -0.05
v 0.25 -0.2 -0.05
v -0.25 -0.4 -0.15
v -0.25 -0.3 -0.15
v -0.25 -0.2 -0.15
v -0.25 -0.1 -0.15
v -0.15 -0.4 -0.15
v -0.15 -0.3 -0.15
v -0.15 -0.2 -0.15
v -0.15 -0.1 -0.15
v 0.15 -0.4 -0.15
v 0.15 -0.3 -0.15
v 0.15 -0.2 -0.15
v 0.15 -0.1 -0.15
v 0.25 -0.4 -0.15
v 0.25 -0.3 -0.15
v 0.25 -0.2 -0.15
v 0.25 -0.1 -0.15
v -0.25 -0.5 -0.25
v -0.25 -0.4 -0.25
v -0.15 -0.2 -0.25
v -0.15 -0.1 -0.25
v 0.15 -0.2 -0.25
v 0.15 -0.1 -0.25
v 0.25 -0.5 -0.25
v 0.25 -0.4 -0.25
v -0.25 -0.5 0.25
v 0.25 -0.5 0.25
v -0.25 -0.5 0.15
v 0.25 -0.5 0.15
v -0.25 -0.5 -0.15
v 0.25 -0.5 -0.15
v -0.25 -0.5 -0.25
v 0.25 -0.5 -0.25
v -0.25 -0.4 0.15
v -0.15 -0.4 0.15
v 0.15 -0.4 0.15
v 0.25 -0.4 0.15
v -0.25 -0.4 0.05
v -0.15 -0.4 0.05
v 0.15 -0.4 0.05
v 0.25 -0.4 0.05
v -0.25 -0.4 -0.05
v -0.15 -0.4 -0.05
v 0.15 -0.4 -0.05
v 0.25 -0.4 -0.05
v -0.25 -0.4 -0.15
v -0.15 -0.4 -0.15
v 0.15 -0.4 -0.15
v 0.25 -0.4 -0.15
v -0.25 -0.3 0.05
v -0.15 -0.3 0.05
v 0.15 -0.3 0.05
v 0.25 -0.3 0.05
v -0.25 -0.3 -0.05
v -0.15 -0.3 -0.05
v 0.15 -0.3 -0.05
v 0.25 -0.3 -0.05
v -0.15 -0.2 0.25
v 0.15 -0.2 0.25
v -0.25 -0.2 0.15
v -0.15 -0.2 0.15
v 0.15 -0.2 0.15
v 0.25 -0.2 0.15
v -0.25 -0.2 0.05
v 0.25 -0.2 0.05
v -0.25 -0.2 -0.05
v 0.25 -0.2 -0.05
v -0.25 -0.2 -0.15
v -0.15 -0.2 -0.15
v 0.15 -0.2 -0.15
v 0.25 -0.2 -0.15
v -0.15 -0.2 -0.25
v 0.15 -0.2 -0.25
v -0.25 -0.4 0.25
v 0.25 -0.4 0.25
v -0.25 -0.4 0.15
v -0.15 -0.4 0.15
v 0.15 -0.4 0.15
v 0.25 -0.4 0.15
v -0.25 -0.4 -0.15
v -0.15 -0.4 -0.15
v 0.15 -0.4 -0.15
v 0.25 -0.4 -0.15
v -0.25 -0.4 -0.25
v 0.25 -0.4 -0.25
v -0.25 -0.3 0.15
v -0.15 -0.3 0.15
v 0.15 -0.3 0.15
v 0.25 -0.3 0.15
v -0.25 -0.3 0.05
v -0.15 -0.3 0.05
v 0.15 -0.3 0.05
v 0.25 -0.3 0.05
v -0.25 -0.3 -0.05
v -0.15 -0.3 -0.05
v 0.15 -0.3 -0.05
v 0.25 -0.3 -0.05
v -0.25 -0.3 -0.15
v -0.15 -0.3 -0.15
v 0.15 -0.3 -0.15
v 0.25 -0.3 -0.15
v -0.15 -0.1 0.25
v 0.15 -0.1 0.25
v -0.25 -0.1 0.15
v -0.15 -0.1 0.15
v 0.15 -0.1 0.15
v 0.25 -0.1 0.15
v -0.25 -0.1 -0.15
v -0.15 -0.1 -0.15
v 0.15 -0.1 -0.15
v 0.25 -0.1 -0.15
v -0.15 -0.1 -0.25
v 0.15 -0.1 -0.25

# faces
f 5/1/1 2/1/1 1/1/1
f 6/1/1 2/1/1 5/1/1
f 9/1/1 4/1/1 3/1/1
f 10/1/1 4/1/1 9/1/1
f 11/1/1 7/1/1 6/1/1
f 12/1/1 7/1/1 11/1/1
f 13/1/1 9/1/1 8/1/1
f 14/1/1 9/1/1 13/1/1
f 16/1/1 13/1/1 12/1/1
f 17/1/1 13/1/1 16/1/1
f 19/2/1 16/2/1 15/2/1
f 19/2/1 18/2/1 17/2/1
f 19/2/1 17/2/1 16/2/1
f 20/2/1 18/2/1 19/2/1
f 25/2/1 22/2/1 21/2/1
f 26/2/1 22/2/1 25/2/1
f 27/2/1 24/2/1 23/2/1
f 28/2/1 24/2/1 27/2/1
f 33/1/1 30/1/1 29/1/1
f 34/1/1 30/1/1 33/1/1
f 35/1/1 32/1/1 31/1/1
f 36/1/1 32/1/1 35/1/1
f 37/1/2 38/1/2 41/1/2
f 41/1/2 38/1/2 42/1/2
f 39/1/2 40/1/2 43/1/2
f 43/1/2 40/1/2 44/1/2
f 45/2/2 46/2/2 49/2/2
f 49/2/2 46/2/2 50/2/2
f 47/2/2 48/2/2 51/2/2
f 51/2/2 48/2/2 52/2/2
f 53/1/2 54/1/2 57/1/2
f 57/1/2 54/1/2 58/1/2
f 55/1/2 56/1/2 61/1/2
f 61/1/2 56/1/2 62/1/2
f 58/1/2 59/1/2 63/1/2
f 63/1/2 59/1/2 64/1/2
f 60/1/2 61/1/2 65/1/2
f 65/1/2 61/1/2 66/1/2
f 64/1/2 65/1/2 68/1/2
f 68/1/2 65/1/2 69/1/2
f 67/2/2 68/2/2 71/2/2
f 69/2/2 70/2/2 71/2/2
f 68/2/2 69/2/2 71/2/2
f 71/2/2 70/2/2 72/2/2
f 77/2/3 76/2/3 75/2/3
f 78/2/3 76/2/3 77/2/3
f 79/1/3 74/1/3 73/1/3
f 80/1/3 74/1/3 79/1/3
f 85/1/3 82/1/3 81/1/3
f 86/1/3 82/1/3 85/1/3
f 87/2/3 84/2/3 83/2/3
f 88/2/3 84/2/3 87/2/3
f 93/1/3 90/1/3 89/1/3
f 94/1/3 90/1/3 93/1/3
f 95/2/3 92/2/3 91/2/3
f 96/2/3 92/2/3 95/2/3
f 99/1/3 98/1/3 97/1/3
f 100/1/3 98/1/3 99/1/3
f 101/1/3 98/1/3 100/1/3
f 102/1/3 98/1/3 101/1/3
f 105/1/3 104/1/3 103/1/3
f 106/1/3 104/1/3 105/1/3
f 109/1/3 108/1/3 107/1/3
f 110/1/3 108/1/3 109/1/3
f 113/1/3 112/1/3 111/1/3
f 114/1/3 113/1/3 111/1/3
f 115/1/3 114/1/3 111/1/3
f 116/1/3 114/1/3 115/1/3
f 117/1/4 118/1/4 119/1/4
f 117/1/4 119/1/4 120/1/4
f 117/1/4 120/1/4 121/1/4
f 121/1/4 120/1/4 122/1/4
f 123/1/4 124/1/4 125/1/4
f 125/1/4 124/1/4 126/1/4
f 127/1/4 128/1/4 129/1/4
f 129/1/4 128/1/4 130/1/4
f 131/1/4 132/1/4 133/1/4
f 133/1/4 132/1/4 134/1/4
f 134/1/4 132/1/4 135/1/4
f 135/1/4 132/1/4 136/1/4
f 137/1/4 138/1/4 141/1/4
f 141/1/4 138/1/4 142/1/4
f 139/2/4 140/2/4 143/2/4
f 143/2/4 140/2/4 144/2/4
f 145/1/4 146/1/4 149/1/4
f 149/1/4 146/1/4 150/1/4
f 147/2/4 148/2/4 151/2/4
f 151/2/4 148/2/4 152/2/4
f 155/2/4 156/2/4 157/2/4
f 157/2/4 156/2/4 158/2/4
f 153/1/4 154/1/4 159/1/4
f 159/1/4 154/1/4 160/1/4
f 163/1/5 162/1/5 161/1/5
f 164/1/5 162/1/5 163/1/5
f 167/1/5 166/1/5 165/1/5
f 168/1/5 166/1/5 167/1/5
f 173/1/5 170/1/5 169/1/5
f 174/1/5 170/1/5 173/1/5
f 175/1/5 172/1/5 171/1/5
f 176/1/5 172/1/5 175/1/5
f 181/1/5 178/1/5 177/1/5
f 182/1/5 178/1/5 181/1/5
f 183/1/5 180/1/5 179/1/5
f 184/1/5 180/1/5 183/1/5
f 189/1/5 186/1/5 185/1/5
f 189/1/5 188/1/5 187/1/5
f 189/1/5 187/1/5 186/1/5
f 190/1/5 188/1/5 189/1/5
f 191/1/5 188/1/5 190/1/5
f 192/1/5 188/1/5 191/1/5
f 196/2/5 194/2/5 193/2/5
f 197/2/5 194/2/5 196/2/5
f 199/2/5 196/2/5 195/2/5
f 199/2/5 198/2/5 197/2/5
f 199/2/5 197/2/5 196/2/5
f 200/2/5 198/2/5 199/2/5
f 203/2/5 202/2/5 201/2/5
f 204/2/5 202/2/5 203/2/5
f 205/2/5 202/2/5 204/2/5
f 206/2/5 202/2/5 205/2/5
f 207/2/5 205/2/5 204/2/5
f 208/2/5 205/2/5 207/2/5
f 209/1/6 210/1/6 211/1/6
f 211/1/6 210/1/6 212/1/6
f 212/1/6 210/1/6 213/1/6
f 213/1/6 210/1/6 214/1/6
f 215/1/6 216/1/6 219/1/6
f 217/1/6 218/1/6 219/1/6
f 216/1/6 217/1/6 219/1/6
f 219/1/6 218/1/6 220/1/6
f 221/1/6 222/1/6 225/1/6
f 225/1/6 222/1/6 226/1/6
f 223/1/6 224/1/6 227/1/6
f 227/1/6 224/1/6 228/1/6
f 229/1/6 230/1/6 233/1/6
f 233/1/6 230/1/6 234/1/6
f 231/1/6 232/1/6 235/1/6
f 235/1/6 232/1/6 236/1/6
f 237/2/6 238/2/6 240/2/6
f 240/2/6 238/2/6 241/2/6
f 239/2/6 240/2/6 243/2/6
f 241/2/6 242/2/6 243/2/6
f 240/2/6 241/2/6 243/2/6
f 243/2/6 242/2/6 244/2/6
f 244/2/6 242/2/6 245/2/6
f 245/2/6 242/2/6 246/2/6
f 244/2/6 245/2/6 247/2/6
f 247/2/6 245/2/6 248/2/6
