# MagicaVoxel @ Ephtracy

# group
o 

# material
mtllib Squirrel 3.mtl
usemtl palette

# normals
vn -1 0 0
vn 1 0 0
vn 0 0 1
vn 0 0 -1
vn 0 -1 0
vn 0 1 0

# texcoords
vt 0.00585938 0.5
vt 0.0761719 0.5
vt 0.0800781 0.5
vt 0.0839844 0.5
vt 0.0917969 0.5

# verts
v -0.25 -0.5 0.35
v -0.25 -0.5 0.25
v -0.25 -0.5 -0.05
v -0.25 -0.4 0.35
v -0.25 -0.4 0.25
v -0.25 -0.4 0.15
v -0.25 -0.4 0.05
v -0.25 -0.3 0.25
v -0.25 -0.3 0.15
v -0.25 -0.3 0.05
v -0.25 -0.3 -0.05
v -0.25 -0.2 0.25
v -0.25 -0.2 0.15
v -0.25 -0.2 0.05
v -0.25 -0.2 -0.05
v -0.25 -0.1 0.15
v -0.25 -0.1 -0.05
v -0.15 -0.5 -0.05
v -0.15 -0.5 -0.15
v -0.15 -0.4 0.25
v -0.15 -0.4 0.15
v -0.15 -0.4 -0.15
v -0.15 -0.4 -0.25
v -0.15 -0.3 0.25
v -0.15 -0.3 0.15
v -0.15 -0.3 0.05
v -0.15 -0.3 -0.05
v -0.15 -0.2 0.35
v -0.15 -0.2 0.25
v -0.15 -0.2 0.15
v -0.15 -0.2 0.05
v -0.15 -0.2 -0.05
v -0.15 -0.2 -0.15
v -0.15 -0.1 0.35
v -0.15 -0.1 0.25
v -0.15 -0.1 0.15
v -0.15 -0.1 -0.05
v -0.15 -0.1 -0.25
v -0.15 -0.1 -0.35
v -0.15 0 0.35
v -0.15 0 0.25
v -0.15 0 0.15
v -0.15 0 0.05
v -0.15 0 -0.05
v -0.15 0 -0.15
v -0.15 0 -0.35
v -0.15 0.1 0.25
v -0.15 0.1 0.15
v -0.15 0.1 -0.15
v -0.15 0.1 -0.25
v -0.15 0.2 0.25
v -0.15 0.2 0.15
v -0.15 0.2 -0.25
v -0.15 0.2 -0.35
v -0.15 0.3 0.15
v -0.15 0.3 0.05
v -0.05 -0.5 -0.15
v -0.05 -0.5 -0.25
v -0.05 -0.4 -0.15
v -0.05 -0.4 -0.25
v -0.05 0 0.05
v -0.05 0 -0.05
v -0.05 0.1 0.05
v -0.05 0.1 -0.05
v -0.05 0.1 -0.15
v -0.05 0.1 -0.25
v -0.05 0.2 -0.15
v -0.05 0.2 -0.25
v -0.05 0.2 -0.35
v -0.05 0.3 -0.25
v -0.05 0.3 -0.35
v 0.05 -0.2 0.35
v 0.05 -0.2 0.25
v 0.05 -0.1 0.35
v 0.05 -0.1 0.25
v 0.05 0.1 0.25
v 0.05 0.1 0.15
v 0.05 0.2 0.25
v 0.05 0.2 0.15
v 0.05 0.2 0.05
v 0.05 0.3 0.15
v 0.05 0.3 0.05
v 0.15 -0.5 0.35
v 0.15 -0.5 0.25
v 0.15 -0.4 0.35
v 0.15 -0.4 0.25
v -0.15 -0.5 0.35
v -0.15 -0.5 0.25
v -0.15 -0.4 0.35
v -0.15 -0.4 0.25
v -0.05 -0.2 0.35
v -0.05 -0.2 0.25
v -0.05 -0.1 0.35
v -0.05 -0.1 0.25
v -0.05 0.1 0.25
v -0.05 0.1 0.15
v -0.05 0.2 0.25
v -0.05 0.2 0.15
v -0.05 0.2 0.05
v -0.05 0.3 0.15
v -0.05 0.3 0.05
v 0.05 -0.5 -0.15
v 0.05 -0.5 -0.25
v 0.05 -0.4 -0.15
v 0.05 -0.4 -0.25
v 0.05 0 0.05
v 0.05 0 -0.05
v 0.05 0.1 0.05
v 0.05 0.1 -0.05
v 0.05 0.1 -0.15
v 0.05 0.1 -0.25
v 0.05 0.2 -0.15
v 0.05 0.2 -0.25
v 0.05 0.2 -0.35
v 0.05 0.3 -0.25
v 0.05 0.3 -0.35
v 0.15 -0.5 -0.05
v 0.15 -0.5 -0.15
v 0.15 -0.4 0.25
v 0.15 -0.4 0.15
v 0.15 -0.4 -0.15
v 0.15 -0.4 -0.25
v 0.15 -0.3 0.25
v 0.15 -0.3 0.15
v 0.15 -0.3 0.05
v 0.15 -0.3 -0.05
v 0.15 -0.2 0.35
v 0.15 -0.2 0.25
v 0.15 -0.2 0.15
v 0.15 -0.2 0.05
v 0.15 -0.2 -0.05
v 0.15 -0.2 -0.15
v 0.15 -0.1 0.35
v 0.15 -0.1 0.25
v 0.15 -0.1 0.15
v 0.15 -0.1 -0.05
v 0.15 -0.1 -0.25
v 0.15 -0.1 -0.35
v 0.15 0 0.35
v 0.15 0 0.25
v 0.15 0 0.15
v 0.15 0 0.05
v 0.15 0 -0.05
v 0.15 0 -0.15
v 0.15 0 -0.35
v 0.15 0.1 0.25
v 0.15 0.1 0.15
v 0.15 0.1 -0.15
v 0.15 0.1 -0.25
v 0.15 0.2 0.25
v 0.15 0.2 0.15
v 0.15 0.2 -0.25
v 0.15 0.2 -0.35
v 0.15 0.3 0.15
v 0.15 0.3 0.05
v 0.25 -0.5 0.35
v 0.25 -0.5 0.25
v 0.25 -0.5 -0.05
v 0.25 -0.4 0.35
v 0.25 -0.4 0.25
v 0.25 -0.4 0.15
v 0.25 -0.4 0.05
v 0.25 -0.3 0.25
v 0.25 -0.3 0.15
v 0.25 -0.3 0.05
v 0.25 -0.3 -0.05
v 0.25 -0.2 0.25
v 0.25 -0.2 0.15
v 0.25 -0.2 0.05
v 0.25 -0.2 -0.05
v 0.25 -0.1 0.15
v 0.25 -0.1 -0.05
v -0.25 -0.5 0.35
v -0.25 -0.4 0.35
v -0.15 -0.5 0.35
v -0.15 -0.4 0.35
v -0.15 -0.2 0.35
v -0.15 -0.1 0.35
v -0.15 0 0.35
v -0.05 -0.2 0.35
v -0.05 -0.1 0.35
v -0.05 0 0.35
v 0.05 -0.2 0.35
v 0.05 -0.1 0.35
v 0.05 0 0.35
v 0.15 -0.5 0.35
v 0.15 -0.4 0.35
v 0.15 -0.2 0.35
v 0.15 -0.1 0.35
v 0.15 0 0.35
v 0.25 -0.5 0.35
v 0.25 -0.4 0.35
v -0.25 -0.3 0.25
v -0.25 -0.2 0.25
v -0.15 -0.5 0.25
v -0.15 -0.4 0.25
v -0.15 -0.3 0.25
v -0.15 -0.2 0.25
v -0.15 0 0.25
v -0.15 0.1 0.25
v -0.15 0.2 0.25
v -0.05 -0.2 0.25
v -0.05 -0.1 0.25
v -0.05 0 0.25
v -0.05 0.1 0.25
v -0.05 0.2 0.25
v 0.05 -0.2 0.25
v 0.05 -0.1 0.25
v 0.05 0 0.25
v 0.05 0.1 0.25
v 0.05 0.2 0.25
v 0.15 -0.5 0.25
v 0.15 -0.4 0.25
v 0.15 -0.3 0.25
v 0.15 -0.2 0.25
v 0.15 0 0.25
v 0.15 0.1 0.25
v 0.15 0.2 0.25
v 0.25 -0.3 0.25
v 0.25 -0.2 0.25
v -0.25 -0.4 0.15
v -0.25 -0.3 0.15
v -0.25 -0.2 0.15
v -0.25 -0.1 0.15
v -0.15 -0.4 0.15
v -0.15 -0.3 0.15
v -0.15 -0.2 0.15
v -0.15 -0.1 0.15
v -0.15 0.2 0.15
v -0.15 0.3 0.15
v -0.05 0.1 0.15
v -0.05 0.2 0.15
v -0.05 0.3 0.15
v 0.05 0.1 0.15
v 0.05 0.2 0.15
v 0.05 0.3 0.15
v 0.15 -0.4 0.15
v 0.15 -0.3 0.15
v 0.15 -0.2 0.15
v 0.15 -0.1 0.15
v 0.15 0.2 0.15
v 0.15 0.3 0.15
v 0.25 -0.4 0.15
v 0.25 -0.3 0.15
v 0.25 -0.2 0.15
v 0.25 -0.1 0.15
v -0.15 -0.2 -0.15
v -0.15 0 -0.15
v -0.15 0.1 -0.15
v -0.05 0 -0.15
v -0.05 0.1 -0.15
v -0.05 0.2 -0.15
v 0.05 0 -0.15
v 0.05 0.1 -0.15
v 0.05 0.2 -0.15
v 0.15 -0.2 -0.15
v 0.15 0 -0.15
v 0.15 0.1 -0.15
v -0.15 0.1 -0.25
v -0.15 0.2 -0.25
v -0.05 0.1 -0.25
v -0.05 0.2 -0.25
v -0.05 0.3 -0.25
v 0.05 0.1 -0.25
v 0.05 0.2 -0.25
v 0.05 0.3 -0.25
v 0.15 0.1 -0.25
v 0.15 0.2 -0.25
v -0.25 -0.3 0.05
v -0.25 -0.2 0.05
v -0.15 -0.3 0.05
v -0.15 -0.2 0.05
v -0.15 0 0.05
v -0.15 0.3 0.05
v -0.05 0 0.05
v -0.05 0.1 0.05
v -0.05 0.2 0.05
v -0.05 0.3 0.05
v 0.05 0 0.05
v 0.05 0.1 0.05
v 0.05 0.2 0.05
v 0.05 0.3 0.05
v 0.15 -0.3 0.05
v 0.15 -0.2 0.05
v 0.15 0 0.05
v 0.15 0.3 0.05
v 0.25 -0.3 0.05
v 0.25 -0.2 0.05
v -0.25 -0.5 -0.05
v -0.25 -0.3 -0.05
v -0.25 -0.2 -0.05
v -0.25 -0.1 -0.05
v -0.15 -0.5 -0.05
v -0.15 -0.3 -0.05
v -0.15 -0.2 -0.05
v -0.15 -0.1 -0.05
v -0.15 0 -0.05
v -0.05 0 -0.05
v -0.05 0.1 -0.05
v 0.05 0 -0.05
v 0.05 0.1 -0.05
v 0.15 -0.5 -0.05
v 0.15 -0.3 -0.05
v 0.15 -0.2 -0.05
v 0.15 -0.1 -0.05
v 0.15 0 -0.05
v 0.25 -0.5 -0.05
v 0.25 -0.3 -0.05
v 0.25 -0.2 -0.05
v 0.25 -0.1 -0.05
v -0.15 -0.5 -0.15
v -0.15 -0.4 -0.15
v -0.05 -0.5 -0.15
v -0.05 -0.4 -0.15
v 0.05 -0.5 -0.15
v 0.05 -0.4 -0.15
v 0.15 -0.5 -0.15
v 0.15 -0.4 -0.15
v -0.15 -0.4 -0.25
v -0.15 -0.1 -0.25
v -0.05 -0.5 -0.25
v -0.05 -0.4 -0.25
v 0.05 -0.5 -0.25
v 0.05 -0.4 -0.25
v 0.15 -0.4 -0.25
v 0.15 -0.1 -0.25
v -0.15 -0.1 -0.35
v -0.15 0 -0.35
v -0.15 0.2 -0.35
v -0.05 0.2 -0.35
v -0.05 0.3 -0.35
v 0.05 0.2 -0.35
v 0.05 0.3 -0.35
v 0.15 -0.1 -0.35
v 0.15 0 -0.35
v 0.15 0.2 -0.35
v -0.25 -0.5 0.35
v -0.15 -0.5 0.35
v 0.15 -0.5 0.35
v 0.25 -0.5 0.35
v -0.25 -0.5 0.25
v -0.15 -0.5 0.25
v 0.15 -0.5 0.25
v 0.25 -0.5 0.25
v -0.15 -0.5 0.15
v 0.15 -0.5 0.15
v -0.25 -0.5 -0.05
v -0.15 -0.5 -0.05
v 0.15 -0.5 -0.05
v 0.25 -0.5 -0.05
v -0.15 -0.5 -0.15
v -0.05 -0.5 -0.15
v 0.05 -0.5 -0.15
v 0.15 -0.5 -0.15
v -0.05 -0.5 -0.25
v 0.05 -0.5 -0.25
v -0.15 -0.4 -0.15
v -0.05 -0.4 -0.15
v 0.05 -0.4 -0.15
v 0.15 -0.4 -0.15
v -0.15 -0.4 -0.25
v -0.05 -0.4 -0.25
v 0.05 -0.4 -0.25
v 0.15 -0.4 -0.25
v -0.25 -0.3 0.25
v -0.15 -0.3 0.25
v 0.15 -0.3 0.25
v 0.25 -0.3 0.25
v -0.25 -0.3 0.15
v -0.15 -0.3 0.15
v 0.15 -0.3 0.15
v 0.25 -0.3 0.15
v -0.15 -0.2 0.35
v -0.05 -0.2 0.35
v 0.05 -0.2 0.35
v 0.15 -0.2 0.35
v -0.15 -0.2 0.25
v -0.05 -0.2 0.25
v 0.05 -0.2 0.25
v 0.15 -0.2 0.25
v -0.25 -0.2 0.05
v -0.15 -0.2 0.05
v 0.15 -0.2 0.05
v 0.25 -0.2 0.05
v -0.25 -0.2 -0.05
v -0.15 -0.2 -0.05
v 0.15 -0.2 -0.05
v 0.25 -0.2 -0.05
v -0.05 -0.1 0.35
v 0.05 -0.1 0.35
v -0.05 -0.1 0.25
v 0.05 -0.1 0.25
v -0.15 -0.1 -0.25
v 0.15 -0.1 -0.25
v -0.15 -0.1 -0.35
v 0.15 -0.1 -0.35
v -0.25 -0.4 0.35
v -0.15 -0.4 0.35
v 0.15 -0.4 0.35
v 0.25 -0.4 0.35
v -0.25 -0.4 0.25
v -0.15 -0.4 0.25
v 0.15 -0.4 0.25
v 0.25 -0.4 0.25
v -0.25 -0.4 0.15
v -0.15 -0.4 0.15
v 0.15 -0.4 0.15
v 0.25 -0.4 0.15
v -0.25 -0.3 0.05
v -0.15 -0.3 0.05
v 0.15 -0.3 0.05
v 0.25 -0.3 0.05
v -0.25 -0.3 -0.05
v -0.15 -0.3 -0.05
v 0.15 -0.3 -0.05
v 0.25 -0.3 -0.05
v -0.25 -0.2 0.25
v -0.15 -0.2 0.25
v 0.15 -0.2 0.25
v 0.25 -0.2 0.25
v -0.25 -0.2 0.15
v -0.15 -0.2 0.15
v 0.15 -0.2 0.15
v 0.25 -0.2 0.15
v -0.15 -0.2 -0.05
v 0.15 -0.2 -0.05
v -0.15 -0.2 -0.15
v 0.15 -0.2 -0.15
v -0.25 -0.1 0.15
v -0.15 -0.1 0.15
v 0.15 -0.1 0.15
v 0.25 -0.1 0.15
v -0.25 -0.1 -0.05
v -0.15 -0.1 -0.05
v 0.15 -0.1 -0.05
v 0.25 -0.1 -0.05
v -0.15 0 0.35
v -0.05 0 0.35
v 0.05 0 0.35
v 0.15 0 0.35
v -0.15 0 0.25
v -0.05 0 0.25
v 0.05 0 0.25
v 0.15 0 0.25
v -0.15 0 0.05
v -0.05 0 0.05
v 0.05 0 0.05
v 0.15 0 0.05
v -0.15 0 -0.05
v -0.05 0 -0.05
v 0.05 0 -0.05
v 0.15 0 -0.05
v -0.05 0.1 0.25
v 0.05 0.1 0.25
v -0.05 0.1 0.15
v 0.05 0.1 0.15
v -0.05 0.1 0.05
v 0.05 0.1 0.05
v -0.05 0.1 -0.05
v 0.05 0.1 -0.05
v -0.15 0.1 -0.15
v -0.05 0.1 -0.15
v 0.05 0.1 -0.15
v 0.15 0.1 -0.15
v -0.15 0.1 -0.25
v -0.05 0.1 -0.25
v 0.05 0.1 -0.25
v 0.15 0.1 -0.25
v -0.15 0.2 0.25
v -0.05 0.2 0.25
v 0.05 0.2 0.25
v 0.15 0.2 0.25
v -0.15 0.2 0.15
v -0.05 0.2 0.15
v 0.05 0.2 0.15
v 0.15 0.2 0.15
v -0.05 0.2 0.05
v 0.05 0.2 0.05
v -0.05 0.2 -0.15
v 0.05 0.2 -0.15
v -0.15 0.2 -0.25
v -0.05 0.2 -0.25
v 0.05 0.2 -0.25
v 0.15 0.2 -0.25
v -0.15 0.2 -0.35
v -0.05 0.2 -0.35
v 0.05 0.2 -0.35
v 0.15 0.2 -0.35
v -0.15 0.3 0.15
v -0.05 0.3 0.15
v 0.05 0.3 0.15
v 0.15 0.3 0.15
v -0.15 0.3 0.05
v -0.05 0.3 0.05
v 0.05 0.3 0.05
v 0.15 0.3 0.05
v -0.05 0.3 -0.25
v 0.05 0.3 -0.25
v -0.05 0.3 -0.35
v 0.05 0.3 -0.35

# faces
f 4/2/1 2/2/1 1/2/1
f 5/3/1 3/3/1 2/3/1
f 5/2/1 2/2/1 4/2/1
f 6/3/1 3/3/1 5/3/1
f 7/3/1 3/3/1 6/3/1
f 9/4/1 7/4/1 6/4/1
f 10/3/1 3/3/1 7/3/1
f 10/4/1 7/4/1 9/4/1
f 11/3/1 3/3/1 10/3/1
f 12/3/1 9/3/1 8/3/1
f 12/3/1 10/3/1 9/3/1
f 13/3/1 10/3/1 12/3/1
f 14/3/1 10/3/1 13/3/1
f 16/3/1 15/3/1 14/3/1
f 16/3/1 14/3/1 13/3/1
f 17/3/1 15/3/1 16/3/1
f 22/3/1 19/3/1 18/3/1
f 24/4/1 21/4/1 20/4/1
f 25/4/1 21/4/1 24/4/1
f 27/3/1 23/3/1 22/3/1
f 27/3/1 22/3/1 18/3/1
f 31/3/1 27/3/1 26/3/1
f 32/3/1 23/3/1 27/3/1
f 32/3/1 27/3/1 31/3/1
f 33/3/1 23/3/1 32/3/1
f 34/2/1 29/2/1 28/2/1
f 35/4/1 30/4/1 29/4/1
f 35/2/1 29/2/1 34/2/1
f 36/4/1 30/4/1 35/4/1
f 38/3/1 23/3/1 33/3/1
f 40/3/1 37/3/1 36/3/1
f 40/3/1 35/3/1 34/3/1
f 40/3/1 36/3/1 35/3/1
f 41/3/1 37/3/1 40/3/1
f 42/3/1 37/3/1 41/3/1
f 43/3/1 37/3/1 42/3/1
f 44/3/1 37/3/1 43/3/1
f 45/3/1 39/3/1 38/3/1
f 45/3/1 38/3/1 33/3/1
f 46/3/1 39/3/1 45/3/1
f 47/1/1 42/1/1 41/1/1
f 48/3/1 43/3/1 42/3/1
f 48/1/1 42/1/1 47/1/1
f 49/4/1 46/4/1 45/4/1
f 50/4/1 46/4/1 49/4/1
f 51/3/1 48/3/1 47/3/1
f 52/3/1 43/3/1 48/3/1
f 52/3/1 48/3/1 51/3/1
f 53/4/1 46/4/1 50/4/1
f 54/4/1 46/4/1 53/4/1
f 55/3/1 43/3/1 52/3/1
f 56/3/1 43/3/1 55/3/1
f 59/3/1 58/3/1 57/3/1
f 60/3/1 58/3/1 59/3/1
f 63/3/1 62/3/1 61/3/1
f 64/3/1 62/3/1 63/3/1
f 67/4/1 66/4/1 65/4/1
f 68/4/1 66/4/1 67/4/1
f 70/4/1 69/4/1 68/4/1
f 71/4/1 69/4/1 70/4/1
f 74/2/1 73/2/1 72/2/1
f 75/2/1 73/2/1 74/2/1
f 78/3/1 77/3/1 76/3/1
f 79/3/1 77/3/1 78/3/1
f 81/3/1 80/3/1 79/3/1
f 82/3/1 80/3/1 81/3/1
f 85/2/1 84/2/1 83/2/1
f 86/2/1 84/2/1 85/2/1
f 87/2/2 88/2/2 89/2/2
f 89/2/2 88/2/2 90/2/2
f 91/2/2 92/2/2 93/2/2
f 93/2/2 92/2/2 94/2/2
f 95/3/2 96/3/2 97/3/2
f 97/3/2 96/3/2 98/3/2
f 98/3/2 99/3/2 100/3/2
f 100/3/2 99/3/2 101/3/2
f 102/3/2 103/3/2 104/3/2
f 104/3/2 103/3/2 105/3/2
f 106/3/2 107/3/2 108/3/2
f 108/3/2 107/3/2 109/3/2
f 110/4/2 111/4/2 112/4/2
f 112/4/2 111/4/2 113/4/2
f 113/4/2 114/4/2 115/4/2
f 115/4/2 114/4/2 116/4/2
f 117/3/2 118/3/2 121/3/2
f 119/4/2 120/4/2 123/4/2
f 123/4/2 120/4/2 124/4/2
f 121/3/2 122/3/2 126/3/2
f 117/3/2 121/3/2 126/3/2
f 125/3/2 126/3/2 130/3/2
f 126/3/2 122/3/2 131/3/2
f 130/3/2 126/3/2 131/3/2
f 131/3/2 122/3/2 132/3/2
f 127/2/2 128/2/2 133/2/2
f 128/4/2 129/4/2 134/4/2
f 133/2/2 128/2/2 134/2/2
f 134/4/2 129/4/2 135/4/2
f 132/3/2 122/3/2 137/3/2
f 135/3/2 136/3/2 139/3/2
f 133/3/2 134/3/2 139/3/2
f 134/3/2 135/3/2 139/3/2
f 139/3/2 136/3/2 140/3/2
f 140/3/2 136/3/2 141/3/2
f 141/3/2 136/3/2 142/3/2
f 142/3/2 136/3/2 143/3/2
f 137/3/2 138/3/2 144/3/2
f 132/3/2 137/3/2 144/3/2
f 144/3/2 138/3/2 145/3/2
f 140/1/2 141/1/2 146/1/2
f 141/3/2 142/3/2 147/3/2
f 146/1/2 141/1/2 147/1/2
f 144/4/2 145/4/2 148/4/2
f 148/4/2 145/4/2 149/4/2
f 146/3/2 147/3/2 150/3/2
f 147/3/2 142/3/2 151/3/2
f 150/3/2 147/3/2 151/3/2
f 149/4/2 145/4/2 152/4/2
f 152/4/2 145/4/2 153/4/2
f 151/3/2 142/3/2 154/3/2
f 154/3/2 142/3/2 155/3/2
f 156/2/2 157/2/2 159/2/2
f 157/3/2 158/3/2 160/3/2
f 159/2/2 157/2/2 160/2/2
f 160/3/2 158/3/2 161/3/2
f 161/3/2 158/3/2 162/3/2
f 161/4/2 162/4/2 164/4/2
f 162/3/2 158/3/2 165/3/2
f 164/4/2 162/4/2 165/4/2
f 165/3/2 158/3/2 166/3/2
f 163/3/2 164/3/2 167/3/2
f 164/3/2 165/3/2 167/3/2
f 167/3/2 165/3/2 168/3/2
f 168/3/2 165/3/2 169/3/2
f 169/3/2 170/3/2 171/3/2
f 168/3/2 169/3/2 171/3/2
f 171/3/2 170/3/2 172/3/2
f 175/2/3 174/2/3 173/2/3
f 176/2/3 174/2/3 175/2/3
f 180/2/3 178/2/3 177/2/3
f 181/3/3 179/3/3 178/3/3
f 181/2/3 178/2/3 180/2/3
f 182/3/3 179/3/3 181/3/3
f 184/1/3 182/1/3 181/1/3
f 185/1/3 182/1/3 184/1/3
f 188/2/3 184/2/3 183/2/3
f 189/3/3 185/3/3 184/3/3
f 189/2/3 184/2/3 188/2/3
f 190/3/3 185/3/3 189/3/3
f 191/2/3 187/2/3 186/2/3
f 192/2/3 187/2/3 191/2/3
f 197/3/3 194/3/3 193/3/3
f 198/3/3 194/3/3 197/3/3
f 202/4/3 196/4/3 195/4/3
f 202/4/3 197/4/3 196/4/3
f 202/4/3 198/4/3 197/4/3
f 204/1/3 200/1/3 199/1/3
f 205/3/3 201/3/3 200/3/3
f 205/1/3 200/1/3 204/1/3
f 206/3/3 201/3/3 205/3/3
f 207/4/3 203/4/3 202/4/3
f 207/4/3 202/4/3 195/4/3
f 208/4/3 203/4/3 207/4/3
f 209/3/3 205/3/3 204/3/3
f 210/3/3 205/3/3 209/3/3
f 212/4/3 207/4/3 195/4/3
f 213/4/3 207/4/3 212/4/3
f 214/4/3 207/4/3 213/4/3
f 215/4/3 207/4/3 214/4/3
f 216/1/3 210/1/3 209/1/3
f 217/3/3 211/3/3 210/3/3
f 217/1/3 210/1/3 216/1/3
f 218/3/3 211/3/3 217/3/3
f 219/3/3 215/3/3 214/3/3
f 220/3/3 215/3/3 219/3/3
f 225/4/3 222/4/3 221/4/3
f 226/4/3 222/4/3 225/4/3
f 227/3/3 224/3/3 223/3/3
f 228/3/3 224/3/3 227/3/3
f 232/3/3 230/3/3 229/3/3
f 233/3/3 230/3/3 232/3/3
f 234/3/3 232/3/3 231/3/3
f 235/3/3 232/3/3 234/3/3
f 241/3/3 236/3/3 235/3/3
f 242/3/3 236/3/3 241/3/3
f 243/4/3 238/4/3 237/4/3
f 244/4/3 238/4/3 243/4/3
f 245/3/3 240/3/3 239/3/3
f 246/3/3 240/3/3 245/3/3
f 250/3/3 248/3/3 247/3/3
f 250/4/3 249/4/3 248/4/3
f 251/4/3 249/4/3 250/4/3
f 253/3/3 250/3/3 247/3/3
f 253/3/3 251/3/3 250/3/3
f 254/4/3 252/4/3 251/4/3
f 254/3/3 251/3/3 253/3/3
f 255/4/3 252/4/3 254/4/3
f 256/3/3 253/3/3 247/3/3
f 257/4/3 254/4/3 253/4/3
f 257/3/3 253/3/3 256/3/3
f 258/4/3 254/4/3 257/4/3
f 261/4/3 260/4/3 259/4/3
f 262/4/3 260/4/3 261/4/3
f 265/4/3 263/4/3 262/4/3
f 266/4/3 263/4/3 265/4/3
f 267/4/3 265/4/3 264/4/3
f 268/4/3 265/4/3 267/4/3
f 269/3/4 270/3/4 271/3/4
f 271/3/4 270/3/4 272/3/4
f 273/3/4 274/3/4 275/3/4
f 275/3/4 274/3/4 276/3/4
f 276/3/4 274/3/4 277/3/4
f 277/3/4 274/3/4 278/3/4
f 276/3/4 277/3/4 280/3/4
f 280/3/4 277/3/4 281/3/4
f 279/3/4 280/3/4 285/3/4
f 280/3/4 281/3/4 285/3/4
f 281/3/4 282/3/4 285/3/4
f 285/3/4 282/3/4 286/3/4
f 283/3/4 284/3/4 287/3/4
f 287/3/4 284/3/4 288/3/4
f 289/3/4 290/3/4 293/3/4
f 293/3/4 290/3/4 294/3/4
f 291/3/4 292/3/4 295/3/4
f 295/3/4 292/3/4 296/3/4
f 296/3/4 297/3/4 298/3/4
f 295/3/4 296/3/4 298/3/4
f 295/3/4 298/3/4 300/3/4
f 298/3/4 299/3/4 300/3/4
f 300/3/4 299/3/4 301/3/4
f 295/3/4 300/3/4 304/3/4
f 304/3/4 300/3/4 305/3/4
f 305/3/4 300/3/4 306/3/4
f 302/3/4 303/3/4 307/3/4
f 307/3/4 303/3/4 308/3/4
f 304/3/4 305/3/4 309/3/4
f 309/3/4 305/3/4 310/3/4
f 311/3/4 312/3/4 313/3/4
f 313/3/4 312/3/4 314/3/4
f 315/3/4 316/3/4 317/3/4
f 317/3/4 316/3/4 318/3/4
f 319/3/4 320/3/4 322/3/4
f 321/3/4 322/3/4 323/3/4
f 322/3/4 320/3/4 324/3/4
f 323/3/4 322/3/4 324/3/4
f 324/3/4 320/3/4 325/3/4
f 325/3/4 320/3/4 326/3/4
f 328/4/4 329/4/4 330/4/4
f 328/4/4 330/4/4 332/4/4
f 330/4/4 331/4/4 332/4/4
f 332/4/4 331/4/4 333/4/4
f 327/3/4 328/3/4 334/3/4
f 328/4/4 332/4/4 335/4/4
f 334/3/4 328/3/4 335/3/4
f 335/4/4 332/4/4 336/4/4
f 341/2/5 338/2/5 337/2/5
f 342/2/5 338/2/5 341/2/5
f 343/2/5 340/2/5 339/2/5
f 344/2/5 340/2/5 343/2/5
f 345/3/5 342/3/5 341/3/5
f 345/4/5 343/4/5 342/4/5
f 346/3/5 344/3/5 343/3/5
f 346/4/5 343/4/5 345/4/5
f 347/3/5 345/3/5 341/3/5
f 347/3/5 346/3/5 345/3/5
f 348/3/5 346/3/5 347/3/5
f 349/3/5 344/3/5 346/3/5
f 349/3/5 346/3/5 348/3/5
f 350/3/5 344/3/5 349/3/5
f 351/3/5 349/3/5 348/3/5
f 352/3/5 349/3/5 351/3/5
f 353/3/5 349/3/5 352/3/5
f 354/3/5 349/3/5 353/3/5
f 355/3/5 353/3/5 352/3/5
f 356/3/5 353/3/5 355/3/5
f 361/3/5 358/3/5 357/3/5
f 362/3/5 358/3/5 361/3/5
f 363/3/5 360/3/5 359/3/5
f 364/3/5 360/3/5 363/3/5
f 369/3/5 366/3/5 365/3/5
f 370/3/5 366/3/5 369/3/5
f 371/3/5 368/3/5 367/3/5
f 372/3/5 368/3/5 371/3/5
f 377/2/5 374/2/5 373/2/5
f 378/2/5 374/2/5 377/2/5
f 379/2/5 376/2/5 375/2/5
f 380/2/5 376/2/5 379/2/5
f 385/3/5 382/3/5 381/3/5
f 386/3/5 382/3/5 385/3/5
f 387/3/5 384/3/5 383/3/5
f 388/3/5 384/3/5 387/3/5
f 391/1/5 390/1/5 389/1/5
f 392/1/5 390/1/5 391/1/5
f 395/3/5 394/3/5 393/3/5
f 396/3/5 394/3/5 395/3/5
f 397/2/6 398/2/6 401/2/6
f 401/2/6 398/2/6 402/2/6
f 399/2/6 400/2/6 403/2/6
f 403/2/6 400/2/6 404/2/6
f 401/3/6 402/3/6 405/3/6
f 405/3/6 402/3/6 406/3/6
f 403/3/6 404/3/6 407/3/6
f 407/3/6 404/3/6 408/3/6
f 409/3/6 410/3/6 413/3/6
f 413/3/6 410/3/6 414/3/6
f 411/3/6 412/3/6 415/3/6
f 415/3/6 412/3/6 416/3/6
f 417/3/6 418/3/6 421/3/6
f 421/3/6 418/3/6 422/3/6
f 419/3/6 420/3/6 423/3/6
f 423/3/6 420/3/6 424/3/6
f 425/3/6 426/3/6 427/3/6
f 427/3/6 426/3/6 428/3/6
f 429/3/6 430/3/6 433/3/6
f 433/3/6 430/3/6 434/3/6
f 431/3/6 432/3/6 435/3/6
f 435/3/6 432/3/6 436/3/6
f 437/3/6 438/3/6 441/3/6
f 438/1/6 439/1/6 442/1/6
f 441/3/6 438/3/6 442/3/6
f 439/3/6 440/3/6 443/3/6
f 442/1/6 439/1/6 443/1/6
f 443/3/6 440/3/6 444/3/6
f 445/3/6 446/3/6 449/3/6
f 449/3/6 446/3/6 450/3/6
f 447/3/6 448/3/6 451/3/6
f 451/3/6 448/3/6 452/3/6
f 453/3/6 454/3/6 455/3/6
f 455/3/6 454/3/6 456/3/6
f 457/3/6 458/3/6 459/3/6
f 459/3/6 458/3/6 460/3/6
f 461/4/6 462/4/6 465/4/6
f 465/4/6 462/4/6 466/4/6
f 463/4/6 464/4/6 467/4/6
f 467/4/6 464/4/6 468/4/6
f 469/3/6 470/3/6 473/3/6
f 473/3/6 470/3/6 474/3/6
f 471/3/6 472/3/6 475/3/6
f 475/3/6 472/3/6 476/3/6
f 474/3/6 475/3/6 477/3/6
f 477/3/6 475/3/6 478/3/6
f 479/4/6 480/4/6 482/4/6
f 482/4/6 480/4/6 483/4/6
f 481/4/6 482/4/6 485/4/6
f 485/4/6 482/4/6 486/4/6
f 483/4/6 484/4/6 487/4/6
f 487/4/6 484/4/6 488/4/6
f 489/3/6 490/3/6 493/3/6
f 493/3/6 490/3/6 494/3/6
f 491/3/6 492/3/6 495/3/6
f 495/3/6 492/3/6 496/3/6
f 497/4/6 498/4/6 499/4/6
f 499/4/6 498/4/6 500/4/6
