# MagicaVoxel @ Ephtracy

# group
o 

# material
mtllib Squirrel 2.mtl
usemtl palette

# normals
vn -1 0 0
vn 1 0 0
vn 0 0 1
vn 0 0 -1
vn 0 -1 0
vn 0 1 0

# texcoords
vt 0.00585938 0.5
vt 0.0683594 0.5
vt 0.0761719 0.5
vt 0.0800781 0.5
vt 0.0839844 0.5
vt 0.0917969 0.5

# verts
v -0.25 -0.5 0.35
v -0.25 -0.5 0.25
v -0.25 -0.5 -0.05
v -0.25 -0.4 0.35
v -0.25 -0.4 0.25
v -0.25 -0.4 0.15
v -0.25 -0.4 0.05
v -0.25 -0.3 0.25
v -0.25 -0.3 0.15
v -0.25 -0.3 0.05
v -0.25 -0.3 -0.05
v -0.25 -0.2 0.25
v -0.25 -0.2 0.15
v -0.25 -0.2 0.05
v -0.25 -0.2 -0.05
v -0.25 -0.1 0.15
v -0.25 -0.1 -0.05
v -0.15 -0.5 -0.05
v -0.15 -0.5 -0.15
v -0.15 -0.4 0.25
v -0.15 -0.4 0.15
v -0.15 -0.4 -0.15
v -0.15 -0.4 -0.25
v -0.15 -0.3 0.35
v -0.15 -0.3 0.25
v -0.15 -0.3 0.15
v -0.15 -0.3 0.05
v -0.15 -0.3 -0.05
v -0.15 -0.2 0.35
v -0.15 -0.2 0.25
v -0.15 -0.2 0.15
v -0.15 -0.2 0.05
v -0.15 -0.2 -0.05
v -0.15 -0.2 -0.15
v -0.15 -0.1 0.35
v -0.15 -0.1 0.25
v -0.15 -0.1 0.15
v -0.15 -0.1 -0.05
v -0.15 -0.1 -0.25
v -0.15 -0.1 -0.35
v -0.15 0 0.35
v -0.15 0 0.25
v -0.15 0 0.15
v -0.15 0 0.05
v -0.15 0 -0.05
v -0.15 0 -0.15
v -0.15 0 -0.35
v -0.15 0.1 0.25
v -0.15 0.1 0.15
v -0.15 0.1 -0.15
v -0.15 0.1 -0.25
v -0.15 0.2 0.25
v -0.15 0.2 0.15
v -0.15 0.2 -0.25
v -0.15 0.2 -0.35
v -0.15 0.3 0.15
v -0.15 0.3 0.05
v -0.05 -0.5 -0.15
v -0.05 -0.5 -0.25
v -0.05 -0.4 -0.15
v -0.05 -0.4 -0.25
v -0.05 -0.2 0.35
v -0.05 -0.2 0.25
v -0.05 -0.1 0.35
v -0.05 -0.1 0.25
v -0.05 0 0.05
v -0.05 0 -0.05
v -0.05 0.1 0.05
v -0.05 0.1 -0.05
v -0.05 0.1 -0.15
v -0.05 0.1 -0.25
v -0.05 0.2 -0.15
v -0.05 0.2 -0.25
v -0.05 0.2 -0.35
v -0.05 0.3 -0.25
v -0.05 0.3 -0.35
v 0.05 -0.3 0.35
v 0.05 -0.3 0.25
v 0.05 -0.2 0.35
v 0.05 -0.2 0.25
v 0.05 0.1 0.25
v 0.05 0.1 0.15
v 0.05 0.2 0.25
v 0.05 0.2 0.15
v 0.05 0.2 0.05
v 0.05 0.3 0.15
v 0.05 0.3 0.05
v 0.15 -0.5 0.35
v 0.15 -0.5 0.25
v 0.15 -0.4 0.35
v 0.15 -0.4 0.25
v -0.15 -0.5 0.35
v -0.15 -0.5 0.25
v -0.15 -0.4 0.35
v -0.15 -0.4 0.25
v -0.05 -0.3 0.35
v -0.05 -0.3 0.25
v -0.05 -0.2 0.35
v -0.05 -0.2 0.25
v -0.05 0.1 0.25
v -0.05 0.1 0.15
v -0.05 0.2 0.25
v -0.05 0.2 0.15
v -0.05 0.2 0.05
v -0.05 0.3 0.15
v -0.05 0.3 0.05
v 0.05 -0.5 -0.15
v 0.05 -0.5 -0.25
v 0.05 -0.4 -0.15
v 0.05 -0.4 -0.25
v 0.05 -0.2 0.35
v 0.05 -0.2 0.25
v 0.05 -0.1 0.35
v 0.05 -0.1 0.25
v 0.05 0 0.05
v 0.05 0 -0.05
v 0.05 0.1 0.05
v 0.05 0.1 -0.05
v 0.05 0.1 -0.15
v 0.05 0.1 -0.25
v 0.05 0.2 -0.15
v 0.05 0.2 -0.25
v 0.05 0.2 -0.35
v 0.05 0.3 -0.25
v 0.05 0.3 -0.35
v 0.15 -0.5 -0.05
v 0.15 -0.5 -0.15
v 0.15 -0.4 0.25
v 0.15 -0.4 0.15
v 0.15 -0.4 -0.15
v 0.15 -0.4 -0.25
v 0.15 -0.3 0.35
v 0.15 -0.3 0.25
v 0.15 -0.3 0.15
v 0.15 -0.3 0.05
v 0.15 -0.3 -0.05
v 0.15 -0.2 0.35
v 0.15 -0.2 0.25
v 0.15 -0.2 0.15
v 0.15 -0.2 0.05
v 0.15 -0.2 -0.05
v 0.15 -0.2 -0.15
v 0.15 -0.1 0.35
v 0.15 -0.1 0.25
v 0.15 -0.1 0.15
v 0.15 -0.1 -0.05
v 0.15 -0.1 -0.25
v 0.15 -0.1 -0.35
v 0.15 0 0.35
v 0.15 0 0.25
v 0.15 0 0.15
v 0.15 0 0.05
v 0.15 0 -0.05
v 0.15 0 -0.15
v 0.15 0 -0.35
v 0.15 0.1 0.25
v 0.15 0.1 0.15
v 0.15 0.1 -0.15
v 0.15 0.1 -0.25
v 0.15 0.2 0.25
v 0.15 0.2 0.15
v 0.15 0.2 -0.25
v 0.15 0.2 -0.35
v 0.15 0.3 0.15
v 0.15 0.3 0.05
v 0.25 -0.5 0.35
v 0.25 -0.5 0.25
v 0.25 -0.5 -0.05
v 0.25 -0.4 0.35
v 0.25 -0.4 0.25
v 0.25 -0.4 0.15
v 0.25 -0.4 0.05
v 0.25 -0.3 0.25
v 0.25 -0.3 0.15
v 0.25 -0.3 0.05
v 0.25 -0.3 -0.05
v 0.25 -0.2 0.25
v 0.25 -0.2 0.15
v 0.25 -0.2 0.05
v 0.25 -0.2 -0.05
v 0.25 -0.1 0.15
v 0.25 -0.1 -0.05
v -0.25 -0.5 0.35
v -0.25 -0.4 0.35
v -0.15 -0.5 0.35
v -0.15 -0.4 0.35
v -0.15 -0.3 0.35
v -0.15 -0.2 0.35
v -0.15 -0.1 0.35
v -0.15 0 0.35
v -0.05 -0.3 0.35
v -0.05 -0.2 0.35
v -0.05 -0.1 0.35
v -0.05 0 0.35
v 0.05 -0.3 0.35
v 0.05 -0.2 0.35
v 0.05 -0.1 0.35
v 0.05 0 0.35
v 0.15 -0.5 0.35
v 0.15 -0.4 0.35
v 0.15 -0.3 0.35
v 0.15 -0.2 0.35
v 0.15 -0.1 0.35
v 0.15 0 0.35
v 0.25 -0.5 0.35
v 0.25 -0.4 0.35
v -0.25 -0.3 0.25
v -0.25 -0.2 0.25
v -0.15 -0.5 0.25
v -0.15 -0.4 0.25
v -0.15 -0.3 0.25
v -0.15 -0.2 0.25
v -0.15 -0.1 0.25
v -0.15 0 0.25
v -0.15 0.1 0.25
v -0.15 0.2 0.25
v -0.05 -0.3 0.25
v -0.05 -0.2 0.25
v -0.05 -0.1 0.25
v -0.05 0 0.25
v -0.05 0.1 0.25
v -0.05 0.2 0.25
v 0.05 -0.3 0.25
v 0.05 -0.2 0.25
v 0.05 -0.1 0.25
v 0.05 0 0.25
v 0.05 0.1 0.25
v 0.05 0.2 0.25
v 0.15 -0.5 0.25
v 0.15 -0.4 0.25
v 0.15 -0.3 0.25
v 0.15 -0.2 0.25
v 0.15 -0.1 0.25
v 0.15 0 0.25
v 0.15 0.1 0.25
v 0.15 0.2 0.25
v 0.25 -0.3 0.25
v 0.25 -0.2 0.25
v -0.25 -0.4 0.15
v -0.25 -0.3 0.15
v -0.25 -0.2 0.15
v -0.25 -0.1 0.15
v -0.15 -0.4 0.15
v -0.15 -0.3 0.15
v -0.15 -0.2 0.15
v -0.15 -0.1 0.15
v -0.15 0.2 0.15
v -0.15 0.3 0.15
v -0.05 0.1 0.15
v -0.05 0.2 0.15
v -0.05 0.3 0.15
v 0.05 0.1 0.15
v 0.05 0.2 0.15
v 0.05 0.3 0.15
v 0.15 -0.4 0.15
v 0.15 -0.3 0.15
v 0.15 -0.2 0.15
v 0.15 -0.1 0.15
v 0.15 0.2 0.15
v 0.15 0.3 0.15
v 0.25 -0.4 0.15
v 0.25 -0.3 0.15
v 0.25 -0.2 0.15
v 0.25 -0.1 0.15
v -0.15 -0.2 -0.15
v -0.15 0 -0.15
v -0.15 0.1 -0.15
v -0.05 0 -0.15
v -0.05 0.1 -0.15
v -0.05 0.2 -0.15
v 0.05 0 -0.15
v 0.05 0.1 -0.15
v 0.05 0.2 -0.15
v 0.15 -0.2 -0.15
v 0.15 0 -0.15
v 0.15 0.1 -0.15
v -0.15 0.1 -0.25
v -0.15 0.2 -0.25
v -0.05 0.1 -0.25
v -0.05 0.2 -0.25
v -0.05 0.3 -0.25
v 0.05 0.1 -0.25
v 0.05 0.2 -0.25
v 0.05 0.3 -0.25
v 0.15 0.1 -0.25
v 0.15 0.2 -0.25
v -0.25 -0.3 0.05
v -0.25 -0.2 0.05
v -0.15 -0.3 0.05
v -0.15 -0.2 0.05
v -0.15 0 0.05
v -0.15 0.3 0.05
v -0.05 0 0.05
v -0.05 0.1 0.05
v -0.05 0.2 0.05
v -0.05 0.3 0.05
v 0.05 0 0.05
v 0.05 0.1 0.05
v 0.05 0.2 0.05
v 0.05 0.3 0.05
v 0.15 -0.3 0.05
v 0.15 -0.2 0.05
v 0.15 0 0.05
v 0.15 0.3 0.05
v 0.25 -0.3 0.05
v 0.25 -0.2 0.05
v -0.25 -0.5 -0.05
v -0.25 -0.3 -0.05
v -0.25 -0.2 -0.05
v -0.25 -0.1 -0.05
v -0.15 -0.5 -0.05
v -0.15 -0.3 -0.05
v -0.15 -0.2 -0.05
v -0.15 -0.1 -0.05
v -0.15 0 -0.05
v -0.05 0 -0.05
v -0.05 0.1 -0.05
v 0.05 0 -0.05
v 0.05 0.1 -0.05
v 0.15 -0.5 -0.05
v 0.15 -0.3 -0.05
v 0.15 -0.2 -0.05
v 0.15 -0.1 -0.05
v 0.15 0 -0.05
v 0.25 -0.5 -0.05
v 0.25 -0.3 -0.05
v 0.25 -0.2 -0.05
v 0.25 -0.1 -0.05
v -0.15 -0.5 -0.15
v -0.15 -0.4 -0.15
v -0.05 -0.5 -0.15
v -0.05 -0.4 -0.15
v 0.05 -0.5 -0.15
v 0.05 -0.4 -0.15
v 0.15 -0.5 -0.15
v 0.15 -0.4 -0.15
v -0.15 -0.4 -0.25
v -0.15 -0.1 -0.25
v -0.05 -0.5 -0.25
v -0.05 -0.4 -0.25
v 0.05 -0.5 -0.25
v 0.05 -0.4 -0.25
v 0.15 -0.4 -0.25
v 0.15 -0.1 -0.25
v -0.15 -0.1 -0.35
v -0.15 0 -0.35
v -0.15 0.2 -0.35
v -0.05 0.2 -0.35
v -0.05 0.3 -0.35
v 0.05 0.2 -0.35
v 0.05 0.3 -0.35
v 0.15 -0.1 -0.35
v 0.15 0 -0.35
v 0.15 0.2 -0.35
v -0.25 -0.5 0.35
v -0.15 -0.5 0.35
v 0.15 -0.5 0.35
v 0.25 -0.5 0.35
v -0.25 -0.5 0.25
v -0.15 -0.5 0.25
v 0.15 -0.5 0.25
v 0.25 -0.5 0.25
v -0.15 -0.5 0.15
v 0.15 -0.5 0.15
v -0.25 -0.5 -0.05
v -0.15 -0.5 -0.05
v 0.15 -0.5 -0.05
v 0.25 -0.5 -0.05
v -0.15 -0.5 -0.15
v -0.05 -0.5 -0.15
v 0.05 -0.5 -0.15
v 0.15 -0.5 -0.15
v -0.05 -0.5 -0.25
v 0.05 -0.5 -0.25
v -0.15 -0.4 -0.15
v -0.05 -0.4 -0.15
v 0.05 -0.4 -0.15
v 0.15 -0.4 -0.15
v -0.15 -0.4 -0.25
v -0.05 -0.4 -0.25
v 0.05 -0.4 -0.25
v 0.15 -0.4 -0.25
v -0.15 -0.3 0.35
v -0.05 -0.3 0.35
v 0.05 -0.3 0.35
v 0.15 -0.3 0.35
v -0.25 -0.3 0.25
v -0.15 -0.3 0.25
v -0.05 -0.3 0.25
v 0.05 -0.3 0.25
v 0.15 -0.3 0.25
v 0.25 -0.3 0.25
v -0.25 -0.3 0.15
v -0.15 -0.3 0.15
v 0.15 -0.3 0.15
v 0.25 -0.3 0.15
v -0.05 -0.2 0.35
v 0.05 -0.2 0.35
v -0.05 -0.2 0.25
v 0.05 -0.2 0.25
v -0.25 -0.2 0.05
v -0.15 -0.2 0.05
v 0.15 -0.2 0.05
v 0.25 -0.2 0.05
v -0.25 -0.2 -0.05
v -0.15 -0.2 -0.05
v 0.15 -0.2 -0.05
v 0.25 -0.2 -0.05
v -0.15 -0.1 0.35
v -0.05 -0.1 0.35
v 0.05 -0.1 0.35
v 0.15 -0.1 0.35
v -0.15 -0.1 0.25
v -0.05 -0.1 0.25
v 0.05 -0.1 0.25
v 0.15 -0.1 0.25
v -0.15 -0.1 -0.25
v 0.15 -0.1 -0.25
v -0.15 -0.1 -0.35
v 0.15 -0.1 -0.35
v -0.25 -0.4 0.35
v -0.15 -0.4 0.35
v 0.15 -0.4 0.35
v 0.25 -0.4 0.35
v -0.25 -0.4 0.25
v -0.15 -0.4 0.25
v 0.15 -0.4 0.25
v 0.25 -0.4 0.25
v -0.25 -0.4 0.15
v -0.15 -0.4 0.15
v 0.15 -0.4 0.15
v 0.25 -0.4 0.15
v -0.25 -0.3 0.05
v -0.15 -0.3 0.05
v 0.15 -0.3 0.05
v 0.25 -0.3 0.05
v -0.25 -0.3 -0.05
v -0.15 -0.3 -0.05
v 0.15 -0.3 -0.05
v 0.25 -0.3 -0.05
v -0.15 -0.2 0.35
v -0.05 -0.2 0.35
v 0.05 -0.2 0.35
v 0.15 -0.2 0.35
v -0.25 -0.2 0.25
v -0.15 -0.2 0.25
v -0.05 -0.2 0.25
v 0.05 -0.2 0.25
v 0.15 -0.2 0.25
v 0.25 -0.2 0.25
v -0.25 -0.2 0.15
v -0.15 -0.2 0.15
v 0.15 -0.2 0.15
v 0.25 -0.2 0.15
v -0.15 -0.2 -0.05
v 0.15 -0.2 -0.05
v -0.15 -0.2 -0.15
v 0.15 -0.2 -0.15
v -0.25 -0.1 0.15
v -0.15 -0.1 0.15
v 0.15 -0.1 0.15
v 0.25 -0.1 0.15
v -0.25 -0.1 -0.05
v -0.15 -0.1 -0.05
v 0.15 -0.1 -0.05
v 0.25 -0.1 -0.05
v -0.15 0 0.35
v -0.05 0 0.35
v 0.05 0 0.35
v 0.15 0 0.35
v -0.15 0 0.25
v -0.05 0 0.25
v 0.05 0 0.25
v 0.15 0 0.25
v -0.15 0 0.05
v -0.05 0 0.05
v 0.05 0 0.05
v 0.15 0 0.05
v -0.15 0 -0.05
v -0.05 0 -0.05
v 0.05 0 -0.05
v 0.15 0 -0.05
v -0.05 0.1 0.25
v 0.05 0.1 0.25
v -0.05 0.1 0.15
v 0.05 0.1 0.15
v -0.05 0.1 0.05
v 0.05 0.1 0.05
v -0.05 0.1 -0.05
v 0.05 0.1 -0.05
v -0.15 0.1 -0.15
v -0.05 0.1 -0.15
v 0.05 0.1 -0.15
v 0.15 0.1 -0.15
v -0.15 0.1 -0.25
v -0.05 0.1 -0.25
v 0.05 0.1 -0.25
v 0.15 0.1 -0.25
v -0.15 0.2 0.25
v -0.05 0.2 0.25
v 0.05 0.2 0.25
v 0.15 0.2 0.25
v -0.15 0.2 0.15
v -0.05 0.2 0.15
v 0.05 0.2 0.15
v 0.15 0.2 0.15
v -0.05 0.2 0.05
v 0.05 0.2 0.05
v -0.05 0.2 -0.15
v 0.05 0.2 -0.15
v -0.15 0.2 -0.25
v -0.05 0.2 -0.25
v 0.05 0.2 -0.25
v 0.15 0.2 -0.25
v -0.15 0.2 -0.35
v -0.05 0.2 -0.35
v 0.05 0.2 -0.35
v 0.15 0.2 -0.35
v -0.15 0.3 0.15
v -0.05 0.3 0.15
v 0.05 0.3 0.15
v 0.15 0.3 0.15
v -0.15 0.3 0.05
v -0.05 0.3 0.05
v 0.05 0.3 0.05
v 0.15 0.3 0.05
v -0.05 0.3 -0.25
v 0.05 0.3 -0.25
v -0.05 0.3 -0.35
v 0.05 0.3 -0.35

# faces
f 4/3/1 2/3/1 1/3/1
f 5/4/1 3/4/1 2/4/1
f 5/3/1 2/3/1 4/3/1
f 6/4/1 3/4/1 5/4/1
f 7/4/1 3/4/1 6/4/1
f 9/5/1 7/5/1 6/5/1
f 10/4/1 3/4/1 7/4/1
f 10/5/1 7/5/1 9/5/1
f 11/4/1 3/4/1 10/4/1
f 12/4/1 9/4/1 8/4/1
f 12/4/1 10/4/1 9/4/1
f 13/4/1 10/4/1 12/4/1
f 14/4/1 10/4/1 13/4/1
f 16/4/1 15/4/1 14/4/1
f 16/4/1 14/4/1 13/4/1
f 17/4/1 15/4/1 16/4/1
f 22/4/1 19/4/1 18/4/1
f 25/5/1 21/5/1 20/5/1
f 26/5/1 21/5/1 25/5/1
f 28/4/1 23/4/1 22/4/1
f 28/4/1 22/4/1 18/4/1
f 29/3/1 25/3/1 24/3/1
f 30/3/1 25/3/1 29/3/1
f 32/4/1 28/4/1 27/4/1
f 33/4/1 23/4/1 28/4/1
f 33/4/1 28/4/1 32/4/1
f 34/4/1 23/4/1 33/4/1
f 36/5/1 31/5/1 30/5/1
f 37/5/1 31/5/1 36/5/1
f 39/4/1 23/4/1 34/4/1
f 41/4/1 38/4/1 37/4/1
f 41/4/1 36/4/1 35/4/1
f 41/4/1 37/4/1 36/4/1
f 42/4/1 38/4/1 41/4/1
f 43/4/1 38/4/1 42/4/1
f 44/4/1 38/4/1 43/4/1
f 45/4/1 38/4/1 44/4/1
f 46/4/1 40/4/1 39/4/1
f 46/4/1 39/4/1 34/4/1
f 47/4/1 40/4/1 46/4/1
f 48/1/1 43/1/1 42/1/1
f 49/4/1 44/4/1 43/4/1
f 49/1/1 43/1/1 48/1/1
f 50/5/1 47/5/1 46/5/1
f 51/5/1 47/5/1 50/5/1
f 52/4/1 49/4/1 48/4/1
f 53/4/1 44/4/1 49/4/1
f 53/4/1 49/4/1 52/4/1
f 54/5/1 47/5/1 51/5/1
f 55/5/1 47/5/1 54/5/1
f 56/4/1 44/4/1 53/4/1
f 57/4/1 44/4/1 56/4/1
f 60/4/1 59/4/1 58/4/1
f 61/4/1 59/4/1 60/4/1
f 64/2/1 63/2/1 62/2/1
f 65/2/1 63/2/1 64/2/1
f 68/4/1 67/4/1 66/4/1
f 69/4/1 67/4/1 68/4/1
f 72/5/1 71/5/1 70/5/1
f 73/5/1 71/5/1 72/5/1
f 75/5/1 74/5/1 73/5/1
f 76/5/1 74/5/1 75/5/1
f 79/3/1 78/3/1 77/3/1
f 80/3/1 78/3/1 79/3/1
f 83/4/1 82/4/1 81/4/1
f 84/4/1 82/4/1 83/4/1
f 86/4/1 85/4/1 84/4/1
f 87/4/1 85/4/1 86/4/1
f 90/3/1 89/3/1 88/3/1
f 91/3/1 89/3/1 90/3/1
f 92/3/2 93/3/2 94/3/2
f 94/3/2 93/3/2 95/3/2
f 96/3/2 97/3/2 98/3/2
f 98/3/2 97/3/2 99/3/2
f 100/4/2 101/4/2 102/4/2
f 102/4/2 101/4/2 103/4/2
f 103/4/2 104/4/2 105/4/2
f 105/4/2 104/4/2 106/4/2
f 107/4/2 108/4/2 109/4/2
f 109/4/2 108/4/2 110/4/2
f 111/2/2 112/2/2 113/2/2
f 113/2/2 112/2/2 114/2/2
f 115/4/2 116/4/2 117/4/2
f 117/4/2 116/4/2 118/4/2
f 119/5/2 120/5/2 121/5/2
f 121/5/2 120/5/2 122/5/2
f 122/5/2 123/5/2 124/5/2
f 124/5/2 123/5/2 125/5/2
f 126/4/2 127/4/2 130/4/2
f 128/5/2 129/5/2 133/5/2
f 133/5/2 129/5/2 134/5/2
f 130/4/2 131/4/2 136/4/2
f 126/4/2 130/4/2 136/4/2
f 132/3/2 133/3/2 137/3/2
f 137/3/2 133/3/2 138/3/2
f 135/4/2 136/4/2 140/4/2
f 136/4/2 131/4/2 141/4/2
f 140/4/2 136/4/2 141/4/2
f 141/4/2 131/4/2 142/4/2
f 138/5/2 139/5/2 144/5/2
f 144/5/2 139/5/2 145/5/2
f 142/4/2 131/4/2 147/4/2
f 145/4/2 146/4/2 149/4/2
f 143/4/2 144/4/2 149/4/2
f 144/4/2 145/4/2 149/4/2
f 149/4/2 146/4/2 150/4/2
f 150/4/2 146/4/2 151/4/2
f 151/4/2 146/4/2 152/4/2
f 152/4/2 146/4/2 153/4/2
f 147/4/2 148/4/2 154/4/2
f 142/4/2 147/4/2 154/4/2
f 154/4/2 148/4/2 155/4/2
f 150/1/2 151/1/2 156/1/2
f 151/4/2 152/4/2 157/4/2
f 156/1/2 151/1/2 157/1/2
f 154/5/2 155/5/2 158/5/2
f 158/5/2 155/5/2 159/5/2
f 156/4/2 157/4/2 160/4/2
f 157/4/2 152/4/2 161/4/2
f 160/4/2 157/4/2 161/4/2
f 159/5/2 155/5/2 162/5/2
f 162/5/2 155/5/2 163/5/2
f 161/4/2 152/4/2 164/4/2
f 164/4/2 152/4/2 165/4/2
f 166/3/2 167/3/2 169/3/2
f 167/4/2 168/4/2 170/4/2
f 169/3/2 167/3/2 170/3/2
f 170/4/2 168/4/2 171/4/2
f 171/4/2 168/4/2 172/4/2
f 171/5/2 172/5/2 174/5/2
f 172/4/2 168/4/2 175/4/2
f 174/5/2 172/5/2 175/5/2
f 175/4/2 168/4/2 176/4/2
f 173/4/2 174/4/2 177/4/2
f 174/4/2 175/4/2 177/4/2
f 177/4/2 175/4/2 178/4/2
f 178/4/2 175/4/2 179/4/2
f 179/4/2 180/4/2 181/4/2
f 178/4/2 179/4/2 181/4/2
f 181/4/2 180/4/2 182/4/2
f 185/3/3 184/3/3 183/3/3
f 186/3/3 184/3/3 185/3/3
f 191/3/3 188/3/3 187/3/3
f 192/3/3 188/3/3 191/3/3
f 193/4/3 190/4/3 189/4/3
f 194/4/3 190/4/3 193/4/3
f 196/2/3 193/2/3 192/2/3
f 197/1/3 194/1/3 193/1/3
f 197/2/3 193/2/3 196/2/3
f 198/1/3 194/1/3 197/1/3
f 201/3/3 196/3/3 195/3/3
f 202/3/3 196/3/3 201/3/3
f 203/4/3 198/4/3 197/4/3
f 204/4/3 198/4/3 203/4/3
f 205/3/3 200/3/3 199/3/3
f 206/3/3 200/3/3 205/3/3
f 211/4/3 208/4/3 207/4/3
f 212/4/3 208/4/3 211/4/3
f 217/5/3 210/5/3 209/5/3
f 217/5/3 211/5/3 210/5/3
f 218/5/3 213/5/3 212/5/3
f 219/5/3 213/5/3 218/5/3
f 220/1/3 215/1/3 214/1/3
f 221/4/3 216/4/3 215/4/3
f 221/1/3 215/1/3 220/1/3
f 222/4/3 216/4/3 221/4/3
f 223/5/3 217/5/3 209/5/3
f 223/5/3 218/5/3 217/5/3
f 224/5/3 218/5/3 223/5/3
f 226/4/3 221/4/3 220/4/3
f 227/4/3 221/4/3 226/4/3
f 229/5/3 223/5/3 209/5/3
f 230/5/3 223/5/3 229/5/3
f 231/5/3 223/5/3 230/5/3
f 232/5/3 225/5/3 224/5/3
f 233/5/3 225/5/3 232/5/3
f 234/1/3 227/1/3 226/1/3
f 235/4/3 228/4/3 227/4/3
f 235/1/3 227/1/3 234/1/3
f 236/4/3 228/4/3 235/4/3
f 237/4/3 232/4/3 231/4/3
f 238/4/3 232/4/3 237/4/3
f 243/5/3 240/5/3 239/5/3
f 244/5/3 240/5/3 243/5/3
f 245/4/3 242/4/3 241/4/3
f 246/4/3 242/4/3 245/4/3
f 250/4/3 248/4/3 247/4/3
f 251/4/3 248/4/3 250/4/3
f 252/4/3 250/4/3 249/4/3
f 253/4/3 250/4/3 252/4/3
f 259/4/3 254/4/3 253/4/3
f 260/4/3 254/4/3 259/4/3
f 261/5/3 256/5/3 255/5/3
f 262/5/3 256/5/3 261/5/3
f 263/4/3 258/4/3 257/4/3
f 264/4/3 258/4/3 263/4/3
f 268/4/3 266/4/3 265/4/3
f 268/5/3 267/5/3 266/5/3
f 269/5/3 267/5/3 268/5/3
f 271/4/3 268/4/3 265/4/3
f 271/4/3 269/4/3 268/4/3
f 272/5/3 270/5/3 269/5/3
f 272/4/3 269/4/3 271/4/3
f 273/5/3 270/5/3 272/5/3
f 274/4/3 271/4/3 265/4/3
f 275/5/3 272/5/3 271/5/3
f 275/4/3 271/4/3 274/4/3
f 276/5/3 272/5/3 275/5/3
f 279/5/3 278/5/3 277/5/3
f 280/5/3 278/5/3 279/5/3
f 283/5/3 281/5/3 280/5/3
f 284/5/3 281/5/3 283/5/3
f 285/5/3 283/5/3 282/5/3
f 286/5/3 283/5/3 285/5/3
f 287/4/4 288/4/4 289/4/4
f 289/4/4 288/4/4 290/4/4
f 291/4/4 292/4/4 293/4/4
f 293/4/4 292/4/4 294/4/4
f 294/4/4 292/4/4 295/4/4
f 295/4/4 292/4/4 296/4/4
f 294/4/4 295/4/4 298/4/4
f 298/4/4 295/4/4 299/4/4
f 297/4/4 298/4/4 303/4/4
f 298/4/4 299/4/4 303/4/4
f 299/4/4 300/4/4 303/4/4
f 303/4/4 300/4/4 304/4/4
f 301/4/4 302/4/4 305/4/4
f 305/4/4 302/4/4 306/4/4
f 307/4/4 308/4/4 311/4/4
f 311/4/4 308/4/4 312/4/4
f 309/4/4 310/4/4 313/4/4
f 313/4/4 310/4/4 314/4/4
f 314/4/4 315/4/4 316/4/4
f 313/4/4 314/4/4 316/4/4
f 313/4/4 316/4/4 318/4/4
f 316/4/4 317/4/4 318/4/4
f 318/4/4 317/4/4 319/4/4
f 313/4/4 318/4/4 322/4/4
f 322/4/4 318/4/4 323/4/4
f 323/4/4 318/4/4 324/4/4
f 320/4/4 321/4/4 325/4/4
f 325/4/4 321/4/4 326/4/4
f 322/4/4 323/4/4 327/4/4
f 327/4/4 323/4/4 328/4/4
f 329/4/4 330/4/4 331/4/4
f 331/4/4 330/4/4 332/4/4
f 333/4/4 334/4/4 335/4/4
f 335/4/4 334/4/4 336/4/4
f 337/4/4 338/4/4 340/4/4
f 339/4/4 340/4/4 341/4/4
f 340/4/4 338/4/4 342/4/4
f 341/4/4 340/4/4 342/4/4
f 342/4/4 338/4/4 343/4/4
f 343/4/4 338/4/4 344/4/4
f 346/5/4 347/5/4 348/5/4
f 346/5/4 348/5/4 350/5/4
f 348/5/4 349/5/4 350/5/4
f 350/5/4 349/5/4 351/5/4
f 345/4/4 346/4/4 352/4/4
f 346/5/4 350/5/4 353/5/4
f 352/4/4 346/4/4 353/4/4
f 353/5/4 350/5/4 354/5/4
f 359/3/5 356/3/5 355/3/5
f 360/3/5 356/3/5 359/3/5
f 361/3/5 358/3/5 357/3/5
f 362/3/5 358/3/5 361/3/5
f 363/4/5 360/4/5 359/4/5
f 363/5/5 361/5/5 360/5/5
f 364/4/5 362/4/5 361/4/5
f 364/5/5 361/5/5 363/5/5
f 365/4/5 363/4/5 359/4/5
f 365/4/5 364/4/5 363/4/5
f 366/4/5 364/4/5 365/4/5
f 367/4/5 362/4/5 364/4/5
f 367/4/5 364/4/5 366/4/5
f 368/4/5 362/4/5 367/4/5
f 369/4/5 367/4/5 366/4/5
f 370/4/5 367/4/5 369/4/5
f 371/4/5 367/4/5 370/4/5
f 372/4/5 367/4/5 371/4/5
f 373/4/5 371/4/5 370/4/5
f 374/4/5 371/4/5 373/4/5
f 379/4/5 376/4/5 375/4/5
f 380/4/5 376/4/5 379/4/5
f 381/4/5 378/4/5 377/4/5
f 382/4/5 378/4/5 381/4/5
f 388/3/5 384/3/5 383/3/5
f 389/3/5 384/3/5 388/3/5
f 390/3/5 386/3/5 385/3/5
f 391/3/5 386/3/5 390/3/5
f 393/4/5 388/4/5 387/4/5
f 394/4/5 388/4/5 393/4/5
f 395/4/5 392/4/5 391/4/5
f 396/4/5 392/4/5 395/4/5
f 399/2/5 398/2/5 397/2/5
f 400/2/5 398/2/5 399/2/5
f 405/4/5 402/4/5 401/4/5
f 406/4/5 402/4/5 405/4/5
f 407/4/5 404/4/5 403/4/5
f 408/4/5 404/4/5 407/4/5
f 413/4/5 410/4/5 409/4/5
f 414/4/5 410/4/5 413/4/5
f 415/4/5 412/4/5 411/4/5
f 416/4/5 412/4/5 415/4/5
f 419/4/5 418/4/5 417/4/5
f 420/4/5 418/4/5 419/4/5
f 421/3/6 422/3/6 425/3/6
f 425/3/6 422/3/6 426/3/6
f 423/3/6 424/3/6 427/3/6
f 427/3/6 424/3/6 428/3/6
f 425/4/6 426/4/6 429/4/6
f 429/4/6 426/4/6 430/4/6
f 427/4/6 428/4/6 431/4/6
f 431/4/6 428/4/6 432/4/6
f 433/4/6 434/4/6 437/4/6
f 437/4/6 434/4/6 438/4/6
f 435/4/6 436/4/6 439/4/6
f 439/4/6 436/4/6 440/4/6
f 441/3/6 442/3/6 446/3/6
f 446/3/6 442/3/6 447/3/6
f 443/3/6 444/3/6 448/3/6
f 448/3/6 444/3/6 449/3/6
f 445/4/6 446/4/6 451/4/6
f 451/4/6 446/4/6 452/4/6
f 449/4/6 450/4/6 453/4/6
f 453/4/6 450/4/6 454/4/6
f 455/4/6 456/4/6 457/4/6
f 457/4/6 456/4/6 458/4/6
f 459/4/6 460/4/6 463/4/6
f 463/4/6 460/4/6 464/4/6
f 461/4/6 462/4/6 465/4/6
f 465/4/6 462/4/6 466/4/6
f 467/4/6 468/4/6 471/4/6
f 468/1/6 469/1/6 472/1/6
f 471/4/6 468/4/6 472/4/6
f 469/4/6 470/4/6 473/4/6
f 472/1/6 469/1/6 473/1/6
f 473/4/6 470/4/6 474/4/6
f 475/4/6 476/4/6 479/4/6
f 479/4/6 476/4/6 480/4/6
f 477/4/6 478/4/6 481/4/6
f 481/4/6 478/4/6 482/4/6
f 483/4/6 484/4/6 485/4/6
f 485/4/6 484/4/6 486/4/6
f 487/4/6 488/4/6 489/4/6
f 489/4/6 488/4/6 490/4/6
f 491/5/6 492/5/6 495/5/6
f 495/5/6 492/5/6 496/5/6
f 493/5/6 494/5/6 497/5/6
f 497/5/6 494/5/6 498/5/6
f 499/4/6 500/4/6 503/4/6
f 503/4/6 500/4/6 504/4/6
f 501/4/6 502/4/6 505/4/6
f 505/4/6 502/4/6 506/4/6
f 504/4/6 505/4/6 507/4/6
f 507/4/6 505/4/6 508/4/6
f 509/5/6 510/5/6 512/5/6
f 512/5/6 510/5/6 513/5/6
f 511/5/6 512/5/6 515/5/6
f 515/5/6 512/5/6 516/5/6
f 513/5/6 514/5/6 517/5/6
f 517/5/6 514/5/6 518/5/6
f 519/4/6 520/4/6 523/4/6
f 523/4/6 520/4/6 524/4/6
f 521/4/6 522/4/6 525/4/6
f 525/4/6 522/4/6 526/4/6
f 527/5/6 528/5/6 529/5/6
f 529/5/6 528/5/6 530/5/6
