# MagicaVoxel @ Ephtracy

# group
o 

# material
mtllib Snail 2.mtl
usemtl palette

# normals
vn -1 0 0
vn 1 0 0
vn 0 0 1
vn 0 0 -1
vn 0 -1 0
vn 0 1 0

# texcoords
vt 0.0683594 0.5
vt 0.0722656 0.5
vt 0.0761719 0.5
vt 0.0839844 0.5
vt 0.0878906 0.5

# verts
v -0.35 -0.25 0.05
v -0.35 -0.25 -0.05
v -0.35 -0.15 0.15
v -0.35 -0.15 0.05
v -0.35 -0.15 -0.05
v -0.35 -0.15 -0.15
v -0.35 -0.05 0.15
v -0.35 -0.05 0.05
v -0.35 -0.05 -0.05
v -0.35 -0.05 -0.15
v -0.15 -0.45 0.15
v -0.15 -0.45 -0.15
v -0.15 -0.25 0.15
v -0.15 -0.25 0.05
v -0.15 -0.25 -0.05
v -0.15 -0.25 -0.15
v -0.15 -0.15 0.15
v -0.15 -0.15 0.05
v -0.15 -0.15 -0.05
v -0.15 -0.15 -0.15
v -0.05 -0.55 0.15
v -0.05 -0.55 -0.15
v -0.05 -0.45 0.15
v -0.05 -0.45 -0.15
v -0.05 -0.15 0.15
v -0.05 -0.15 -0.15
v -0.05 -0.05 0.15
v -0.05 -0.05 -0.15
v 0.05 -0.05 0.15
v 0.05 -0.05 -0.15
v 0.05 0.05 0.15
v 0.05 0.05 -0.15
v -0.25 -0.15 0.15
v -0.25 -0.15 0.05
v -0.25 -0.15 -0.05
v -0.25 -0.15 -0.15
v -0.25 -0.05 0.15
v -0.25 -0.05 0.05
v -0.25 -0.05 -0.05
v -0.25 -0.05 -0.15
v 0.35 -0.05 0.15
v 0.35 -0.05 -0.15
v 0.35 0.05 0.15
v 0.35 0.05 -0.15
v 0.45 -0.45 0.15
v 0.45 -0.45 -0.15
v 0.45 -0.35 0.15
v 0.45 -0.35 -0.15
v 0.45 -0.15 0.15
v 0.45 -0.15 -0.15
v 0.45 -0.05 0.15
v 0.45 -0.05 -0.15
v 0.55 -0.55 0.15
v 0.55 -0.55 -0.15
v 0.55 -0.45 0.15
v 0.55 -0.45 -0.15
v 0.55 -0.35 0.15
v 0.55 -0.35 -0.15
v 0.55 -0.15 0.15
v 0.55 -0.15 -0.15
v -0.35 -0.15 0.15
v -0.35 -0.05 0.15
v -0.25 -0.15 0.15
v -0.25 -0.05 0.15
v -0.15 -0.45 0.15
v -0.15 -0.25 0.15
v -0.15 -0.15 0.15
v -0.05 -0.55 0.15
v -0.05 -0.45 0.15
v -0.05 -0.35 0.15
v -0.05 -0.25 0.15
v -0.05 -0.15 0.15
v -0.05 -0.05 0.15
v 0.05 -0.35 0.15
v 0.05 -0.25 0.15
v 0.05 -0.15 0.15
v 0.05 -0.05 0.15
v 0.05 0.05 0.15
v 0.15 -0.45 0.15
v 0.15 -0.35 0.15
v 0.15 -0.25 0.15
v 0.15 -0.15 0.15
v 0.15 -0.05 0.15
v 0.15 0.05 0.15
v 0.25 -0.35 0.15
v 0.25 -0.25 0.15
v 0.25 -0.15 0.15
v 0.25 -0.05 0.15
v 0.25 0.05 0.15
v 0.35 -0.45 0.15
v 0.35 -0.35 0.15
v 0.35 -0.25 0.15
v 0.35 -0.15 0.15
v 0.35 -0.05 0.15
v 0.35 0.05 0.15
v 0.45 -0.45 0.15
v 0.45 -0.35 0.15
v 0.45 -0.25 0.15
v 0.45 -0.15 0.15
v 0.45 -0.05 0.15
v 0.55 -0.55 0.15
v 0.55 -0.45 0.15
v 0.55 -0.35 0.15
v 0.55 -0.15 0.15
v -0.35 -0.25 0.05
v -0.35 -0.15 0.05
v -0.25 -0.15 0.05
v -0.15 -0.25 0.05
v -0.15 -0.15 0.05
v -0.35 -0.15 -0.05
v -0.35 -0.05 -0.05
v -0.25 -0.15 -0.05
v -0.25 -0.05 -0.05
v -0.35 -0.15 0.05
v -0.35 -0.05 0.05
v -0.25 -0.15 0.05
v -0.25 -0.05 0.05
v -0.35 -0.25 -0.05
v -0.35 -0.15 -0.05
v -0.25 -0.15 -0.05
v -0.15 -0.25 -0.05
v -0.15 -0.15 -0.05
v -0.35 -0.15 -0.15
v -0.35 -0.05 -0.15
v -0.25 -0.15 -0.15
v -0.25 -0.05 -0.15
v -0.15 -0.45 -0.15
v -0.15 -0.25 -0.15
v -0.15 -0.15 -0.15
v -0.05 -0.55 -0.15
v -0.05 -0.45 -0.15
v -0.05 -0.35 -0.15
v -0.05 -0.25 -0.15
v -0.05 -0.15 -0.15
v -0.05 -0.05 -0.15
v 0.05 -0.35 -0.15
v 0.05 -0.25 -0.15
v 0.05 -0.15 -0.15
v 0.05 -0.05 -0.15
v 0.05 0.05 -0.15
v 0.15 -0.45 -0.15
v 0.15 -0.35 -0.15
v 0.15 -0.25 -0.15
v 0.15 -0.15 -0.15
v 0.15 -0.05 -0.15
v 0.15 0.05 -0.15
v 0.25 -0.35 -0.15
v 0.25 -0.25 -0.15
v 0.25 -0.15 -0.15
v 0.25 -0.05 -0.15
v 0.25 0.05 -0.15
v 0.35 -0.45 -0.15
v 0.35 -0.35 -0.15
v 0.35 -0.25 -0.15
v 0.35 -0.15 -0.15
v 0.35 -0.05 -0.15
v 0.35 0.05 -0.15
v 0.45 -0.45 -0.15
v 0.45 -0.35 -0.15
v 0.45 -0.25 -0.15
v 0.45 -0.15 -0.15
v 0.45 -0.05 -0.15
v 0.55 -0.55 -0.15
v 0.55 -0.45 -0.15
v 0.55 -0.35 -0.15
v 0.55 -0.15 -0.15
v -0.05 -0.55 0.15
v 0.55 -0.55 0.15
v -0.05 -0.55 -0.15
v 0.55 -0.55 -0.15
v -0.15 -0.45 0.15
v -0.05 -0.45 0.15
v -0.15 -0.45 -0.15
v -0.05 -0.45 -0.15
v 0.45 -0.35 0.15
v 0.55 -0.35 0.15
v 0.45 -0.35 -0.15
v 0.55 -0.35 -0.15
v -0.35 -0.25 0.05
v -0.15 -0.25 0.05
v -0.35 -0.25 -0.05
v -0.15 -0.25 -0.05
v -0.35 -0.15 0.15
v -0.25 -0.15 0.15
v -0.35 -0.15 0.05
v -0.25 -0.15 0.05
v -0.35 -0.15 -0.05
v -0.25 -0.15 -0.05
v -0.35 -0.15 -0.15
v -0.25 -0.15 -0.15
v 0.45 -0.45 0.15
v 0.55 -0.45 0.15
v 0.45 -0.45 -0.15
v 0.55 -0.45 -0.15
v -0.15 -0.15 0.15
v -0.05 -0.15 0.15
v 0.45 -0.15 0.15
v 0.55 -0.15 0.15
v -0.35 -0.15 0.05
v -0.25 -0.15 0.05
v -0.15 -0.15 0.05
v -0.35 -0.15 -0.05
v -0.25 -0.15 -0.05
v -0.15 -0.15 -0.05
v -0.15 -0.15 -0.15
v -0.05 -0.15 -0.15
v 0.45 -0.15 -0.15
v 0.55 -0.15 -0.15
v -0.35 -0.05 0.15
v -0.25 -0.05 0.15
v -0.05 -0.05 0.15
v 0.05 -0.05 0.15
v 0.35 -0.05 0.15
v 0.45 -0.05 0.15
v -0.35 -0.05 0.05
v -0.25 -0.05 0.05
v -0.35 -0.05 -0.05
v -0.25 -0.05 -0.05
v -0.35 -0.05 -0.15
v -0.25 -0.05 -0.15
v -0.05 -0.05 -0.15
v 0.05 -0.05 -0.15
v 0.35 -0.05 -0.15
v 0.45 -0.05 -0.15
v 0.05 0.05 0.15
v 0.15 0.05 0.15
v 0.25 0.05 0.15
v 0.35 0.05 0.15
v 0.05 0.05 -0.15
v 0.15 0.05 -0.15
v 0.25 0.05 -0.15
v 0.35 0.05 -0.15

# faces
f 4/5/1 2/5/1 1/5/1
f 5/5/1 2/5/1 4/5/1
f 7/4/1 4/4/1 3/4/1
f 8/4/1 4/4/1 7/4/1
f 9/4/1 6/4/1 5/4/1
f 10/4/1 6/4/1 9/4/1
f 13/5/1 12/5/1 11/5/1
f 14/5/1 12/5/1 13/5/1
f 15/5/1 12/5/1 14/5/1
f 16/5/1 12/5/1 15/5/1
f 17/2/1 14/2/1 13/2/1
f 18/2/1 14/2/1 17/2/1
f 19/2/1 16/2/1 15/2/1
f 20/2/1 16/2/1 19/2/1
f 23/5/1 22/5/1 21/5/1
f 24/5/1 22/5/1 23/5/1
f 27/2/1 26/2/1 25/2/1
f 28/2/1 26/2/1 27/2/1
f 31/2/1 30/2/1 29/2/1
f 32/2/1 30/2/1 31/2/1
f 33/4/2 34/4/2 37/4/2
f 37/4/2 34/4/2 38/4/2
f 35/4/2 36/4/2 39/4/2
f 39/4/2 36/4/2 40/4/2
f 41/2/2 42/2/2 43/2/2
f 43/2/2 42/2/2 44/2/2
f 45/3/2 46/3/2 47/3/2
f 47/3/2 46/3/2 48/3/2
f 49/2/2 50/2/2 51/2/2
f 51/2/2 50/2/2 52/2/2
f 53/5/2 54/5/2 55/5/2
f 55/5/2 54/5/2 56/5/2
f 57/2/2 58/2/2 59/2/2
f 59/2/2 58/2/2 60/2/2
f 63/4/3 62/4/3 61/4/3
f 64/4/3 62/4/3 63/4/3
f 69/5/3 66/5/3 65/5/3
f 70/5/3 66/5/3 69/5/3
f 71/2/3 67/2/3 66/2/3
f 71/5/3 66/5/3 70/5/3
f 72/2/3 67/2/3 71/2/3
f 74/5/3 70/5/3 69/5/3
f 74/5/3 69/5/3 68/5/3
f 74/2/3 71/2/3 70/2/3
f 75/3/3 72/3/3 71/3/3
f 75/2/3 71/2/3 74/2/3
f 76/2/3 73/2/3 72/2/3
f 76/3/3 72/3/3 75/3/3
f 77/2/3 73/2/3 76/2/3
f 79/5/3 74/5/3 68/5/3
f 80/3/3 75/3/3 74/3/3
f 80/5/3 74/5/3 79/5/3
f 81/2/3 76/2/3 75/2/3
f 81/3/3 75/3/3 80/3/3
f 82/3/3 77/3/3 76/3/3
f 82/2/3 76/2/3 81/2/3
f 83/2/3 78/2/3 77/2/3
f 83/3/3 77/3/3 82/3/3
f 84/2/3 78/2/3 83/2/3
f 85/2/3 81/2/3 80/2/3
f 85/2/3 80/2/3 79/2/3
f 86/3/3 82/3/3 81/3/3
f 86/2/3 81/2/3 85/2/3
f 87/2/3 83/2/3 82/2/3
f 87/3/3 82/3/3 86/3/3
f 88/3/3 84/3/3 83/3/3
f 88/2/3 83/2/3 87/2/3
f 89/3/3 84/3/3 88/3/3
f 90/5/3 79/5/3 68/5/3
f 90/2/3 85/2/3 79/2/3
f 91/3/3 86/3/3 85/3/3
f 91/2/3 85/2/3 90/2/3
f 92/2/3 87/2/3 86/2/3
f 92/3/3 86/3/3 91/3/3
f 93/3/3 88/3/3 87/3/3
f 93/2/3 87/2/3 92/2/3
f 94/2/3 89/2/3 88/2/3
f 94/3/3 88/3/3 93/3/3
f 95/2/3 89/2/3 94/2/3
f 96/3/3 91/3/3 90/3/3
f 96/5/3 90/5/3 68/5/3
f 97/2/3 92/2/3 91/2/3
f 97/3/3 91/3/3 96/3/3
f 98/3/3 93/3/3 92/3/3
f 98/2/3 92/2/3 97/2/3
f 99/2/3 94/2/3 93/2/3
f 99/3/3 93/3/3 98/3/3
f 100/2/3 94/2/3 99/2/3
f 101/5/3 96/5/3 68/5/3
f 102/5/3 96/5/3 101/5/3
f 103/2/3 98/2/3 97/2/3
f 103/2/3 99/2/3 98/2/3
f 104/2/3 99/2/3 103/2/3
f 107/5/3 106/5/3 105/5/3
f 108/5/3 107/5/3 105/5/3
f 109/5/3 107/5/3 108/5/3
f 112/4/3 111/4/3 110/4/3
f 113/4/3 111/4/3 112/4/3
f 114/4/4 115/4/4 116/4/4
f 116/4/4 115/4/4 117/4/4
f 118/5/4 119/5/4 120/5/4
f 118/5/4 120/5/4 121/5/4
f 121/5/4 120/5/4 122/5/4
f 123/4/4 124/4/4 125/4/4
f 125/4/4 124/4/4 126/4/4
f 127/5/4 128/5/4 131/5/4
f 131/5/4 128/5/4 132/5/4
f 128/2/4 129/2/4 133/2/4
f 132/5/4 128/5/4 133/5/4
f 133/2/4 129/2/4 134/2/4
f 131/5/4 132/5/4 136/5/4
f 130/5/4 131/5/4 136/5/4
f 132/2/4 133/2/4 136/2/4
f 133/3/4 134/3/4 137/3/4
f 136/2/4 133/2/4 137/2/4
f 134/2/4 135/2/4 138/2/4
f 137/3/4 134/3/4 138/3/4
f 138/2/4 135/2/4 139/2/4
f 130/5/4 136/5/4 141/5/4
f 136/3/4 137/3/4 142/3/4
f 141/5/4 136/5/4 142/5/4
f 137/2/4 138/2/4 143/2/4
f 142/3/4 137/3/4 143/3/4
f 138/3/4 139/3/4 144/3/4
f 143/2/4 138/2/4 144/2/4
f 139/2/4 140/2/4 145/2/4
f 144/3/4 139/3/4 145/3/4
f 145/2/4 140/2/4 146/2/4
f 142/2/4 143/2/4 147/2/4
f 141/2/4 142/2/4 147/2/4
f 143/3/4 144/3/4 148/3/4
f 147/2/4 143/2/4 148/2/4
f 144/2/4 145/2/4 149/2/4
f 148/3/4 144/3/4 149/3/4
f 145/3/4 146/3/4 150/3/4
f 149/2/4 145/2/4 150/2/4
f 150/3/4 146/3/4 151/3/4
f 130/5/4 141/5/4 152/5/4
f 141/2/4 147/2/4 152/2/4
f 147/3/4 148/3/4 153/3/4
f 152/2/4 147/2/4 153/2/4
f 148/2/4 149/2/4 154/2/4
f 153/3/4 148/3/4 154/3/4
f 149/3/4 150/3/4 155/3/4
f 154/2/4 149/2/4 155/2/4
f 150/2/4 151/2/4 156/2/4
f 155/3/4 150/3/4 156/3/4
f 156/2/4 151/2/4 157/2/4
f 152/3/4 153/3/4 158/3/4
f 130/5/4 152/5/4 158/5/4
f 153/2/4 154/2/4 159/2/4
f 158/3/4 153/3/4 159/3/4
f 154/3/4 155/3/4 160/3/4
f 159/2/4 154/2/4 160/2/4
f 155/2/4 156/2/4 161/2/4
f 160/3/4 155/3/4 161/3/4
f 161/2/4 156/2/4 162/2/4
f 130/5/4 158/5/4 163/5/4
f 163/5/4 158/5/4 164/5/4
f 159/2/4 160/2/4 165/2/4
f 160/2/4 161/2/4 165/2/4
f 165/2/4 161/2/4 166/2/4
f 169/5/5 168/5/5 167/5/5
f 170/5/5 168/5/5 169/5/5
f 173/5/5 172/5/5 171/5/5
f 174/5/5 172/5/5 173/5/5
f 177/2/5 176/2/5 175/2/5
f 178/2/5 176/2/5 177/2/5
f 181/5/5 180/5/5 179/5/5
f 182/5/5 180/5/5 181/5/5
f 185/4/5 184/4/5 183/4/5
f 186/4/5 184/4/5 185/4/5
f 189/4/5 188/4/5 187/4/5
f 190/4/5 188/4/5 189/4/5
f 191/5/6 192/5/6 193/5/6
f 193/5/6 192/5/6 194/5/6
f 195/2/6 196/2/6 201/2/6
f 199/5/6 200/5/6 202/5/6
f 200/5/6 201/5/6 202/5/6
f 202/5/6 201/5/6 203/5/6
f 201/2/6 196/2/6 204/2/6
f 203/5/6 201/5/6 204/5/6
f 204/2/6 196/2/6 205/2/6
f 205/2/6 196/2/6 206/2/6
f 197/2/6 198/2/6 207/2/6
f 207/2/6 198/2/6 208/2/6
f 209/4/6 210/4/6 215/4/6
f 215/4/6 210/4/6 216/4/6
f 217/4/6 218/4/6 219/4/6
f 219/4/6 218/4/6 220/4/6
f 211/2/6 212/2/6 221/2/6
f 221/2/6 212/2/6 222/2/6
f 213/2/6 214/2/6 223/2/6
f 223/2/6 214/2/6 224/2/6
f 225/2/6 226/2/6 229/2/6
f 226/3/6 227/3/6 230/3/6
f 229/2/6 226/2/6 230/2/6
f 227/2/6 228/2/6 231/2/6
f 230/3/6 227/3/6 231/3/6
f 231/2/6 228/2/6 232/2/6
