# MagicaVoxel @ Ephtracy

# group
o 

# material
mtllib Snail.mtl
usemtl palette

# normals
vn -1 0 0
vn 1 0 0
vn 0 0 1
vn 0 0 -1
vn 0 -1 0
vn 0 1 0

# texcoords
vt 0.0683594 0.5
vt 0.0722656 0.5
vt 0.0761719 0.5
vt 0.0839844 0.5
vt 0.0878906 0.5

# verts
v -0.45 -0.25 0.05
v -0.45 -0.25 -0.05
v -0.45 -0.15 0.15
v -0.45 -0.15 0.05
v -0.45 -0.15 -0.05
v -0.45 -0.15 -0.15
v -0.45 -0.05 0.15
v -0.45 -0.05 0.05
v -0.45 -0.05 -0.05
v -0.45 -0.05 -0.15
v -0.25 -0.55 0.15
v -0.25 -0.55 -0.15
v -0.25 -0.45 0.15
v -0.25 -0.45 -0.15
v -0.25 -0.35 0.15
v -0.25 -0.35 -0.15
v -0.25 -0.25 0.15
v -0.25 -0.25 0.05
v -0.25 -0.25 -0.05
v -0.25 -0.25 -0.15
v -0.15 -0.45 0.15
v -0.15 -0.45 -0.15
v -0.15 -0.35 0.15
v -0.15 -0.35 -0.15
v -0.15 -0.25 0.15
v -0.15 -0.25 -0.15
v -0.15 -0.15 0.15
v -0.15 -0.15 -0.15
v -0.05 -0.15 0.15
v -0.05 -0.15 -0.15
v -0.05 -0.05 0.15
v -0.05 -0.05 -0.15
v 0.05 -0.05 0.15
v 0.05 -0.05 -0.15
v 0.05 0.05 0.15
v 0.05 0.05 -0.15
v -0.35 -0.15 0.15
v -0.35 -0.15 0.05
v -0.35 -0.15 -0.05
v -0.35 -0.15 -0.15
v -0.35 -0.05 0.15
v -0.35 -0.05 0.05
v -0.35 -0.05 -0.05
v -0.35 -0.05 -0.15
v -0.25 -0.25 0.05
v -0.25 -0.25 -0.05
v -0.25 -0.15 0.05
v -0.25 -0.15 -0.05
v 0.35 -0.55 0.15
v 0.35 -0.55 -0.15
v 0.35 -0.45 0.15
v 0.35 -0.45 -0.15
v 0.35 -0.05 0.15
v 0.35 -0.05 -0.15
v 0.35 0.05 0.15
v 0.35 0.05 -0.15
v 0.45 -0.45 0.15
v 0.45 -0.45 -0.15
v 0.45 -0.35 0.15
v 0.45 -0.35 -0.15
v 0.45 -0.15 0.15
v 0.45 -0.15 -0.15
v 0.45 -0.05 0.15
v 0.45 -0.05 -0.15
v 0.55 -0.35 0.15
v 0.55 -0.35 -0.15
v 0.55 -0.15 0.15
v 0.55 -0.15 -0.15
v -0.45 -0.15 0.15
v -0.45 -0.05 0.15
v -0.35 -0.15 0.15
v -0.35 -0.05 0.15
v -0.25 -0.55 0.15
v -0.25 -0.45 0.15
v -0.25 -0.35 0.15
v -0.25 -0.25 0.15
v -0.15 -0.45 0.15
v -0.15 -0.35 0.15
v -0.15 -0.25 0.15
v -0.15 -0.15 0.15
v -0.05 -0.25 0.15
v -0.05 -0.15 0.15
v -0.05 -0.05 0.15
v 0.05 -0.35 0.15
v 0.05 -0.25 0.15
v 0.05 -0.15 0.15
v 0.05 -0.05 0.15
v 0.05 0.05 0.15
v 0.15 -0.45 0.15
v 0.15 -0.35 0.15
v 0.15 -0.25 0.15
v 0.15 -0.15 0.15
v 0.15 -0.05 0.15
v 0.15 0.05 0.15
v 0.25 -0.35 0.15
v 0.25 -0.25 0.15
v 0.25 -0.15 0.15
v 0.25 -0.05 0.15
v 0.25 0.05 0.15
v 0.35 -0.55 0.15
v 0.35 -0.45 0.15
v 0.35 -0.35 0.15
v 0.35 -0.25 0.15
v 0.35 -0.15 0.15
v 0.35 -0.05 0.15
v 0.35 0.05 0.15
v 0.45 -0.45 0.15
v 0.45 -0.35 0.15
v 0.45 -0.25 0.15
v 0.45 -0.15 0.15
v 0.45 -0.05 0.15
v 0.55 -0.35 0.15
v 0.55 -0.15 0.15
v -0.45 -0.25 0.05
v -0.45 -0.15 0.05
v -0.35 -0.15 0.05
v -0.25 -0.25 0.05
v -0.25 -0.15 0.05
v -0.45 -0.15 -0.05
v -0.45 -0.05 -0.05
v -0.35 -0.15 -0.05
v -0.35 -0.05 -0.05
v -0.45 -0.15 0.05
v -0.45 -0.05 0.05
v -0.35 -0.15 0.05
v -0.35 -0.05 0.05
v -0.45 -0.25 -0.05
v -0.45 -0.15 -0.05
v -0.35 -0.15 -0.05
v -0.25 -0.25 -0.05
v -0.25 -0.15 -0.05
v -0.45 -0.15 -0.15
v -0.45 -0.05 -0.15
v -0.35 -0.15 -0.15
v -0.35 -0.05 -0.15
v -0.25 -0.55 -0.15
v -0.25 -0.45 -0.15
v -0.25 -0.35 -0.15
v -0.25 -0.25 -0.15
v -0.15 -0.45 -0.15
v -0.15 -0.35 -0.15
v -0.15 -0.25 -0.15
v -0.15 -0.15 -0.15
v -0.05 -0.25 -0.15
v -0.05 -0.15 -0.15
v -0.05 -0.05 -0.15
v 0.05 -0.35 -0.15
v 0.05 -0.25 -0.15
v 0.05 -0.15 -0.15
v 0.05 -0.05 -0.15
v 0.05 0.05 -0.15
v 0.15 -0.45 -0.15
v 0.15 -0.35 -0.15
v 0.15 -0.25 -0.15
v 0.15 -0.15 -0.15
v 0.15 -0.05 -0.15
v 0.15 0.05 -0.15
v 0.25 -0.35 -0.15
v 0.25 -0.25 -0.15
v 0.25 -0.15 -0.15
v 0.25 -0.05 -0.15
v 0.25 0.05 -0.15
v 0.35 -0.55 -0.15
v 0.35 -0.45 -0.15
v 0.35 -0.35 -0.15
v 0.35 -0.25 -0.15
v 0.35 -0.15 -0.15
v 0.35 -0.05 -0.15
v 0.35 0.05 -0.15
v 0.45 -0.45 -0.15
v 0.45 -0.35 -0.15
v 0.45 -0.25 -0.15
v 0.45 -0.15 -0.15
v 0.45 -0.05 -0.15
v 0.55 -0.35 -0.15
v 0.55 -0.15 -0.15
v -0.25 -0.55 0.15
v 0.35 -0.55 0.15
v -0.25 -0.55 -0.15
v 0.35 -0.55 -0.15
v 0.35 -0.45 0.15
v 0.45 -0.45 0.15
v 0.35 -0.45 -0.15
v 0.45 -0.45 -0.15
v -0.25 -0.35 0.15
v -0.15 -0.35 0.15
v 0.45 -0.35 0.15
v 0.55 -0.35 0.15
v -0.25 -0.35 -0.15
v -0.15 -0.35 -0.15
v 0.45 -0.35 -0.15
v 0.55 -0.35 -0.15
v -0.45 -0.25 0.05
v -0.25 -0.25 0.05
v -0.45 -0.25 -0.05
v -0.25 -0.25 -0.05
v -0.45 -0.15 0.15
v -0.35 -0.15 0.15
v -0.45 -0.15 0.05
v -0.35 -0.15 0.05
v -0.45 -0.15 -0.05
v -0.35 -0.15 -0.05
v -0.45 -0.15 -0.15
v -0.35 -0.15 -0.15
v -0.25 -0.45 0.15
v -0.15 -0.45 0.15
v -0.25 -0.45 -0.15
v -0.15 -0.45 -0.15
v -0.25 -0.25 0.15
v -0.15 -0.25 0.15
v -0.25 -0.25 0.05
v -0.25 -0.25 -0.05
v -0.25 -0.25 -0.15
v -0.15 -0.25 -0.15
v -0.15 -0.15 0.15
v -0.05 -0.15 0.15
v 0.45 -0.15 0.15
v 0.55 -0.15 0.15
v -0.45 -0.15 0.05
v -0.35 -0.15 0.05
v -0.25 -0.15 0.05
v -0.45 -0.15 -0.05
v -0.35 -0.15 -0.05
v -0.25 -0.15 -0.05
v -0.15 -0.15 -0.15
v -0.05 -0.15 -0.15
v 0.45 -0.15 -0.15
v 0.55 -0.15 -0.15
v -0.45 -0.05 0.15
v -0.35 -0.05 0.15
v -0.05 -0.05 0.15
v 0.05 -0.05 0.15
v 0.35 -0.05 0.15
v 0.45 -0.05 0.15
v -0.45 -0.05 0.05
v -0.35 -0.05 0.05
v -0.45 -0.05 -0.05
v -0.35 -0.05 -0.05
v -0.45 -0.05 -0.15
v -0.35 -0.05 -0.15
v -0.05 -0.05 -0.15
v 0.05 -0.05 -0.15
v 0.35 -0.05 -0.15
v 0.45 -0.05 -0.15
v 0.05 0.05 0.15
v 0.15 0.05 0.15
v 0.25 0.05 0.15
v 0.35 0.05 0.15
v 0.05 0.05 -0.15
v 0.15 0.05 -0.15
v 0.25 0.05 -0.15
v 0.35 0.05 -0.15

# faces
f 4/5/1 2/5/1 1/5/1
f 5/5/1 2/5/1 4/5/1
f 7/4/1 4/4/1 3/4/1
f 8/4/1 4/4/1 7/4/1
f 9/4/1 6/4/1 5/4/1
f 10/4/1 6/4/1 9/4/1
f 13/5/1 12/5/1 11/5/1
f 14/5/1 12/5/1 13/5/1
f 17/5/1 16/5/1 15/5/1
f 18/5/1 16/5/1 17/5/1
f 19/5/1 16/5/1 18/5/1
f 20/5/1 16/5/1 19/5/1
f 23/5/1 22/5/1 21/5/1
f 24/5/1 22/5/1 23/5/1
f 27/2/1 26/2/1 25/2/1
f 28/2/1 26/2/1 27/2/1
f 31/2/1 30/2/1 29/2/1
f 32/2/1 30/2/1 31/2/1
f 35/2/1 34/2/1 33/2/1
f 36/2/1 34/2/1 35/2/1
f 37/4/2 38/4/2 41/4/2
f 41/4/2 38/4/2 42/4/2
f 39/4/2 40/4/2 43/4/2
f 43/4/2 40/4/2 44/4/2
f 45/5/2 46/5/2 47/5/2
f 47/5/2 46/5/2 48/5/2
f 49/5/2 50/5/2 51/5/2
f 51/5/2 50/5/2 52/5/2
f 53/2/2 54/2/2 55/2/2
f 55/2/2 54/2/2 56/2/2
f 57/3/2 58/3/2 59/3/2
f 59/3/2 58/3/2 60/3/2
f 61/2/2 62/2/2 63/2/2
f 63/2/2 62/2/2 64/2/2
f 65/2/2 66/2/2 67/2/2
f 67/2/2 66/2/2 68/2/2
f 71/4/3 70/4/3 69/4/3
f 72/4/3 70/4/3 71/4/3
f 77/5/3 74/5/3 73/5/3
f 78/5/3 76/5/3 75/5/3
f 79/5/3 76/5/3 78/5/3
f 81/2/3 79/2/3 78/2/3
f 81/2/3 80/2/3 79/2/3
f 82/2/3 80/2/3 81/2/3
f 84/5/3 78/5/3 77/5/3
f 84/2/3 81/2/3 78/2/3
f 85/3/3 82/3/3 81/3/3
f 85/2/3 81/2/3 84/2/3
f 86/2/3 83/2/3 82/2/3
f 86/3/3 82/3/3 85/3/3
f 87/2/3 83/2/3 86/2/3
f 89/5/3 77/5/3 73/5/3
f 89/5/3 84/5/3 77/5/3
f 90/3/3 85/3/3 84/3/3
f 90/5/3 84/5/3 89/5/3
f 91/2/3 86/2/3 85/2/3
f 91/3/3 85/3/3 90/3/3
f 92/3/3 87/3/3 86/3/3
f 92/2/3 86/2/3 91/2/3
f 93/2/3 88/2/3 87/2/3
f 93/3/3 87/3/3 92/3/3
f 94/2/3 88/2/3 93/2/3
f 95/2/3 91/2/3 90/2/3
f 95/2/3 90/2/3 89/2/3
f 96/3/3 92/3/3 91/3/3
f 96/2/3 91/2/3 95/2/3
f 97/2/3 93/2/3 92/2/3
f 97/3/3 92/3/3 96/3/3
f 98/3/3 94/3/3 93/3/3
f 98/2/3 93/2/3 97/2/3
f 99/3/3 94/3/3 98/3/3
f 100/5/3 89/5/3 73/5/3
f 101/2/3 95/2/3 89/2/3
f 101/5/3 89/5/3 100/5/3
f 102/3/3 96/3/3 95/3/3
f 102/2/3 95/2/3 101/2/3
f 103/2/3 97/2/3 96/2/3
f 103/3/3 96/3/3 102/3/3
f 104/3/3 98/3/3 97/3/3
f 104/2/3 97/2/3 103/2/3
f 105/2/3 99/2/3 98/2/3
f 105/3/3 98/3/3 104/3/3
f 106/2/3 99/2/3 105/2/3
f 107/3/3 102/3/3 101/3/3
f 108/2/3 103/2/3 102/2/3
f 108/3/3 102/3/3 107/3/3
f 109/3/3 104/3/3 103/3/3
f 109/2/3 103/2/3 108/2/3
f 110/2/3 105/2/3 104/2/3
f 110/3/3 104/3/3 109/3/3
f 111/2/3 105/2/3 110/2/3
f 112/2/3 109/2/3 108/2/3
f 112/2/3 110/2/3 109/2/3
f 113/2/3 110/2/3 112/2/3
f 116/5/3 115/5/3 114/5/3
f 117/5/3 116/5/3 114/5/3
f 118/5/3 116/5/3 117/5/3
f 121/4/3 120/4/3 119/4/3
f 122/4/3 120/4/3 121/4/3
f 123/4/4 124/4/4 125/4/4
f 125/4/4 124/4/4 126/4/4
f 127/5/4 128/5/4 129/5/4
f 127/5/4 129/5/4 130/5/4
f 130/5/4 129/5/4 131/5/4
f 132/4/4 133/4/4 134/4/4
f 134/4/4 133/4/4 135/4/4
f 136/5/4 137/5/4 140/5/4
f 138/5/4 139/5/4 141/5/4
f 141/5/4 139/5/4 142/5/4
f 141/2/4 142/2/4 144/2/4
f 142/2/4 143/2/4 144/2/4
f 144/2/4 143/2/4 145/2/4
f 140/5/4 141/5/4 147/5/4
f 141/2/4 144/2/4 147/2/4
f 144/3/4 145/3/4 148/3/4
f 147/2/4 144/2/4 148/2/4
f 145/2/4 146/2/4 149/2/4
f 148/3/4 145/3/4 149/3/4
f 149/2/4 146/2/4 150/2/4
f 136/5/4 140/5/4 152/5/4
f 140/5/4 147/5/4 152/5/4
f 147/3/4 148/3/4 153/3/4
f 152/5/4 147/5/4 153/5/4
f 148/2/4 149/2/4 154/2/4
f 153/3/4 148/3/4 154/3/4
f 149/3/4 150/3/4 155/3/4
f 154/2/4 149/2/4 155/2/4
f 150/2/4 151/2/4 156/2/4
f 155/3/4 150/3/4 156/3/4
f 156/2/4 151/2/4 157/2/4
f 153/2/4 154/2/4 158/2/4
f 152/2/4 153/2/4 158/2/4
f 154/3/4 155/3/4 159/3/4
f 158/2/4 154/2/4 159/2/4
f 155/2/4 156/2/4 160/2/4
f 159/3/4 155/3/4 160/3/4
f 156/3/4 157/3/4 161/3/4
f 160/2/4 156/2/4 161/2/4
f 161/3/4 157/3/4 162/3/4
f 136/5/4 152/5/4 163/5/4
f 152/2/4 158/2/4 164/2/4
f 163/5/4 152/5/4 164/5/4
f 158/3/4 159/3/4 165/3/4
f 164/2/4 158/2/4 165/2/4
f 159/2/4 160/2/4 166/2/4
f 165/3/4 159/3/4 166/3/4
f 160/3/4 161/3/4 167/3/4
f 166/2/4 160/2/4 167/2/4
f 161/2/4 162/2/4 168/2/4
f 167/3/4 161/3/4 168/3/4
f 168/2/4 162/2/4 169/2/4
f 164/3/4 165/3/4 170/3/4
f 165/2/4 166/2/4 171/2/4
f 170/3/4 165/3/4 171/3/4
f 166/3/4 167/3/4 172/3/4
f 171/2/4 166/2/4 172/2/4
f 167/2/4 168/2/4 173/2/4
f 172/3/4 167/3/4 173/3/4
f 173/2/4 168/2/4 174/2/4
f 171/2/4 172/2/4 175/2/4
f 172/2/4 173/2/4 175/2/4
f 175/2/4 173/2/4 176/2/4
f 179/5/5 178/5/5 177/5/5
f 180/5/5 178/5/5 179/5/5
f 183/3/5 182/3/5 181/3/5
f 184/3/5 182/3/5 183/3/5
f 189/5/5 186/5/5 185/5/5
f 190/5/5 186/5/5 189/5/5
f 191/2/5 188/2/5 187/2/5
f 192/2/5 188/2/5 191/2/5
f 195/5/5 194/5/5 193/5/5
f 196/5/5 194/5/5 195/5/5
f 199/4/5 198/4/5 197/4/5
f 200/4/5 198/4/5 199/4/5
f 203/4/5 202/4/5 201/4/5
f 204/4/5 202/4/5 203/4/5
f 205/5/6 206/5/6 207/5/6
f 207/5/6 206/5/6 208/5/6
f 209/5/6 210/5/6 211/5/6
f 211/5/6 210/5/6 212/5/6
f 212/5/6 210/5/6 213/5/6
f 213/5/6 210/5/6 214/5/6
f 219/5/6 220/5/6 222/5/6
f 220/5/6 221/5/6 222/5/6
f 222/5/6 221/5/6 223/5/6
f 223/5/6 221/5/6 224/5/6
f 215/2/6 216/2/6 225/2/6
f 225/2/6 216/2/6 226/2/6
f 217/2/6 218/2/6 227/2/6
f 227/2/6 218/2/6 228/2/6
f 229/4/6 230/4/6 235/4/6
f 235/4/6 230/4/6 236/4/6
f 237/4/6 238/4/6 239/4/6
f 239/4/6 238/4/6 240/4/6
f 231/2/6 232/2/6 241/2/6
f 241/2/6 232/2/6 242/2/6
f 233/2/6 234/2/6 243/2/6
f 243/2/6 234/2/6 244/2/6
f 245/2/6 246/2/6 249/2/6
f 246/3/6 247/3/6 250/3/6
f 249/2/6 246/2/6 250/2/6
f 247/2/6 248/2/6 251/2/6
f 250/3/6 247/3/6 251/3/6
f 251/2/6 248/2/6 252/2/6
