# MagicaVoxel @ Ephtracy

# group
o 

# material
mtllib Turtle 3.mtl
usemtl palette

# normals
vn -1 0 0
vn 1 0 0
vn 0 0 1
vn 0 0 -1
vn 0 -1 0
vn 0 1 0

# texcoords
vt 0.0175781 0.5
vt 0.142578 0.5
vt 0.146484 0.5
vt 0.150391 0.5

# verts
v -0.55 -0.25 0.05
v -0.55 -0.25 -0.05
v -0.55 -0.15 0.05
v -0.55 -0.15 -0.05
v -0.45 -0.25 0.15
v -0.45 -0.25 0.05
v -0.45 -0.25 -0.05
v -0.45 -0.25 -0.15
v -0.45 -0.15 0.15
v -0.45 -0.15 0.05
v -0.45 -0.15 -0.05
v -0.45 -0.15 -0.15
v -0.45 -0.05 0.15
v -0.45 -0.05 0.05
v -0.45 -0.05 -0.05
v -0.45 -0.05 -0.15
v -0.45 0.05 0.15
v -0.45 0.05 -0.15
v -0.35 -0.55 -0.15
v -0.35 -0.55 -0.25
v -0.35 -0.45 -0.15
v -0.35 -0.45 -0.25
v -0.25 -0.55 0.25
v -0.25 -0.55 0.15
v -0.25 -0.45 0.15
v -0.25 -0.45 -0.15
v -0.25 -0.45 -0.25
v -0.25 -0.25 0.25
v -0.25 -0.25 0.15
v -0.25 -0.25 -0.15
v -0.25 -0.25 -0.25
v -0.15 -0.25 0.25
v -0.15 -0.25 0.15
v -0.15 -0.25 -0.15
v -0.15 -0.25 -0.25
v -0.15 -0.15 0.25
v -0.15 -0.15 0.15
v -0.15 -0.15 0.05
v -0.15 -0.15 -0.05
v -0.15 -0.15 -0.15
v -0.15 -0.15 -0.25
v -0.15 -0.05 0.15
v -0.15 -0.05 0.05
v -0.15 -0.05 -0.05
v -0.15 -0.05 -0.15
v -0.05 -0.15 0.25
v -0.05 -0.15 0.15
v -0.05 -0.15 -0.15
v -0.05 -0.15 -0.25
v -0.05 -0.05 0.25
v -0.05 -0.05 0.15
v -0.05 -0.05 0.05
v -0.05 -0.05 -0.05
v -0.05 -0.05 -0.15
v -0.05 -0.05 -0.25
v -0.05 0.05 0.05
v -0.05 0.05 -0.05
v 0.05 -0.05 0.15
v 0.05 -0.05 0.05
v 0.05 -0.05 -0.05
v 0.05 -0.05 -0.15
v 0.05 0.05 0.15
v 0.05 0.05 0.05
v 0.05 0.05 -0.05
v 0.05 0.05 -0.15
v 0.25 -0.55 0.25
v 0.25 -0.55 0.15
v 0.25 -0.45 0.25
v 0.25 -0.45 0.15
v 0.35 -0.55 -0.15
v 0.35 -0.55 -0.25
v 0.35 -0.45 -0.15
v 0.35 -0.45 -0.25
v -0.25 -0.55 -0.15
v -0.25 -0.55 -0.25
v -0.25 -0.45 -0.15
v -0.25 -0.45 -0.25
v -0.25 -0.15 0.15
v -0.25 -0.15 0.05
v -0.25 -0.15 -0.05
v -0.25 -0.15 -0.15
v -0.25 -0.05 0.05
v -0.25 -0.05 -0.05
v -0.25 0.05 0.15
v -0.25 0.05 -0.15
v -0.15 -0.55 0.25
v -0.15 -0.55 0.15
v -0.15 -0.45 0.25
v -0.15 -0.45 0.15
v 0.15 -0.05 0.15
v 0.15 -0.05 0.05
v 0.15 -0.05 -0.05
v 0.15 -0.05 -0.15
v 0.15 0.05 0.15
v 0.15 0.05 0.05
v 0.15 0.05 -0.05
v 0.15 0.05 -0.15
v 0.25 -0.15 0.25
v 0.25 -0.15 0.15
v 0.25 -0.15 -0.15
v 0.25 -0.15 -0.25
v 0.25 -0.05 0.25
v 0.25 -0.05 0.15
v 0.25 -0.05 0.05
v 0.25 -0.05 -0.05
v 0.25 -0.05 -0.15
v 0.25 -0.05 -0.25
v 0.25 0.05 0.05
v 0.25 0.05 -0.05
v 0.35 -0.55 0.25
v 0.35 -0.55 0.15
v 0.35 -0.45 0.25
v 0.35 -0.45 0.15
v 0.35 -0.25 0.25
v 0.35 -0.25 0.15
v 0.35 -0.25 -0.15
v 0.35 -0.25 -0.25
v 0.35 -0.15 0.25
v 0.35 -0.15 0.15
v 0.35 -0.15 0.05
v 0.35 -0.15 -0.05
v 0.35 -0.15 -0.15
v 0.35 -0.15 -0.25
v 0.35 -0.05 0.15
v 0.35 -0.05 0.05
v 0.35 -0.05 -0.05
v 0.35 -0.05 -0.15
v 0.45 -0.55 -0.15
v 0.45 -0.55 -0.25
v 0.45 -0.45 0.25
v 0.45 -0.45 -0.15
v 0.45 -0.35 0.05
v 0.45 -0.35 -0.05
v 0.45 -0.25 0.25
v 0.45 -0.25 0.15
v 0.45 -0.25 0.05
v 0.45 -0.25 -0.05
v 0.45 -0.25 -0.15
v 0.45 -0.25 -0.25
v 0.45 -0.15 0.15
v 0.45 -0.15 0.05
v 0.45 -0.15 -0.05
v 0.45 -0.15 -0.15
v 0.45 -0.05 0.05
v 0.45 -0.05 -0.05
v 0.55 -0.35 0.05
v 0.55 -0.35 -0.05
v 0.55 -0.25 0.05
v 0.55 -0.25 -0.05
v -0.25 -0.55 0.25
v -0.25 -0.25 0.25
v -0.15 -0.55 0.25
v -0.15 -0.45 0.25
v -0.15 -0.25 0.25
v -0.15 -0.15 0.25
v -0.05 -0.25 0.25
v -0.05 -0.15 0.25
v -0.05 -0.05 0.25
v 0.05 -0.25 0.25
v 0.05 -0.15 0.25
v 0.05 -0.05 0.25
v 0.15 -0.25 0.25
v 0.15 -0.15 0.25
v 0.15 -0.05 0.25
v 0.25 -0.55 0.25
v 0.25 -0.45 0.25
v 0.25 -0.25 0.25
v 0.25 -0.15 0.25
v 0.25 -0.05 0.25
v 0.35 -0.55 0.25
v 0.35 -0.45 0.25
v 0.35 -0.25 0.25
v 0.35 -0.15 0.25
v 0.45 -0.45 0.25
v 0.45 -0.25 0.25
v -0.45 -0.25 0.15
v -0.45 -0.15 0.15
v -0.45 -0.05 0.15
v -0.45 0.05 0.15
v -0.35 -0.15 0.15
v -0.35 -0.05 0.15
v -0.25 -0.25 0.15
v -0.25 -0.15 0.15
v -0.25 0.05 0.15
v -0.15 -0.25 0.15
v -0.15 -0.15 0.15
v -0.15 -0.05 0.15
v -0.05 -0.15 0.15
v -0.05 -0.05 0.15
v 0.05 -0.05 0.15
v 0.05 0.05 0.15
v 0.15 -0.05 0.15
v 0.15 0.05 0.15
v 0.25 -0.15 0.15
v 0.25 -0.05 0.15
v 0.35 -0.25 0.15
v 0.35 -0.15 0.15
v 0.35 -0.05 0.15
v 0.45 -0.25 0.15
v 0.45 -0.15 0.15
v -0.55 -0.25 0.05
v -0.55 -0.15 0.05
v -0.45 -0.25 0.05
v -0.45 -0.15 0.05
v -0.25 -0.15 0.05
v -0.25 -0.05 0.05
v -0.15 -0.15 0.05
v -0.15 -0.05 0.05
v -0.05 -0.05 0.05
v -0.05 0.05 0.05
v 0.05 -0.05 0.05
v 0.05 0.05 0.05
v 0.15 -0.05 0.05
v 0.15 0.05 0.05
v 0.25 -0.05 0.05
v 0.25 0.05 0.05
v 0.35 -0.15 0.05
v 0.35 -0.05 0.05
v 0.45 -0.35 0.05
v 0.45 -0.25 0.05
v 0.45 -0.15 0.05
v 0.45 -0.05 0.05
v 0.55 -0.35 0.05
v 0.55 -0.25 0.05
v -0.35 -0.55 -0.15
v -0.35 -0.45 -0.15
v -0.25 -0.55 -0.15
v -0.25 -0.45 -0.15
v 0.35 -0.55 -0.15
v 0.35 -0.45 -0.15
v 0.45 -0.55 -0.15
v 0.45 -0.45 -0.15
v -0.25 -0.55 0.15
v -0.25 -0.45 0.15
v -0.15 -0.55 0.15
v -0.15 -0.45 0.15
v 0.25 -0.55 0.15
v 0.25 -0.45 0.15
v 0.35 -0.55 0.15
v 0.35 -0.45 0.15
v -0.55 -0.25 -0.05
v -0.55 -0.15 -0.05
v -0.45 -0.25 -0.05
v -0.45 -0.15 -0.05
v -0.25 -0.15 -0.05
v -0.25 -0.05 -0.05
v -0.15 -0.15 -0.05
v -0.15 -0.05 -0.05
v -0.05 -0.05 -0.05
v -0.05 0.05 -0.05
v 0.05 -0.05 -0.05
v 0.05 0.05 -0.05
v 0.15 -0.05 -0.05
v 0.15 0.05 -0.05
v 0.25 -0.05 -0.05
v 0.25 0.05 -0.05
v 0.35 -0.15 -0.05
v 0.35 -0.05 -0.05
v 0.45 -0.35 -0.05
v 0.45 -0.25 -0.05
v 0.45 -0.15 -0.05
v 0.45 -0.05 -0.05
v 0.55 -0.35 -0.05
v 0.55 -0.25 -0.05
v -0.45 -0.25 -0.15
v -0.45 -0.15 -0.15
v -0.45 -0.05 -0.15
v -0.45 0.05 -0.15
v -0.35 -0.15 -0.15
v -0.35 -0.05 -0.15
v -0.25 -0.25 -0.15
v -0.25 -0.15 -0.15
v -0.25 0.05 -0.15
v -0.15 -0.25 -0.15
v -0.15 -0.15 -0.15
v -0.15 -0.05 -0.15
v -0.05 -0.15 -0.15
v -0.05 -0.05 -0.15
v 0.05 -0.05 -0.15
v 0.05 0.05 -0.15
v 0.15 -0.05 -0.15
v 0.15 0.05 -0.15
v 0.25 -0.15 -0.15
v 0.25 -0.05 -0.15
v 0.35 -0.25 -0.15
v 0.35 -0.15 -0.15
v 0.35 -0.05 -0.15
v 0.45 -0.25 -0.15
v 0.45 -0.15 -0.15
v -0.35 -0.55 -0.25
v -0.35 -0.45 -0.25
v -0.25 -0.55 -0.25
v -0.25 -0.45 -0.25
v -0.25 -0.25 -0.25
v -0.15 -0.25 -0.25
v -0.15 -0.15 -0.25
v -0.05 -0.25 -0.25
v -0.05 -0.15 -0.25
v -0.05 -0.05 -0.25
v 0.05 -0.25 -0.25
v 0.05 -0.15 -0.25
v 0.05 -0.05 -0.25
v 0.15 -0.25 -0.25
v 0.15 -0.15 -0.25
v 0.15 -0.05 -0.25
v 0.25 -0.25 -0.25
v 0.25 -0.15 -0.25
v 0.25 -0.05 -0.25
v 0.35 -0.55 -0.25
v 0.35 -0.45 -0.25
v 0.35 -0.25 -0.25
v 0.35 -0.15 -0.25
v 0.45 -0.55 -0.25
v 0.45 -0.25 -0.25
v -0.25 -0.55 0.25
v -0.15 -0.55 0.25
v 0.25 -0.55 0.25
v 0.35 -0.55 0.25
v -0.25 -0.55 0.15
v -0.15 -0.55 0.15
v 0.25 -0.55 0.15
v 0.35 -0.55 0.15
v -0.35 -0.55 -0.15
v -0.25 -0.55 -0.15
v 0.35 -0.55 -0.15
v 0.45 -0.55 -0.15
v -0.35 -0.55 -0.25
v -0.25 -0.55 -0.25
v 0.35 -0.55 -0.25
v 0.45 -0.55 -0.25
v -0.15 -0.45 0.25
v 0.25 -0.45 0.25
v 0.35 -0.45 0.25
v 0.45 -0.45 0.25
v -0.25 -0.45 0.15
v -0.15 -0.45 0.15
v 0.25 -0.45 0.15
v 0.35 -0.45 0.15
v -0.25 -0.45 -0.15
v 0.35 -0.45 -0.15
v 0.45 -0.45 -0.15
v -0.25 -0.45 -0.25
v 0.35 -0.45 -0.25
v 0.45 -0.35 0.05
v 0.55 -0.35 0.05
v 0.45 -0.35 -0.05
v 0.55 -0.35 -0.05
v -0.45 -0.25 0.15
v -0.25 -0.25 0.15
v -0.55 -0.25 0.05
v -0.45 -0.25 0.05
v -0.55 -0.25 -0.05
v -0.45 -0.25 -0.05
v -0.45 -0.25 -0.15
v -0.25 -0.25 -0.15
v -0.35 -0.45 -0.15
v -0.25 -0.45 -0.15
v -0.35 -0.45 -0.25
v -0.25 -0.45 -0.25
v -0.25 -0.25 0.25
v -0.15 -0.25 0.25
v 0.35 -0.25 0.25
v 0.45 -0.25 0.25
v -0.25 -0.25 0.15
v -0.15 -0.25 0.15
v 0.35 -0.25 0.15
v 0.45 -0.25 0.15
v 0.45 -0.25 0.05
v 0.55 -0.25 0.05
v 0.45 -0.25 -0.05
v 0.55 -0.25 -0.05
v -0.25 -0.25 -0.15
v -0.15 -0.25 -0.15
v 0.35 -0.25 -0.15
v 0.45 -0.25 -0.15
v -0.25 -0.25 -0.25
v -0.15 -0.25 -0.25
v 0.35 -0.25 -0.25
v 0.45 -0.25 -0.25
v -0.15 -0.15 0.25
v -0.05 -0.15 0.25
v 0.25 -0.15 0.25
v 0.35 -0.15 0.25
v -0.25 -0.15 0.15
v -0.15 -0.15 0.15
v -0.05 -0.15 0.15
v 0.25 -0.15 0.15
v 0.35 -0.15 0.15
v 0.45 -0.15 0.15
v -0.55 -0.15 0.05
v -0.45 -0.15 0.05
v -0.25 -0.15 0.05
v -0.15 -0.15 0.05
v 0.35 -0.15 0.05
v 0.45 -0.15 0.05
v -0.55 -0.15 -0.05
v -0.45 -0.15 -0.05
v -0.25 -0.15 -0.05
v -0.15 -0.15 -0.05
v 0.35 -0.15 -0.05
v 0.45 -0.15 -0.05
v -0.25 -0.15 -0.15
v -0.15 -0.15 -0.15
v -0.05 -0.15 -0.15
v 0.25 -0.15 -0.15
v 0.35 -0.15 -0.15
v 0.45 -0.15 -0.15
v -0.15 -0.15 -0.25
v -0.05 -0.15 -0.25
v 0.25 -0.15 -0.25
v 0.35 -0.15 -0.25
v -0.05 -0.05 0.25
v 0.05 -0.05 0.25
v 0.15 -0.05 0.25
v 0.25 -0.05 0.25
v -0.15 -0.05 0.15
v -0.05 -0.05 0.15
v 0.05 -0.05 0.15
v 0.15 -0.05 0.15
v 0.25 -0.05 0.15
v 0.35 -0.05 0.15
v -0.25 -0.05 0.05
v -0.15 -0.05 0.05
v -0.05 -0.05 0.05
v 0.05 -0.05 0.05
v 0.15 -0.05 0.05
v 0.25 -0.05 0.05
v 0.35 -0.05 0.05
v 0.45 -0.05 0.05
v -0.25 -0.05 -0.05
v -0.15 -0.05 -0.05
v -0.05 -0.05 -0.05
v 0.05 -0.05 -0.05
v 0.15 -0.05 -0.05
v 0.25 -0.05 -0.05
v 0.35 -0.05 -0.05
v 0.45 -0.05 -0.05
v -0.15 -0.05 -0.15
v -0.05 -0.05 -0.15
v 0.05 -0.05 -0.15
v 0.15 -0.05 -0.15
v 0.25 -0.05 -0.15
v 0.35 -0.05 -0.15
v -0.05 -0.05 -0.25
v 0.05 -0.05 -0.25
v 0.15 -0.05 -0.25
v 0.25 -0.05 -0.25
v -0.45 0.05 0.15
v -0.25 0.05 0.15
v 0.05 0.05 0.15
v 0.15 0.05 0.15
v -0.05 0.05 0.05
v 0.05 0.05 0.05
v 0.15 0.05 0.05
v 0.25 0.05 0.05
v -0.05 0.05 -0.05
v 0.05 0.05 -0.05
v 0.15 0.05 -0.05
v 0.25 0.05 -0.05
v -0.45 0.05 -0.15
v -0.25 0.05 -0.15
v 0.05 0.05 -0.15
v 0.15 0.05 -0.15

# faces
f 3/2/1 2/2/1 1/2/1
f 4/2/1 2/2/1 3/2/1
f 9/2/1 6/2/1 5/2/1
f 10/2/1 6/2/1 9/2/1
f 11/2/1 8/2/1 7/2/1
f 12/2/1 8/2/1 11/2/1
f 13/1/1 10/1/1 9/1/1
f 14/2/1 11/2/1 10/2/1
f 14/1/1 10/1/1 13/1/1
f 15/1/1 12/1/1 11/1/1
f 15/2/1 11/2/1 14/2/1
f 16/1/1 12/1/1 15/1/1
f 17/2/1 14/2/1 13/2/1
f 17/2/1 15/2/1 14/2/1
f 17/2/1 16/2/1 15/2/1
f 18/2/1 16/2/1 17/2/1
f 21/2/1 20/2/1 19/2/1
f 22/2/1 20/2/1 21/2/1
f 25/2/1 24/2/1 23/2/1
f 28/2/1 25/2/1 23/2/1
f 28/2/1 27/2/1 26/2/1
f 28/2/1 26/2/1 25/2/1
f 29/2/1 27/2/1 28/2/1
f 30/2/1 27/2/1 29/2/1
f 31/2/1 27/2/1 30/2/1
f 36/3/1 33/3/1 32/3/1
f 37/3/1 33/3/1 36/3/1
f 40/3/1 35/3/1 34/3/1
f 41/3/1 35/3/1 40/3/1
f 42/3/1 38/3/1 37/3/1
f 43/3/1 38/3/1 42/3/1
f 44/3/1 40/3/1 39/3/1
f 45/3/1 40/3/1 44/3/1
f 50/3/1 47/3/1 46/3/1
f 51/3/1 47/3/1 50/3/1
f 54/3/1 49/3/1 48/3/1
f 55/3/1 49/3/1 54/3/1
f 56/3/1 53/3/1 52/3/1
f 57/3/1 53/3/1 56/3/1
f 62/3/1 59/3/1 58/3/1
f 63/3/1 59/3/1 62/3/1
f 64/3/1 61/3/1 60/3/1
f 65/3/1 61/3/1 64/3/1
f 68/2/1 67/2/1 66/2/1
f 69/2/1 67/2/1 68/2/1
f 72/2/1 71/2/1 70/2/1
f 73/2/1 71/2/1 72/2/1
f 74/2/2 75/2/2 76/2/2
f 76/2/2 75/2/2 77/2/2
f 78/2/2 79/2/2 82/2/2
f 80/2/2 81/2/2 83/2/2
f 78/2/2 82/2/2 84/2/2
f 82/2/2 83/2/2 84/2/2
f 83/2/2 81/2/2 85/2/2
f 84/2/2 83/2/2 85/2/2
f 86/2/2 87/2/2 88/2/2
f 88/2/2 87/2/2 89/2/2
f 90/3/2 91/3/2 94/3/2
f 94/3/2 91/3/2 95/3/2
f 92/3/2 93/3/2 96/3/2
f 96/3/2 93/3/2 97/3/2
f 98/3/2 99/3/2 102/3/2
f 102/3/2 99/3/2 103/3/2
f 100/3/2 101/3/2 106/3/2
f 106/3/2 101/3/2 107/3/2
f 104/3/2 105/3/2 108/3/2
f 108/3/2 105/3/2 109/3/2
f 110/2/2 111/2/2 112/2/2
f 112/2/2 111/2/2 113/2/2
f 114/3/2 115/3/2 118/3/2
f 118/3/2 115/3/2 119/3/2
f 116/3/2 117/3/2 122/3/2
f 122/3/2 117/3/2 123/3/2
f 119/3/2 120/3/2 124/3/2
f 124/3/2 120/3/2 125/3/2
f 121/3/2 122/3/2 126/3/2
f 126/3/2 122/3/2 127/3/2
f 128/2/2 129/2/2 131/2/2
f 130/2/2 131/2/2 132/2/2
f 132/2/2 131/2/2 133/2/2
f 130/2/2 132/2/2 134/2/2
f 134/2/2 132/2/2 135/2/2
f 135/2/2 132/2/2 136/2/2
f 133/2/2 131/2/2 137/2/2
f 131/2/2 129/2/2 138/2/2
f 137/2/2 131/2/2 138/2/2
f 138/2/2 129/2/2 139/2/2
f 135/4/2 136/4/2 140/4/2
f 136/3/2 137/3/2 141/3/2
f 140/4/2 136/4/2 141/4/2
f 137/4/2 138/4/2 142/4/2
f 141/3/2 137/3/2 142/3/2
f 142/4/2 138/4/2 143/4/2
f 141/3/2 142/3/2 144/3/2
f 144/3/2 142/3/2 145/3/2
f 146/2/2 147/2/2 148/2/2
f 148/2/2 147/2/2 149/2/2
f 152/2/3 151/2/3 150/2/3
f 153/2/3 151/2/3 152/2/3
f 154/2/3 151/2/3 153/2/3
f 156/3/3 155/3/3 154/3/3
f 156/2/3 154/2/3 153/2/3
f 157/3/3 155/3/3 156/3/3
f 159/2/3 156/2/3 153/2/3
f 159/4/3 157/4/3 156/4/3
f 160/3/3 158/3/3 157/3/3
f 160/4/3 157/4/3 159/4/3
f 161/3/3 158/3/3 160/3/3
f 162/2/3 159/2/3 153/2/3
f 162/3/3 160/3/3 159/3/3
f 163/4/3 161/4/3 160/4/3
f 163/3/3 160/3/3 162/3/3
f 164/4/3 161/4/3 163/4/3
f 166/2/3 162/2/3 153/2/3
f 167/4/3 163/4/3 162/4/3
f 167/2/3 162/2/3 166/2/3
f 168/3/3 164/3/3 163/3/3
f 168/4/3 163/4/3 167/4/3
f 169/3/3 164/3/3 168/3/3
f 170/2/3 166/2/3 165/2/3
f 170/2/3 167/2/3 166/2/3
f 171/2/3 167/2/3 170/2/3
f 172/3/3 168/3/3 167/3/3
f 172/2/3 167/2/3 171/2/3
f 173/3/3 168/3/3 172/3/3
f 174/2/3 172/2/3 171/2/3
f 175/2/3 172/2/3 174/2/3
f 180/2/3 177/2/3 176/2/3
f 180/1/3 178/1/3 177/1/3
f 181/2/3 179/2/3 178/2/3
f 181/1/3 178/1/3 180/1/3
f 182/2/3 180/2/3 176/2/3
f 182/2/3 181/2/3 180/2/3
f 183/2/3 181/2/3 182/2/3
f 184/2/3 179/2/3 181/2/3
f 184/2/3 181/2/3 183/2/3
f 185/4/3 183/4/3 182/4/3
f 186/4/3 183/4/3 185/4/3
f 188/3/3 187/3/3 186/3/3
f 189/3/3 187/3/3 188/3/3
f 192/3/3 191/3/3 190/3/3
f 193/3/3 191/3/3 192/3/3
f 197/3/3 195/3/3 194/3/3
f 198/3/3 195/3/3 197/3/3
f 199/4/3 197/4/3 196/4/3
f 200/4/3 197/4/3 199/4/3
f 203/2/3 202/2/3 201/2/3
f 204/2/3 202/2/3 203/2/3
f 207/3/3 206/3/3 205/3/3
f 208/3/3 206/3/3 207/3/3
f 211/3/3 210/3/3 209/3/3
f 212/3/3 210/3/3 211/3/3
f 215/3/3 214/3/3 213/3/3
f 216/3/3 214/3/3 215/3/3
f 221/3/3 218/3/3 217/3/3
f 222/3/3 218/3/3 221/3/3
f 223/2/3 220/2/3 219/2/3
f 224/2/3 220/2/3 223/2/3
f 227/2/3 226/2/3 225/2/3
f 228/2/3 226/2/3 227/2/3
f 231/2/3 230/2/3 229/2/3
f 232/2/3 230/2/3 231/2/3
f 233/2/4 234/2/4 235/2/4
f 235/2/4 234/2/4 236/2/4
f 237/2/4 238/2/4 239/2/4
f 239/2/4 238/2/4 240/2/4
f 241/2/4 242/2/4 243/2/4
f 243/2/4 242/2/4 244/2/4
f 245/3/4 246/3/4 247/3/4
f 247/3/4 246/3/4 248/3/4
f 249/3/4 250/3/4 251/3/4
f 251/3/4 250/3/4 252/3/4
f 253/3/4 254/3/4 255/3/4
f 255/3/4 254/3/4 256/3/4
f 257/3/4 258/3/4 261/3/4
f 261/3/4 258/3/4 262/3/4
f 259/2/4 260/2/4 263/2/4
f 263/2/4 260/2/4 264/2/4
f 265/2/4 266/2/4 269/2/4
f 266/1/4 267/1/4 269/1/4
f 267/2/4 268/2/4 270/2/4
f 269/1/4 267/1/4 270/1/4
f 265/2/4 269/2/4 271/2/4
f 269/2/4 270/2/4 271/2/4
f 271/2/4 270/2/4 272/2/4
f 270/2/4 268/2/4 273/2/4
f 272/2/4 270/2/4 273/2/4
f 271/4/4 272/4/4 274/4/4
f 274/4/4 272/4/4 275/4/4
f 275/3/4 276/3/4 277/3/4
f 277/3/4 276/3/4 278/3/4
f 279/3/4 280/3/4 281/3/4
f 281/3/4 280/3/4 282/3/4
f 283/3/4 284/3/4 286/3/4
f 286/3/4 284/3/4 287/3/4
f 285/4/4 286/4/4 288/4/4
f 288/4/4 286/4/4 289/4/4
f 290/2/4 291/2/4 292/2/4
f 292/2/4 291/2/4 293/2/4
f 293/2/4 294/2/4 295/2/4
f 293/2/4 295/2/4 297/2/4
f 295/3/4 296/3/4 297/3/4
f 297/3/4 296/3/4 298/3/4
f 293/2/4 297/2/4 300/2/4
f 297/4/4 298/4/4 300/4/4
f 298/3/4 299/3/4 301/3/4
f 300/4/4 298/4/4 301/4/4
f 301/3/4 299/3/4 302/3/4
f 293/2/4 300/2/4 303/2/4
f 300/3/4 301/3/4 303/3/4
f 301/4/4 302/4/4 304/4/4
f 303/3/4 301/3/4 304/3/4
f 304/4/4 302/4/4 305/4/4
f 293/2/4 303/2/4 306/2/4
f 303/4/4 304/4/4 306/4/4
f 304/3/4 305/3/4 307/3/4
f 306/4/4 304/4/4 307/4/4
f 307/3/4 305/3/4 308/3/4
f 293/2/4 306/2/4 310/2/4
f 306/3/4 307/3/4 311/3/4
f 310/2/4 306/2/4 311/2/4
f 311/3/4 307/3/4 312/3/4
f 309/2/4 310/2/4 313/2/4
f 310/2/4 311/2/4 313/2/4
f 313/2/4 311/2/4 314/2/4
f 319/2/5 316/2/5 315/2/5
f 320/2/5 316/2/5 319/2/5
f 321/2/5 318/2/5 317/2/5
f 322/2/5 318/2/5 321/2/5
f 327/2/5 324/2/5 323/2/5
f 328/2/5 324/2/5 327/2/5
f 329/2/5 326/2/5 325/2/5
f 330/2/5 326/2/5 329/2/5
f 336/2/5 332/2/5 331/2/5
f 337/2/5 332/2/5 336/2/5
f 338/2/5 334/2/5 333/2/5
f 339/2/5 337/2/5 336/2/5
f 339/2/5 338/2/5 337/2/5
f 339/2/5 336/2/5 335/2/5
f 340/2/5 334/2/5 338/2/5
f 340/2/5 338/2/5 339/2/5
f 341/2/5 334/2/5 340/2/5
f 342/2/5 340/2/5 339/2/5
f 343/2/5 340/2/5 342/2/5
f 346/2/5 345/2/5 344/2/5
f 347/2/5 345/2/5 346/2/5
f 351/2/5 349/2/5 348/2/5
f 352/2/5 351/2/5 350/2/5
f 353/2/5 349/2/5 351/2/5
f 353/2/5 351/2/5 352/2/5
f 354/2/5 349/2/5 353/2/5
f 355/2/5 349/2/5 354/2/5
f 356/2/6 357/2/6 358/2/6
f 358/2/6 357/2/6 359/2/6
f 360/2/6 361/2/6 364/2/6
f 364/2/6 361/2/6 365/2/6
f 362/2/6 363/2/6 366/2/6
f 366/2/6 363/2/6 367/2/6
f 368/2/6 369/2/6 370/2/6
f 370/2/6 369/2/6 371/2/6
f 372/2/6 373/2/6 376/2/6
f 376/2/6 373/2/6 377/2/6
f 374/2/6 375/2/6 378/2/6
f 378/2/6 375/2/6 379/2/6
f 380/3/6 381/3/6 385/3/6
f 385/3/6 381/3/6 386/3/6
f 382/3/6 383/3/6 387/3/6
f 387/3/6 383/3/6 388/3/6
f 384/4/6 385/4/6 392/4/6
f 392/4/6 385/4/6 393/4/6
f 388/4/6 389/4/6 394/4/6
f 394/4/6 389/4/6 395/4/6
f 390/2/6 391/2/6 396/2/6
f 396/2/6 391/2/6 397/2/6
f 398/4/6 399/4/6 402/4/6
f 402/4/6 399/4/6 403/4/6
f 400/4/6 401/4/6 406/4/6
f 406/4/6 401/4/6 407/4/6
f 403/3/6 404/3/6 408/3/6
f 408/3/6 404/3/6 409/3/6
f 405/3/6 406/3/6 410/3/6
f 410/3/6 406/3/6 411/3/6
f 412/3/6 413/3/6 417/3/6
f 413/4/6 414/4/6 418/4/6
f 417/3/6 413/3/6 418/3/6
f 414/3/6 415/3/6 419/3/6
f 418/4/6 414/4/6 419/4/6
f 419/3/6 415/3/6 420/3/6
f 416/3/6 417/3/6 423/3/6
f 417/4/6 418/4/6 424/4/6
f 423/3/6 417/3/6 424/3/6
f 424/4/6 418/4/6 425/4/6
f 419/4/6 420/4/6 426/4/6
f 420/3/6 421/3/6 427/3/6
f 426/4/6 420/4/6 427/4/6
f 427/3/6 421/3/6 428/3/6
f 422/3/6 423/3/6 430/3/6
f 423/4/6 424/4/6 431/4/6
f 430/3/6 423/3/6 431/3/6
f 431/4/6 424/4/6 432/4/6
f 427/4/6 428/4/6 435/4/6
f 428/3/6 429/3/6 436/3/6
f 435/4/6 428/4/6 436/4/6
f 436/3/6 429/3/6 437/3/6
f 431/3/6 432/3/6 438/3/6
f 432/4/6 433/4/6 439/4/6
f 438/3/6 432/3/6 439/3/6
f 439/4/6 433/4/6 440/4/6
f 434/4/6 435/4/6 441/4/6
f 435/3/6 436/3/6 442/3/6
f 441/4/6 435/4/6 442/4/6
f 442/3/6 436/3/6 443/3/6
f 439/3/6 440/3/6 444/3/6
f 440/4/6 441/4/6 445/4/6
f 444/3/6 440/3/6 445/3/6
f 441/3/6 442/3/6 446/3/6
f 445/4/6 441/4/6 446/4/6
f 446/3/6 442/3/6 447/3/6
f 450/3/6 451/3/6 453/3/6
f 453/3/6 451/3/6 454/3/6
f 452/3/6 453/3/6 456/3/6
f 453/4/6 454/4/6 457/4/6
f 456/3/6 453/3/6 457/3/6
f 454/3/6 455/3/6 458/3/6
f 457/4/6 454/4/6 458/4/6
f 458/3/6 455/3/6 459/3/6
f 448/2/6 449/2/6 460/2/6
f 460/2/6 449/2/6 461/2/6
f 457/3/6 458/3/6 462/3/6
f 462/3/6 458/3/6 463/3/6
